<svg width="184" height="65" viewBox="0 0 184 65" fill="none" xmlns="http://www.w3.org/2000/svg">
<path d="M93.1558 23.1696C93.2082 23.0123 93.3131 22.855 93.3655 22.7502C93.5227 22.9075 93.6276 23.0647 93.7324 23.1696C93.5752 23.1696 93.3655 23.1696 93.1558 23.1696ZM90.9542 22.8026C91.1639 22.7502 91.3736 22.6454 91.5833 22.593C91.5308 22.6978 91.4784 22.8026 91.426 22.9599C91.2687 22.855 91.1115 22.855 90.9542 22.8026ZM89.3817 21.8067C89.2244 21.597 89.1196 21.4397 89.0671 21.2301C89.0671 21.1776 89.0671 21.1252 89.1196 21.0728C89.1196 21.0728 89.2768 20.968 89.9583 20.9156C90.6397 20.9156 91.2687 21.1252 91.8453 21.4922C91.1639 21.7543 90.4825 22.0163 89.7486 22.226C89.5913 22.0688 89.4865 21.9639 89.3817 21.8067ZM99.3412 14.3108C99.4461 14.2059 99.4985 14.1535 99.6033 14.0487C99.3936 15.2019 98.7122 16.4075 97.6114 17.6132C96.8251 18.4519 95.934 19.2381 94.8332 19.8672C96.2485 17.6656 97.7162 15.7785 99.3412 14.3108ZM84.9261 18.6091C85.922 17.2462 86.9704 16.0406 88.1236 14.9398C88.543 14.5729 88.9623 14.2059 89.3817 13.839C89.2244 15.0971 88.543 16.3551 87.3897 17.6656C86.4462 18.714 85.2406 19.6575 83.8253 20.4438C84.1922 19.7623 84.5591 19.1333 84.9261 18.6091ZM72.1359 22.9599C72.2931 22.6978 72.398 22.4881 72.4504 22.3833L72.8173 21.7018C73.3939 20.601 74.0229 19.6051 74.652 18.6091C75.6479 17.2462 76.6963 16.0406 77.8495 14.9398C80.6801 12.2664 83.5108 10.9036 86.2889 10.9036C87.9664 10.9036 88.9623 11.4277 89.2768 12.4761C88.805 12.7906 88.3857 13.1051 88.0188 13.4197C85.7123 15.2543 83.5632 17.7704 81.7285 20.8631C81.5713 21.1776 81.4664 21.3873 81.3616 21.597C80.6801 21.8591 79.9463 22.1212 79.16 22.3309C78.7406 22.1736 78.4261 22.0163 78.0592 21.8591C77.7447 21.7018 77.4302 21.4922 77.1681 21.2825L77.0632 21.2301H76.9584C76.6963 21.2301 76.5915 21.5446 76.5915 21.7018V21.7543C76.5915 22.226 76.8011 22.4357 76.9584 22.4881C77.1157 22.593 77.2205 22.6454 77.3778 22.6978C76.0673 22.9075 74.7044 23.0647 73.3415 23.0647C72.9746 23.0123 72.5552 23.0123 72.1359 22.9599ZM82.41 22.9599C82.5672 22.6978 82.672 22.4881 82.7245 22.3833L82.9341 21.9639C85.1357 21.0204 86.9704 19.8672 88.3857 18.4519C90.1155 16.7745 91.0066 14.9922 91.0066 13.1576C91.0066 13.0003 91.0066 12.8431 90.9542 12.6334C92.7889 11.4802 94.676 10.8511 96.5106 10.8511C98.3453 10.8511 99.3412 11.4802 99.6033 12.6858C99.2888 12.8955 99.0267 13.1051 98.7646 13.3148C96.5106 15.1495 94.4139 17.5607 92.6316 20.5486C91.7929 20.1293 90.9018 19.9196 89.9058 19.9196C88.2809 19.9196 87.9139 20.601 87.9139 21.1776C87.9139 21.6494 88.0712 22.0688 88.3857 22.4357C86.8656 22.7502 85.293 22.9075 83.6156 22.9075C83.2487 23.0123 82.8293 23.0123 82.41 22.9599ZM94.0993 21.5446C95.934 20.6535 97.4542 19.6051 98.7122 18.4519C100.442 16.7745 101.333 14.9922 101.333 13.1576C101.333 13.0527 101.333 12.9479 101.333 12.7906C103.43 11.4277 105.631 10.7463 107.99 10.7463C108.829 10.7463 109.51 10.956 110.035 11.3229C110.559 11.6898 110.821 12.214 110.821 12.9479C110.821 13.839 110.244 14.9922 109.091 16.4075C107.781 18.0849 106.051 19.5527 103.954 20.7059C101.438 22.1212 98.6598 22.9075 95.6719 23.1171C95.1477 22.5405 94.6235 21.9639 94.0993 21.5446ZM101.123 11.7947C100.652 10.4318 99.3937 9.75035 97.4542 9.75035C96.3534 9.75035 95.2526 9.9076 94.1518 10.2221C93.051 10.5366 91.8978 10.956 90.7445 11.5326C90.2204 10.327 89.0147 9.69793 87.1277 9.69793C86.0269 9.69793 84.9261 9.85518 83.8253 10.1697C80.8374 10.956 78.531 12.6334 77.6923 13.3148C75.3858 15.1495 73.2367 17.6656 71.402 20.7583C71.1923 21.1776 71.0351 21.4397 70.8778 21.7543C70.7206 22.0163 70.5633 22.2784 70.406 22.6454C69.4101 22.4357 68.519 22.1212 67.7851 21.7543C67.4706 21.597 67.1561 21.3873 66.894 21.1776L66.7892 21.1252H66.6843C66.4222 21.1252 66.3174 21.4397 66.3174 21.597V21.6494C66.3174 22.1212 66.5271 22.3309 66.6843 22.3833C67.4706 22.855 68.5714 23.222 69.9867 23.4841C68.8335 25.8429 68.2569 27.4679 68.2569 28.4114C68.2569 28.6735 68.3617 29.0929 68.9907 29.1977H69.0432C69.6198 29.1977 69.9343 28.4639 70.0391 28.2018C70.5633 26.2623 71.1923 24.6897 71.6641 23.6937C72.398 23.7462 73.1842 23.7986 74.023 23.7986C75.6479 23.7986 77.3253 23.5889 79.0027 23.1696C79.3697 23.2744 79.789 23.3792 80.2608 23.4317C79.1076 25.7905 78.531 27.4155 78.531 28.359C78.531 28.5687 78.5834 29.0405 79.2648 29.1453H79.3172C79.8939 29.1453 80.2084 28.4114 80.3132 28.1493C80.8374 26.2099 81.4664 24.6373 81.9382 23.6413C82.7245 23.6937 83.5107 23.7462 84.297 23.7462C85.9744 23.7462 87.6518 23.5365 89.3817 23.1171C89.801 23.3268 90.3252 23.4841 90.9542 23.6413C89.9058 25.8953 89.3817 27.4155 89.3817 28.359C89.3817 28.5687 89.4341 29.0405 90.1155 29.1453H90.1679C90.7445 29.1453 91.0591 28.4114 91.1115 28.1493C91.4784 26.8389 92.0026 25.4236 92.684 23.9034C93.2606 23.9558 93.7848 23.9558 94.309 23.9558C95.4622 25.8429 96.6155 27.6776 97.7687 29.5647C99.3412 32.0808 101.019 33.9678 102.748 35.1735C105.055 36.8509 107.833 37.742 110.978 37.742C112.603 37.742 113.914 37.4799 114.857 36.9033C115.696 36.4315 116.22 35.8025 116.377 35.0686V34.2299V34.1775C116.168 33.0767 115.224 32.1856 113.547 31.4517C111.974 30.7703 110.244 30.4034 108.357 30.4034C107.414 30.4034 106.313 30.5082 105.055 30.7179C103.64 30.98 103.325 31.0848 103.168 31.1372C102.958 31.2945 102.801 31.4517 102.801 31.609C102.801 31.8711 102.958 32.0283 103.22 32.0283C103.273 32.0283 103.325 32.0283 103.482 31.9759C105.055 31.5041 106.575 31.2421 107.885 31.2421C109.877 31.2421 111.607 31.609 113.075 32.3429C114.49 33.0243 115.119 33.863 115.119 34.859C115.119 35.4356 114.805 35.8549 114.123 36.1694C113.232 36.5888 112.236 36.746 111.188 36.746C108.357 36.746 105.841 35.9597 103.797 34.4396C102.329 33.2864 100.809 31.5041 99.3412 29.1453C98.2929 27.4155 97.1921 25.6332 96.0913 23.851C98.7122 23.6413 101.281 22.9599 103.797 21.8591C106.261 20.7583 108.305 19.343 109.877 17.7704C111.502 16.1454 112.289 14.468 112.289 12.9479C112.289 11.9519 111.922 11.1657 111.188 10.5366C110.454 9.96002 109.51 9.64551 108.357 9.64551C105.946 9.75035 103.482 10.4318 101.123 11.7947Z" fill="white"/>
<path d="M91.7928 0.000488281H90.7444C90.0106 0.000488281 89.3291 0.105326 88.6477 0.157745C88.3856 0.210164 87.8614 0.315001 87.8614 0.315001C83.7727 0.944027 79.9462 2.62143 76.7486 5.18995C71.7164 9.2262 68.7285 15.5165 68.5713 22.3309V22.6454L68.8858 22.593H69.1479V22.3309C69.5148 15.0447 73.7083 8.1254 80.051 4.24641C83.3534 2.2545 87.18 1.1537 91.1638 1.1537C97.192 1.1537 103.115 3.61739 107.361 7.91573C111.66 12.2141 113.861 18.2422 113.442 24.5325C112.446 34.7542 105.055 42.8267 94.938 44.6613C93.7323 44.871 92.4743 44.9758 91.2162 44.9758C82.6195 44.9758 74.3898 39.5243 70.8253 31.4518C70.2487 30.1937 69.8293 28.8833 69.5672 27.5204L69.5148 27.2059L68.9906 27.3631V27.7825C70.9301 37.5324 78.9502 44.871 88.9098 46.129C89.5912 46.2339 90.3251 46.2863 91.059 46.2863H92.1073C103.377 46.0242 113.022 36.7985 114.123 25.3188C114.647 17.1939 111.24 9.43587 105.002 4.61334C102.434 2.62143 99.3936 1.25854 96.1436 0.577095C94.7283 0.210164 93.2605 0.000488281 91.7928 0.000488281Z" fill="white"/>
<path d="M91.7853 62.4841C91.5232 62.1172 91.366 61.6979 91.366 61.2785C91.366 61.0688 91.4184 60.9116 91.5232 60.7019C91.6281 60.5446 91.7853 60.3874 91.995 60.2301C92.2571 60.7019 92.5192 61.1213 92.7813 61.4882C93.0434 61.8551 93.2531 62.1696 93.4103 62.4317C93.2531 62.6938 93.0958 62.8511 92.991 62.9035C92.8861 62.9559 92.7813 63.0083 92.6764 63.0083C92.3619 63.0083 92.0474 62.8511 91.7853 62.4841ZM92.4668 58.2382C92.3619 58.0285 92.3095 57.7665 92.3095 57.6092C92.3095 57.3995 92.3619 57.2423 92.4668 57.1374C92.5716 57.0326 92.6765 56.9802 92.8337 56.9802C93.0434 56.9802 93.2006 57.0326 93.3055 57.1898C93.4103 57.3471 93.5151 57.5568 93.5151 57.8189C93.5151 58.0285 93.4627 58.2906 93.3579 58.5003C93.2531 58.71 93.0958 58.8672 92.9385 59.0245C92.6764 58.71 92.5192 58.4479 92.4668 58.2382ZM91.6281 56.8753C91.3136 57.1898 91.1563 57.6092 91.1563 58.0285C91.1563 58.2906 91.2087 58.5527 91.3136 58.8148C91.4184 59.0769 91.5757 59.3914 91.7853 59.7584C91.3136 60.0729 90.8942 60.4398 90.6321 60.8067C90.3176 61.2261 90.1603 61.6454 90.1603 62.0124C90.1603 62.6414 90.3176 63.1132 90.6845 63.5325C91.0515 63.9519 91.4708 64.1615 91.9426 64.1615C92.2571 64.1615 92.5716 64.0567 92.8337 63.7946C93.0958 63.5849 93.4103 63.2704 93.7248 62.7987C93.9869 63.218 94.249 63.5325 94.4587 63.7422C95.0353 64.214 95.6119 64.214 96.0837 63.6898C96.2933 63.4277 96.5554 63.0083 96.8175 62.4317L96.8699 62.3269L96.503 62.0648L96.4506 62.222C96.3458 62.4841 96.2409 62.6938 96.1361 62.7987C96.0312 62.9035 95.9788 62.9559 95.874 62.9559C95.7167 62.9559 95.5071 62.8511 95.245 62.589C94.9829 62.3793 94.7732 62.0124 94.4587 61.5406L94.8256 61.0164C94.878 60.964 94.878 60.9116 94.9305 60.9116C94.9305 61.0164 94.9305 61.0688 94.9305 61.1213C94.9829 61.2785 95.0353 61.4358 95.1926 61.5406C95.2974 61.6454 95.4546 61.6979 95.6119 61.6979C95.8216 61.6979 96.0312 61.593 96.1885 61.4358C96.3458 61.2785 96.3982 61.0688 96.3982 60.8067C96.3982 60.5446 96.2933 60.335 96.1885 60.1777C96.0312 60.0205 95.8216 59.9156 95.6119 59.9156C95.2974 59.9156 94.878 60.2301 94.4587 60.8067C94.4063 60.9116 94.3014 61.0164 94.249 61.0688L93.62 60.0729C93.3055 59.6011 93.2006 59.3914 93.0958 59.2866C93.3579 59.0769 93.5151 58.8672 93.6724 58.6052C93.8297 58.3431 93.9345 58.0285 93.9345 57.714C93.9345 57.2947 93.8297 56.9277 93.62 56.6657C93.4103 56.4036 93.0958 56.2463 92.7289 56.2463C92.3095 56.4036 91.9426 56.5608 91.6281 56.8753ZM71.342 55.5649V57.9761H71.8662V57.3995C71.8662 56.9277 71.971 56.6132 72.1283 56.456C72.2855 56.2987 72.6 56.2463 72.967 56.2463C72.967 56.2463 73.0194 56.2463 73.0718 56.2463C73.7008 56.1939 74.4871 56.1415 75.4307 56.1415C75.4831 56.1415 75.5879 56.1415 75.7976 56.1415C75.9024 56.1415 76.0073 56.1415 76.1121 56.1415C75.7452 56.6657 74.9065 57.9237 72.6525 61.3309L70.4509 64.7382H78.5234V64.3188V64.2664C78.5234 64.214 78.5234 64.214 78.5234 64.1615C78.5234 64.1615 78.5234 64.1091 78.5234 64.0567C78.5234 64.0043 78.5234 63.9519 78.5234 63.9519V62.222H77.9992V63.0608C77.9992 63.3228 77.9468 63.5325 77.8943 63.6898C77.8419 63.7946 77.7371 63.8995 77.5798 63.9519C77.3702 64.0567 77.0556 64.1091 76.5839 64.1615C76.1121 64.214 75.5355 64.214 74.9065 64.214H74.225C74.225 64.214 74.0154 64.214 73.7008 64.1615C73.4912 64.1615 73.2291 64.1615 73.0194 64.1615C74.7492 61.4882 76.1121 59.4439 77.0556 58.0285C78.2613 56.2463 78.471 55.8794 78.5234 55.827L78.3661 55.7221V55.5649H71.342ZM107.878 56.089H108.035C108.821 56.089 108.979 56.1939 109.031 56.1939C109.084 56.2463 109.136 56.3511 109.136 56.7705C109.136 56.8229 109.136 56.9277 109.136 56.9802C109.136 57.085 109.136 57.1374 109.136 57.1898C109.136 57.4519 109.136 57.714 109.136 57.9761C109.136 58.0285 109.136 58.081 109.136 58.081V58.3431C109.136 58.4479 109.136 58.5527 109.136 58.71V58.8148C109.136 58.8672 109.136 59.0245 109.136 59.1293C109.136 59.2866 109.136 59.3914 109.136 59.4963C109.136 59.6535 109.136 59.8632 109.136 60.0729C109.136 60.1253 109.136 60.1253 109.136 60.1253C109.136 60.1777 109.136 60.2301 109.136 60.3874C109.136 60.4922 109.136 60.5971 109.136 60.6495C109.136 60.7019 109.136 60.8067 109.136 60.964C109.136 61.1213 109.136 61.2785 109.136 61.3833C109.136 61.4358 109.136 61.4882 109.136 61.593C109.136 61.6979 109.136 61.8027 109.136 61.8551C109.136 62.0648 109.136 62.3269 109.136 62.589V63.218C109.136 63.8995 109.031 64.0567 108.979 64.0567C108.926 64.1091 108.769 64.1615 108.14 64.1615H107.825V64.6857H113.434C113.487 64.6857 113.487 64.6857 113.539 64.6857C113.696 64.6857 113.696 64.6857 113.854 64.6857C113.906 64.6857 113.958 64.6857 113.958 64.6857C113.958 64.6857 114.011 64.6857 114.063 64.6857C114.116 64.6857 114.168 64.6857 114.221 64.6857C114.273 64.6857 114.325 64.6857 114.43 64.6857C114.483 64.6857 114.535 64.6857 114.535 64.6857H115.479L115.583 62.2745H115.112V62.4317C115.112 62.9559 115.059 63.3228 115.007 63.4801C114.954 63.6374 114.902 63.7422 114.797 63.847C114.692 63.8995 114.483 64.0043 114.063 64.0567C113.696 64.1091 113.172 64.1615 112.596 64.1615H112.019C111.285 64.1615 111.128 64.1091 111.075 64.1091C111.075 64.1091 111.023 64.0567 111.023 63.7422V63.6898C111.023 63.4801 111.023 63.2704 111.023 63.0608V62.9559C111.023 62.8511 111.023 62.7462 111.023 62.6414C111.023 62.4841 111.023 62.3793 111.023 62.3269C111.023 62.2745 111.023 62.1172 111.023 61.7503C111.023 61.4358 111.023 61.1213 111.023 60.8592C111.023 60.7543 111.023 60.7019 111.023 60.5971C111.023 60.4922 111.023 60.4398 111.023 60.4398V60.3874C111.128 60.3874 111.18 60.3874 111.338 60.3874C113.329 60.4398 113.329 61.2261 113.329 61.4882V61.7503H113.801V61.593C113.801 61.5406 113.801 61.4358 113.801 61.2785C113.801 60.7019 113.801 60.335 113.801 60.1253C113.801 59.9156 113.801 59.5487 113.801 58.9721C113.801 58.8672 113.801 58.7624 113.801 58.6576V58.5003H113.329V58.6576C113.329 59.2342 113.225 59.4963 113.12 59.6011C113.015 59.7059 112.753 59.8108 112.124 59.8108C112.071 59.8108 112.071 59.8108 112.019 59.8108C111.967 59.8108 111.914 59.8108 111.914 59.8108C111.914 59.8108 111.757 59.8108 111.6 59.8108C111.39 59.8108 111.233 59.8108 111.075 59.8108C111.075 59.6011 111.075 59.3914 111.075 59.1818C111.075 59.1293 111.075 59.0769 111.075 59.0769C111.075 58.9721 111.075 58.8672 111.075 58.71V57.7664C111.075 57.6616 111.075 57.6092 111.075 57.4519C111.075 57.3471 111.075 57.2947 111.075 57.2947C111.075 57.2423 111.075 57.1374 111.075 57.0326C111.075 56.9278 111.075 56.8753 111.075 56.8229C111.075 56.7705 111.075 56.7181 111.075 56.6132C111.075 56.5084 111.075 56.456 111.075 56.4036V56.1939C111.075 56.0366 111.075 55.9842 111.075 55.9842C111.075 55.9842 111.18 55.9318 111.39 55.9318C113.12 55.9318 113.696 56.089 113.906 56.1939C114.168 56.3511 114.325 56.7181 114.325 57.2423V57.3995H114.797V56.7181C114.797 56.6132 114.797 56.5608 114.797 56.456C114.797 56.4036 114.797 56.3511 114.797 56.3511C114.797 56.3511 114.797 56.2463 114.797 56.1939C114.797 56.089 114.797 56.0366 114.797 55.9842V55.5649L114.588 55.46H107.878V56.089ZM138.857 56.089H139.015C139.801 56.089 139.958 56.1939 140.011 56.1939C140.063 56.2463 140.115 56.3511 140.115 56.7705C140.115 56.8229 140.115 56.9277 140.115 56.9802C140.115 57.085 140.115 57.1374 140.115 57.1898C140.115 57.4519 140.115 57.714 140.115 57.9761C140.115 58.0285 140.115 58.081 140.115 58.081V58.3431C140.115 58.4479 140.115 58.5527 140.115 58.71V58.8148C140.115 58.8672 140.115 59.0245 140.115 59.1818C140.115 59.339 140.115 59.4439 140.115 59.5487C140.115 59.7059 140.115 59.9156 140.115 60.1253C140.115 60.1777 140.115 60.1777 140.115 60.1777C140.115 60.2301 140.115 60.2826 140.115 60.4398C140.115 60.5446 140.115 60.6495 140.115 60.7019C140.115 60.7543 140.115 60.8592 140.115 61.0164C140.115 61.1737 140.115 61.3309 140.115 61.4358C140.115 61.4882 140.115 61.5406 140.115 61.6454C140.115 61.7503 140.115 61.8551 140.115 61.9075C140.115 62.1172 140.115 62.3793 140.115 62.6414V63.2704C140.115 63.9519 140.011 64.1091 140.011 64.1091C139.958 64.1615 139.801 64.214 139.172 64.214H138.857V64.7382H144.466C144.519 64.7382 144.519 64.7382 144.571 64.7382C144.728 64.7382 144.728 64.7382 144.886 64.7382C144.938 64.7382 144.99 64.7382 144.99 64.7382C144.99 64.7382 145.043 64.7382 145.095 64.7382C145.148 64.7382 145.2 64.7382 145.253 64.7382C145.305 64.7382 145.357 64.7382 145.462 64.7382C145.515 64.7382 145.567 64.7382 145.567 64.7382H146.511L146.615 62.3269H146.144V62.4841C146.144 63.0083 146.091 63.3753 146.039 63.5325C145.986 63.6898 145.934 63.7946 145.829 63.847C145.724 63.8995 145.515 64.0043 145.095 64.0567C144.728 64.1091 144.204 64.1615 143.628 64.1615H143.103C142.369 64.1615 142.212 64.1091 142.16 64.1091C142.16 64.1091 142.107 64.0567 142.107 63.7422V63.6898C142.107 63.4801 142.107 63.2704 142.107 63.0608V62.9559C142.107 62.8511 142.107 62.7462 142.107 62.6414C142.107 62.4841 142.107 62.3793 142.107 62.3269C142.107 62.2745 142.107 62.1172 142.107 61.7503C142.107 61.4358 142.107 61.1213 142.107 60.8592C142.107 60.7543 142.107 60.7019 142.107 60.5971C142.107 60.4922 142.107 60.4398 142.107 60.4398V60.3874C142.212 60.3874 142.265 60.3874 142.422 60.3874C144.414 60.4398 144.414 61.2261 144.414 61.4882V61.7503H144.886V61.593C144.886 61.5406 144.886 61.4358 144.886 61.2785C144.886 60.7019 144.886 60.335 144.886 60.1253C144.886 59.9156 144.886 59.5487 144.886 58.9721C144.886 58.8672 144.886 58.7624 144.886 58.6576V58.5003H144.414V58.6576C144.414 59.2342 144.309 59.4963 144.204 59.6011C144.099 59.7059 143.837 59.8108 143.208 59.8108C143.156 59.8108 143.156 59.8108 143.103 59.8108C143.051 59.8108 142.998 59.8108 142.998 59.8108C142.998 59.8108 142.841 59.8108 142.684 59.8108C142.474 59.8108 142.317 59.8108 142.16 59.8108C142.16 59.6011 142.16 59.3914 142.16 59.1818C142.16 59.1293 142.16 59.0769 142.16 59.0769C142.16 58.9721 142.16 58.8672 142.16 58.71C142.16 58.6052 142.16 58.5003 142.16 58.5003V57.7664C142.16 57.6616 142.16 57.6092 142.16 57.5044C142.16 57.3995 142.16 57.3471 142.16 57.3471C142.16 57.2947 142.16 57.1898 142.16 57.085C142.16 56.9802 142.16 56.9277 142.16 56.8753C142.16 56.8229 142.16 56.7705 142.16 56.6657C142.16 56.5608 142.16 56.5084 142.16 56.456V56.2463C142.16 56.089 142.16 56.0366 142.16 56.0366C142.16 56.0366 142.265 55.9842 142.474 55.9842C144.204 55.9842 144.781 56.1415 144.99 56.2463C145.253 56.4036 145.41 56.7705 145.41 57.2947V57.4519H145.882V56.7705C145.882 56.6657 145.882 56.6132 145.882 56.5084V56.4036C145.882 56.4036 145.882 56.2987 145.882 56.2463C145.882 56.1415 145.882 56.089 145.882 56.0366V55.6173L145.672 55.5124H138.962V56.089H138.857ZM166.01 56.089H166.168C166.954 56.089 167.111 56.1939 167.164 56.1939C167.216 56.2463 167.268 56.3511 167.268 56.7705C167.268 56.8229 167.268 56.9277 167.268 56.9802C167.268 57.085 167.268 57.1374 167.268 57.1898C167.268 57.4519 167.268 57.714 167.268 57.9761C167.268 58.0285 167.268 58.081 167.268 58.081V58.3431C167.268 58.4479 167.268 58.5527 167.268 58.71V58.8148C167.268 58.8672 167.268 59.0245 167.268 59.1818C167.268 59.339 167.268 59.4439 167.268 59.5487C167.268 59.7059 167.268 59.9156 167.268 60.1253C167.268 60.1777 167.268 60.1777 167.268 60.1777C167.268 60.2301 167.268 60.2826 167.268 60.4398C167.268 60.5446 167.268 60.6495 167.268 60.7019C167.268 60.7543 167.268 60.8592 167.268 61.0164C167.268 61.1737 167.268 61.3309 167.268 61.4358C167.268 61.4882 167.268 61.5406 167.268 61.6454C167.268 61.7503 167.268 61.8551 167.268 61.9075C167.268 62.1172 167.268 62.3793 167.268 62.6414V63.2704C167.268 63.9519 167.164 64.1091 167.164 64.1091C167.111 64.1615 166.954 64.214 166.325 64.214H166.01V64.7382H171.619C171.672 64.7382 171.672 64.7382 171.724 64.7382C171.881 64.7382 171.881 64.7382 172.039 64.7382C172.091 64.7382 172.143 64.7382 172.143 64.7382C172.143 64.7382 172.196 64.7382 172.248 64.7382C172.301 64.7382 172.353 64.7382 172.405 64.7382C172.458 64.7382 172.51 64.7382 172.615 64.7382C172.668 64.7382 172.72 64.7382 172.72 64.7382H173.663L173.768 62.3269H173.297V62.4841C173.297 63.0083 173.244 63.3753 173.192 63.5325C173.139 63.6898 173.087 63.7946 172.982 63.847C172.877 63.8995 172.668 64.0043 172.248 64.0567C171.881 64.1091 171.357 64.1615 170.78 64.1615H170.204C169.47 64.1615 169.313 64.1091 169.26 64.1091C169.26 64.1091 169.208 64.0567 169.208 63.7422V63.6898C169.208 63.4801 169.208 63.2704 169.208 63.0608V62.9559C169.208 62.8511 169.208 62.7462 169.208 62.6414C169.208 62.4841 169.208 62.3793 169.208 62.3269C169.208 62.2745 169.208 62.1172 169.208 61.7503C169.208 61.4358 169.208 61.1213 169.208 60.8592C169.208 60.7543 169.208 60.7019 169.208 60.5971C169.208 60.4922 169.208 60.4398 169.208 60.4398V60.3874C169.313 60.3874 169.365 60.3874 169.522 60.3874C171.514 60.4398 171.514 61.2261 171.514 61.4882V61.7503H171.986V61.593C171.986 61.5406 171.986 61.4358 171.986 61.2785C171.986 60.7019 171.986 60.335 171.986 60.1253C171.986 59.9156 171.986 59.5487 171.986 58.9721C171.986 58.8672 171.986 58.7624 171.986 58.6576V58.5003H171.514V58.6576C171.514 59.2342 171.409 59.4963 171.305 59.6011C171.2 59.7059 170.938 59.8108 170.309 59.8108C170.256 59.8108 170.256 59.8108 170.204 59.8108C170.151 59.8108 170.099 59.8108 170.099 59.8108C170.099 59.8108 169.942 59.8108 169.785 59.8108C169.575 59.8108 169.418 59.8108 169.26 59.8108C169.26 59.6011 169.26 59.3914 169.26 59.1818C169.26 59.1293 169.26 59.0769 169.26 59.0769C169.26 58.9721 169.26 58.8672 169.26 58.71C169.26 58.6052 169.26 58.5003 169.26 58.5003V57.7664C169.26 57.6616 169.26 57.6092 169.26 57.5044C169.26 57.3995 169.26 57.3471 169.26 57.3471C169.26 57.2947 169.26 57.1898 169.26 57.085C169.26 56.9802 169.26 56.9277 169.26 56.8753C169.26 56.8229 169.26 56.7705 169.26 56.6657C169.26 56.5608 169.26 56.5084 169.26 56.456V56.2463C169.26 56.089 169.26 56.0366 169.26 56.0366C169.26 56.0366 169.365 55.9842 169.575 55.9842C171.305 55.9842 171.881 56.1415 172.091 56.2463C172.353 56.4036 172.51 56.7705 172.51 57.2947V57.4519H172.982V56.7705C172.982 56.6657 172.982 56.6132 172.982 56.5084V56.4036C172.982 56.4036 172.982 56.2987 172.982 56.2463C172.982 56.1415 172.982 56.089 172.982 56.0366V55.6173L172.772 55.5124H166.063V56.089H166.01ZM3.56448 60.2301C3.45964 60.1777 3.3548 60.1253 3.24997 60.0729C3.24997 59.9156 3.24997 59.7584 3.24997 59.5487C3.24997 59.339 3.24997 59.1818 3.24997 59.0769C3.24997 59.0769 3.24997 58.9721 3.24997 58.9197C3.24997 58.8148 3.24997 58.7624 3.24997 58.71C3.24997 58.6576 3.24997 58.6051 3.24997 58.5003C3.24997 58.3955 3.24997 58.3431 3.24997 58.2382V57.6616C3.24997 57.6092 3.24997 57.5044 3.24997 57.3471C3.24997 57.1898 3.24997 57.0326 3.24997 56.9277C3.24997 56.8753 3.24997 56.7705 3.24997 56.6657C3.24997 56.5608 3.24997 56.5084 3.24997 56.456C3.24997 56.089 3.30238 56.0366 3.30238 56.0366C3.30238 56.0366 3.40722 55.9842 3.82657 55.9842C4.35076 55.9842 4.77011 56.1415 5.08462 56.5608C5.39914 56.9277 5.55639 57.4519 5.55639 58.1334C5.55639 58.7624 5.39914 59.2866 5.08462 59.6535C4.77011 60.0205 4.4556 60.2301 4.03625 60.2301C3.82657 60.2826 3.66932 60.2826 3.56448 60.2301ZM0 56.089H0.41935C0.995957 56.089 1.15321 56.1939 1.15321 56.2463C1.20563 56.2987 1.31047 56.5084 1.31047 57.4519C1.31047 57.5568 1.31047 57.6616 1.31047 57.7664C1.31047 57.8713 1.31047 57.9761 1.31047 57.9761C1.31047 58.1334 1.31047 58.2382 1.31047 58.3955V58.4479C1.31047 58.5003 1.31047 58.6051 1.31047 58.7624C1.31047 58.9721 1.31047 59.1293 1.31047 59.2866C1.31047 59.339 1.31047 59.4439 1.31047 59.5487C1.31047 59.6535 1.31047 59.7059 1.31047 59.7059C1.31047 59.9156 1.31047 60.1777 1.31047 60.4398V60.5971C1.31047 60.6495 1.31047 60.7543 1.31047 60.964C1.31047 61.1213 1.31047 61.2785 1.31047 61.3309V63.3753C1.31047 63.8995 1.20563 64.0567 1.20563 64.0567C1.15321 64.1091 0.995957 64.1615 0.41935 64.1615H0V64.6857H0.157256C0.314513 64.6857 0.524188 64.6857 0.786282 64.6857C1.52015 64.6857 1.99191 64.6857 2.25401 64.6857C2.67336 64.6857 3.04029 64.6857 3.40722 64.6857C3.77415 64.6857 4.08867 64.6857 4.4556 64.6857H4.61285V64.1615H4.03625C3.51206 64.1615 3.3548 64.0567 3.3548 64.0567C3.30238 64.0043 3.24997 63.847 3.24997 63.3228V62.9559C3.24997 62.9559 3.24997 62.9035 3.24997 62.7987C3.24997 62.7462 3.24997 62.6414 3.24997 62.589C3.24997 62.589 3.24997 62.5366 3.24997 62.4317C3.24997 62.3269 3.24997 62.2745 3.24997 62.222C3.24997 62.1696 3.24997 62.1696 3.24997 62.0648C3.24997 62.0124 3.24997 61.96 3.24997 61.9075C3.24997 61.8551 3.24997 61.8551 3.24997 61.7503C3.24997 61.6979 3.24997 61.6454 3.24997 61.593C3.24997 61.5406 3.24997 61.4358 3.24997 61.3309C3.24997 61.2261 3.24997 61.2261 3.24997 61.1737C3.24997 61.0688 3.24997 60.964 3.24997 60.8067V60.7543C3.24997 60.7019 3.24997 60.5971 3.24997 60.5446C3.40722 60.5971 3.51206 60.5971 3.66932 60.6495C3.87899 60.7019 4.08867 60.7019 4.29834 60.7019C5.24188 60.7019 5.97574 60.4398 6.55235 59.968C7.12896 59.4439 7.39105 58.8148 7.39105 57.9761C7.39105 57.1898 7.12896 56.5608 6.55235 56.089C5.97574 55.6173 5.24188 55.4076 4.29834 55.4076C4.1935 55.4076 3.93141 55.4076 3.40722 55.4076C2.93545 55.4076 2.5161 55.4076 2.14917 55.4076C1.83466 55.4076 1.52015 55.4076 1.20563 55.4076C0.89112 55.4076 0.576607 55.4076 0.209675 55.3552H0V56.089H0ZM48.6971 60.2301C48.5922 60.1777 48.4874 60.1253 48.3826 60.0729C48.3826 59.9156 48.3826 59.7584 48.3826 59.5487C48.3826 59.339 48.3826 59.1818 48.3826 59.0769C48.3826 59.0769 48.3826 58.9721 48.3826 58.9197C48.3826 58.8148 48.3826 58.7624 48.3826 58.71C48.3826 58.6576 48.3826 58.6051 48.3826 58.5003C48.3826 58.3955 48.3826 58.3431 48.3826 58.2382V57.6616C48.3826 57.6092 48.3826 57.5044 48.3826 57.3471C48.3826 57.1898 48.3826 57.0326 48.3826 56.9277C48.3826 56.8753 48.3826 56.7705 48.3826 56.6657C48.3826 56.5608 48.3826 56.5084 48.3826 56.456C48.3826 56.089 48.435 56.0366 48.435 56.0366C48.435 56.0366 48.5398 55.9842 48.9592 55.9842C49.4834 55.9842 49.9027 56.1415 50.2172 56.5608C50.5317 56.9277 50.689 57.4519 50.689 58.1334C50.689 58.7624 50.5317 59.2866 50.2172 59.6535C49.9551 60.0205 49.5882 60.2301 49.1688 60.2301C49.0116 60.2826 48.8543 60.2826 48.6971 60.2301ZM45.1326 56.089H45.5519C46.1285 56.089 46.2858 56.1939 46.2858 56.2463C46.3382 56.2987 46.4431 56.5084 46.4431 57.4519C46.4431 57.5568 46.4431 57.6616 46.4431 57.7664C46.4431 57.9237 46.4431 57.9761 46.4431 57.9761C46.4431 58.1334 46.4431 58.2382 46.4431 58.3955V58.4479C46.4431 58.5003 46.4431 58.6051 46.4431 58.7624C46.4431 58.9721 46.4431 59.1293 46.4431 59.2866C46.4431 59.339 46.4431 59.4439 46.4431 59.5487C46.4431 59.6535 46.4431 59.7059 46.4431 59.7059C46.4431 59.9156 46.4431 60.1777 46.4431 60.4398V60.5971C46.4431 60.6495 46.4431 60.7543 46.4431 60.964C46.4431 61.1213 46.4431 61.2785 46.4431 61.3309V63.3753C46.4431 63.8995 46.3382 64.0567 46.3382 64.0567C46.2858 64.1091 46.1285 64.1615 45.5519 64.1615H45.185V64.6857H45.3423C45.4995 64.6857 45.7092 64.6857 45.9713 64.6857C46.7052 64.6857 47.1769 64.6857 47.439 64.6857C47.8584 64.6857 48.2253 64.6857 48.5922 64.6857C48.9592 64.6857 49.2737 64.6857 49.6406 64.6857H49.7979V64.1615H49.2213C48.6971 64.1615 48.5398 64.0567 48.5398 64.0567C48.4874 64.0043 48.435 63.847 48.435 63.3228V62.9559C48.435 62.9559 48.435 62.9035 48.435 62.8511V62.7987C48.435 62.7462 48.435 62.6414 48.435 62.589C48.435 62.589 48.435 62.5366 48.435 62.4317C48.435 62.3269 48.435 62.2745 48.435 62.222C48.435 62.1696 48.435 62.1696 48.435 62.0648C48.435 62.0124 48.435 61.96 48.435 61.9075C48.435 61.8551 48.435 61.8551 48.435 61.7503C48.435 61.6979 48.435 61.6454 48.435 61.593C48.435 61.5406 48.435 61.4358 48.435 61.3309C48.435 61.2261 48.435 61.2261 48.435 61.1737C48.435 61.0688 48.435 60.964 48.435 60.8067V60.7543C48.435 60.7019 48.435 60.5971 48.435 60.5446C48.5922 60.5971 48.6971 60.5971 48.8543 60.6495C49.064 60.7019 49.2737 60.7019 49.4834 60.7019C50.4269 60.7019 51.1608 60.4398 51.7374 59.968C52.314 59.4439 52.5761 58.8148 52.5761 57.9761C52.5761 57.1898 52.314 56.5608 51.7374 56.089C51.1608 55.6173 50.4269 55.4076 49.4834 55.4076C49.3785 55.4076 49.1164 55.4076 48.5922 55.4076C48.1205 55.4076 47.7011 55.4076 47.3342 55.4076C47.0197 55.4076 46.7052 55.4076 46.3906 55.4076C46.0761 55.4076 45.7616 55.4076 45.3947 55.3552H45.185V56.089H45.1326ZM32.3948 55.5124C32.2376 55.5124 32.0803 55.5124 31.8706 55.5124C31.7134 55.5124 31.4513 55.5124 31.0844 55.5124H29.7215C29.4069 55.5124 29.1449 55.5124 28.9352 55.5124C28.7779 55.5124 28.5682 55.5124 28.411 55.5124H28.2013V56.089H28.6207C29.0924 56.089 29.1973 56.1939 29.2497 56.1939C29.2497 56.1939 29.3545 56.3511 29.3545 57.085V57.1898C29.3545 57.3995 29.3545 57.6616 29.3545 57.8713V58.3431C29.3545 58.3955 29.3545 58.5527 29.3545 58.71C29.3545 58.8672 29.3545 59.0245 29.3545 59.1293C29.3545 59.4439 29.3545 59.7059 29.3545 60.0205C29.3545 60.0729 29.3545 60.1253 29.3545 60.1253C29.3545 60.2301 29.3545 60.3874 29.3545 60.5446C29.3545 60.7019 29.3545 60.8067 29.3545 60.8592C29.3545 61.0164 29.3545 61.1737 29.3545 61.3833V61.4882C29.3545 61.6979 29.3545 61.96 29.3545 62.1696V62.7987C29.3545 63.847 29.2497 64.0567 29.2497 64.1091C29.1973 64.1615 29.0924 64.2664 28.6207 64.2664C28.6207 64.2664 28.5682 64.2664 28.5158 64.2664C28.4634 64.2664 28.411 64.2664 28.3586 64.2664H28.2013V64.7906H28.3586C28.6731 64.7906 28.9876 64.7906 29.3021 64.7906C29.6166 64.7906 29.9311 64.7906 30.3505 64.7906C30.7174 64.7906 31.0844 64.7906 31.3989 64.7906C31.7134 64.7906 32.0279 64.7906 32.3424 64.7906H32.4997V64.2664H32.3424C32.29 64.2664 32.2376 64.2664 32.1851 64.2664C32.1327 64.2664 32.0803 64.2664 32.0803 64.2664C31.661 64.2664 31.5037 64.1615 31.5037 64.1091C31.5037 64.1091 31.3989 63.8995 31.3989 63.0608V61.3833C31.3989 61.3309 31.3989 61.2261 31.3989 61.0688C31.3989 60.9116 31.3989 60.7543 31.3989 60.5971C31.3989 60.5971 31.3989 60.5446 31.3989 60.4922C31.3989 60.2301 31.3989 59.968 31.3989 59.7059C31.3989 59.5487 31.3989 59.3914 31.3989 59.1818V58.8148C31.3989 58.6051 31.3989 58.3431 31.3989 58.1334V57.8189C31.3989 57.6092 31.3989 57.4519 31.3989 57.2423C31.3989 57.1898 31.3989 57.1374 31.3989 57.1374V56.9802C31.3989 56.2987 31.5037 56.1939 31.5037 56.1939C31.5561 56.1415 31.661 56.089 32.1327 56.089H32.5521V55.5124H32.3948ZM127.587 55.5124C127.43 55.5124 127.273 55.5124 127.063 55.5124C126.906 55.5124 126.644 55.5124 126.277 55.5124H124.914C124.6 55.5124 124.337 55.5124 124.128 55.5124C123.97 55.5124 123.761 55.5124 123.604 55.5124H123.394V56.089H123.813C124.285 56.089 124.39 56.1939 124.442 56.1939C124.442 56.1939 124.547 56.3511 124.547 57.085V57.1898C124.547 57.3995 124.547 57.6616 124.547 57.8713V58.3431C124.547 58.3955 124.547 58.5527 124.547 58.71C124.547 58.8672 124.547 59.0245 124.547 59.1293C124.547 59.4439 124.547 59.7059 124.547 60.0205C124.547 60.0729 124.547 60.1253 124.547 60.1253C124.547 60.2301 124.547 60.3874 124.547 60.5446C124.547 60.7019 124.547 60.8067 124.547 60.8592C124.547 61.0164 124.547 61.1737 124.547 61.3833V61.4882C124.547 61.6979 124.547 61.96 124.547 62.1696V62.7987C124.547 63.847 124.442 64.0567 124.442 64.1091C124.39 64.1615 124.285 64.2664 123.813 64.2664C123.813 64.2664 123.761 64.2664 123.708 64.2664C123.656 64.2664 123.604 64.2664 123.551 64.2664H123.394V64.7906H123.551C123.866 64.7906 124.18 64.7906 124.495 64.7906C124.809 64.7906 125.124 64.7906 125.543 64.7906C125.91 64.7906 126.277 64.7906 126.591 64.7906C126.906 64.7906 127.22 64.7906 127.535 64.7906H127.692V64.2664H127.535C127.483 64.2664 127.43 64.2664 127.378 64.2664C127.325 64.2664 127.273 64.2664 127.273 64.2664C126.854 64.2664 126.696 64.1615 126.696 64.1091C126.696 64.1091 126.591 63.8995 126.591 63.0608V61.3833C126.591 61.3309 126.591 61.2261 126.591 61.0688C126.591 60.9116 126.591 60.7543 126.591 60.5971C126.591 60.5971 126.591 60.5446 126.591 60.4922C126.591 60.2301 126.591 59.968 126.591 59.7059C126.591 59.5487 126.591 59.3914 126.591 59.1818V58.8148C126.591 58.6051 126.591 58.3431 126.591 58.1334V57.8189C126.591 57.6092 126.591 57.4519 126.591 57.2423C126.591 57.1898 126.591 57.1374 126.591 57.1374V56.9802C126.591 56.2987 126.696 56.1939 126.696 56.1939C126.749 56.1415 126.854 56.089 127.325 56.089H127.745V55.5124H127.587ZM21.0724 63.6898V63.5325C21.0724 63.4277 21.0724 63.3228 21.0724 63.218C21.0724 63.1132 21.0724 63.0607 21.0724 63.0083C21.0724 62.9559 21.0724 62.8511 21.0724 62.7462C21.0724 62.6414 21.0724 62.589 21.0724 62.5366C21.0724 62.5366 21.0724 62.4317 21.0724 62.3793C21.0724 62.2745 21.0724 62.1696 21.0724 62.1172C21.0724 62.1172 21.0724 62.0124 21.0724 61.9075C21.0724 61.8027 21.0724 61.6979 21.0724 61.6454C21.0724 61.593 21.0724 61.5406 21.0724 61.4358C21.0724 61.3309 21.0724 61.2261 21.0724 61.1737C21.0724 61.1737 21.0724 61.1213 21.0724 61.0164C21.0724 60.7543 21.0724 60.4922 21.0724 60.2826C21.0724 60.2826 21.0724 60.2301 21.0724 60.1253C21.0724 60.0205 21.0724 59.968 21.0724 59.8632V59.4439C21.0724 59.339 21.0724 59.1818 21.0724 58.9197C21.0724 58.71 21.0724 58.5527 21.0724 58.4479C21.0724 58.4479 21.0724 58.3955 21.0724 58.3431C21.0724 58.2906 21.0724 58.1858 21.0724 58.1334V57.2947C21.0724 57.2947 21.0724 57.1898 21.0724 57.1374C21.0724 57.0326 21.0724 56.9802 21.0724 56.8753C21.0724 56.8229 21.0724 56.7181 21.0724 56.6132C21.0724 56.456 21.0724 56.3511 21.0724 56.2987C21.0724 56.1939 21.0724 56.1415 21.0724 56.1415C21.1248 56.1415 21.2296 56.089 21.5965 56.089C22.4877 56.089 23.1691 56.2463 23.7457 56.5608C24.2699 56.8753 24.7417 57.3471 25.1086 57.9761C25.2134 58.2382 25.3707 58.5527 25.4231 58.9197C25.528 59.2866 25.5804 59.6011 25.5804 59.9156C25.5804 61.1737 25.2134 62.222 24.4272 63.0083C23.6933 63.7946 22.6973 64.214 21.4917 64.214C21.1772 64.214 21.1248 64.1615 21.1248 64.1615C21.1248 64.1615 21.0724 64.0567 21.0724 63.6898ZM18.0321 56.089H18.5563C19.028 56.089 19.1329 56.1415 19.1329 56.1415C19.1329 56.1415 19.1853 56.1939 19.1853 56.5608C19.1853 56.6132 19.1853 56.6132 19.1853 56.6657C19.1853 56.7181 19.1853 56.7705 19.1853 56.8229V57.1898C19.1853 57.2947 19.1853 57.4519 19.1853 57.5568V58.0285C19.1853 58.1334 19.1853 58.2382 19.1853 58.3431V58.5003C19.1853 58.5527 19.1853 58.71 19.1853 58.8148C19.1853 58.9721 19.1853 59.0769 19.1853 59.1818C19.1853 59.339 19.1853 59.5487 19.1853 59.7584C19.1853 59.8108 19.1853 59.8108 19.1853 59.8632C19.1853 59.9156 19.1853 59.968 19.1853 60.1253C19.1853 60.2301 19.1853 60.335 19.1853 60.4398C19.1853 60.4922 19.1853 60.5971 19.1853 60.7543C19.1853 60.9116 19.1853 61.0688 19.1853 61.1737C19.1853 61.2261 19.1853 61.2785 19.1853 61.3833C19.1853 61.4882 19.1853 61.593 19.1853 61.6454C19.1853 61.8551 19.1853 62.1172 19.1853 62.3793V63.218C19.1853 63.9519 19.0804 64.0567 19.0804 64.1091C19.028 64.1615 18.9232 64.214 18.399 64.214C18.3466 64.214 18.2942 64.214 18.2417 64.214C18.1369 64.214 18.0845 64.214 18.0321 64.214H17.8224V64.7382H17.9796C18.399 64.7382 18.7659 64.7382 19.028 64.7382C19.3425 64.7382 19.5522 64.7382 19.7619 64.7382C20.0764 64.7382 20.4958 64.7382 21.0724 64.7906C21.649 64.7906 22.0683 64.843 22.3828 64.843C23.9554 64.843 25.2134 64.4236 26.157 63.5325C27.1005 62.6414 27.5723 61.4882 27.5723 60.0205C27.5723 58.71 27.1005 57.6092 26.157 56.8229C25.2134 56.0366 23.9554 55.6173 22.3828 55.6173C22.2256 55.6173 21.9111 55.6173 21.4393 55.6173C20.9675 55.6173 20.5482 55.6173 20.1812 55.6173H19.5522C19.1853 55.6173 18.9232 55.6173 18.7135 55.6173C18.5038 55.6173 18.3466 55.6173 18.1893 55.6173H17.9796V56.089H18.0321ZM131.833 63.6898V63.5325C131.833 63.4277 131.833 63.3228 131.833 63.218C131.833 63.1132 131.833 63.0607 131.833 63.0083C131.833 62.9559 131.833 62.8511 131.833 62.7462C131.833 62.6414 131.833 62.589 131.833 62.5366C131.833 62.5366 131.833 62.4317 131.833 62.3793C131.833 62.2745 131.833 62.1696 131.833 62.1172C131.833 62.1172 131.833 62.0124 131.833 61.9075C131.833 61.8027 131.833 61.6979 131.833 61.6454C131.833 61.593 131.833 61.5406 131.833 61.4358C131.833 61.3309 131.833 61.2261 131.833 61.1737C131.833 61.1737 131.833 61.1213 131.833 61.0164C131.833 60.7543 131.833 60.4922 131.833 60.2826C131.833 60.2826 131.833 60.2301 131.833 60.1253C131.833 60.0205 131.833 59.968 131.833 59.8632V59.4439C131.833 59.339 131.833 59.1818 131.833 58.9197C131.833 58.71 131.833 58.5527 131.833 58.4479C131.833 58.4479 131.833 58.3955 131.833 58.3431C131.833 58.2906 131.833 58.1858 131.833 58.1334V57.2947C131.833 57.2947 131.833 57.1898 131.833 57.1374C131.833 57.0326 131.833 56.9802 131.833 56.8753C131.833 56.8229 131.833 56.7181 131.833 56.6132C131.833 56.456 131.833 56.3511 131.833 56.2987C131.833 56.1939 131.833 56.1415 131.833 56.1415C131.886 56.1415 131.991 56.089 132.357 56.089C133.249 56.089 133.93 56.2463 134.507 56.5608C135.031 56.8753 135.503 57.3471 135.87 57.9761C135.974 58.2382 136.132 58.5527 136.184 58.9197C136.289 59.2866 136.341 59.6535 136.341 59.9156C136.341 61.1737 135.974 62.222 135.188 63.0083C134.454 63.7946 133.458 64.214 132.253 64.214C131.938 64.214 131.886 64.1615 131.886 64.1615C131.886 64.1615 131.833 64.0567 131.833 63.6898ZM128.793 56.089H129.317C129.789 56.089 129.894 56.1415 129.894 56.1415C129.894 56.1415 129.946 56.1939 129.946 56.5608C129.946 56.6132 129.946 56.6132 129.946 56.6657C129.946 56.7181 129.946 56.7705 129.946 56.8229V57.1898C129.946 57.2947 129.946 57.4519 129.946 57.5568V58.0285C129.946 58.1334 129.946 58.2382 129.946 58.3431V58.5003C129.946 58.5527 129.946 58.71 129.946 58.8148C129.946 58.9721 129.946 59.0769 129.946 59.1818C129.946 59.339 129.946 59.5487 129.946 59.7584C129.946 59.8108 129.946 59.8108 129.946 59.8108C129.946 59.8632 129.946 59.9156 129.946 60.0729C129.946 60.1777 129.946 60.2826 129.946 60.3874C129.946 60.4398 129.946 60.5446 129.946 60.7019C129.946 60.8592 129.946 61.0164 129.946 61.1213C129.946 61.1737 129.946 61.2261 129.946 61.3309C129.946 61.4358 129.946 61.5406 129.946 61.593C129.946 61.8027 129.946 62.0648 129.946 62.3269V63.1656C129.946 63.8995 129.841 64.0043 129.841 64.0567C129.789 64.1091 129.684 64.1615 129.16 64.1615C129.108 64.1615 129.055 64.1615 129.003 64.1615C128.898 64.1615 128.845 64.1615 128.793 64.1615H128.583V64.6857H128.741C129.16 64.6857 129.527 64.6857 129.789 64.6857C130.103 64.6857 130.313 64.6857 130.523 64.6857C130.837 64.6857 131.257 64.6857 131.833 64.7382C132.41 64.7382 132.829 64.7906 133.144 64.7906C134.716 64.7906 135.974 64.3712 136.918 63.4801C137.861 62.589 138.333 61.4358 138.333 59.968C138.333 58.6576 137.861 57.5568 136.918 56.7705C135.974 55.9842 134.716 55.5649 133.144 55.5649C132.987 55.5649 132.672 55.5649 132.2 55.5649C131.728 55.5649 131.309 55.5649 130.942 55.5649H130.313C129.946 55.5649 129.684 55.5649 129.474 55.5649C129.265 55.5649 129.108 55.5649 128.95 55.5649H128.741V56.089H128.793ZM147.192 56.089H147.611C147.978 56.089 148.136 56.1415 148.188 56.1939C148.293 56.2463 148.345 56.3511 148.45 56.456V57.2423C148.45 57.3995 148.45 57.6092 148.45 57.7664V57.8713C148.45 57.9761 148.45 58.081 148.45 58.081C148.45 58.1858 148.45 58.2382 148.45 58.3431C148.45 58.4479 148.45 58.5003 148.45 58.5003C148.45 58.6051 148.45 58.7624 148.45 58.8672C148.45 58.9197 148.45 58.9197 148.45 58.9721C148.45 59.1293 148.45 59.2866 148.45 59.4963C148.45 59.7059 148.45 59.8108 148.45 59.8632V60.5971C148.45 60.8067 148.45 60.964 148.45 61.1737V61.2261C148.45 61.2785 148.45 61.3309 148.45 61.3833C148.45 61.4358 148.45 61.4882 148.45 61.4882C148.45 61.5406 148.45 61.593 148.45 61.6979C148.45 61.7503 148.45 61.8027 148.45 61.8551C148.45 61.96 148.45 62.1172 148.45 62.3269C148.45 62.5366 148.45 62.6938 148.45 62.7987C148.45 62.8511 148.45 62.9559 148.45 63.0608C148.45 63.218 148.45 63.3228 148.45 63.4277C148.45 63.9519 148.345 64.1091 148.293 64.1615C148.24 64.214 148.083 64.3188 147.454 64.3188H147.14V64.843H147.349C147.664 64.843 147.926 64.843 148.188 64.843C148.45 64.843 148.607 64.843 148.765 64.843C148.922 64.843 149.132 64.843 149.394 64.843C149.603 64.843 149.865 64.843 150.18 64.843H150.39V64.3188H150.023C149.446 64.3188 149.289 64.214 149.236 64.214C149.132 64.1615 149.079 63.9519 149.079 63.6898C149.079 63.5849 149.079 63.4801 149.079 63.3228C149.079 63.1656 149.079 63.0083 149.079 62.9559C149.079 62.8511 149.079 62.7462 149.079 62.6414C149.079 62.5366 149.079 62.4317 149.079 62.4317V61.8551C149.079 61.7503 149.079 61.6454 149.079 61.4882C149.079 61.3309 149.079 61.2261 149.079 61.1737C149.079 60.964 149.079 60.8067 149.079 60.5971V60.4922C149.079 60.3874 149.079 60.2301 149.079 60.0729C149.079 59.9156 149.079 59.7584 149.079 59.7059C149.079 59.6535 149.079 59.5487 149.079 59.4439C149.079 59.339 149.079 59.2342 149.079 59.1818C149.079 59.1293 149.079 59.0245 149.079 58.9721C149.079 58.9197 149.079 58.8672 149.079 58.8148C149.079 58.5527 149.079 58.2906 149.079 58.0285V57.1898C150.547 59.0245 152.381 61.3833 154.583 64.214C154.793 64.4761 154.95 64.6857 155.055 64.843L155.107 64.8954H155.474V64.7382C155.474 64.6857 155.474 64.6333 155.474 64.5285C155.474 64.4236 155.474 64.4236 155.474 64.3712C155.474 64.2664 155.474 64.1615 155.474 64.0567V63.8995C155.474 63.5849 155.474 63.2704 155.474 62.9559C155.474 62.9035 155.474 62.8511 155.474 62.8511C155.474 62.7462 155.474 62.6938 155.474 62.589C155.474 62.4841 155.474 62.4317 155.474 62.3793C155.474 62.1696 155.474 61.96 155.474 61.7503V61.6979C155.474 61.6979 155.474 61.6454 155.474 61.5406C155.474 61.4882 155.474 61.3833 155.474 61.3309C155.474 61.2785 155.474 61.2261 155.474 61.1737C155.474 61.1213 155.474 61.0688 155.474 61.0164V60.5446C155.474 60.4398 155.474 60.335 155.474 60.1777C155.474 60.0205 155.474 59.968 155.474 59.9156V58.9197C155.474 58.8672 155.474 58.8148 155.474 58.6576C155.474 58.5527 155.474 58.4479 155.474 58.3431V57.9237C155.474 57.8189 155.474 57.714 155.474 57.5568C155.474 57.3995 155.474 57.3471 155.474 57.2947C155.474 57.1898 155.474 57.0326 155.474 56.9277C155.474 56.7705 155.474 56.7181 155.474 56.7181C155.474 56.4036 155.579 56.0366 156.575 56.0366H156.732V55.46H156.523C156.418 55.46 156.313 55.46 156.208 55.46C156.103 55.46 155.946 55.46 155.736 55.46H154.531C154.321 55.46 154.216 55.46 154.111 55.46C154.006 55.46 153.902 55.46 153.797 55.46H153.587V56.0366H153.744C154.583 56.0366 154.74 56.1415 154.74 56.1415C154.74 56.1415 154.845 56.2463 154.845 56.8753V58.2906C154.845 58.4479 154.845 58.71 154.845 58.9721C154.845 59.2342 154.845 59.4439 154.845 59.4963V59.7059V59.7584C154.845 59.8632 154.845 59.968 154.845 60.0729C154.845 60.1253 154.845 60.1777 154.845 60.2826C154.845 60.3874 154.845 60.4922 154.845 60.4922C154.845 60.6495 154.845 60.8592 154.845 61.0688C154.845 61.2261 154.845 61.3309 154.845 61.3833C154.321 60.7019 153.797 60.0205 153.273 59.3914C152.539 58.4479 152.381 58.2906 152.381 58.2382C152.329 58.1334 152.172 57.9237 151.595 57.2423C151.071 56.6132 150.652 56.0366 150.18 55.46L150.127 55.4076H150.023C149.865 55.4076 149.708 55.4076 149.603 55.4076C149.446 55.4076 149.236 55.4076 149.027 55.4076H147.926C147.769 55.4076 147.611 55.4076 147.507 55.4076C147.402 55.4076 147.349 55.4076 147.244 55.4076H147.035V56.089H147.192ZM38.1085 55.5124C37.8988 55.5124 37.6891 55.5124 37.4794 55.5124C37.2698 55.5124 36.9028 55.5124 36.4835 55.5124H35.173C34.8585 55.5124 34.6488 55.5124 34.4392 55.5124C34.2295 55.5124 34.0722 55.5124 33.8625 55.5124H33.6529V56.089H33.8101C33.8625 56.089 33.915 56.089 33.9674 56.089C34.0198 56.089 34.0722 56.089 34.0722 56.089C34.5964 56.089 34.7012 56.1939 34.7012 56.1939C34.7012 56.1939 34.8061 56.3511 34.8061 57.2423V57.9761C34.8061 57.9761 34.8061 58.081 34.8061 58.2382C34.8061 58.3955 34.8061 58.5003 34.8061 58.6576C34.8061 58.7624 34.8061 58.9197 34.8061 59.0245C34.8061 59.1818 34.8061 59.2342 34.8061 59.2866C34.8061 59.3914 34.8061 59.5487 34.8061 59.7584V60.2826C34.8061 60.4398 34.8061 60.5446 34.8061 60.7019C34.8061 60.8592 34.8061 60.964 34.8061 60.964C34.8061 61.0164 34.8061 61.1213 34.8061 61.2261C34.8061 61.3309 34.8061 61.4358 34.8061 61.4882C34.8061 61.4882 34.8061 61.5406 34.8061 61.593C34.8061 61.6454 34.8061 61.6979 34.8061 61.6979C34.8061 61.8027 34.8061 61.96 34.8061 62.0648V62.1172C34.8061 62.222 34.8061 62.3269 34.8061 62.4317C34.8061 62.5366 34.8061 62.6414 34.8061 62.6414C34.8061 62.7462 34.8061 62.7987 34.8061 62.9035V63.1656C34.8061 63.8995 34.7012 64.0567 34.7012 64.0567C34.7012 64.0567 34.5964 64.1615 33.915 64.1615H33.3384V64.6857H37.4794C37.5319 64.6857 37.5843 64.6857 37.6367 64.6857C37.6891 64.6857 37.6891 64.6857 37.7415 64.6857C37.794 64.6857 37.8464 64.6857 37.9512 64.6857C38.0561 64.6857 38.1085 64.6857 38.1609 64.6857C38.2133 64.6857 38.2657 64.6857 38.3706 64.6857C38.6851 64.6857 38.8948 64.6857 39.2093 64.6857H41.0439V64.5285C41.0439 64.214 41.0439 63.9519 41.0963 63.6898C41.0963 63.6374 41.0963 63.6374 41.0963 63.5849V63.4277C41.0963 63.3228 41.0963 63.1656 41.0963 62.9559C41.0963 62.7462 41.1488 62.589 41.1488 62.4317V62.222H40.6246V62.3793C40.5722 63.0083 40.5197 63.3228 40.4673 63.4277C40.4149 63.5849 40.3101 63.6898 40.1004 63.847C40.048 63.8995 39.8907 63.9519 39.3141 64.0043C38.8948 64.0567 38.3706 64.1091 37.794 64.1091C37.0077 64.1091 36.8504 64.0567 36.798 64.0567C36.7456 64.0567 36.7456 63.9519 36.7456 63.847C36.7456 63.7422 36.7456 63.5849 36.7456 63.4277C36.7456 63.2704 36.7456 63.1656 36.7456 63.1132C36.7456 63.0083 36.7456 62.8511 36.7456 62.7462C36.7456 62.6414 36.7456 62.5366 36.7456 62.5366C36.7456 62.4841 36.7456 62.4317 36.7456 62.3269C36.7456 62.222 36.7456 62.1696 36.7456 62.1172C36.7456 62.0648 36.7456 62.0124 36.7456 61.9075C36.7456 61.8027 36.7456 61.7503 36.7456 61.6979C36.7456 61.593 36.7456 61.4358 36.7456 61.3309C36.7456 61.1737 36.7456 61.0688 36.7456 61.0164C36.7456 60.8067 36.7456 60.5446 36.7456 60.335C36.7456 60.2826 36.7456 60.2301 36.7456 60.2301V59.7059C36.7456 59.5487 36.7456 59.4439 36.7456 59.2866C36.7456 59.1293 36.7456 59.0245 36.7456 59.0245C36.7456 58.9197 36.7456 58.7624 36.7456 58.5527C36.7456 58.3955 36.7456 58.2382 36.7456 58.1858V58.0285C36.7456 57.9761 36.7456 57.8713 36.7456 57.6616C36.7456 57.5044 36.7456 57.3471 36.7456 57.2423C36.7456 57.1374 36.7456 57.0326 36.7456 56.9277V56.7705C36.7456 56.3511 36.798 56.2463 36.8504 56.1939C36.8504 56.1939 36.9553 56.089 37.427 56.089C37.6367 56.089 37.7415 56.089 37.8464 56.089C37.9512 56.089 38.0036 56.089 38.1085 56.089H38.2657V55.5124H38.1085ZM57.2938 55.5124C57.0841 55.5124 56.8744 55.5124 56.6647 55.5124C56.4551 55.5124 56.0881 55.5124 55.6688 55.5124H54.3583C54.0438 55.5124 53.8341 55.5124 53.6244 55.5124C53.4148 55.5124 53.2575 55.5124 53.0478 55.5124H52.8382V56.089H52.9954C53.0478 56.089 53.1003 56.089 53.1527 56.089C53.2051 56.089 53.2575 56.089 53.2575 56.089C53.7817 56.089 53.8865 56.1939 53.8865 56.1939C53.8865 56.1939 53.9914 56.3511 53.9914 57.2423V57.9761C53.9914 57.9761 53.9914 58.081 53.9914 58.2382C53.9914 58.3955 53.9914 58.5003 53.9914 58.6576C53.9914 58.7624 53.9914 58.9197 53.9914 59.0245C53.9914 59.1818 53.9914 59.2342 53.9914 59.2866C53.9914 59.3914 53.9914 59.5487 53.9914 59.7584V60.2826C53.9914 60.4398 53.9914 60.5446 53.9914 60.7019C53.9914 60.8592 53.9914 60.964 53.9914 60.964C53.9914 61.0164 53.9914 61.1213 53.9914 61.2261C53.9914 61.3309 53.9914 61.4358 53.9914 61.4882C53.9914 61.4882 53.9914 61.5406 53.9914 61.593C53.9914 61.6454 53.9914 61.6979 53.9914 61.6979C53.9914 61.8027 53.9914 61.96 53.9914 62.0648V62.1172C53.9914 62.222 53.9914 62.3269 53.9914 62.4317C53.9914 62.5366 53.9914 62.6414 53.9914 62.6414C53.9914 62.7462 53.9914 62.7987 53.9914 62.9035V63.1656C53.9914 63.8995 53.8865 64.0567 53.8865 64.0567C53.8865 64.0567 53.7817 64.1615 53.1003 64.1615H52.5236V64.6857H56.6647C56.7171 64.6857 56.7696 64.6857 56.822 64.6857C56.8744 64.6857 56.8744 64.6857 56.9268 64.6857C56.9792 64.6857 57.0317 64.6857 57.1365 64.6857C57.2413 64.6857 57.2938 64.6857 57.3462 64.6857C57.3986 64.6857 57.451 64.6857 57.5558 64.6857C57.8704 64.6857 58.08 64.6857 58.3946 64.6857H60.2292V64.5285C60.2292 64.214 60.2292 63.9519 60.2816 63.6898C60.2816 63.6374 60.2816 63.5849 60.2816 63.5849V63.4277C60.2816 63.3228 60.2816 63.1656 60.2816 62.9559C60.2816 62.7462 60.334 62.589 60.334 62.4317V62.222H59.8099V62.3793C59.7574 63.0083 59.705 63.3228 59.6526 63.4277C59.6002 63.5849 59.4953 63.6898 59.2857 63.847C59.2332 63.8995 59.076 63.9519 58.4994 64.0043C58.08 64.0567 57.5558 64.1091 56.9792 64.1091C56.193 64.1091 56.0357 64.0567 55.9833 64.0567C55.9309 64.0567 55.9309 63.9519 55.9309 63.847C55.9309 63.7422 55.9309 63.5849 55.9309 63.4277C55.9309 63.2704 55.9309 63.1656 55.9309 63.1132C55.9309 63.0083 55.9309 62.8511 55.9309 62.7462C55.9309 62.6414 55.9309 62.5366 55.9309 62.5366C55.9309 62.4841 55.9309 62.4317 55.9309 62.3269C55.9309 62.222 55.9309 62.1696 55.9309 62.1172C55.9309 62.0648 55.9309 62.0124 55.9309 61.9075C55.9309 61.8027 55.9309 61.7503 55.9309 61.6979C55.9309 61.593 55.9309 61.4358 55.9309 61.3309C55.9309 61.1737 55.9309 61.0688 55.9309 61.0164C55.9309 60.8067 55.9309 60.5446 55.9309 60.335C55.9309 60.2826 55.9309 60.2301 55.9309 60.2301V59.7059C55.9309 59.5487 55.9309 59.4439 55.9309 59.2866C55.9309 59.1293 55.9309 59.0245 55.9309 59.0245C55.9309 58.9197 55.9309 58.7624 55.9309 58.5527C55.9309 58.3955 55.9309 58.2382 55.9309 58.1858V58.0285C55.9309 57.9761 55.9309 57.8713 55.9309 57.6616C55.9309 57.5044 55.9309 57.3471 55.9309 57.2423C55.9309 57.1374 55.9309 57.0326 55.9309 56.9277C55.9309 56.8229 55.9309 56.7705 55.9309 56.7705C55.9309 56.3511 55.9833 56.2463 56.0357 56.1939C56.0357 56.1939 56.1405 56.089 56.6123 56.089C56.822 56.089 56.9268 56.089 57.0317 56.089C57.1365 56.089 57.1889 56.089 57.2938 56.089H57.451V55.5124H57.2938ZM101.535 59.5487H101.483V58.8672V58.8148C101.483 58.71 101.483 58.6051 101.483 58.5527C101.483 58.5527 101.483 58.5003 101.483 58.3955V58.3431C101.483 58.1858 101.483 58.081 101.483 57.9761V56.3511C101.483 56.1415 101.535 56.089 101.535 56.089C101.535 56.089 101.588 56.0366 101.902 56.0366C102.479 56.0366 102.951 56.1939 103.265 56.5084C103.58 56.8229 103.737 57.2423 103.737 57.8189C103.737 58.4479 103.58 58.8672 103.317 59.1293C103.003 59.3914 102.531 59.5487 101.85 59.5487C101.692 59.5487 101.588 59.5487 101.535 59.5487ZM98.2328 56.089H98.5473C99.1764 56.089 99.3336 56.1939 99.3861 56.1939C99.3861 56.1939 99.4909 56.2987 99.4909 57.085C99.4909 57.1374 99.4909 57.2423 99.4909 57.3471C99.4909 57.4519 99.4909 57.5568 99.4909 57.6092V59.3914C99.4909 59.3914 99.4909 59.4963 99.4909 59.6011C99.4909 59.7584 99.4909 59.8632 99.4909 59.968C99.4909 60.0729 99.4909 60.1777 99.4909 60.2826C99.4909 60.3874 99.4909 60.4922 99.4909 60.5446C99.4909 60.6495 99.4909 60.7543 99.4909 60.8067V60.8592C99.4909 60.964 99.4909 61.0164 99.4909 61.1213C99.4909 61.2261 99.4909 61.2785 99.4909 61.3309C99.4909 61.3309 99.4909 61.3833 99.4909 61.4358C99.4909 61.4882 99.4909 61.5406 99.4909 61.593C99.4909 61.6454 99.4909 61.6979 99.4909 61.8027C99.4909 61.9075 99.4909 61.96 99.4909 62.0124C99.4909 62.0124 99.4909 62.1172 99.4909 62.222C99.4909 62.3269 99.4909 62.4317 99.4909 62.4841V62.589C99.4909 62.6414 99.4909 62.6938 99.4909 62.7462C99.4909 62.7987 99.4909 62.8511 99.4909 62.9559C99.4909 63.0083 99.4909 63.1132 99.4909 63.1132C99.4909 63.847 99.3861 64.0043 99.3336 64.0043C99.2812 64.0567 99.1764 64.1615 98.5473 64.1615H98.1804V64.6857H98.3377C98.4949 64.6857 98.7046 64.6857 98.9667 64.6857C99.7006 64.6857 100.172 64.6857 100.434 64.6857C100.854 64.6857 101.221 64.6857 101.588 64.6857C101.955 64.6857 102.269 64.6857 102.636 64.6857H102.793V64.1615H102.741C102.688 64.1615 102.584 64.1615 102.479 64.1615C102.374 64.1615 102.322 64.1615 102.269 64.1615C101.745 64.1615 101.64 64.0567 101.588 64.0043C101.535 63.9519 101.483 63.7946 101.483 63.1656C101.483 63.0607 101.483 62.9035 101.483 62.7987V62.589C101.483 62.5366 101.483 62.4841 101.483 62.3793C101.483 62.2745 101.483 62.222 101.483 62.1696C101.483 62.1172 101.483 62.1172 101.483 62.0124C101.483 61.9075 101.483 61.8551 101.483 61.8027C101.483 61.7503 101.483 61.6979 101.483 61.6454C101.483 61.593 101.483 61.5406 101.483 61.4882V61.2785C101.483 61.2261 101.483 61.1213 101.483 61.0164C101.483 60.9116 101.483 60.8592 101.483 60.8067C101.483 60.7543 101.483 60.7019 101.483 60.6495C101.483 60.5971 101.483 60.4922 101.483 60.4922C101.483 60.4922 101.483 60.4398 101.483 60.3874C101.483 60.335 101.483 60.2826 101.483 60.2826C101.483 60.2301 101.483 60.1777 101.483 60.1777C101.483 60.1253 101.483 60.0729 101.483 60.0729V60.0205H101.535C101.902 60.0205 102.217 60.0729 102.426 60.1777C102.636 60.2826 102.846 60.4398 103.003 60.6495C103.213 60.9116 103.317 61.3309 103.422 61.9075C103.422 62.0648 103.475 62.1696 103.475 62.222C103.475 62.2745 103.475 62.3793 103.527 62.4841C103.632 63.3228 103.894 63.9519 104.366 64.3188C104.576 64.4761 104.838 64.6333 105.1 64.6857C105.414 64.7906 105.676 64.843 105.991 64.843C106.2 64.843 106.41 64.843 106.567 64.7906C106.777 64.7382 106.934 64.6857 107.144 64.6333L107.249 64.5809V64.0043L106.987 64.1091C106.83 64.1615 106.672 64.214 106.567 64.2664C106.201 64.3712 105.938 64.3188 105.781 64.1615C105.729 64.0567 105.571 63.847 105.519 63.3228C105.467 63.1656 105.467 62.9559 105.414 62.6938C105.257 61.6979 104.995 60.964 104.628 60.5446C104.471 60.335 104.209 60.1777 103.842 59.968C103.737 59.9156 103.632 59.8632 103.475 59.8108C103.946 59.7059 104.366 59.4963 104.68 59.2342C105.205 58.8148 105.467 58.2382 105.467 57.6092C105.467 57.0326 105.205 56.5084 104.733 56.089C104.261 55.6697 103.737 55.46 103.108 55.46C103.055 55.46 103.003 55.46 102.951 55.46C102.898 55.46 102.846 55.46 102.793 55.46C102.793 55.46 102.688 55.46 102.584 55.46C102.426 55.46 102.322 55.46 102.164 55.46C102.112 55.46 101.797 55.46 101.221 55.5124C100.434 55.5649 99.6481 55.5649 99.0191 55.5124C98.8094 55.5124 98.6522 55.5124 98.4425 55.46H98.2328V56.089ZM117.471 56.2463C116.946 56.7705 116.737 57.5044 116.737 58.3431C116.737 58.8148 116.842 59.2866 117.051 59.7059C117.261 60.1253 117.575 60.3874 117.942 60.5971C118.257 60.7543 118.781 60.9116 119.515 60.964H119.567C120.301 61.0688 120.878 61.2785 121.192 61.5406C121.507 61.8027 121.664 62.1696 121.664 62.6414C121.664 63.1132 121.507 63.4801 121.14 63.7946C120.773 64.1091 120.354 64.2664 119.829 64.2664C119.096 64.2664 118.519 64.0043 117.995 63.4801C117.471 62.9559 117.208 62.3269 117.156 61.5406V61.3833H116.684V61.593C116.684 61.8027 116.684 62.0648 116.684 62.2745C116.684 62.4841 116.684 62.7462 116.684 62.9559C116.684 63.1656 116.684 63.3753 116.684 63.5849C116.684 63.847 116.684 64.1091 116.632 64.4761V64.6857H117.104V64.5285C117.104 64.2664 117.156 64.1091 117.208 64.0567C117.261 64.0043 117.261 64.0043 117.366 64.0043C117.418 64.0043 117.575 64.0567 117.89 64.214C117.995 64.2664 118.047 64.3188 118.1 64.3712C118.362 64.5285 118.676 64.6333 118.938 64.7382C119.2 64.7906 119.515 64.843 119.829 64.843C120.668 64.843 121.35 64.5285 121.874 64.0043C122.398 63.4277 122.66 62.6938 122.66 61.8027C122.66 61.1213 122.503 60.4922 122.136 60.0729C121.769 59.6011 121.245 59.2866 120.563 59.1293C120.406 59.0769 120.196 59.0245 119.987 59.0245C119.725 58.9721 119.62 58.9721 119.567 58.9721C119.515 58.9721 119.358 58.9721 118.938 58.8672C118.624 58.8148 118.362 58.71 118.152 58.6052C117.995 58.5003 117.837 58.3955 117.733 58.2382C117.628 58.081 117.575 57.8189 117.575 57.5568C117.575 57.1374 117.733 56.7705 118.1 56.456C118.466 56.1415 118.886 55.9842 119.462 55.9842C119.987 55.9842 120.458 56.1939 120.825 56.6132C121.245 57.0326 121.454 57.6092 121.507 58.2382V58.3955H121.979V58.1858C121.979 58.1858 121.979 58.1334 121.979 58.081C121.926 57.5044 121.926 57.1374 121.926 56.9277C121.926 56.8229 121.926 56.6657 121.926 56.5084C121.926 56.3511 121.926 56.089 121.979 55.7745V55.5649H121.454V55.7221C121.454 55.8794 121.454 55.9842 121.402 56.0366C121.35 56.089 121.35 56.089 121.297 56.089C121.245 56.089 121.192 56.089 121.192 56.0366C121.192 56.0366 121.14 56.0366 121.14 55.9842C121.14 55.9842 121.087 55.9318 121.035 55.9318C120.458 55.5649 119.882 55.3552 119.253 55.3552C118.624 55.4076 117.995 55.6697 117.471 56.2463ZM11.0604 63.3753C10.5886 62.6938 10.3265 61.8551 10.3265 60.8067C10.3265 59.1293 10.5362 57.8713 10.9555 57.0326C11.3749 56.2463 11.9515 55.8794 12.7902 55.8794C13.5765 55.8794 14.1531 56.1939 14.5724 56.8753C15.0442 57.5568 15.2539 58.5527 15.2539 59.7584C15.2539 61.2785 15.0442 62.4317 14.5724 63.218C14.1531 64.0043 13.5241 64.3712 12.7378 64.3712C12.1087 64.3712 11.5321 64.0567 11.0604 63.3753ZM9.54022 56.7705C8.6491 57.714 8.17733 58.8672 8.17733 60.335C8.17733 61.0688 8.33459 61.7503 8.6491 62.3793C8.96362 63.0607 9.43538 63.6374 10.012 64.1091C10.2741 64.3188 10.641 64.5285 11.2176 64.7382C11.7418 64.8954 12.266 65.0002 12.7378 65.0002C14.0482 65.0002 15.149 64.5285 16.0402 63.5849C16.9313 62.6414 17.403 61.4882 17.403 60.1253C17.403 58.7624 16.9837 57.6092 16.145 56.7181C15.3063 55.827 14.2055 55.4076 12.895 55.4076C11.5846 55.3552 10.4313 55.827 9.54022 56.7705ZM64.6324 58.2906C64.7372 58.5527 64.8421 58.8148 64.8945 59.1293C65.0517 59.5487 65.1042 59.7584 65.1566 59.8632C65.1566 59.9156 65.1566 59.9156 65.209 59.968C65.2614 60.0729 65.2614 60.1253 65.2614 60.1253C65.2614 60.1777 65.2614 60.1777 65.4187 60.4922C65.4711 60.6495 65.5235 60.7543 65.5759 60.9116C65.5235 60.9116 65.4711 60.9116 65.4187 60.9116C65.3138 60.9116 65.209 60.9116 65.1566 60.9116C65.1042 60.9116 65.0517 60.9116 64.9469 60.9116C64.8421 60.9116 64.7372 60.9116 64.6324 60.9116H63.9509H63.8985C63.8461 60.9116 63.7937 60.9116 63.7413 60.9116C63.9509 60.2301 64.2655 59.339 64.6324 58.2906ZM64.9993 55.3552L64.9469 55.5124C64.9469 55.6173 64.7896 55.9842 64.3179 57.2947C63.9509 58.3955 63.584 59.3914 63.2695 60.335C63.2695 60.3874 63.2171 60.4922 63.1647 60.6495C62.9026 61.3309 62.6929 62.0124 62.4832 62.589C62.4308 62.6938 62.3784 62.8511 62.326 63.0083C62.0639 63.7946 61.6969 64.214 61.2252 64.214C61.1727 64.214 61.1203 64.214 61.0679 64.214C61.0155 64.214 61.0155 64.214 60.9631 64.214H60.7534V64.7382H60.9106C61.1727 64.7382 61.4348 64.7382 61.6445 64.7382C61.8542 64.7382 62.0114 64.7382 62.1687 64.7382C62.326 64.7382 62.4832 64.7382 62.6929 64.7382C62.9026 64.7382 63.1647 64.7382 63.4792 64.7382H63.6364V64.214H63.4268C62.7977 64.214 62.6405 64.1091 62.6405 64.0567C62.6405 64.0043 62.6929 63.847 62.955 63.0608C63.1647 62.4841 63.3219 61.96 63.4792 61.5406C63.5316 61.5406 63.5316 61.5406 63.5316 61.5406H64.0558C64.2654 61.5406 64.4751 61.5406 64.6324 61.5406C64.6848 61.5406 64.6848 61.5406 64.7372 61.5406H65.7856C65.838 61.7503 65.9429 62.0124 66.1001 62.3269C66.6243 63.7422 66.6767 64.0567 66.6767 64.0567C66.6767 64.0567 66.5719 64.1615 65.8904 64.214C65.7332 64.214 65.6283 64.214 65.5759 64.214H65.4187V64.7382H65.5759C65.9429 64.7382 66.3622 64.7382 66.834 64.7382C67.3057 64.7382 67.5678 64.7382 67.6203 64.7382C67.7251 64.7382 67.9872 64.7382 68.459 64.7382C68.9307 64.7382 69.3501 64.7382 69.7694 64.7382H69.9267V64.214H69.7694C69.717 64.214 69.6646 64.214 69.6122 64.214C69.5598 64.214 69.5073 64.214 69.4025 64.214C68.9307 64.214 68.6162 63.8995 68.3541 63.218C68.3017 63.1132 68.3017 63.0083 68.2493 62.9559C67.9348 62.1172 67.6203 61.3309 67.3582 60.6495C67.3582 60.5971 67.3057 60.5446 67.3057 60.5446C67.2533 60.3874 66.834 59.339 66.1001 57.3995L65.3138 55.3028H64.9993V55.3552ZM83.0838 58.2906C83.1886 58.5527 83.2935 58.8148 83.3459 59.1293C83.5032 59.6011 83.5556 59.7584 83.608 59.8632C83.608 59.9156 83.608 59.9156 83.6604 59.968C83.7128 60.0729 83.7128 60.1253 83.7128 60.1253C83.7128 60.1777 83.7128 60.1777 83.8701 60.4922C83.9225 60.6495 83.9749 60.7543 84.0273 60.9116C83.9749 60.9116 83.9225 60.9116 83.8701 60.9116C83.7653 60.9116 83.6604 60.9116 83.608 60.9116C83.5556 60.9116 83.5032 60.9116 83.3983 60.9116C83.2935 60.9116 83.1886 60.9116 83.0838 60.9116H82.4024H82.3499C82.2975 60.9116 82.2451 60.9116 82.1927 60.9116C82.4024 60.2301 82.6645 59.3914 83.0838 58.2906ZM83.4507 55.3552L83.3983 55.5124C83.3983 55.6173 83.2411 55.9842 82.7693 57.2947C82.4024 58.3955 82.0354 59.3914 81.7209 60.335C81.7209 60.3874 81.6685 60.4922 81.6161 60.6495C81.354 61.3309 81.1443 62.0124 80.9346 62.589C80.8822 62.6938 80.8298 62.8511 80.7774 63.0083C80.5153 63.7946 80.1484 64.214 79.6766 64.214C79.6242 64.214 79.5717 64.214 79.5193 64.214C79.4669 64.214 79.4669 64.214 79.4145 64.214H79.2048V64.7382H79.3621C79.6242 64.7382 79.8863 64.7382 80.0959 64.7382C80.3056 64.7382 80.4629 64.7382 80.6201 64.7382C80.7774 64.7382 80.9346 64.7382 81.1443 64.7382C81.354 64.7382 81.6161 64.7382 81.9306 64.7382H82.0879V64.214H81.7209C81.0919 64.214 80.9346 64.1091 80.9346 64.0567C80.9346 64.0043 80.9871 63.847 81.2491 63.0608C81.4588 62.4841 81.6161 61.96 81.7733 61.5406C81.8258 61.5406 81.8258 61.5406 81.8258 61.5406H82.3499C82.5596 61.5406 82.7693 61.5406 82.9265 61.5406C82.979 61.5406 82.979 61.5406 83.0314 61.5406H84.0798L84.3943 62.3269C84.9185 63.7422 84.9709 64.0567 84.9709 64.0567C84.9709 64.0567 84.8661 64.1615 84.1846 64.214C84.0273 64.214 83.9225 64.214 83.8701 64.214H83.7128V64.7382H83.8701C84.237 64.7382 84.6564 64.7382 85.1281 64.7382C85.5999 64.7382 85.862 64.7382 85.9144 64.7382C86.0193 64.7382 86.2813 64.7382 86.7531 64.7382C87.2249 64.7382 87.6442 64.7382 88.0636 64.7382H88.2208V64.214H88.0636C88.0112 64.214 87.9588 64.214 87.9063 64.214C87.8539 64.214 87.8015 64.214 87.6967 64.214C87.2249 64.214 86.9104 63.8995 86.6483 63.218C86.5959 63.1132 86.5959 63.0083 86.5434 62.9559C86.2289 62.1172 85.9144 61.3309 85.6523 60.6495C85.6523 60.5971 85.5999 60.5446 85.5999 60.5446C85.5475 60.3874 85.1806 59.3914 84.4991 57.6616L83.608 55.3552H83.4507ZM158.514 56.7181C157.623 57.6092 157.204 58.8148 157.204 60.2826C157.204 61.593 157.623 62.6938 158.462 63.5325C159.301 64.3712 160.349 64.843 161.66 64.843C162.289 64.843 162.918 64.7382 163.494 64.4761C164.228 64.1615 164.333 64.1091 164.333 64.1091C164.385 64.1091 164.385 64.1091 164.385 64.1615C164.385 64.1615 164.438 64.2664 164.49 64.4761V64.6333H164.962V64.4236C164.91 64.0567 164.91 63.7946 164.91 63.5325C164.91 63.3228 164.91 63.1132 164.91 62.9035C164.91 62.7462 164.91 62.589 164.91 62.3793C164.91 62.1696 164.91 61.96 164.91 61.6979V61.5406H164.438V61.6979C164.385 62.4841 164.123 63.1132 163.704 63.5849C163.285 64.0567 162.708 64.2664 162.027 64.2664C161.135 64.2664 160.506 63.9519 160.035 63.218C159.563 62.5366 159.301 61.4882 159.301 60.1253C159.301 58.7624 159.563 57.6616 160.035 56.9277C160.506 56.1939 161.188 55.8794 162.027 55.8794C162.603 55.8794 163.127 56.089 163.547 56.456C163.966 56.8753 164.228 57.3471 164.281 57.9761V58.1334H164.805V57.9237C164.805 57.6092 164.752 57.3471 164.752 57.1374C164.752 56.9277 164.752 56.7181 164.752 56.5608C164.752 56.456 164.752 56.2987 164.752 56.089C164.752 55.9318 164.752 55.7221 164.752 55.46V55.2503H164.281V55.4076C164.281 55.6173 164.228 55.7745 164.176 55.7745C164.176 55.827 164.123 55.827 164.123 55.827C164.071 55.827 163.914 55.7221 163.442 55.5124C162.918 55.3028 162.446 55.1455 161.974 55.1455C160.506 55.3552 159.353 55.827 158.514 56.7181Z" fill="white"/>
<path d="M177.126 64.6389C177.126 64.037 177.242 63.5211 177.473 63.0912C177.713 62.6528 178.019 62.2573 178.392 61.9047C178.765 61.5436 179.156 61.1739 179.565 60.7956C180.169 60.2454 180.6 59.7424 180.857 59.2867C181.124 58.8224 181.257 58.371 181.257 57.9325C181.257 57.6316 181.212 57.335 181.124 57.0427C181.035 56.7503 180.879 56.5096 180.657 56.3205C180.435 56.1313 180.129 56.041 179.738 56.0496C179.409 56.0496 179.116 56.127 178.858 56.2818C178.61 56.4279 178.436 56.6128 178.339 56.8363C178.436 56.9309 178.503 57.0341 178.539 57.1458C178.574 57.249 178.592 57.3479 178.592 57.4425C178.592 57.5628 178.534 57.709 178.419 57.881C178.312 58.0443 178.126 58.1217 177.859 58.1131C177.628 58.1045 177.455 58.0271 177.339 57.881C177.224 57.7262 177.166 57.5413 177.166 57.3264C177.166 57.0771 177.273 56.8019 177.486 56.501C177.699 56.2001 178.015 55.9421 178.432 55.7272C178.85 55.5123 179.369 55.4048 179.991 55.4048C180.462 55.4048 180.915 55.4822 181.35 55.6369C181.785 55.7831 182.141 56.0281 182.416 56.372C182.7 56.716 182.843 57.1845 182.843 57.7778C182.843 58.0701 182.758 58.3839 182.589 58.7192C182.429 59.0546 182.15 59.4372 181.75 59.8671C181.359 60.2884 180.817 60.7698 180.124 61.3115C179.556 61.7586 179.103 62.1799 178.765 62.5754C178.436 62.9709 178.246 63.2933 178.192 63.5426L180.631 63.6071C180.986 63.6157 181.301 63.6114 181.577 63.5942C181.852 63.577 182.065 63.5082 182.216 63.3879C182.376 63.2589 182.456 63.0397 182.456 62.7301H183.002L182.909 64.6389H177.126Z" fill="white"/>
</svg>
