<svg width="144" height="51" viewBox="0 0 144 51" fill="none" xmlns="http://www.w3.org/2000/svg">
<path d="M73.0923 18.1792C73.1334 18.0558 73.2156 17.9324 73.2568 17.8501C73.3802 17.9735 73.4624 18.0969 73.5447 18.1792C73.4213 18.1792 73.2568 18.1792 73.0923 18.1792ZM71.3648 17.8913C71.5293 17.8501 71.6939 17.7679 71.8584 17.7267C71.8173 17.809 71.7761 17.8913 71.735 18.0147C71.6116 17.9324 71.4882 17.9324 71.3648 17.8913ZM70.131 17.1098C70.0076 16.9453 69.9253 16.8219 69.8842 16.6574C69.8842 16.6163 69.8842 16.5751 69.9253 16.534C69.9253 16.534 70.0487 16.4517 70.5834 16.4106C71.1181 16.4106 71.6116 16.5751 72.064 16.863C71.5294 17.0687 70.9947 17.2743 70.4189 17.4388C70.2955 17.3155 70.2132 17.2332 70.131 17.1098ZM77.9455 11.2284C78.0277 11.1461 78.0689 11.105 78.1511 11.0227C77.9866 11.9276 77.4519 12.8735 76.5882 13.8195C75.9713 14.4776 75.2721 15.0945 74.4084 15.588C75.5189 13.8606 76.6705 12.38 77.9455 11.2284ZM66.635 14.6009C67.4164 13.5316 68.239 12.5856 69.1439 11.7219C69.4729 11.434 69.8019 11.1461 70.131 10.8582C70.0076 11.8453 69.4729 12.8324 68.5681 13.8606C67.8277 14.6832 66.8818 15.4235 65.7713 16.0405C66.0592 15.5058 66.3471 15.0122 66.635 14.6009ZM56.5995 18.0147C56.7229 17.809 56.8052 17.6445 56.8463 17.5622L57.1342 17.0276C57.5866 16.1638 58.0802 15.3824 58.5737 14.6009C59.3552 13.5316 60.1777 12.5856 61.0826 11.7219C63.3035 9.62432 65.5245 8.55497 67.7043 8.55497C69.0205 8.55497 69.8019 8.96626 70.0487 9.78884C69.6785 10.0356 69.3495 10.2824 69.0616 10.5292C67.2519 11.9687 65.5656 13.9429 64.1261 16.3695C64.0027 16.6163 63.9205 16.7808 63.8382 16.9453C63.3035 17.1509 62.7277 17.3566 62.1108 17.5211C61.7818 17.3977 61.535 17.2743 61.2471 17.1509C61.0003 17.0276 60.7535 16.863 60.5479 16.6985L60.4656 16.6574H60.3834C60.1777 16.6574 60.0955 16.9042 60.0955 17.0276V17.0687C60.0955 17.4388 60.26 17.6034 60.3834 17.6445C60.5068 17.7267 60.589 17.7679 60.7124 17.809C59.6842 17.9735 58.6148 18.0969 57.5455 18.0969C57.2576 18.0558 56.9285 18.0558 56.5995 18.0147ZM64.6608 18.0147C64.7842 17.809 64.8664 17.6445 64.9076 17.5622L65.0721 17.2332C66.7995 16.4929 68.239 15.588 69.3495 14.4776C70.7068 13.1614 71.406 11.763 71.406 10.3235C71.406 10.2001 71.406 10.0767 71.3648 9.91223C72.8043 9.00739 74.285 8.51384 75.7245 8.51384C77.164 8.51384 77.9455 9.00739 78.1511 9.95336C77.9044 10.1179 77.6987 10.2824 77.4931 10.4469C75.7245 11.8864 74.0794 13.7784 72.681 16.1227C72.0229 15.7937 71.3237 15.6292 70.5423 15.6292C69.2673 15.6292 68.9794 16.1638 68.9794 16.6163C68.9794 16.9864 69.1027 17.3155 69.3495 17.6034C68.1568 17.8501 66.9229 17.9735 65.6068 17.9735C65.3189 18.0558 64.9898 18.0558 64.6608 18.0147ZM73.8326 16.9042C75.2721 16.205 76.4648 15.3824 77.4519 14.4776C78.8092 13.1614 79.5084 11.763 79.5084 10.3235C79.5084 10.2413 79.5084 10.159 79.5084 10.0356C81.1535 8.96626 82.881 8.43158 84.7318 8.43158C85.3898 8.43158 85.9245 8.5961 86.3358 8.884C86.7471 9.1719 86.9527 9.5832 86.9527 10.159C86.9527 10.8582 86.5003 11.763 85.5955 12.8735C84.5673 14.1896 83.21 15.3413 81.5648 16.2461C79.5906 17.3566 77.4108 17.9735 75.0664 18.138C74.6552 17.6856 74.2439 17.2332 73.8326 16.9042ZM79.3439 9.25416C78.9737 8.18481 77.9866 7.65013 76.4648 7.65013C75.6011 7.65013 74.7374 7.77352 73.8737 8.02029C73.01 8.26707 72.1052 8.5961 71.2003 9.04852C70.789 8.10255 69.8431 7.609 68.3624 7.609C67.4987 7.609 66.635 7.73239 65.7713 7.97916C63.4269 8.5961 61.6173 9.91223 60.9592 10.4469C59.1495 11.8864 57.4632 13.8606 56.0237 16.2872C55.8592 16.6163 55.7358 16.8219 55.6124 17.0687C55.489 17.2743 55.3656 17.48 55.2422 17.7679C54.4608 17.6034 53.7616 17.3566 53.1858 17.0687C52.939 16.9453 52.6922 16.7808 52.4866 16.6163L52.4043 16.5751H52.3221C52.1164 16.5751 52.0342 16.8219 52.0342 16.9453V16.9864C52.0342 17.3566 52.1987 17.5211 52.3221 17.5622C52.939 17.9324 53.8027 18.2203 54.9132 18.4259C54.0084 20.2767 53.556 21.5518 53.556 22.2921C53.556 22.4977 53.6382 22.8268 54.1318 22.909H54.1729C54.6253 22.909 54.8721 22.3332 54.9543 22.1276C55.3656 20.6058 55.8592 19.3719 56.2293 18.5905C56.8052 18.6316 57.4221 18.6727 58.0802 18.6727C59.3552 18.6727 60.6713 18.5082 61.9874 18.1792C62.2753 18.2614 62.6043 18.3437 62.9745 18.3848C62.0697 20.2356 61.6172 21.5106 61.6172 22.2509C61.6172 22.4155 61.6584 22.7856 62.1931 22.8679H62.2342C62.6866 22.8679 62.9334 22.2921 63.0156 22.0864C63.4269 20.5647 63.9205 19.3308 64.2906 18.5493C64.9076 18.5905 65.5245 18.6316 66.1414 18.6316C67.4576 18.6316 68.7737 18.4671 70.131 18.138C70.46 18.3026 70.8713 18.4259 71.3648 18.5493C70.5423 20.3179 70.131 21.5106 70.131 22.2509C70.131 22.4155 70.1721 22.7856 70.7068 22.8679H70.7479C71.2003 22.8679 71.4471 22.2921 71.4882 22.0864C71.7761 21.0582 72.1874 19.9477 72.7221 18.755C73.1745 18.7961 73.5858 18.7961 73.9971 18.7961C74.9019 20.2767 75.8068 21.7163 76.7116 23.1969C77.9455 25.1711 79.2616 26.6518 80.6189 27.5977C82.4285 28.9138 84.6084 29.613 87.0761 29.613C88.3511 29.613 89.3794 29.4074 90.1197 28.955C90.7777 28.5848 91.189 28.0913 91.3124 27.5155V26.8574V26.8163C91.1479 25.9526 90.4076 25.2534 89.0915 24.6776C87.8576 24.1429 86.5003 23.855 85.0197 23.855C84.2794 23.855 83.4156 23.9372 82.4286 24.1017C81.3181 24.3074 81.0713 24.3897 80.9479 24.4308C80.7834 24.5542 80.66 24.6776 80.66 24.8009C80.66 25.0066 80.7834 25.13 80.989 25.13C81.0302 25.13 81.0713 25.13 81.1947 25.0888C82.4286 24.7187 83.6213 24.513 84.6495 24.513C86.2124 24.513 87.5697 24.8009 88.7213 25.3768C89.8318 25.9114 90.3253 26.5695 90.3253 27.3509C90.3253 27.8034 90.0786 28.1324 89.5439 28.3792C88.8447 28.7082 88.0632 28.8316 87.2407 28.8316C85.0197 28.8316 83.0455 28.2147 81.4415 27.0219C80.2898 26.1171 79.0971 24.7187 77.9455 22.8679C77.1229 21.5106 76.2592 20.1122 75.3955 18.7138C77.4519 18.5493 79.4673 18.0147 81.4415 17.1509C83.3745 16.2872 84.9786 15.1767 86.2124 13.9429C87.4874 12.6679 88.1044 11.3517 88.1044 10.159C88.1044 9.37755 87.8165 8.76061 87.2407 8.26707C86.6648 7.81465 85.9245 7.56787 85.0197 7.56787C83.1277 7.65013 81.1947 8.18481 79.3439 9.25416Z" fill="#031826"/>
<path d="M72.0229 0H71.2003C70.6245 0 70.0898 0.0822581 69.5552 0.123387C69.3495 0.164516 68.9382 0.246774 68.9382 0.246774C65.7302 0.740323 62.7277 2.05645 60.2189 4.07178C56.2705 7.23871 53.9261 12.1742 53.8027 17.521V17.7678L54.0495 17.7266H54.2552V17.521C54.5431 11.804 57.8334 6.375 62.81 3.33145C65.4011 1.76855 68.4036 0.904839 71.5294 0.904839C76.2592 0.904839 80.9068 2.83791 84.2382 6.21049C87.6108 9.58307 89.3382 14.3129 89.0092 19.2484C88.2278 27.2686 82.4286 33.6024 74.4906 35.042C73.5447 35.2065 72.5576 35.2887 71.5705 35.2887C64.8253 35.2887 58.3681 31.0113 55.5713 24.6774C55.1189 23.6903 54.7898 22.6621 54.5842 21.5928L54.5431 21.346L54.1318 21.4694V21.7984C55.6535 29.4484 61.9463 35.2065 69.7608 36.1936C70.2955 36.2758 70.8713 36.317 71.4471 36.317H72.2697C81.1124 36.1113 88.6802 28.8726 89.5439 19.8653C89.9552 13.4903 87.2818 7.40323 82.3874 3.61936C80.3721 2.05645 77.9866 0.987097 75.4366 0.45242C74.3261 0.164516 73.1745 0 72.0229 0Z" fill="#031826"/>
<path d="M72.017 49.0261C71.8113 48.7382 71.6879 48.4092 71.6879 48.0802C71.6879 47.9157 71.7291 47.7923 71.8113 47.6277C71.8936 47.5044 72.017 47.381 72.1815 47.2576C72.3871 47.6277 72.5928 47.9568 72.7984 48.2447C73.0041 48.5326 73.1686 48.7794 73.292 48.985C73.1686 49.1907 73.0452 49.314 72.9629 49.3552C72.8807 49.3963 72.7984 49.4374 72.7162 49.4374C72.4694 49.4374 72.2226 49.314 72.017 49.0261ZM72.5516 45.6947C72.4694 45.5302 72.4283 45.3245 72.4283 45.2011C72.4283 45.0366 72.4694 44.9132 72.5516 44.831C72.6339 44.7487 72.7162 44.7076 72.8395 44.7076C73.0041 44.7076 73.1274 44.7487 73.2097 44.8721C73.292 44.9955 73.3742 45.16 73.3742 45.3657C73.3742 45.5302 73.3331 45.7358 73.2508 45.9003C73.1686 46.0648 73.0452 46.1882 72.9218 46.3116C72.7162 46.0648 72.5928 45.8592 72.5516 45.6947ZM71.8936 44.6253C71.6468 44.8721 71.5234 45.2011 71.5234 45.5302C71.5234 45.7358 71.5645 45.9415 71.6468 46.1471C71.7291 46.3527 71.8525 46.5995 72.017 46.8874C71.6468 47.1342 71.3178 47.4221 71.1121 47.71C70.8653 48.039 70.742 48.3681 70.742 48.656C70.742 49.1495 70.8653 49.5197 71.1533 49.8487C71.4412 50.1777 71.7702 50.3423 72.1404 50.3423C72.3871 50.3423 72.6339 50.26 72.8395 50.0544C73.0452 49.8898 73.292 49.6431 73.5387 49.2729C73.7444 49.6019 73.95 49.8487 74.1145 50.0132C74.567 50.3834 75.0194 50.3834 75.3895 49.9721C75.5541 49.7665 75.7597 49.4374 75.9654 48.985L76.0065 48.9027L75.7186 48.6971L75.6775 48.8205C75.5952 49.0261 75.5129 49.1907 75.4307 49.2729C75.3484 49.3552 75.3073 49.3963 75.225 49.3963C75.1016 49.3963 74.9371 49.314 74.7315 49.1084C74.5258 48.9439 74.3613 48.656 74.1145 48.2858L74.4025 47.8745C74.4436 47.8334 74.4436 47.7923 74.4847 47.7923C74.4847 47.8745 74.4847 47.9157 74.4847 47.9568C74.5258 48.0802 74.567 48.2036 74.6904 48.2858C74.7726 48.3681 74.896 48.4092 75.0194 48.4092C75.1839 48.4092 75.3484 48.3269 75.4718 48.2036C75.5952 48.0802 75.6363 47.9157 75.6363 47.71C75.6363 47.5044 75.5541 47.3398 75.4718 47.2165C75.3484 47.0931 75.1839 47.0108 75.0194 47.0108C74.7726 47.0108 74.4436 47.2576 74.1145 47.71C74.0734 47.7923 73.9912 47.8745 73.95 47.9157L73.4565 47.1342C73.2097 46.764 73.1274 46.5995 73.0452 46.5173C73.2508 46.3527 73.3742 46.1882 73.4976 45.9826C73.621 45.7769 73.7033 45.5302 73.7033 45.2834C73.7033 44.9544 73.621 44.6665 73.4565 44.4608C73.292 44.2552 73.0452 44.1318 72.7573 44.1318C72.4283 44.2552 72.1404 44.3786 71.8936 44.6253ZM55.9766 43.5971V45.489H56.3879V45.0366C56.3879 44.6665 56.4702 44.4197 56.5936 44.2963C56.717 44.1729 56.9637 44.1318 57.2516 44.1318C57.2516 44.1318 57.2928 44.1318 57.3339 44.1318C57.8274 44.0907 58.4444 44.0495 59.1847 44.0495C59.2258 44.0495 59.3081 44.0495 59.4726 44.0495C59.5549 44.0495 59.6371 44.0495 59.7194 44.0495C59.4315 44.4608 58.7734 45.4479 57.0049 48.1213L55.2774 50.7947H61.6113V50.4657V50.4245C61.6113 50.3834 61.6113 50.3834 61.6113 50.3423C61.6113 50.3423 61.6113 50.3011 61.6113 50.26C61.6113 50.2189 61.6113 50.1777 61.6113 50.1777V48.8205H61.2V49.4786C61.2 49.6842 61.1589 49.8487 61.1178 49.9721C61.0766 50.0544 60.9944 50.1366 60.871 50.1777C60.7065 50.26 60.4597 50.3011 60.0895 50.3423C59.7194 50.3834 59.267 50.3834 58.7734 50.3834H58.2387C58.2387 50.3834 58.0742 50.3834 57.8274 50.3423C57.6629 50.3423 57.4573 50.3423 57.2928 50.3423C58.65 48.2447 59.7194 46.6406 60.4597 45.5302C61.4057 44.1318 61.5702 43.8439 61.6113 43.8027L61.4879 43.7205V43.5971H55.9766ZM84.6436 44.0084H84.767C85.3839 44.0084 85.5073 44.0906 85.5484 44.0906C85.5896 44.1318 85.6307 44.214 85.6307 44.5431C85.6307 44.5842 85.6307 44.6665 85.6307 44.7076C85.6307 44.7898 85.6307 44.831 85.6307 44.8721C85.6307 45.0777 85.6307 45.2834 85.6307 45.489C85.6307 45.5302 85.6307 45.5713 85.6307 45.5713V45.7769C85.6307 45.8592 85.6307 45.9415 85.6307 46.0648V46.1471C85.6307 46.1882 85.6307 46.3116 85.6307 46.3939C85.6307 46.5173 85.6307 46.5995 85.6307 46.6818C85.6307 46.8052 85.6307 46.9697 85.6307 47.1342C85.6307 47.1753 85.6307 47.1753 85.6307 47.1753C85.6307 47.2165 85.6307 47.2576 85.6307 47.381C85.6307 47.4632 85.6307 47.5455 85.6307 47.5866C85.6307 47.6277 85.6307 47.71 85.6307 47.8334C85.6307 47.9568 85.6307 48.0802 85.6307 48.1624C85.6307 48.2036 85.6307 48.2447 85.6307 48.3269C85.6307 48.4092 85.6307 48.4915 85.6307 48.5326C85.6307 48.6971 85.6307 48.9027 85.6307 49.1084V49.6019C85.6307 50.1366 85.5484 50.26 85.5073 50.26C85.4662 50.3011 85.3428 50.3423 84.8492 50.3423H84.6025V50.7536H89.0033C89.0444 50.7536 89.0444 50.7536 89.0855 50.7536C89.2089 50.7536 89.2089 50.7536 89.3323 50.7536C89.3734 50.7536 89.4146 50.7536 89.4146 50.7536C89.4146 50.7536 89.4557 50.7536 89.4968 50.7536C89.5379 50.7536 89.5791 50.7536 89.6202 50.7536C89.6613 50.7536 89.7025 50.7536 89.7847 50.7536C89.8258 50.7536 89.867 50.7536 89.867 50.7536H90.6073L90.6896 48.8616H90.3194V48.985C90.3194 49.3963 90.2783 49.6842 90.2371 49.8076C90.196 49.931 90.1549 50.0132 90.0726 50.0955C89.9904 50.1366 89.8258 50.2189 89.4968 50.26C89.2089 50.3011 88.7976 50.3423 88.3452 50.3423H87.8928C87.317 50.3423 87.1936 50.3011 87.1525 50.3011C87.1525 50.3011 87.1113 50.26 87.1113 50.0132V49.9721C87.1113 49.8076 87.1113 49.6431 87.1113 49.4786V49.3963C87.1113 49.314 87.1113 49.2318 87.1113 49.1495C87.1113 49.0261 87.1113 48.9439 87.1113 48.9027C87.1113 48.8616 87.1113 48.7382 87.1113 48.4503C87.1113 48.2036 87.1113 47.9568 87.1113 47.7511C87.1113 47.6689 87.1113 47.6277 87.1113 47.5455C87.1113 47.4632 87.1113 47.4221 87.1113 47.4221V47.381C87.1936 47.381 87.2347 47.381 87.3581 47.381C88.921 47.4221 88.921 48.039 88.921 48.2447V48.4503H89.2912V48.3269C89.2912 48.2858 89.2912 48.2036 89.2912 48.0802C89.2912 47.6277 89.2912 47.3398 89.2912 47.1753C89.2912 47.0108 89.2912 46.7229 89.2912 46.2705C89.2912 46.1882 89.2912 46.106 89.2912 46.0237V45.9003H88.921V46.0237C88.921 46.4761 88.8387 46.6818 88.7565 46.764C88.6742 46.8463 88.4686 46.9286 87.975 46.9286C87.9339 46.9286 87.9339 46.9286 87.8928 46.9286C87.8516 46.9286 87.8105 46.9286 87.8105 46.9286C87.8105 46.9286 87.6871 46.9286 87.5637 46.9286C87.3992 46.9286 87.2758 46.9286 87.1525 46.9286C87.1525 46.764 87.1525 46.5995 87.1525 46.435C87.1525 46.3939 87.1525 46.3527 87.1525 46.3527C87.1525 46.2705 87.1525 46.1882 87.1525 46.0648V45.3245C87.1525 45.2423 87.1525 45.2011 87.1525 45.0777C87.1525 44.9955 87.1525 44.9544 87.1525 44.9544C87.1525 44.9132 87.1525 44.831 87.1525 44.7487C87.1525 44.6665 87.1525 44.6253 87.1525 44.5842C87.1525 44.5431 87.1525 44.5019 87.1525 44.4197C87.1525 44.3374 87.1525 44.2963 87.1525 44.2552V44.0906C87.1525 43.9673 87.1525 43.9261 87.1525 43.9261C87.1525 43.9261 87.2347 43.885 87.3992 43.885C88.7565 43.885 89.2089 44.0084 89.3734 44.0906C89.5791 44.214 89.7025 44.5019 89.7025 44.9132V45.0366H90.0726V44.5019C90.0726 44.4197 90.0726 44.3786 90.0726 44.2963C90.0726 44.2552 90.0726 44.214 90.0726 44.214C90.0726 44.214 90.0726 44.1318 90.0726 44.0906C90.0726 44.0084 90.0726 43.9673 90.0726 43.9261V43.5971L89.9081 43.5148H84.6436V44.0084ZM108.951 44.0084H109.074C109.691 44.0084 109.815 44.0906 109.856 44.0906C109.897 44.1318 109.938 44.214 109.938 44.5431C109.938 44.5842 109.938 44.6665 109.938 44.7076C109.938 44.7898 109.938 44.831 109.938 44.8721C109.938 45.0777 109.938 45.2834 109.938 45.489C109.938 45.5302 109.938 45.5713 109.938 45.5713V45.7769C109.938 45.8592 109.938 45.9415 109.938 46.0648V46.1471C109.938 46.1882 109.938 46.3116 109.938 46.435C109.938 46.5584 109.938 46.6406 109.938 46.7229C109.938 46.8463 109.938 47.0108 109.938 47.1753C109.938 47.2165 109.938 47.2165 109.938 47.2165C109.938 47.2576 109.938 47.2987 109.938 47.4221C109.938 47.5044 109.938 47.5866 109.938 47.6277C109.938 47.6689 109.938 47.7511 109.938 47.8745C109.938 47.9979 109.938 48.1213 109.938 48.2036C109.938 48.2447 109.938 48.2858 109.938 48.3681C109.938 48.4503 109.938 48.5326 109.938 48.5737C109.938 48.7382 109.938 48.9439 109.938 49.1495V49.6431C109.938 50.1777 109.856 50.3011 109.856 50.3011C109.815 50.3423 109.691 50.3834 109.198 50.3834H108.951V50.7947H113.352C113.393 50.7947 113.393 50.7947 113.434 50.7947C113.557 50.7947 113.557 50.7947 113.681 50.7947C113.722 50.7947 113.763 50.7947 113.763 50.7947C113.763 50.7947 113.804 50.7947 113.845 50.7947C113.886 50.7947 113.927 50.7947 113.969 50.7947C114.01 50.7947 114.051 50.7947 114.133 50.7947C114.174 50.7947 114.215 50.7947 114.215 50.7947H114.956L115.038 48.9027H114.668V49.0261C114.668 49.4374 114.627 49.7253 114.586 49.8487C114.544 49.9721 114.503 50.0544 114.421 50.0955C114.339 50.1366 114.174 50.2189 113.845 50.26C113.557 50.3011 113.146 50.3423 112.694 50.3423H112.282C111.706 50.3423 111.583 50.3011 111.542 50.3011C111.542 50.3011 111.501 50.26 111.501 50.0132V49.9721C111.501 49.8076 111.501 49.6431 111.501 49.4786V49.3963C111.501 49.314 111.501 49.2318 111.501 49.1495C111.501 49.0261 111.501 48.9439 111.501 48.9027C111.501 48.8616 111.501 48.7382 111.501 48.4503C111.501 48.2036 111.501 47.9568 111.501 47.7511C111.501 47.6689 111.501 47.6277 111.501 47.5455C111.501 47.4632 111.501 47.4221 111.501 47.4221V47.381C111.583 47.381 111.624 47.381 111.748 47.381C113.311 47.4221 113.311 48.039 113.311 48.2447V48.4503H113.681V48.3269C113.681 48.2858 113.681 48.2036 113.681 48.0802C113.681 47.6277 113.681 47.3398 113.681 47.1753C113.681 47.0108 113.681 46.7229 113.681 46.2705C113.681 46.1882 113.681 46.106 113.681 46.0237V45.9003H113.311V46.0237C113.311 46.4761 113.228 46.6818 113.146 46.764C113.064 46.8463 112.858 46.9286 112.365 46.9286C112.323 46.9286 112.323 46.9286 112.282 46.9286C112.241 46.9286 112.2 46.9286 112.2 46.9286C112.2 46.9286 112.077 46.9286 111.953 46.9286C111.789 46.9286 111.665 46.9286 111.542 46.9286C111.542 46.764 111.542 46.5995 111.542 46.435C111.542 46.3939 111.542 46.3527 111.542 46.3527C111.542 46.2705 111.542 46.1882 111.542 46.0648C111.542 45.9826 111.542 45.9003 111.542 45.9003V45.3245C111.542 45.2423 111.542 45.2011 111.542 45.1189C111.542 45.0366 111.542 44.9955 111.542 44.9955C111.542 44.9544 111.542 44.8721 111.542 44.7898C111.542 44.7076 111.542 44.6665 111.542 44.6253C111.542 44.5842 111.542 44.5431 111.542 44.4608C111.542 44.3786 111.542 44.3374 111.542 44.2963V44.1318C111.542 44.0084 111.542 43.9673 111.542 43.9673C111.542 43.9673 111.624 43.9261 111.789 43.9261C113.146 43.9261 113.598 44.0495 113.763 44.1318C113.969 44.2552 114.092 44.5431 114.092 44.9544V45.0777H114.462V44.5431C114.462 44.4608 114.462 44.4197 114.462 44.3374V44.2552C114.462 44.2552 114.462 44.1729 114.462 44.1318C114.462 44.0495 114.462 44.0084 114.462 43.9673V43.6382L114.298 43.556H109.033V44.0084H108.951ZM130.256 44.0084H130.379C130.996 44.0084 131.119 44.0906 131.161 44.0906C131.202 44.1318 131.243 44.214 131.243 44.5431C131.243 44.5842 131.243 44.6665 131.243 44.7076C131.243 44.7898 131.243 44.831 131.243 44.8721C131.243 45.0777 131.243 45.2834 131.243 45.489C131.243 45.5302 131.243 45.5713 131.243 45.5713V45.7769C131.243 45.8592 131.243 45.9415 131.243 46.0648V46.1471C131.243 46.1882 131.243 46.3116 131.243 46.435C131.243 46.5584 131.243 46.6406 131.243 46.7229C131.243 46.8463 131.243 47.0108 131.243 47.1753C131.243 47.2165 131.243 47.2165 131.243 47.2165C131.243 47.2576 131.243 47.2987 131.243 47.4221C131.243 47.5044 131.243 47.5866 131.243 47.6277C131.243 47.6689 131.243 47.7511 131.243 47.8745C131.243 47.9979 131.243 48.1213 131.243 48.2036C131.243 48.2447 131.243 48.2858 131.243 48.3681C131.243 48.4503 131.243 48.5326 131.243 48.5737C131.243 48.7382 131.243 48.9439 131.243 49.1495V49.6431C131.243 50.1777 131.161 50.3011 131.161 50.3011C131.119 50.3423 130.996 50.3834 130.502 50.3834H130.256V50.7947H134.657C134.698 50.7947 134.698 50.7947 134.739 50.7947C134.862 50.7947 134.862 50.7947 134.986 50.7947C135.027 50.7947 135.068 50.7947 135.068 50.7947C135.068 50.7947 135.109 50.7947 135.15 50.7947C135.191 50.7947 135.232 50.7947 135.273 50.7947C135.315 50.7947 135.356 50.7947 135.438 50.7947C135.479 50.7947 135.52 50.7947 135.52 50.7947H136.261L136.343 48.9027H135.973V49.0261C135.973 49.4374 135.932 49.7253 135.89 49.8487C135.849 49.9721 135.808 50.0544 135.726 50.0955C135.644 50.1366 135.479 50.2189 135.15 50.26C134.862 50.3011 134.451 50.3423 133.998 50.3423H133.546C132.97 50.3423 132.847 50.3011 132.806 50.3011C132.806 50.3011 132.765 50.26 132.765 50.0132V49.9721C132.765 49.8076 132.765 49.6431 132.765 49.4786V49.3963C132.765 49.314 132.765 49.2318 132.765 49.1495C132.765 49.0261 132.765 48.9439 132.765 48.9027C132.765 48.8616 132.765 48.7382 132.765 48.4503C132.765 48.2036 132.765 47.9568 132.765 47.7511C132.765 47.6689 132.765 47.6277 132.765 47.5455C132.765 47.4632 132.765 47.4221 132.765 47.4221V47.381C132.847 47.381 132.888 47.381 133.011 47.381C134.574 47.4221 134.574 48.039 134.574 48.2447V48.4503H134.944V48.3269C134.944 48.2858 134.944 48.2036 134.944 48.0802C134.944 47.6277 134.944 47.3398 134.944 47.1753C134.944 47.0108 134.944 46.7229 134.944 46.2705C134.944 46.1882 134.944 46.106 134.944 46.0237V45.9003H134.574V46.0237C134.574 46.4761 134.492 46.6818 134.41 46.764C134.327 46.8463 134.122 46.9286 133.628 46.9286C133.587 46.9286 133.587 46.9286 133.546 46.9286C133.505 46.9286 133.464 46.9286 133.464 46.9286C133.464 46.9286 133.34 46.9286 133.217 46.9286C133.052 46.9286 132.929 46.9286 132.806 46.9286C132.806 46.764 132.806 46.5995 132.806 46.435C132.806 46.3939 132.806 46.3527 132.806 46.3527C132.806 46.2705 132.806 46.1882 132.806 46.0648C132.806 45.9826 132.806 45.9003 132.806 45.9003V45.3245C132.806 45.2423 132.806 45.2011 132.806 45.1189C132.806 45.0366 132.806 44.9955 132.806 44.9955C132.806 44.9544 132.806 44.8721 132.806 44.7898C132.806 44.7076 132.806 44.6665 132.806 44.6253C132.806 44.5842 132.806 44.5431 132.806 44.4608C132.806 44.3786 132.806 44.3374 132.806 44.2963V44.1318C132.806 44.0084 132.806 43.9673 132.806 43.9673C132.806 43.9673 132.888 43.9261 133.052 43.9261C134.41 43.9261 134.862 44.0495 135.027 44.1318C135.232 44.2552 135.356 44.5431 135.356 44.9544V45.0777H135.726V44.5431C135.726 44.4608 135.726 44.4197 135.726 44.3374V44.2552C135.726 44.2552 135.726 44.1729 135.726 44.1318C135.726 44.0495 135.726 44.0084 135.726 43.9673V43.6382L135.561 43.556H130.297V44.0084H130.256ZM2.79678 47.2576C2.71452 47.2165 2.63226 47.1753 2.55 47.1342C2.55 47.0108 2.55 46.8874 2.55 46.7229C2.55 46.5584 2.55 46.435 2.55 46.3527C2.55 46.3527 2.55 46.2705 2.55 46.2294C2.55 46.1471 2.55 46.106 2.55 46.0648C2.55 46.0237 2.55 45.9826 2.55 45.9003C2.55 45.8181 2.55 45.7769 2.55 45.6947V45.2423C2.55 45.2011 2.55 45.1189 2.55 44.9955C2.55 44.8721 2.55 44.7487 2.55 44.6665C2.55 44.6253 2.55 44.5431 2.55 44.4608C2.55 44.3786 2.55 44.3374 2.55 44.2963C2.55 44.0084 2.59113 43.9673 2.59113 43.9673C2.59113 43.9673 2.67339 43.9261 3.00242 43.9261C3.41371 43.9261 3.74274 44.0495 3.98952 44.3786C4.23629 44.6665 4.35968 45.0777 4.35968 45.6124C4.35968 46.106 4.23629 46.5173 3.98952 46.8052C3.74274 47.0931 3.49597 47.2576 3.16694 47.2576C3.00242 47.2987 2.87903 47.2987 2.79678 47.2576ZM0 44.0084H0.329032C0.781452 44.0084 0.904839 44.0907 0.904839 44.1318C0.945968 44.1729 1.02823 44.3374 1.02823 45.0777C1.02823 45.16 1.02823 45.2423 1.02823 45.3245C1.02823 45.4068 1.02823 45.489 1.02823 45.489C1.02823 45.6124 1.02823 45.6947 1.02823 45.8181V45.8592C1.02823 45.9003 1.02823 45.9826 1.02823 46.106C1.02823 46.2705 1.02823 46.3939 1.02823 46.5173C1.02823 46.5584 1.02823 46.6406 1.02823 46.7229C1.02823 46.8052 1.02823 46.8463 1.02823 46.8463C1.02823 47.0108 1.02823 47.2165 1.02823 47.4221V47.5455C1.02823 47.5866 1.02823 47.6689 1.02823 47.8334C1.02823 47.9568 1.02823 48.0802 1.02823 48.1213V49.7253C1.02823 50.1366 0.945968 50.26 0.945968 50.26C0.904839 50.3011 0.781452 50.3423 0.329032 50.3423H0V50.7536H0.123387C0.246774 50.7536 0.41129 50.7536 0.616936 50.7536C1.19274 50.7536 1.5629 50.7536 1.76855 50.7536C2.09758 50.7536 2.38548 50.7536 2.67339 50.7536C2.96129 50.7536 3.20807 50.7536 3.49597 50.7536H3.61936V50.3423H3.16694C2.75565 50.3423 2.63226 50.26 2.63226 50.26C2.59113 50.2189 2.55 50.0955 2.55 49.6842V49.3963C2.55 49.3963 2.55 49.3552 2.55 49.2729C2.55 49.2318 2.55 49.1495 2.55 49.1084C2.55 49.1084 2.55 49.0673 2.55 48.985C2.55 48.9027 2.55 48.8616 2.55 48.8205C2.55 48.7794 2.55 48.7794 2.55 48.6971C2.55 48.656 2.55 48.6148 2.55 48.5737C2.55 48.5326 2.55 48.5326 2.55 48.4503C2.55 48.4092 2.55 48.3681 2.55 48.3269C2.55 48.2858 2.55 48.2036 2.55 48.1213C2.55 48.039 2.55 48.039 2.55 47.9979C2.55 47.9156 2.55 47.8334 2.55 47.71V47.6689C2.55 47.6277 2.55 47.5455 2.55 47.5044C2.67339 47.5455 2.75565 47.5455 2.87903 47.5866C3.04355 47.6277 3.20807 47.6277 3.37258 47.6277C4.11291 47.6277 4.68871 47.4221 5.14113 47.0519C5.59355 46.6407 5.7992 46.1471 5.7992 45.489C5.7992 44.8721 5.59355 44.3786 5.14113 44.0084C4.68871 43.6382 4.11291 43.4737 3.37258 43.4737C3.29032 43.4737 3.08468 43.4737 2.67339 43.4737C2.30323 43.4737 1.97419 43.4737 1.68629 43.4737C1.43952 43.4737 1.19274 43.4737 0.945968 43.4737C0.699194 43.4737 0.45242 43.4737 0.164516 43.4326H0V44.0084H0ZM38.2089 47.2576C38.1266 47.2165 38.0444 47.1753 37.9621 47.1342C37.9621 47.0108 37.9621 46.8874 37.9621 46.7229C37.9621 46.5584 37.9621 46.435 37.9621 46.3527C37.9621 46.3527 37.9621 46.2705 37.9621 46.2294C37.9621 46.1471 37.9621 46.106 37.9621 46.0648C37.9621 46.0237 37.9621 45.9826 37.9621 45.9003C37.9621 45.8181 37.9621 45.7769 37.9621 45.6947V45.2423C37.9621 45.2011 37.9621 45.1189 37.9621 44.9955C37.9621 44.8721 37.9621 44.7487 37.9621 44.6665C37.9621 44.6253 37.9621 44.5431 37.9621 44.4608C37.9621 44.3786 37.9621 44.3374 37.9621 44.2963C37.9621 44.0084 38.0032 43.9673 38.0032 43.9673C38.0032 43.9673 38.0855 43.9261 38.4145 43.9261C38.8258 43.9261 39.1549 44.0495 39.4016 44.3786C39.6484 44.6665 39.7718 45.0777 39.7718 45.6124C39.7718 46.106 39.6484 46.5173 39.4016 46.8052C39.196 47.0931 38.9081 47.2576 38.579 47.2576C38.4557 47.2987 38.3323 47.2987 38.2089 47.2576ZM35.4121 44.0084H35.7411C36.1936 44.0084 36.317 44.0907 36.317 44.1318C36.3581 44.1729 36.4403 44.3374 36.4403 45.0777C36.4403 45.16 36.4403 45.2423 36.4403 45.3245C36.4403 45.4479 36.4403 45.489 36.4403 45.489C36.4403 45.6124 36.4403 45.6947 36.4403 45.8181V45.8592C36.4403 45.9003 36.4403 45.9826 36.4403 46.106C36.4403 46.2705 36.4403 46.3939 36.4403 46.5173C36.4403 46.5584 36.4403 46.6406 36.4403 46.7229C36.4403 46.8052 36.4403 46.8463 36.4403 46.8463C36.4403 47.0108 36.4403 47.2165 36.4403 47.4221V47.5455C36.4403 47.5866 36.4403 47.6689 36.4403 47.8334C36.4403 47.9568 36.4403 48.0802 36.4403 48.1213V49.7253C36.4403 50.1366 36.3581 50.26 36.3581 50.26C36.317 50.3011 36.1936 50.3423 35.7411 50.3423H35.4532V50.7536H35.5766C35.7 50.7536 35.8645 50.7536 36.0702 50.7536C36.646 50.7536 37.0161 50.7536 37.2218 50.7536C37.5508 50.7536 37.8387 50.7536 38.1266 50.7536C38.4145 50.7536 38.6613 50.7536 38.9492 50.7536H39.0726V50.3423H38.6202C38.2089 50.3423 38.0855 50.26 38.0855 50.26C38.0444 50.2189 38.0032 50.0955 38.0032 49.6842V49.3963C38.0032 49.3963 38.0032 49.3552 38.0032 49.314V49.2729C38.0032 49.2318 38.0032 49.1495 38.0032 49.1084C38.0032 49.1084 38.0032 49.0673 38.0032 48.985C38.0032 48.9027 38.0032 48.8616 38.0032 48.8205C38.0032 48.7794 38.0032 48.7794 38.0032 48.6971C38.0032 48.656 38.0032 48.6148 38.0032 48.5737C38.0032 48.5326 38.0032 48.5326 38.0032 48.4503C38.0032 48.4092 38.0032 48.3681 38.0032 48.3269C38.0032 48.2858 38.0032 48.2036 38.0032 48.1213C38.0032 48.039 38.0032 48.039 38.0032 47.9979C38.0032 47.9156 38.0032 47.8334 38.0032 47.71V47.6689C38.0032 47.6277 38.0032 47.5455 38.0032 47.5044C38.1266 47.5455 38.2089 47.5455 38.3323 47.5866C38.4968 47.6277 38.6613 47.6277 38.8258 47.6277C39.5661 47.6277 40.142 47.4221 40.5944 47.0519C41.0468 46.6407 41.2524 46.1471 41.2524 45.489C41.2524 44.8721 41.0468 44.3786 40.5944 44.0084C40.142 43.6382 39.5661 43.4737 38.8258 43.4737C38.7436 43.4737 38.5379 43.4737 38.1266 43.4737C37.7565 43.4737 37.4274 43.4737 37.1395 43.4737C36.8928 43.4737 36.646 43.4737 36.3992 43.4737C36.1524 43.4737 35.9057 43.4737 35.6178 43.4326H35.4532V44.0084H35.4121ZM25.4178 43.556C25.2944 43.556 25.171 43.556 25.0065 43.556C24.8831 43.556 24.6774 43.556 24.3895 43.556H23.3202C23.0734 43.556 22.8678 43.556 22.7032 43.556C22.5798 43.556 22.4153 43.556 22.2919 43.556H22.1274V44.0084H22.4565C22.8266 44.0084 22.9089 44.0906 22.95 44.0906C22.95 44.0906 23.0323 44.214 23.0323 44.7898V44.8721C23.0323 45.0366 23.0323 45.2423 23.0323 45.4068V45.7769C23.0323 45.8181 23.0323 45.9415 23.0323 46.0648C23.0323 46.1882 23.0323 46.3116 23.0323 46.3939C23.0323 46.6407 23.0323 46.8463 23.0323 47.0931C23.0323 47.1342 23.0323 47.1753 23.0323 47.1753C23.0323 47.2576 23.0323 47.381 23.0323 47.5044C23.0323 47.6277 23.0323 47.71 23.0323 47.7511C23.0323 47.8745 23.0323 47.9979 23.0323 48.1624V48.2447C23.0323 48.4092 23.0323 48.6148 23.0323 48.7794V49.2729C23.0323 50.0955 22.95 50.26 22.95 50.3011C22.9089 50.3423 22.8266 50.4245 22.4565 50.4245C22.4565 50.4245 22.4153 50.4245 22.3742 50.4245C22.3331 50.4245 22.2919 50.4245 22.2508 50.4245H22.1274V50.8358H22.2508C22.4976 50.8358 22.7444 50.8358 22.9911 50.8358C23.2379 50.8358 23.4847 50.8358 23.8137 50.8358C24.1016 50.8358 24.3895 50.8358 24.6363 50.8358C24.8831 50.8358 25.1299 50.8358 25.3766 50.8358H25.5V50.4245H25.3766C25.3355 50.4245 25.2944 50.4245 25.2532 50.4245C25.2121 50.4245 25.171 50.4245 25.171 50.4245C24.8419 50.4245 24.7186 50.3423 24.7186 50.3011C24.7186 50.3011 24.6363 50.1366 24.6363 49.4786V48.1624C24.6363 48.1213 24.6363 48.039 24.6363 47.9157C24.6363 47.7923 24.6363 47.6689 24.6363 47.5455C24.6363 47.5455 24.6363 47.5044 24.6363 47.4632C24.6363 47.2576 24.6363 47.0519 24.6363 46.8463C24.6363 46.7229 24.6363 46.5995 24.6363 46.435V46.1471C24.6363 45.9826 24.6363 45.7769 24.6363 45.6124V45.3657C24.6363 45.2011 24.6363 45.0777 24.6363 44.9132C24.6363 44.8721 24.6363 44.831 24.6363 44.831V44.7076C24.6363 44.1729 24.7186 44.0906 24.7186 44.0906C24.7597 44.0495 24.8419 44.0084 25.2121 44.0084H25.5411V43.556H25.4178ZM100.108 43.556C99.9847 43.556 99.8613 43.556 99.6968 43.556C99.5734 43.556 99.3678 43.556 99.0799 43.556H98.0105C97.7638 43.556 97.5581 43.556 97.3936 43.556C97.2702 43.556 97.1057 43.556 96.9823 43.556H96.8178V44.0084H97.1468C97.517 44.0084 97.5992 44.0906 97.6404 44.0906C97.6404 44.0906 97.7226 44.214 97.7226 44.7898V44.8721C97.7226 45.0366 97.7226 45.2423 97.7226 45.4068V45.7769C97.7226 45.8181 97.7226 45.9415 97.7226 46.0648C97.7226 46.1882 97.7226 46.3116 97.7226 46.3939C97.7226 46.6407 97.7226 46.8463 97.7226 47.0931C97.7226 47.1342 97.7226 47.1753 97.7226 47.1753C97.7226 47.2576 97.7226 47.381 97.7226 47.5044C97.7226 47.6277 97.7226 47.71 97.7226 47.7511C97.7226 47.8745 97.7226 47.9979 97.7226 48.1624V48.2447C97.7226 48.4092 97.7226 48.6148 97.7226 48.7794V49.2729C97.7226 50.0955 97.6404 50.26 97.6404 50.3011C97.5992 50.3423 97.517 50.4245 97.1468 50.4245C97.1468 50.4245 97.1057 50.4245 97.0646 50.4245C97.0234 50.4245 96.9823 50.4245 96.9412 50.4245H96.8178V50.8358H96.9412C97.1879 50.8358 97.4347 50.8358 97.6815 50.8358C97.9283 50.8358 98.175 50.8358 98.5041 50.8358C98.792 50.8358 99.0799 50.8358 99.3267 50.8358C99.5734 50.8358 99.8202 50.8358 100.067 50.8358H100.19V50.4245H100.067C100.026 50.4245 99.9847 50.4245 99.9436 50.4245C99.9025 50.4245 99.8613 50.4245 99.8613 50.4245C99.5323 50.4245 99.4089 50.3423 99.4089 50.3011C99.4089 50.3011 99.3267 50.1366 99.3267 49.4786V48.1624C99.3267 48.1213 99.3267 48.039 99.3267 47.9157C99.3267 47.7923 99.3267 47.6689 99.3267 47.5455C99.3267 47.5455 99.3267 47.5044 99.3267 47.4632C99.3267 47.2576 99.3267 47.0519 99.3267 46.8463C99.3267 46.7229 99.3267 46.5995 99.3267 46.435V46.1471C99.3267 45.9826 99.3267 45.7769 99.3267 45.6124V45.3657C99.3267 45.2011 99.3267 45.0777 99.3267 44.9132C99.3267 44.8721 99.3267 44.831 99.3267 44.831V44.7076C99.3267 44.1729 99.4089 44.0906 99.4089 44.0906C99.45 44.0495 99.5323 44.0084 99.9025 44.0084H100.231V43.556H100.108ZM16.5339 49.9721V49.8487C16.5339 49.7665 16.5339 49.6842 16.5339 49.6019C16.5339 49.5197 16.5339 49.4786 16.5339 49.4374C16.5339 49.3963 16.5339 49.314 16.5339 49.2318C16.5339 49.1495 16.5339 49.1084 16.5339 49.0673C16.5339 49.0673 16.5339 48.985 16.5339 48.9439C16.5339 48.8616 16.5339 48.7794 16.5339 48.7382C16.5339 48.7382 16.5339 48.656 16.5339 48.5737C16.5339 48.4915 16.5339 48.4092 16.5339 48.3681C16.5339 48.3269 16.5339 48.2858 16.5339 48.2036C16.5339 48.1213 16.5339 48.039 16.5339 47.9979C16.5339 47.9979 16.5339 47.9568 16.5339 47.8745C16.5339 47.6689 16.5339 47.4632 16.5339 47.2987C16.5339 47.2987 16.5339 47.2576 16.5339 47.1753C16.5339 47.0931 16.5339 47.0519 16.5339 46.9697V46.6407C16.5339 46.5584 16.5339 46.435 16.5339 46.2294C16.5339 46.0648 16.5339 45.9415 16.5339 45.8592C16.5339 45.8592 16.5339 45.8181 16.5339 45.7769C16.5339 45.7358 16.5339 45.6536 16.5339 45.6124V44.9544C16.5339 44.9544 16.5339 44.8721 16.5339 44.831C16.5339 44.7487 16.5339 44.7076 16.5339 44.6253C16.5339 44.5842 16.5339 44.5019 16.5339 44.4197C16.5339 44.2963 16.5339 44.214 16.5339 44.1729C16.5339 44.0906 16.5339 44.0495 16.5339 44.0495C16.575 44.0495 16.6573 44.0084 16.9452 44.0084C17.6444 44.0084 18.179 44.1318 18.6315 44.3786C19.0427 44.6253 19.4129 44.9955 19.7008 45.489C19.7831 45.6947 19.9065 45.9415 19.9476 46.2294C20.0298 46.5173 20.071 46.764 20.071 47.0108C20.071 47.9979 19.7831 48.8205 19.1661 49.4374C18.5903 50.0544 17.8089 50.3834 16.8629 50.3834C16.6161 50.3834 16.575 50.3423 16.575 50.3423C16.575 50.3423 16.5339 50.26 16.5339 49.9721ZM14.1484 44.0084H14.5597C14.9298 44.0084 15.0121 44.0495 15.0121 44.0495C15.0121 44.0495 15.0532 44.0906 15.0532 44.3786C15.0532 44.4197 15.0532 44.4197 15.0532 44.4608C15.0532 44.5019 15.0532 44.5431 15.0532 44.5842V44.8721C15.0532 44.9544 15.0532 45.0777 15.0532 45.16V45.5302C15.0532 45.6124 15.0532 45.6947 15.0532 45.7769V45.9003C15.0532 45.9415 15.0532 46.0648 15.0532 46.1471C15.0532 46.2705 15.0532 46.3527 15.0532 46.435C15.0532 46.5584 15.0532 46.7229 15.0532 46.8874C15.0532 46.9286 15.0532 46.9286 15.0532 46.9697C15.0532 47.0108 15.0532 47.0519 15.0532 47.1753C15.0532 47.2576 15.0532 47.3398 15.0532 47.4221C15.0532 47.4632 15.0532 47.5455 15.0532 47.6689C15.0532 47.7923 15.0532 47.9156 15.0532 47.9979C15.0532 48.039 15.0532 48.0802 15.0532 48.1624C15.0532 48.2447 15.0532 48.3269 15.0532 48.3681C15.0532 48.5326 15.0532 48.7382 15.0532 48.9439V49.6019C15.0532 50.1777 14.971 50.26 14.971 50.3011C14.9298 50.3423 14.8476 50.3834 14.4363 50.3834C14.3952 50.3834 14.354 50.3834 14.3129 50.3834C14.2307 50.3834 14.1895 50.3834 14.1484 50.3834H13.9839V50.7947H14.1073C14.4363 50.7947 14.7242 50.7947 14.9298 50.7947C15.1766 50.7947 15.3411 50.7947 15.5057 50.7947C15.7524 50.7947 16.0815 50.7947 16.5339 50.8358C16.9863 50.8358 17.3153 50.8769 17.5621 50.8769C18.796 50.8769 19.7831 50.5479 20.5234 49.8487C21.2637 49.1495 21.6339 48.2447 21.6339 47.0931C21.6339 46.0648 21.2637 45.2011 20.5234 44.5842C19.7831 43.9673 18.796 43.6382 17.5621 43.6382C17.4387 43.6382 17.1919 43.6382 16.8218 43.6382C16.4516 43.6382 16.1226 43.6382 15.8347 43.6382H15.3411C15.0532 43.6382 14.8476 43.6382 14.6831 43.6382C14.5186 43.6382 14.3952 43.6382 14.2718 43.6382H14.1073V44.0084H14.1484ZM103.44 49.9721V49.8487C103.44 49.7665 103.44 49.6842 103.44 49.6019C103.44 49.5197 103.44 49.4786 103.44 49.4374C103.44 49.3963 103.44 49.314 103.44 49.2318C103.44 49.1495 103.44 49.1084 103.44 49.0673C103.44 49.0673 103.44 48.985 103.44 48.9439C103.44 48.8616 103.44 48.7794 103.44 48.7382C103.44 48.7382 103.44 48.656 103.44 48.5737C103.44 48.4915 103.44 48.4092 103.44 48.3681C103.44 48.3269 103.44 48.2858 103.44 48.2036C103.44 48.1213 103.44 48.039 103.44 47.9979C103.44 47.9979 103.44 47.9568 103.44 47.8745C103.44 47.6689 103.44 47.4632 103.44 47.2987C103.44 47.2987 103.44 47.2576 103.44 47.1753C103.44 47.0931 103.44 47.0519 103.44 46.9697V46.6407C103.44 46.5584 103.44 46.435 103.44 46.2294C103.44 46.0648 103.44 45.9415 103.44 45.8592C103.44 45.8592 103.44 45.8181 103.44 45.7769C103.44 45.7358 103.44 45.6536 103.44 45.6124V44.9544C103.44 44.9544 103.44 44.8721 103.44 44.831C103.44 44.7487 103.44 44.7076 103.44 44.6253C103.44 44.5842 103.44 44.5019 103.44 44.4197C103.44 44.2963 103.44 44.214 103.44 44.1729C103.44 44.0906 103.44 44.0495 103.44 44.0495C103.481 44.0495 103.563 44.0084 103.851 44.0084C104.55 44.0084 105.085 44.1318 105.537 44.3786C105.948 44.6253 106.319 44.9955 106.606 45.489C106.689 45.6947 106.812 45.9415 106.853 46.2294C106.936 46.5173 106.977 46.8052 106.977 47.0108C106.977 47.9979 106.689 48.8205 106.072 49.4374C105.496 50.0544 104.715 50.3834 103.769 50.3834C103.522 50.3834 103.481 50.3423 103.481 50.3423C103.481 50.3423 103.44 50.26 103.44 49.9721ZM101.054 44.0084H101.465C101.836 44.0084 101.918 44.0495 101.918 44.0495C101.918 44.0495 101.959 44.0906 101.959 44.3786C101.959 44.4197 101.959 44.4197 101.959 44.4608C101.959 44.5019 101.959 44.5431 101.959 44.5842V44.8721C101.959 44.9544 101.959 45.0777 101.959 45.16V45.5302C101.959 45.6124 101.959 45.6947 101.959 45.7769V45.9003C101.959 45.9415 101.959 46.0648 101.959 46.1471C101.959 46.2705 101.959 46.3527 101.959 46.435C101.959 46.5584 101.959 46.7229 101.959 46.8874C101.959 46.9286 101.959 46.9286 101.959 46.9286C101.959 46.9697 101.959 47.0108 101.959 47.1342C101.959 47.2165 101.959 47.2987 101.959 47.381C101.959 47.4221 101.959 47.5044 101.959 47.6277C101.959 47.7511 101.959 47.8745 101.959 47.9568C101.959 47.9979 101.959 48.039 101.959 48.1213C101.959 48.2036 101.959 48.2858 101.959 48.3269C101.959 48.4915 101.959 48.6971 101.959 48.9027V49.5608C101.959 50.1366 101.877 50.2189 101.877 50.26C101.836 50.3011 101.753 50.3423 101.342 50.3423C101.301 50.3423 101.26 50.3423 101.219 50.3423C101.136 50.3423 101.095 50.3423 101.054 50.3423H100.89V50.7536H101.013C101.342 50.7536 101.63 50.7536 101.836 50.7536C102.082 50.7536 102.247 50.7536 102.411 50.7536C102.658 50.7536 102.987 50.7536 103.44 50.7947C103.892 50.7947 104.221 50.8358 104.468 50.8358C105.702 50.8358 106.689 50.5068 107.429 49.8076C108.169 49.1084 108.54 48.2036 108.54 47.0519C108.54 46.0237 108.169 45.16 107.429 44.5431C106.689 43.9261 105.702 43.5971 104.468 43.5971C104.344 43.5971 104.098 43.5971 103.727 43.5971C103.357 43.5971 103.028 43.5971 102.74 43.5971H102.247C101.959 43.5971 101.753 43.5971 101.589 43.5971C101.424 43.5971 101.301 43.5971 101.177 43.5971H101.013V44.0084H101.054ZM115.49 44.0084H115.819C116.107 44.0084 116.231 44.0495 116.272 44.0906C116.354 44.1318 116.395 44.214 116.477 44.2963V44.9132C116.477 45.0366 116.477 45.2011 116.477 45.3245V45.4068C116.477 45.489 116.477 45.5713 116.477 45.5713C116.477 45.6536 116.477 45.6947 116.477 45.7769C116.477 45.8592 116.477 45.9003 116.477 45.9003C116.477 45.9826 116.477 46.106 116.477 46.1882C116.477 46.2294 116.477 46.2294 116.477 46.2705C116.477 46.3939 116.477 46.5173 116.477 46.6818C116.477 46.8463 116.477 46.9286 116.477 46.9697V47.5455C116.477 47.71 116.477 47.8334 116.477 47.9979V48.039C116.477 48.0802 116.477 48.1213 116.477 48.1624C116.477 48.2036 116.477 48.2447 116.477 48.2447C116.477 48.2858 116.477 48.3269 116.477 48.4092C116.477 48.4503 116.477 48.4915 116.477 48.5326C116.477 48.6148 116.477 48.7382 116.477 48.9027C116.477 49.0673 116.477 49.1907 116.477 49.2729C116.477 49.314 116.477 49.3963 116.477 49.4786C116.477 49.6019 116.477 49.6842 116.477 49.7665C116.477 50.1777 116.395 50.3011 116.354 50.3423C116.313 50.3834 116.19 50.4657 115.696 50.4657H115.449V50.8769H115.614C115.861 50.8769 116.066 50.8769 116.272 50.8769C116.477 50.8769 116.601 50.8769 116.724 50.8769C116.848 50.8769 117.012 50.8769 117.218 50.8769C117.382 50.8769 117.588 50.8769 117.835 50.8769H117.999V50.4657H117.711C117.259 50.4657 117.136 50.3834 117.094 50.3834C117.012 50.3423 116.971 50.1777 116.971 49.9721C116.971 49.8898 116.971 49.8076 116.971 49.6842C116.971 49.5608 116.971 49.4374 116.971 49.3963C116.971 49.314 116.971 49.2318 116.971 49.1495C116.971 49.0673 116.971 48.985 116.971 48.985V48.5326C116.971 48.4503 116.971 48.3681 116.971 48.2447C116.971 48.1213 116.971 48.039 116.971 47.9979C116.971 47.8334 116.971 47.71 116.971 47.5455V47.4632C116.971 47.381 116.971 47.2576 116.971 47.1342C116.971 47.0108 116.971 46.8874 116.971 46.8463C116.971 46.8052 116.971 46.7229 116.971 46.6407C116.971 46.5584 116.971 46.4761 116.971 46.435C116.971 46.3939 116.971 46.3116 116.971 46.2705C116.971 46.2294 116.971 46.1882 116.971 46.1471C116.971 45.9415 116.971 45.7358 116.971 45.5302V44.8721C118.123 46.3116 119.562 48.1624 121.29 50.3834C121.454 50.589 121.577 50.7536 121.66 50.8769L121.701 50.9181H121.989V50.7947C121.989 50.7536 121.989 50.7124 121.989 50.6302C121.989 50.5479 121.989 50.5479 121.989 50.5068C121.989 50.4245 121.989 50.3423 121.989 50.26V50.1366C121.989 49.8898 121.989 49.6431 121.989 49.3963C121.989 49.3552 121.989 49.314 121.989 49.314C121.989 49.2318 121.989 49.1907 121.989 49.1084C121.989 49.0261 121.989 48.985 121.989 48.9439C121.989 48.7794 121.989 48.6148 121.989 48.4503V48.4092C121.989 48.4092 121.989 48.3681 121.989 48.2858C121.989 48.2447 121.989 48.1624 121.989 48.1213C121.989 48.0802 121.989 48.039 121.989 47.9979C121.989 47.9568 121.989 47.9157 121.989 47.8745V47.5044C121.989 47.4221 121.989 47.3398 121.989 47.2165C121.989 47.0931 121.989 47.0519 121.989 47.0108V46.2294C121.989 46.1882 121.989 46.1471 121.989 46.0237C121.989 45.9415 121.989 45.8592 121.989 45.7769V45.4479C121.989 45.3656 121.989 45.2834 121.989 45.16C121.989 45.0366 121.989 44.9955 121.989 44.9544C121.989 44.8721 121.989 44.7487 121.989 44.6665C121.989 44.5431 121.989 44.5019 121.989 44.5019C121.989 44.2552 122.071 43.9673 122.852 43.9673H122.976V43.5148H122.811C122.729 43.5148 122.647 43.5148 122.565 43.5148C122.482 43.5148 122.359 43.5148 122.194 43.5148H121.248C121.084 43.5148 121.002 43.5148 120.919 43.5148C120.837 43.5148 120.755 43.5148 120.673 43.5148H120.508V43.9673H120.632C121.29 43.9673 121.413 44.0495 121.413 44.0495C121.413 44.0495 121.495 44.1318 121.495 44.6253V45.7358C121.495 45.8592 121.495 46.0648 121.495 46.2705C121.495 46.4761 121.495 46.6407 121.495 46.6818V46.8463V46.8874C121.495 46.9697 121.495 47.0519 121.495 47.1342C121.495 47.1753 121.495 47.2165 121.495 47.2987C121.495 47.381 121.495 47.4632 121.495 47.4632C121.495 47.5866 121.495 47.7511 121.495 47.9157C121.495 48.039 121.495 48.1213 121.495 48.1624C121.084 47.6277 120.673 47.0931 120.261 46.5995C119.686 45.8592 119.562 45.7358 119.562 45.6947C119.521 45.6124 119.398 45.4479 118.945 44.9132C118.534 44.4197 118.205 43.9673 117.835 43.5148L117.794 43.4737H117.711C117.588 43.4737 117.465 43.4737 117.382 43.4737C117.259 43.4737 117.094 43.4737 116.93 43.4737H116.066C115.943 43.4737 115.819 43.4737 115.737 43.4737C115.655 43.4737 115.614 43.4737 115.532 43.4737H115.367V44.0084H115.49ZM29.9008 43.556C29.7363 43.556 29.5718 43.556 29.4073 43.556C29.2428 43.556 28.9549 43.556 28.6258 43.556H27.5976C27.3508 43.556 27.1863 43.556 27.0218 43.556C26.8573 43.556 26.7339 43.556 26.5694 43.556H26.4048V44.0084H26.5282C26.5694 44.0084 26.6105 44.0084 26.6516 44.0084C26.6928 44.0084 26.7339 44.0084 26.7339 44.0084C27.1452 44.0084 27.2274 44.0906 27.2274 44.0906C27.2274 44.0906 27.3097 44.214 27.3097 44.9132V45.489C27.3097 45.489 27.3097 45.5713 27.3097 45.6947C27.3097 45.8181 27.3097 45.9003 27.3097 46.0237C27.3097 46.106 27.3097 46.2294 27.3097 46.3116C27.3097 46.435 27.3097 46.4761 27.3097 46.5173C27.3097 46.5995 27.3097 46.7229 27.3097 46.8874V47.2987C27.3097 47.4221 27.3097 47.5044 27.3097 47.6277C27.3097 47.7511 27.3097 47.8334 27.3097 47.8334C27.3097 47.8745 27.3097 47.9568 27.3097 48.039C27.3097 48.1213 27.3097 48.2036 27.3097 48.2447C27.3097 48.2447 27.3097 48.2858 27.3097 48.3269C27.3097 48.3681 27.3097 48.4092 27.3097 48.4092C27.3097 48.4915 27.3097 48.6148 27.3097 48.6971V48.7382C27.3097 48.8205 27.3097 48.9027 27.3097 48.985C27.3097 49.0673 27.3097 49.1495 27.3097 49.1495C27.3097 49.2318 27.3097 49.2729 27.3097 49.3552V49.5608C27.3097 50.1366 27.2274 50.26 27.2274 50.26C27.2274 50.26 27.1452 50.3423 26.6105 50.3423H26.1581V50.7536H29.4073C29.4484 50.7536 29.4895 50.7536 29.5307 50.7536C29.5718 50.7536 29.5718 50.7536 29.6129 50.7536C29.654 50.7536 29.6952 50.7536 29.7774 50.7536C29.8597 50.7536 29.9008 50.7536 29.9419 50.7536C29.9831 50.7536 30.0242 50.7536 30.1065 50.7536C30.3532 50.7536 30.5178 50.7536 30.7645 50.7536H32.204V50.6302C32.204 50.3834 32.204 50.1777 32.2452 49.9721C32.2452 49.931 32.2452 49.931 32.2452 49.8898V49.7665C32.2452 49.6842 32.2452 49.5608 32.2452 49.3963C32.2452 49.2318 32.2863 49.1084 32.2863 48.985V48.8205H31.875V48.9439C31.8339 49.4374 31.7928 49.6842 31.7516 49.7665C31.7105 49.8898 31.6282 49.9721 31.4637 50.0955C31.4226 50.1366 31.2992 50.1777 30.8468 50.2189C30.5178 50.26 30.1065 50.3011 29.654 50.3011C29.0371 50.3011 28.9137 50.26 28.8726 50.26C28.8315 50.26 28.8315 50.1778 28.8315 50.0955C28.8315 50.0132 28.8315 49.8898 28.8315 49.7665C28.8315 49.6431 28.8315 49.5608 28.8315 49.5197C28.8315 49.4374 28.8315 49.314 28.8315 49.2318C28.8315 49.1495 28.8315 49.0673 28.8315 49.0673C28.8315 49.0261 28.8315 48.985 28.8315 48.9027C28.8315 48.8205 28.8315 48.7794 28.8315 48.7382C28.8315 48.6971 28.8315 48.656 28.8315 48.5737C28.8315 48.4915 28.8315 48.4503 28.8315 48.4092C28.8315 48.3269 28.8315 48.2036 28.8315 48.1213C28.8315 47.9979 28.8315 47.9157 28.8315 47.8745C28.8315 47.71 28.8315 47.5044 28.8315 47.3398C28.8315 47.2987 28.8315 47.2576 28.8315 47.2576V46.8463C28.8315 46.7229 28.8315 46.6406 28.8315 46.5173C28.8315 46.3939 28.8315 46.3116 28.8315 46.3116C28.8315 46.2294 28.8315 46.106 28.8315 45.9415C28.8315 45.8181 28.8315 45.6947 28.8315 45.6536V45.5302C28.8315 45.489 28.8315 45.4068 28.8315 45.2423C28.8315 45.1189 28.8315 44.9955 28.8315 44.9132C28.8315 44.831 28.8315 44.7487 28.8315 44.6665V44.5431C28.8315 44.214 28.8726 44.1318 28.9137 44.0906C28.9137 44.0906 28.996 44.0084 29.3661 44.0084C29.5307 44.0084 29.6129 44.0084 29.6952 44.0084C29.7774 44.0084 29.8186 44.0084 29.9008 44.0084H30.0242V43.556H29.9008ZM44.9541 43.556C44.7895 43.556 44.625 43.556 44.4605 43.556C44.296 43.556 44.0081 43.556 43.6791 43.556H42.6508C42.404 43.556 42.2395 43.556 42.075 43.556C41.9105 43.556 41.7871 43.556 41.6226 43.556H41.4581V44.0084H41.5815C41.6226 44.0084 41.6637 44.0084 41.7049 44.0084C41.746 44.0084 41.7871 44.0084 41.7871 44.0084C42.1984 44.0084 42.2807 44.0906 42.2807 44.0906C42.2807 44.0906 42.3629 44.214 42.3629 44.9132V45.489C42.3629 45.489 42.3629 45.5713 42.3629 45.6947C42.3629 45.8181 42.3629 45.9003 42.3629 46.0237C42.3629 46.106 42.3629 46.2294 42.3629 46.3116C42.3629 46.435 42.3629 46.4761 42.3629 46.5173C42.3629 46.5995 42.3629 46.7229 42.3629 46.8874V47.2987C42.3629 47.4221 42.3629 47.5044 42.3629 47.6277C42.3629 47.7511 42.3629 47.8334 42.3629 47.8334C42.3629 47.8745 42.3629 47.9568 42.3629 48.039C42.3629 48.1213 42.3629 48.2036 42.3629 48.2447C42.3629 48.2447 42.3629 48.2858 42.3629 48.3269C42.3629 48.3681 42.3629 48.4092 42.3629 48.4092C42.3629 48.4915 42.3629 48.6148 42.3629 48.6971V48.7382C42.3629 48.8205 42.3629 48.9027 42.3629 48.985C42.3629 49.0673 42.3629 49.1495 42.3629 49.1495C42.3629 49.2318 42.3629 49.2729 42.3629 49.3552V49.5608C42.3629 50.1366 42.2807 50.26 42.2807 50.26C42.2807 50.26 42.1984 50.3423 41.6637 50.3423H41.2113V50.7536H44.4605C44.5016 50.7536 44.5428 50.7536 44.5839 50.7536C44.625 50.7536 44.625 50.7536 44.6661 50.7536C44.7073 50.7536 44.7484 50.7536 44.8307 50.7536C44.9129 50.7536 44.9541 50.7536 44.9952 50.7536C45.0363 50.7536 45.0774 50.7536 45.1597 50.7536C45.4065 50.7536 45.571 50.7536 45.8178 50.7536H47.2573V50.6302C47.2573 50.3834 47.2573 50.1777 47.2984 49.9721C47.2984 49.931 47.2984 49.8898 47.2984 49.8898V49.7665C47.2984 49.6842 47.2984 49.5608 47.2984 49.3963C47.2984 49.2318 47.3395 49.1084 47.3395 48.985V48.8205H46.9282V48.9439C46.8871 49.4374 46.846 49.6842 46.8049 49.7665C46.7637 49.8898 46.6815 49.9721 46.517 50.0955C46.4758 50.1366 46.3524 50.1777 45.9 50.2189C45.571 50.26 45.1597 50.3011 44.7073 50.3011C44.0903 50.3011 43.967 50.26 43.9258 50.26C43.8847 50.26 43.8847 50.1778 43.8847 50.0955C43.8847 50.0132 43.8847 49.8898 43.8847 49.7665C43.8847 49.6431 43.8847 49.5608 43.8847 49.5197C43.8847 49.4374 43.8847 49.314 43.8847 49.2318C43.8847 49.1495 43.8847 49.0673 43.8847 49.0673C43.8847 49.0261 43.8847 48.985 43.8847 48.9027C43.8847 48.8205 43.8847 48.7794 43.8847 48.7382C43.8847 48.6971 43.8847 48.656 43.8847 48.5737C43.8847 48.4915 43.8847 48.4503 43.8847 48.4092C43.8847 48.3269 43.8847 48.2036 43.8847 48.1213C43.8847 47.9979 43.8847 47.9157 43.8847 47.8745C43.8847 47.71 43.8847 47.5044 43.8847 47.3398C43.8847 47.2987 43.8847 47.2576 43.8847 47.2576V46.8463C43.8847 46.7229 43.8847 46.6406 43.8847 46.5173C43.8847 46.3939 43.8847 46.3116 43.8847 46.3116C43.8847 46.2294 43.8847 46.106 43.8847 45.9415C43.8847 45.8181 43.8847 45.6947 43.8847 45.6536V45.5302C43.8847 45.489 43.8847 45.4068 43.8847 45.2423C43.8847 45.1189 43.8847 44.9955 43.8847 44.9132C43.8847 44.831 43.8847 44.7487 43.8847 44.6665C43.8847 44.5842 43.8847 44.5431 43.8847 44.5431C43.8847 44.214 43.9258 44.1318 43.967 44.0906C43.967 44.0906 44.0492 44.0084 44.4194 44.0084C44.5839 44.0084 44.6661 44.0084 44.7484 44.0084C44.8307 44.0084 44.8718 44.0084 44.9541 44.0084H45.0774V43.556H44.9541ZM79.667 46.7229H79.6258V46.1882V46.1471C79.6258 46.0648 79.6258 45.9826 79.6258 45.9415C79.6258 45.9415 79.6258 45.9003 79.6258 45.8181V45.7769C79.6258 45.6536 79.6258 45.5713 79.6258 45.489V44.214C79.6258 44.0495 79.667 44.0084 79.667 44.0084C79.667 44.0084 79.7081 43.9673 79.9549 43.9673C80.4073 43.9673 80.7775 44.0907 81.0242 44.3374C81.271 44.5842 81.3944 44.9132 81.3944 45.3657C81.3944 45.8592 81.271 46.1882 81.0654 46.3939C80.8186 46.5995 80.4484 46.7229 79.9137 46.7229C79.7904 46.7229 79.7081 46.7229 79.667 46.7229ZM77.0758 44.0084H77.3226C77.8162 44.0084 77.9396 44.0906 77.9807 44.0906C77.9807 44.0906 78.0629 44.1729 78.0629 44.7898C78.0629 44.831 78.0629 44.9132 78.0629 44.9955C78.0629 45.0777 78.0629 45.16 78.0629 45.2011V46.5995C78.0629 46.5995 78.0629 46.6818 78.0629 46.764C78.0629 46.8874 78.0629 46.9697 78.0629 47.0519C78.0629 47.1342 78.0629 47.2165 78.0629 47.2987C78.0629 47.381 78.0629 47.4632 78.0629 47.5044C78.0629 47.5866 78.0629 47.6689 78.0629 47.71V47.7511C78.0629 47.8334 78.0629 47.8745 78.0629 47.9568C78.0629 48.039 78.0629 48.0802 78.0629 48.1213C78.0629 48.1213 78.0629 48.1624 78.0629 48.2036C78.0629 48.2447 78.0629 48.2858 78.0629 48.3269C78.0629 48.3681 78.0629 48.4092 78.0629 48.4915C78.0629 48.5737 78.0629 48.6148 78.0629 48.656C78.0629 48.656 78.0629 48.7382 78.0629 48.8205C78.0629 48.9027 78.0629 48.985 78.0629 49.0261V49.1084C78.0629 49.1495 78.0629 49.1907 78.0629 49.2318C78.0629 49.2729 78.0629 49.314 78.0629 49.3963C78.0629 49.4374 78.0629 49.5197 78.0629 49.5197C78.0629 50.0955 77.9807 50.2189 77.9396 50.2189C77.8984 50.26 77.8162 50.3423 77.3226 50.3423H77.0347V50.7536H77.1581C77.2815 50.7536 77.446 50.7536 77.6516 50.7536C78.2275 50.7536 78.5976 50.7536 78.8033 50.7536C79.1323 50.7536 79.4202 50.7536 79.7081 50.7536C79.996 50.7536 80.2428 50.7536 80.5307 50.7536H80.6541V50.3423H80.6129C80.5718 50.3423 80.4895 50.3423 80.4073 50.3423C80.325 50.3423 80.2839 50.3423 80.2428 50.3423C79.8315 50.3423 79.7492 50.26 79.7081 50.2189C79.667 50.1777 79.6258 50.0544 79.6258 49.5608C79.6258 49.4786 79.6258 49.3552 79.6258 49.2729V49.1084C79.6258 49.0673 79.6258 49.0261 79.6258 48.9439C79.6258 48.8616 79.6258 48.8205 79.6258 48.7794C79.6258 48.7382 79.6258 48.7382 79.6258 48.656C79.6258 48.5737 79.6258 48.5326 79.6258 48.4915C79.6258 48.4503 79.6258 48.4092 79.6258 48.3681C79.6258 48.3269 79.6258 48.2858 79.6258 48.2447V48.0802C79.6258 48.039 79.6258 47.9568 79.6258 47.8745C79.6258 47.7923 79.6258 47.7511 79.6258 47.71C79.6258 47.6689 79.6258 47.6277 79.6258 47.5866C79.6258 47.5455 79.6258 47.4632 79.6258 47.4632C79.6258 47.4632 79.6258 47.4221 79.6258 47.381C79.6258 47.3398 79.6258 47.2987 79.6258 47.2987C79.6258 47.2576 79.6258 47.2165 79.6258 47.2165C79.6258 47.1753 79.6258 47.1342 79.6258 47.1342V47.0931H79.667C79.9549 47.0931 80.2016 47.1342 80.3662 47.2165C80.5307 47.2987 80.6952 47.4221 80.8186 47.5866C80.9831 47.7923 81.0654 48.1213 81.1476 48.5737C81.1476 48.6971 81.1887 48.7794 81.1887 48.8205C81.1887 48.8616 81.1887 48.9439 81.2299 49.0261C81.3121 49.6842 81.5178 50.1777 81.8879 50.4657C82.0525 50.589 82.2581 50.7124 82.4637 50.7536C82.7105 50.8358 82.9162 50.8769 83.1629 50.8769C83.3275 50.8769 83.492 50.8769 83.6154 50.8358C83.7799 50.7947 83.9033 50.7536 84.0678 50.7124L84.15 50.6713V50.2189L83.9444 50.3011C83.821 50.3423 83.6976 50.3834 83.6154 50.4245C83.3275 50.5068 83.1218 50.4657 82.9984 50.3423C82.9573 50.26 82.8339 50.0955 82.7928 49.6842C82.7516 49.5608 82.7516 49.3963 82.7105 49.1907C82.5871 48.4092 82.3815 47.8334 82.0936 47.5044C81.9702 47.3398 81.7646 47.2165 81.4766 47.0519C81.3944 47.0108 81.3121 46.9697 81.1887 46.9286C81.5589 46.8463 81.8879 46.6818 82.1347 46.4761C82.546 46.1471 82.7516 45.6947 82.7516 45.2011C82.7516 44.7487 82.546 44.3374 82.1758 44.0084C81.8057 43.6794 81.3944 43.5148 80.9008 43.5148C80.8597 43.5148 80.8186 43.5148 80.7775 43.5148C80.7363 43.5148 80.6952 43.5148 80.6541 43.5148C80.6541 43.5148 80.5718 43.5148 80.4895 43.5148C80.3662 43.5148 80.2839 43.5148 80.1605 43.5148C80.1194 43.5148 79.8726 43.5148 79.4202 43.556C78.8033 43.5971 78.1863 43.5971 77.6928 43.556C77.5283 43.556 77.4049 43.556 77.2404 43.5148H77.0758V44.0084ZM92.1702 44.1318C91.7589 44.5431 91.5944 45.1189 91.5944 45.7769C91.5944 46.1471 91.6767 46.5173 91.8412 46.8463C92.0057 47.1753 92.2525 47.381 92.5404 47.5455C92.7871 47.6689 93.1984 47.7923 93.7742 47.8334H93.8154C94.3912 47.9157 94.8436 48.0802 95.0904 48.2858C95.3371 48.4915 95.4605 48.7794 95.4605 49.1495C95.4605 49.5197 95.3371 49.8076 95.0492 50.0544C94.7613 50.3011 94.4323 50.4245 94.021 50.4245C93.4452 50.4245 92.9928 50.2189 92.5815 49.8076C92.1702 49.3963 91.9646 48.9027 91.9234 48.2858V48.1624H91.5533V48.3269C91.5533 48.4915 91.5533 48.6971 91.5533 48.8616C91.5533 49.0261 91.5533 49.2318 91.5533 49.3963C91.5533 49.5608 91.5533 49.7253 91.5533 49.8898C91.5533 50.0955 91.5533 50.3011 91.5121 50.589V50.7536H91.8823V50.6302C91.8823 50.4245 91.9234 50.3011 91.9646 50.26C92.0057 50.2189 92.0057 50.2189 92.0879 50.2189C92.1291 50.2189 92.2525 50.26 92.4992 50.3834C92.5815 50.4245 92.6226 50.4657 92.6637 50.5068C92.8694 50.6302 93.1162 50.7124 93.3218 50.7947C93.5275 50.8358 93.7742 50.8769 94.021 50.8769C94.6791 50.8769 95.2138 50.6302 95.625 50.2189C96.0363 49.7665 96.242 49.1907 96.242 48.4915C96.242 47.9568 96.1186 47.4632 95.8307 47.1342C95.5428 46.764 95.1315 46.5173 94.5968 46.3939C94.4734 46.3527 94.3089 46.3116 94.1444 46.3116C93.9387 46.2705 93.8565 46.2705 93.8154 46.2705C93.7742 46.2705 93.6508 46.2705 93.3218 46.1882C93.075 46.1471 92.8694 46.0648 92.7049 45.9826C92.5815 45.9003 92.4581 45.8181 92.3758 45.6947C92.2936 45.5713 92.2525 45.3657 92.2525 45.16C92.2525 44.831 92.3758 44.5431 92.6637 44.2963C92.9517 44.0495 93.2807 43.9261 93.7331 43.9261C94.1444 43.9261 94.5146 44.0906 94.8025 44.4197C95.1315 44.7487 95.296 45.2011 95.3371 45.6947V45.8181H95.7073V45.6536C95.7073 45.6536 95.7073 45.6124 95.7073 45.5713C95.6662 45.1189 95.6662 44.831 95.6662 44.6665C95.6662 44.5842 95.6662 44.4608 95.6662 44.3374C95.6662 44.214 95.6662 44.0084 95.7073 43.7616V43.5971H95.296V43.7205C95.296 43.8439 95.296 43.9261 95.2549 43.9673C95.2138 44.0084 95.2137 44.0084 95.1726 44.0084C95.1315 44.0084 95.0904 44.0084 95.0904 43.9673C95.0904 43.9673 95.0492 43.9673 95.0492 43.9261C95.0492 43.9261 95.0081 43.885 94.967 43.885C94.5146 43.5971 94.0621 43.4326 93.5686 43.4326C93.075 43.4737 92.5815 43.6794 92.1702 44.1318ZM8.67823 49.7253C8.30807 49.1907 8.10242 48.5326 8.10242 47.71C8.10242 46.3939 8.26694 45.4068 8.59597 44.7487C8.925 44.1318 9.37742 43.8439 10.0355 43.8439C10.6524 43.8439 11.1048 44.0906 11.4339 44.6253C11.804 45.16 11.9686 45.9415 11.9686 46.8874C11.9686 48.0802 11.804 48.985 11.4339 49.6019C11.1048 50.2189 10.6113 50.5068 9.99436 50.5068C9.50081 50.5068 9.04839 50.26 8.67823 49.7253ZM7.48549 44.5431C6.78629 45.2834 6.41613 46.1882 6.41613 47.3398C6.41613 47.9157 6.53952 48.4503 6.78629 48.9439C7.03307 49.4786 7.40323 49.931 7.85565 50.3011C8.06129 50.4657 8.3492 50.6302 8.80162 50.7947C9.21291 50.9181 9.6242 51.0003 9.99436 51.0003C11.0226 51.0003 11.8863 50.6302 12.5855 49.8898C13.2847 49.1495 13.6548 48.2447 13.6548 47.1753C13.6548 46.106 13.3258 45.2011 12.6677 44.5019C12.0097 43.8027 11.146 43.4737 10.1177 43.4737C9.08952 43.4326 8.18468 43.8027 7.48549 44.5431ZM50.7121 45.7358C50.7944 45.9415 50.8766 46.1471 50.9178 46.3939C51.0412 46.7229 51.0823 46.8874 51.1234 46.9697C51.1234 47.0108 51.1234 47.0108 51.1645 47.0519C51.2057 47.1342 51.2057 47.1753 51.2057 47.1753C51.2057 47.2165 51.2057 47.2165 51.3291 47.4632C51.3702 47.5866 51.4113 47.6689 51.4524 47.7923C51.4113 47.7923 51.3702 47.7923 51.3291 47.7923C51.2468 47.7923 51.1645 47.7923 51.1234 47.7923C51.0823 47.7923 51.0412 47.7923 50.9589 47.7923C50.8766 47.7923 50.7944 47.7923 50.7121 47.7923H50.1774H50.1363C50.0952 47.7923 50.0541 47.7923 50.0129 47.7923C50.1774 47.2576 50.4242 46.5584 50.7121 45.7358ZM51 43.4326L50.9589 43.556C50.9589 43.6382 50.8355 43.9261 50.4653 44.9544C50.1774 45.8181 49.8895 46.5995 49.6428 47.3398C49.6428 47.381 49.6016 47.4632 49.5605 47.5866C49.3549 48.1213 49.1903 48.656 49.0258 49.1084C48.9847 49.1907 48.9436 49.314 48.9024 49.4374C48.6968 50.0544 48.4089 50.3834 48.0387 50.3834C47.9976 50.3834 47.9565 50.3834 47.9153 50.3834C47.8742 50.3834 47.8742 50.3834 47.8331 50.3834H47.6686V50.7947H47.792C47.9976 50.7947 48.2032 50.7947 48.3678 50.7947C48.5323 50.7947 48.6557 50.7947 48.7791 50.7947C48.9024 50.7947 49.0258 50.7947 49.1903 50.7947C49.3549 50.7947 49.5605 50.7947 49.8073 50.7947H49.9307V50.3834H49.7662C49.2726 50.3834 49.1492 50.3011 49.1492 50.26C49.1492 50.2189 49.1903 50.0955 49.396 49.4786C49.5605 49.0261 49.6839 48.6148 49.8073 48.2858C49.8484 48.2858 49.8484 48.2858 49.8484 48.2858H50.2597C50.4242 48.2858 50.5887 48.2858 50.7121 48.2858C50.7533 48.2858 50.7532 48.2858 50.7944 48.2858H51.617C51.6581 48.4503 51.7403 48.656 51.8637 48.9027C52.275 50.0132 52.3162 50.26 52.3162 50.26C52.3162 50.26 52.2339 50.3423 51.6992 50.3834C51.5758 50.3834 51.4936 50.3834 51.4524 50.3834H51.3291V50.7947H51.4524C51.7403 50.7947 52.0694 50.7947 52.4395 50.7947C52.8097 50.7947 53.0153 50.7947 53.0565 50.7947C53.1387 50.7947 53.3444 50.7947 53.7145 50.7947C54.0847 50.7947 54.4137 50.7947 54.7428 50.7947H54.8661V50.3834H54.7428C54.7016 50.3834 54.6605 50.3834 54.6194 50.3834C54.5783 50.3834 54.5371 50.3834 54.4549 50.3834C54.0847 50.3834 53.8379 50.1366 53.6323 49.6019C53.5911 49.5197 53.5912 49.4374 53.55 49.3963C53.3032 48.7382 53.0565 48.1213 52.8508 47.5866C52.8508 47.5455 52.8097 47.5044 52.8097 47.5044C52.7686 47.381 52.4395 46.5584 51.8637 45.0366L51.2468 43.3915H51V43.4326ZM65.1895 45.7358C65.2718 45.9415 65.3541 46.1471 65.3952 46.3939C65.5186 46.764 65.5597 46.8874 65.6008 46.9697C65.6008 47.0108 65.6008 47.0108 65.642 47.0519C65.6831 47.1342 65.6831 47.1753 65.6831 47.1753C65.6831 47.2165 65.6831 47.2165 65.8065 47.4632C65.8476 47.5866 65.8887 47.6689 65.9299 47.7923C65.8887 47.7923 65.8476 47.7923 65.8065 47.7923C65.7242 47.7923 65.642 47.7923 65.6008 47.7923C65.5597 47.7923 65.5186 47.7923 65.4363 47.7923C65.3541 47.7923 65.2718 47.7923 65.1895 47.7923H64.6549H64.6137C64.5726 47.7923 64.5315 47.7923 64.4903 47.7923C64.6549 47.2576 64.8605 46.5995 65.1895 45.7358ZM65.4774 43.4326L65.4363 43.556C65.4363 43.6382 65.3129 43.9261 64.9428 44.9544C64.6549 45.8181 64.367 46.5995 64.1202 47.3398C64.1202 47.381 64.0791 47.4632 64.0379 47.5866C63.8323 48.1213 63.6678 48.656 63.5033 49.1084C63.4621 49.1907 63.421 49.314 63.3799 49.4374C63.1742 50.0544 62.8863 50.3834 62.5162 50.3834C62.475 50.3834 62.4339 50.3834 62.3928 50.3834C62.3516 50.3834 62.3516 50.3834 62.3105 50.3834H62.146V50.7947H62.2694C62.475 50.7947 62.6807 50.7947 62.8452 50.7947C63.0097 50.7947 63.1331 50.7947 63.2565 50.7947C63.3799 50.7947 63.5033 50.7947 63.6678 50.7947C63.8323 50.7947 64.0379 50.7947 64.2847 50.7947H64.4081V50.3834H64.1202C63.6266 50.3834 63.5033 50.3011 63.5033 50.26C63.5033 50.2189 63.5444 50.0955 63.75 49.4786C63.9145 49.0261 64.0379 48.6148 64.1613 48.2858C64.2024 48.2858 64.2024 48.2858 64.2024 48.2858H64.6137C64.7783 48.2858 64.9428 48.2858 65.0662 48.2858C65.1073 48.2858 65.1073 48.2858 65.1484 48.2858H65.971L66.2178 48.9027C66.6291 50.0132 66.6702 50.26 66.6702 50.26C66.6702 50.26 66.5879 50.3423 66.0533 50.3834C65.9299 50.3834 65.8476 50.3834 65.8065 50.3834H65.6831V50.7947H65.8065C66.0944 50.7947 66.4234 50.7947 66.7936 50.7947C67.1637 50.7947 67.3694 50.7947 67.4105 50.7947C67.4928 50.7947 67.6984 50.7947 68.0686 50.7947C68.4387 50.7947 68.7678 50.7947 69.0968 50.7947H69.2202V50.3834H69.0968C69.0557 50.3834 69.0145 50.3834 68.9734 50.3834C68.9323 50.3834 68.8912 50.3834 68.8089 50.3834C68.4387 50.3834 68.192 50.1366 67.9863 49.6019C67.9452 49.5197 67.9452 49.4374 67.9041 49.3963C67.6573 48.7382 67.4105 48.1213 67.2049 47.5866C67.2049 47.5455 67.1637 47.5044 67.1637 47.5044C67.1226 47.381 66.8347 46.5995 66.3 45.2423L65.6008 43.4326H65.4774ZM124.374 44.5019C123.675 45.2011 123.346 46.1471 123.346 47.2987C123.346 48.3269 123.675 49.1907 124.333 49.8487C124.991 50.5068 125.814 50.8769 126.842 50.8769C127.336 50.8769 127.829 50.7947 128.282 50.589C128.857 50.3423 128.94 50.3011 128.94 50.3011C128.981 50.3011 128.981 50.3011 128.981 50.3423C128.981 50.3423 129.022 50.4245 129.063 50.589V50.7124H129.433V50.5479C129.392 50.26 129.392 50.0544 129.392 49.8487C129.392 49.6842 129.392 49.5197 129.392 49.3552C129.392 49.2318 129.392 49.1084 129.392 48.9439C129.392 48.7794 129.392 48.6148 129.392 48.4092V48.2858H129.022V48.4092C128.981 49.0261 128.775 49.5197 128.446 49.8898C128.117 50.26 127.665 50.4245 127.13 50.4245C126.431 50.4245 125.937 50.1777 125.567 49.6019C125.197 49.0673 124.991 48.2447 124.991 47.1753C124.991 46.106 125.197 45.2423 125.567 44.6665C125.937 44.0906 126.472 43.8439 127.13 43.8439C127.582 43.8439 127.994 44.0084 128.323 44.2963C128.652 44.6253 128.857 44.9955 128.898 45.489V45.6124H129.31V45.4479C129.31 45.2011 129.269 44.9955 129.269 44.831C129.269 44.6665 129.269 44.5019 129.269 44.3786C129.269 44.2963 129.269 44.1729 129.269 44.0084C129.269 43.885 129.269 43.7205 129.269 43.5148V43.3503H128.898V43.4737C128.898 43.6382 128.857 43.7616 128.816 43.7616C128.816 43.8027 128.775 43.8027 128.775 43.8027C128.734 43.8027 128.611 43.7205 128.24 43.556C127.829 43.3915 127.459 43.2681 127.089 43.2681C125.937 43.4326 125.032 43.8027 124.374 44.5019Z" fill="#031826"/>
<path d="M138.977 50.717C138.977 50.2447 139.068 49.84 139.249 49.5027C139.437 49.1586 139.678 48.8483 139.971 48.5717C140.263 48.2884 140.57 47.9983 140.891 47.7015C141.365 47.2697 141.703 46.8751 141.905 46.5175C142.114 46.1532 142.219 45.7991 142.219 45.455C142.219 45.2189 142.184 44.9862 142.114 44.7568C142.044 44.5274 141.922 44.3385 141.748 44.1901C141.574 44.0417 141.333 43.9709 141.027 43.9776C140.769 43.9776 140.539 44.0383 140.337 44.1598C140.141 44.2745 140.006 44.4195 139.929 44.5949C140.006 44.6691 140.058 44.7501 140.086 44.8378C140.114 44.9187 140.128 44.9963 140.128 45.0705C140.128 45.1649 140.082 45.2796 139.992 45.4145C139.908 45.5427 139.762 45.6034 139.552 45.5967C139.371 45.5899 139.235 45.5292 139.145 45.4145C139.054 45.2931 139.009 45.1481 139.009 44.9794C139.009 44.7838 139.092 44.5679 139.26 44.3318C139.427 44.0957 139.674 43.8933 140.002 43.7247C140.33 43.556 140.737 43.4717 141.225 43.4717C141.595 43.4717 141.95 43.5324 142.292 43.6538C142.633 43.7685 142.912 43.9608 143.128 44.2306C143.351 44.5005 143.463 44.8681 143.463 45.3336C143.463 45.563 143.396 45.8092 143.264 46.0723C143.139 46.3354 142.919 46.6356 142.605 46.9729C142.299 47.3034 141.873 47.6812 141.33 48.1062C140.884 48.457 140.528 48.7876 140.263 49.0979C140.006 49.4082 139.856 49.6612 139.814 49.8568L141.727 49.9074C142.006 49.9142 142.253 49.9108 142.469 49.8973C142.685 49.8838 142.853 49.8298 142.971 49.7354C143.097 49.6342 143.159 49.4622 143.159 49.2193H143.588L143.515 50.717H138.977Z" fill="#031826"/>
</svg>
