<svg width="70" height="29" viewBox="0 0 70 29" fill="none" xmlns="http://www.w3.org/2000/svg">
<path d="M68.5141 6.53375C68.5141 6.53375 68.5676 6.53375 68.5944 6.53375C68.6212 6.53375 68.5409 6.49628 68.5141 6.53375Z" fill="#C5903A"/>
<path d="M24.0787 21.9236C24.4159 24.0082 26.4447 24.7845 28.2915 24.6379L28.2915 24.6107C26.4286 24.5782 24.6461 23.7367 24.3624 21.6901C24.2953 20.9903 24.3812 20.2841 24.614 19.6218C24.9751 18.7676 25.5095 18 26.1824 17.3689C26.1903 17.3604 26.195 17.3493 26.1955 17.3376C26.196 17.3259 26.1924 17.3144 26.1853 17.3052C26.1781 17.296 26.168 17.2897 26.1566 17.2874C26.1453 17.2852 26.1336 17.2871 26.1235 17.293C25.3693 17.7731 24.7724 18.4694 24.4084 19.2937C24.0444 20.1179 23.9297 21.0332 24.0787 21.9236Z" fill="#C5903A"/>
<path d="M26.0647 23.243C26.0005 23.243 25.9576 23.3136 26.0005 23.3625C26.8034 24.2256 28.4307 24.0845 29.405 23.6719C29.4371 23.6719 29.405 23.6122 29.405 23.623C28.7814 23.7862 28.133 23.8286 27.4939 23.7479C27.0018 23.6293 26.5229 23.4602 26.0647 23.243Z" fill="#C5903A"/>
<path d="M27.9436 23.183C28.3136 23.198 28.6815 23.1197 29.0143 22.955C29.2926 22.841 29.6084 22.7596 29.7048 22.4447C29.7048 22.4121 29.6673 22.3796 29.6459 22.4121C29.2284 22.8898 28.4468 22.8681 27.9169 23.0961C27.9062 23.1124 27.8901 23.1776 27.9436 23.183Z" fill="#C5903A"/>
<path d="M35.0096 18.6339C35.6342 19.2327 36.219 19.8729 36.76 20.5502C37.0651 20.99 37.2579 21.3265 37.3382 21.4188C37.4184 21.5111 37.4666 21.5274 37.5148 21.522C38.1304 22.358 38.6818 23.1505 39.2492 23.8563C48.6866 35.669 71.56 20.3277 68.8996 7.20126C68.8996 7.0004 68.8407 6.51182 68.6534 6.51724C68.6338 6.51993 68.614 6.51993 68.5945 6.51724C68.6549 6.61273 68.695 6.71999 68.7122 6.83211C68.6801 9.72014 68.8353 12.923 66.1642 16.9891C61.4375 24.2091 52.5943 28.0689 46.8933 27.5532C42.0488 27.1189 39.64 23.498 38.0876 21.1745C37.8413 20.8126 37.579 20.4507 37.3007 20.0888C36.6151 18.7397 35.5316 17.6409 34.2013 16.9456C29.0891 12.7982 22.3229 11.4356 19.8498 16.1585C19.5554 16.7013 19.277 17.5428 18.5276 17.5808C17.9923 17.6079 17.0502 16.5548 17.9334 14.9859C19.1272 12.8633 23.8218 10.5453 30.4328 12.9882C33.2966 14.0413 36.4656 16.8588 36.4656 16.8588C36.5673 16.9294 36.8243 14.9859 36.7975 15.1053C37.1264 13.9576 37.722 12.9065 38.5342 12.0403C39.3464 11.1742 40.3515 10.5181 41.4653 10.1273C44.2329 9.25327 47.3215 11.7559 45.6889 13.6613C45.3516 14.0522 44.8966 14.5842 44.6504 14.2585C45.1107 10.9416 41.096 10.2413 39.0725 12.9122C35.3789 17.7979 40.2663 26.9234 49.1202 26.7117C55.0834 26.5652 66.2498 20.4471 68.0538 9.76898C68.1992 9.25021 68.3012 8.71996 68.3589 8.18384C68.3611 8.15334 68.3527 8.12304 68.3351 8.09823C68.3175 8.07342 68.2918 8.05568 68.2626 8.04812L68.2626 7.83639C68.3268 7.70611 68.3857 6.7181 68.5035 6.51724C68.2305 6.55524 68.1234 6.6801 68.0699 6.98953C68.0431 6.98953 68.0217 6.98953 68.0217 6.98953C67.9828 6.97632 67.9413 6.97338 67.901 6.98098C67.8608 6.98858 67.8231 7.00648 67.7915 7.03297C67.7217 7.08214 67.6587 7.14057 67.6042 7.20669L67.4382 7.38583L67.2723 7.58668C67.1561 7.72354 67.0328 7.85401 66.9029 7.97754C66.4543 8.35464 65.8776 8.5379 65.297 8.48784C64.6792 8.48128 64.0794 8.276 63.584 7.90155C63.3227 7.65602 63.1123 7.36004 62.9653 7.03098C62.8182 6.70192 62.7374 6.3464 62.7276 5.98525C62.6312 5.15467 62.6044 4.35665 62.5134 3.61836C62.4369 3.08135 62.2893 2.55728 62.0745 2.06035C62.0011 1.84417 61.8848 1.64549 61.733 1.47652C61.5811 1.30755 61.3967 1.17186 61.1912 1.07777C61.1484 1.07777 61.0521 1.07776 60.9932 1.20805C60.6452 1.8812 59.9814 2.86378 59.6281 3.69979C59.6286 3.59756 59.6179 3.49559 59.596 3.39579C59.5593 3.21019 59.4845 3.0345 59.3766 2.88008C59.2825 2.73772 59.1669 2.6113 59.034 2.5055C58.7297 2.27737 58.3713 2.13508 57.9951 2.09312C57.619 2.05116 57.2386 2.11103 56.8928 2.26664C55.836 2.66687 54.9095 3.35653 54.2162 4.25893C53.879 4.6721 53.6408 5.15895 53.5204 5.68123C53.4347 6.14809 53.5471 6.55525 53.9593 6.6964C53.9593 6.6964 53.9593 6.75068 53.9593 6.74525C53.9822 6.75079 54.006 6.75079 54.0289 6.74525C54.0498 6.74327 54.0702 6.73698 54.0886 6.72678C54.1071 6.71659 54.1233 6.70268 54.1363 6.68593C54.1494 6.66917 54.1589 6.64992 54.1643 6.62932C54.1698 6.60872 54.1711 6.58721 54.1681 6.5661L54.1413 6.50096L54.1413 6.39781C54.1635 6.1629 54.2346 5.93545 54.3499 5.7305C54.4653 5.52555 54.6223 5.34777 54.8104 5.20894C54.9885 5.07165 55.1899 4.96861 55.4046 4.90494C55.5779 4.85146 55.7589 4.82761 55.9399 4.83437C56.3628 4.83437 56.5234 5.20895 56.5662 5.64324C56.609 6.07753 56.5341 6.54982 56.5662 6.99497C56.5812 7.29129 56.6559 7.58136 56.7857 7.84726C56.8395 7.97736 56.904 8.10266 56.9784 8.22184C57.0584 8.3634 57.1596 8.49157 57.2782 8.60183C57.243 8.61299 57.2089 8.62754 57.1765 8.64527C56.8776 8.77903 56.6201 8.99259 56.4315 9.26317C56.243 9.53374 56.1304 9.85117 56.1059 10.1816C56.075 10.4961 56.1153 10.8135 56.2236 11.1099C56.4643 11.6666 56.9128 12.104 57.4709 12.3259C57.7516 12.4482 58.044 12.541 58.3434 12.6027C58.4933 12.6353 58.6486 12.6625 58.7984 12.6842C58.9483 12.7059 59.0928 12.7222 59.2374 12.733C61.1642 12.8666 63.0823 12.3679 64.7082 11.3107C65.4797 10.8193 66.1974 10.2461 66.8494 9.6007L66.9083 9.53556L66.828 9.70928L66.6299 10.1056L66.5282 10.3064L66.4158 10.5019C65.8746 11.3701 65.1415 12.0987 64.2746 12.6299C63.3743 13.2397 62.3762 13.6861 61.3251 13.949C60.8148 14.0691 60.2887 14.1039 59.7673 14.0522C59.5116 14.0246 59.2577 13.9811 59.0072 13.9219L58.8145 13.873C58.7511 13.8564 58.6885 13.8365 58.6271 13.8133C58.5094 13.7699 58.3916 13.721 58.2738 13.6667C58.0437 13.5636 57.8188 13.4605 57.5994 13.3519L56.9516 13.0099L56.6412 12.847L56.3253 12.6733L56.0149 12.5104L55.7097 12.3584C55.0225 12.0314 54.3053 11.7732 53.5685 11.5876C52.7746 11.3634 51.9436 11.308 51.1276 11.4247C51.1015 11.4269 51.0763 11.4349 51.0536 11.4482C51.031 11.4615 51.0116 11.4797 50.9967 11.5015C50.9819 11.5233 50.972 11.5482 50.9678 11.5743C50.9635 11.6005 50.9651 11.6272 50.9723 11.6527C51.2185 12.4019 51.3149 13.5907 51.7003 14.4648C51.5815 14.3837 51.4561 14.3129 51.3256 14.253C51.0372 14.1226 50.733 14.0313 50.4209 13.9816C50.1076 13.93 49.7909 13.9028 49.4735 13.9002C48.2116 13.8313 46.9735 14.268 46.0261 15.1162C45.6123 15.5459 45.3131 16.0753 45.1567 16.6546C45.0003 17.2339 44.9919 17.8441 45.1322 18.4276C45.2439 18.9882 45.5028 19.5077 45.8816 19.9314C46.0627 20.1411 46.298 20.2954 46.5609 20.3769C46.8238 20.4584 47.1039 20.4639 47.3697 20.3928C47.3794 20.4012 47.3918 20.4058 47.4045 20.4058C47.4173 20.4058 47.4296 20.4012 47.4393 20.3928C47.4641 20.3781 47.483 20.355 47.4928 20.3277C47.5149 20.3189 47.5339 20.3036 47.5473 20.2838C47.5607 20.2639 47.5679 20.2404 47.5679 20.2164C47.5679 20.1923 47.5607 20.1688 47.5473 20.149C47.5339 20.1291 47.5149 20.1138 47.4928 20.1051L47.3965 20.0725L47.3162 19.9802C47.1214 19.8239 46.9764 19.6128 46.8993 19.3734C46.8222 19.1339 46.8164 18.8767 46.8826 18.6339C46.9718 18.3983 47.1082 18.184 47.2833 18.0046C47.4584 17.8252 47.6683 17.6845 47.8997 17.5916C48.1761 17.4863 48.474 17.4525 48.7666 17.4933C49.0591 17.534 49.337 17.6481 49.5752 17.8251C50.0391 18.1638 50.4857 18.5262 50.9134 18.9108C51.0795 19.0345 51.2591 19.1383 51.4487 19.2202C51.6414 19.3071 51.8449 19.3722 52.0376 19.4374C52.2408 19.5069 52.4482 19.5631 52.6585 19.6057C52.912 19.6614 53.1701 19.6923 53.4293 19.6979L53.3383 19.8011C53.1075 20.0367 52.9687 20.3491 52.9476 20.6805C52.9494 20.8702 52.991 21.0573 53.0694 21.2295C53.1478 21.4016 53.2614 21.555 53.4026 21.6794C53.4731 21.7534 53.5501 21.8206 53.6328 21.8803C53.7161 21.9426 53.8038 21.9988 53.8951 22.0485C54.0648 22.1497 54.2442 22.2333 54.4304 22.2983C54.5374 22.3308 54.6445 22.3634 54.7569 22.3905C54.8693 22.4177 54.9871 22.434 55.1048 22.4448C55.3427 22.4758 55.5824 22.4904 55.8222 22.4883C56.0694 22.478 56.316 22.4544 56.5609 22.4177C56.8136 22.3809 57.0639 22.3283 57.3103 22.2603C57.5619 22.1897 57.8135 22.1137 58.0597 22.0268C58.306 21.94 58.5468 21.8314 58.7824 21.7283C59.2438 21.5186 59.6925 21.2811 60.126 21.0171L60.3776 20.8705L60.6131 20.7077C60.7737 20.5991 60.9289 20.4851 61.0842 20.3765L61.309 20.2028C61.3465 20.1757 61.3893 20.1485 61.4214 20.1214L61.5071 20.0399L61.8443 19.7251C62.294 19.2962 62.7383 18.8294 63.1558 18.3462C63.9941 17.3772 64.7481 16.3365 65.4094 15.2356C66.0143 14.2313 66.5443 13.2107 67.0153 12.1902L66.9297 12.4942C64.3335 21.18 53.4829 26.2394 48.0977 26.0006C41.5992 25.7074 37.2043 18.9922 39.383 14.2367C40.277 12.2987 43.7886 10.4639 44.1526 14.3345C44.265 15.6048 45.4801 15.0565 46.3794 13.7373C47.0592 12.7385 46.7862 10.2956 43.6494 9.51927C40.9729 8.85155 37.9323 11.0339 36.5887 13.8025C36.0534 14.9642 36.1551 15.4311 36.2194 16.4354C33.8373 14.1228 33.0076 13.075 29.1052 11.8807C22.3015 9.79614 16.2151 13.341 16.7611 16.7013C17.077 18.6339 19.5661 19.4157 20.6153 16.1585C23.158 13.2867 26.8623 13.8242 30.315 15.4799C30.497 15.5722 30.6683 15.6591 30.8503 15.7513C19.5393 13.2813 21.1774 29.1818 29.1587 25.6369C30.9145 24.8551 31.9477 23.156 30.2293 21.1637C29.6619 20.5177 29.5656 21.6631 27.8847 22.1408C26.8569 22.434 25.963 21.6305 25.6257 20.7131C24.9352 18.8185 27.2959 15.5776 33.3234 17.7111C33.9321 17.9216 34.5019 18.2335 35.0096 18.6339ZM65.115 10.681C63.6065 11.6858 61.85 12.2406 60.0457 12.2824C59.4361 12.2924 58.8284 12.2119 58.2417 12.0436C57.957 11.9558 57.6852 11.8298 57.4334 11.669C57.1874 11.5099 56.9746 11.3033 56.8071 11.061C56.7205 10.9361 56.657 10.7963 56.6198 10.6484C56.5719 10.4718 56.5538 10.2883 56.5662 10.1056C56.5755 9.91432 56.6241 9.72713 56.7089 9.55605C56.7937 9.38497 56.9129 9.23375 57.0587 9.11213C57.2928 8.94881 57.5567 8.8344 57.8349 8.77555L57.9259 8.7267C58.0182 8.69023 58.102 8.63479 58.1721 8.56385C58.2524 8.48784 58.2631 8.33584 58.2042 8.30327C58.1454 8.27069 57.958 8.1784 57.8402 8.11326C57.7152 8.05446 57.6053 7.96713 57.5191 7.85811C57.4144 7.72089 57.3264 7.57144 57.2568 7.41296C57.1854 7.23746 57.1299 7.05577 57.0908 6.8701C57.0458 6.45738 57.0333 6.04169 57.0533 5.62696C57.0629 5.44337 57.0329 5.25986 56.9654 5.08923C56.898 4.9186 56.7946 4.76493 56.6626 4.63894C56.4289 4.48364 56.1446 4.42713 55.8703 4.48151C55.5079 4.54421 55.1629 4.68489 54.8586 4.89409C54.5416 5.11072 54.2823 5.40352 54.1038 5.74639C54.0633 5.83062 54.0345 5.92013 54.0182 6.01239C53.9587 5.83806 53.9439 5.65123 53.9754 5.46952C54.1041 4.97516 54.3504 4.52035 54.6927 4.14494C55.0256 3.72165 55.4232 3.3551 55.8703 3.05921C56.2523 2.79966 56.6736 2.60528 57.1176 2.48378C57.4396 2.38844 57.7818 2.38892 58.1035 2.48516C58.4252 2.5814 58.7129 2.76935 58.9323 3.02664C59.0509 3.1526 59.1453 3.29987 59.2106 3.46093C59.287 3.65213 59.3234 3.85731 59.3177 4.06351C59.3177 4.21551 59.2856 4.40552 59.2856 4.5738C59.2856 4.74209 59.3123 4.88867 59.414 4.94838C59.414 4.94838 59.671 4.94838 59.6817 4.82895C59.7353 4.20579 59.908 3.59917 60.1902 3.04293C60.4579 2.50007 60.7898 1.95721 61.0788 1.38721C61.444 1.657 61.7157 2.03703 61.855 2.47293C62.0451 2.99956 62.1779 3.54566 62.2511 4.10152C62.3582 4.83981 62.3957 5.69752 62.5241 6.53353C62.595 7.16343 62.8946 7.744 63.3646 8.16212C63.7827 8.50252 64.2877 8.71528 64.8206 8.77555C65.4116 8.89117 66.0234 8.81717 66.571 8.56385C66.6563 8.51466 66.7385 8.46026 66.8173 8.40098C66.8587 8.37513 66.898 8.34609 66.935 8.31412L67.0475 8.21097L67.2508 7.9884C67.3204 7.9124 67.3793 7.82555 67.4436 7.74955L67.5828 7.54868C67.6363 7.47268 67.6898 7.38582 67.7487 7.31525C67.7992 7.25229 67.8587 7.19739 67.9253 7.1524C67.963 7.12649 68.0085 7.11496 68.0538 7.11983L68.0163 7.53239C67.7921 8.08654 67.467 8.59296 67.0582 9.02526C66.4814 9.65758 65.8286 10.2139 65.115 10.681ZM67.1973 11.3216C66.7024 12.4084 66.1392 13.4619 65.5111 14.4756C64.8799 15.519 64.1732 16.5134 63.3967 17.4505L63.1023 17.7979L62.8025 18.1399L62.492 18.4765L62.1815 18.8022L61.8604 19.1225L61.5392 19.4319L61.3786 19.5785L61.2983 19.6545L61.1698 19.7522C61.0306 19.8608 60.8915 19.9694 60.7416 20.0725C60.5917 20.1757 60.5435 20.2191 60.4472 20.2897C60.3508 20.3602 60.2438 20.4362 60.1367 20.496C59.9226 20.6317 59.7031 20.762 59.4783 20.8922C59.3659 20.952 59.2534 21.0225 59.1357 21.0768L58.7877 21.2397C58.5522 21.3482 58.3113 21.4514 58.0651 21.5437C57.8188 21.636 57.5779 21.7011 57.3317 21.7717C57.2086 21.8043 57.0855 21.8314 56.9623 21.8585C56.8392 21.8857 56.7161 21.902 56.593 21.9182C56.3498 21.9532 56.105 21.9749 55.8596 21.9834C55.6198 21.9853 55.3802 21.9708 55.1423 21.94C54.6932 21.8849 54.2703 21.696 53.9272 21.3971C53.762 21.2784 53.6417 21.1061 53.5862 20.9087C53.5307 20.7113 53.5434 20.5005 53.6221 20.3114C53.7773 19.9422 54.0878 19.7957 54.3501 19.5297C54.3813 19.4991 54.4083 19.4644 54.4304 19.4265C54.5139 19.3486 54.5749 19.2492 54.607 19.1388C54.6445 19.0194 54.5107 18.9054 54.3983 18.9217C53.9487 19.0229 53.4881 19.0649 53.0279 19.0465C52.4948 18.975 51.9774 18.8136 51.4969 18.5688C51.0391 18.2825 50.6009 17.9651 50.1854 17.6188C49.7335 17.2721 49.1836 17.0818 48.617 17.0759C48.189 17.0824 47.7723 17.2159 47.4184 17.46C47.0645 17.7041 46.7889 18.0481 46.6257 18.4494C46.4784 18.8166 46.4784 19.2276 46.6257 19.5948C46.6644 19.6898 46.7207 19.7764 46.7916 19.8499C46.5767 19.7686 46.3788 19.6471 46.2081 19.4917C45.8592 19.0821 45.6474 18.5708 45.6032 18.0314C45.5107 17.3442 45.6468 16.6455 45.99 16.0457C46.3333 15.4459 46.864 14.9793 47.4982 14.7199C47.7637 14.608 48.04 14.5243 48.3226 14.4702C48.4671 14.4702 48.6116 14.4268 48.7562 14.4105C48.9007 14.3942 49.0399 14.3833 49.179 14.3779C49.4628 14.3779 49.7465 14.3779 50.0088 14.3779C50.3115 14.401 50.611 14.4555 50.9027 14.5407C51.1919 14.6276 51.4637 14.7654 51.7057 14.9479C52.0108 15.1976 52.348 15.6048 52.7763 15.5668C52.8191 15.5668 53.1135 15.3822 53.0279 15.3008C52.7745 15.071 52.5482 14.8123 52.3534 14.5299C52.1592 14.2403 52.0027 13.9264 51.8877 13.5962C51.6789 12.9882 51.5826 12.3476 51.3952 11.7396C52.186 11.7048 52.9769 11.8058 53.7345 12.0382C53.9218 12.087 54.1092 12.1467 54.2698 12.2119C54.3608 12.2499 54.4518 12.2824 54.5428 12.315C54.6338 12.3476 54.7248 12.3802 54.8158 12.4182C55.1905 12.5702 55.5384 12.7167 55.8864 12.8904C56.1059 12.9936 56.3146 13.0967 56.5341 13.2107L56.866 13.3845L57.1925 13.5527C57.4174 13.6613 57.6422 13.7808 57.8777 13.8893C58.1133 13.9979 58.3434 14.0956 58.5843 14.1933C58.6914 14.2313 58.7931 14.2693 58.9055 14.3019C59.0149 14.3311 59.1256 14.3547 59.2374 14.3725C59.6866 14.4483 60.1434 14.4666 60.597 14.4268C60.8271 14.4071 61.0558 14.3745 61.2822 14.329C63.1801 13.8674 64.8976 12.8386 66.2124 11.3759C66.3177 11.2488 66.4143 11.1146 66.5014 10.9741C66.5871 10.8384 66.6674 10.6973 66.7477 10.5561C66.828 10.415 66.8922 10.2684 66.9564 10.1219C67.0207 9.97528 67.0956 9.83414 67.1545 9.68214C67.2134 9.53014 67.3526 9.17184 67.481 8.8787C67.5105 8.81129 67.5445 8.74599 67.5828 8.68326L67.7326 8.4607C67.7735 8.40506 67.8201 8.3541 67.8718 8.3087C67.8183 8.79185 67.7219 9.39442 67.5613 10.187C67.5025 10.5833 67.3579 10.9524 67.1973 11.3216ZM30.058 21.4948C30.4611 22.128 30.6228 22.8883 30.513 23.6337C30.1437 25.056 26.8783 26.2123 24.7853 24.448C22.2533 22.3254 22.703 13.759 32.1993 16.5602C32.301 16.5873 32.3973 16.6253 32.4937 16.6579C33.0518 17.0254 33.588 17.426 34.0996 17.8576C33.6658 17.6176 33.2083 17.4247 32.7346 17.2822C22.7244 14.2802 24.0787 26.158 30.058 21.4948Z" fill="#C5903A"/>
<path d="M66.6299 11.5062L66.5068 11.7179C66.4212 11.8537 66.3248 11.9948 66.2285 12.1305C66.1321 12.2662 66.0197 12.3911 65.9073 12.5159C65.7996 12.6468 65.6834 12.7701 65.5593 12.8851C65.4416 13.0045 65.3185 13.1239 65.19 13.2379C65.0615 13.3519 64.933 13.4605 64.8046 13.5691C64.5476 13.7917 64.2693 13.9925 64.0177 14.1988C62.833 15.1063 61.5508 15.8748 60.1956 16.4897L59.9494 16.6037L59.6871 16.7068C59.5104 16.7774 59.3338 16.848 59.1518 16.9131C59.0623 16.947 58.9712 16.976 58.8788 17L58.6111 17.0814C58.4291 17.1303 58.2471 17.1846 58.0758 17.228C57.9045 17.2714 57.7064 17.304 57.5405 17.3366C57.3746 17.3691 57.1765 17.4017 57.0052 17.418C56.8339 17.4343 56.6358 17.456 56.4699 17.4723C56.3789 17.4723 56.2879 17.4723 56.1969 17.4723L55.9185 17.4723C55.7419 17.4723 55.5652 17.4723 55.3832 17.4723C55.2012 17.4723 55.0353 17.4723 54.8479 17.4343C54.6606 17.3963 54.5053 17.4017 54.3126 17.38C54.1199 17.3583 53.97 17.3311 53.7773 17.2986C53.5846 17.266 53.424 17.2334 53.242 17.1845C53.06 17.1357 52.8994 17.0868 52.7067 17.038C52.3641 16.9403 52.0269 16.8208 51.6843 16.734C51.6361 16.734 51.6147 16.7937 51.6843 16.8208C51.9738 16.9995 52.2828 17.1434 52.605 17.2497C52.771 17.304 52.9369 17.3583 53.1028 17.4017C53.2688 17.4451 53.2688 17.4506 53.3544 17.4723L53.6007 17.5374C53.9616 17.628 54.3283 17.6933 54.698 17.7328L55.2333 17.7817C55.4261 17.7817 55.6134 17.7817 55.8061 17.7817C56.5785 17.7872 57.3489 17.7034 58.1026 17.532C58.2899 17.4886 58.4773 17.4288 58.67 17.38L58.9537 17.2931C59.048 17.2673 59.1409 17.2365 59.2321 17.2008L59.7674 16.9891L60.0404 16.8751L60.292 16.7611C61.6435 16.1597 62.915 15.3882 64.0765 14.4648C64.6575 13.9882 65.195 13.4594 65.6824 12.8851L66.0411 12.4399L66.207 12.2228C66.2659 12.1468 66.3195 12.0654 66.3676 11.9894C66.4721 11.8391 66.5686 11.6832 66.6567 11.5225C66.7442 11.3595 66.8211 11.1908 66.8869 11.0176L66.6781 11.2511L66.6299 11.5062Z" fill="#C5903A"/>
<path d="M66.9992 8.71047C66.9403 8.71047 66.8868 8.7539 66.8279 8.77561C66.7533 8.85227 66.6747 8.92475 66.5924 8.99276C66.5077 9.05758 66.4182 9.11566 66.3247 9.16648C66.2337 9.21533 66.1374 9.2642 66.041 9.30763C65.9448 9.34588 65.8465 9.3785 65.7466 9.40534C65.5468 9.4636 65.3428 9.50536 65.1364 9.5302C64.933 9.56277 64.7295 9.57363 64.5261 9.59534C63.6178 9.65446 62.707 9.52515 61.8496 9.21533C61.0239 8.90465 60.2736 8.41776 59.6495 7.7876C59.3539 7.47861 59.0918 7.13827 58.868 6.77245C58.7465 6.57596 58.6426 6.36885 58.5575 6.1536C58.4665 5.94188 58.3809 5.73015 58.2791 5.52929C58.2791 5.50215 58.2149 5.5293 58.2149 5.58902C58.2756 6.04829 58.4247 6.49098 58.6539 6.89188C58.8661 7.30903 59.1365 7.69298 59.4568 8.0319C60.0861 8.70739 60.8664 9.21942 61.7318 9.52477C62.604 9.8575 63.54 9.98195 64.4672 9.88848C64.9437 9.84568 65.4101 9.72469 65.8483 9.5302C66.0706 9.44069 66.2839 9.32979 66.4853 9.19905C66.5858 9.13502 66.6808 9.06238 66.769 8.98191C66.8534 8.89835 66.9304 8.80753 66.9992 8.71047Z" fill="#C5903A"/>
<path d="M0.884049 9.08484C1.51035 9.22598 2.142 9.33455 2.76831 9.46483C3.69438 9.66026 4.60975 9.89371 5.52512 10.138C6.93297 10.518 8.32475 10.9523 9.7326 11.3269C9.25666 11.4173 8.79545 11.5744 8.36223 11.7937C7.64017 12.1747 7.02505 12.735 6.57431 13.4223C6.08183 14.1389 5.77671 14.964 5.28959 15.686C5.01035 16.1502 4.63613 16.5482 4.19221 16.8532C3.78538 17.0921 3.34644 17.2495 2.92355 17.4666C2.81649 17.5209 2.87002 17.6838 2.97173 17.7109C3.22311 17.8094 3.48061 17.891 3.74256 17.9552C3.95668 17.9824 4.17081 18.0095 4.37957 18.0475C4.86429 18.1411 5.33548 18.2961 5.78206 18.5089C6.47749 18.8768 7.25793 19.0474 8.04104 19.0029C9.11165 18.8889 10.6694 18.5361 11.0601 17.3743L11.2314 17.0921C11.6606 16.2439 12.1397 15.4227 12.6661 14.6329C13.1584 13.9772 13.7203 13.3782 14.3416 12.8469C14.6009 12.5941 14.8862 12.3702 15.1927 12.1791C15.4389 12.0434 15.6905 11.9837 15.9368 11.8751C16.108 11.8751 16.2793 11.8317 16.4721 11.8046C17.3714 11.6634 18.2439 11.392 19.1486 11.2129C19.8961 11.071 20.6358 10.8898 21.3647 10.67C21.4932 10.6428 21.6163 10.6103 21.7448 10.594C22.4087 10.51 23.078 10.4774 23.7468 10.4963C24.5931 10.5119 25.4329 10.649 26.2413 10.9034C26.8569 11.1097 27.4297 11.6417 28.1042 11.5983C28.2535 11.6543 28.4076 11.6961 28.5645 11.7231C29.18 11.8107 29.8073 11.7417 30.3899 11.5223C30.9603 11.28 31.4996 10.9683 31.9958 10.594C32.5176 10.3029 32.9953 9.93728 33.4144 9.50827C33.4351 9.47524 33.4476 9.43765 33.451 9.39868C33.4544 9.35971 33.4485 9.32048 33.4338 9.2843C33.4191 9.24813 33.396 9.21605 33.3666 9.19078C33.3371 9.16552 33.3021 9.14781 33.2645 9.13913C33.1214 8.95993 32.9378 8.8184 32.7292 8.72655C32.4348 8.55826 32.1404 8.39539 31.8406 8.24339C31.2793 7.93856 30.6846 7.70171 30.0687 7.53768C29.4575 7.38788 28.8246 7.35109 28.2005 7.4291C28.0553 7.45135 27.9133 7.49146 27.7776 7.54853C27.2691 7.74152 26.7706 7.96077 26.2841 8.2054C25.4758 8.45984 24.6359 8.59692 23.7896 8.61255C23.1208 8.6342 22.4513 8.60151 21.7876 8.51482C21.6506 8.49554 21.5147 8.46836 21.3808 8.4334C20.924 8.31035 20.469 8.1692 20.0158 8.00997C19.1692 7.73195 18.3006 7.52853 17.4195 7.40196C17.002 7.33682 16.5845 7.2934 16.1616 7.2554C16.1518 7.23554 16.1371 7.21868 16.1188 7.20654C15.8404 7.05997 15.546 7.0111 15.2623 6.85367C14.9571 6.66276 14.672 6.44085 14.4111 6.19137C13.7898 5.6581 13.2279 5.05737 12.7356 4.39993C12.207 3.61159 11.7278 2.79024 11.301 1.94077C11.2485 1.84563 11.1914 1.75322 11.1297 1.6639C10.739 0.491319 9.18124 0.13846 8.11063 0.0353161C7.32773 -0.0147231 6.54631 0.154281 5.85165 0.523889C5.40532 0.738554 4.93411 0.895414 4.44916 0.990759C4.24039 1.02876 4.02627 1.05046 3.81215 1.08304C3.54965 1.1429 3.29198 1.22275 3.04132 1.3219C2.93961 1.34904 2.88608 1.51191 2.99314 1.57163C3.41603 1.78334 3.85498 1.9462 4.26181 2.18506C4.70671 2.48883 5.08115 2.88708 5.35918 3.35221C5.8463 4.06879 6.15142 4.89395 6.6439 5.61052C7.09339 6.29893 7.70881 6.85951 8.43181 7.23911C8.58169 7.31511 8.75299 7.3911 8.93499 7.46167L8.82794 7.46167C7.89116 7.64081 6.95973 7.62997 6.0176 7.72768C4.56157 7.87969 3.10555 8.22711 1.64418 8.41168C1.31229 8.48768 0.980402 8.5474 0.648514 8.60168L0.00615315 8.78084C-0.00205164 8.81104 -0.00205164 8.84292 0.00615316 8.87312C0.28451 8.9274 0.541449 8.99255 0.835865 9.06855C0.851754 9.07449 0.867827 9.07992 0.884049 9.08484ZM14.2666 12.2932C13.5868 12.855 12.9805 13.5026 12.4626 14.2203C11.9071 15.0951 11.4013 16.0013 10.9477 16.9346C10.8567 17.1029 10.6212 17.3635 10.4874 17.6078C10.0713 17.9653 9.5889 18.235 9.06861 18.4009C8.54832 18.5669 8.00059 18.6257 7.45756 18.5741C6.69973 18.4258 5.96628 18.17 5.27888 17.8141C4.91053 17.6875 4.5302 17.6002 4.14404 17.5535C3.91386 17.5209 3.66227 17.5155 3.41603 17.4992C4.07637 17.2264 4.67275 16.8158 5.16647 16.2941C5.66284 15.6178 6.10839 14.9046 6.49937 14.1606C6.91381 13.4076 7.49918 12.7656 8.20698 12.2877C8.63685 12.0267 9.10217 11.8309 9.58806 11.7069C9.90925 11.6309 10.2625 11.6146 10.5891 11.5386C10.7336 11.5766 10.8728 11.6146 11.012 11.6472C11.6868 11.8001 12.3722 11.8999 13.0622 11.9457C12.371 12.2717 11.7084 12.6567 11.0816 13.0966C10.3732 13.6349 9.70578 14.2265 9.08488 14.8663C8.57634 15.3495 7.74127 15.5232 7.37191 16.1475C7.3648 16.1623 7.36264 16.1791 7.36575 16.1953C7.36887 16.2114 7.37709 16.2262 7.38918 16.2372C7.40127 16.2482 7.41656 16.255 7.43276 16.2564C7.44895 16.2579 7.46518 16.2539 7.47897 16.2452C8.08663 15.9369 8.67482 15.5906 9.24012 15.2083C9.85879 14.6155 10.5209 14.0711 11.2207 13.5797C11.9164 13.1045 12.6592 12.7042 13.4369 12.3854C13.7955 12.2497 14.1595 12.1086 14.5075 11.9946C14.5503 11.9946 14.5985 11.9946 14.6467 11.9946C14.5236 12.0814 14.3951 12.1954 14.2827 12.2932L14.2666 12.2932ZM9.58806 7.30425C9.1007 7.18469 8.63473 6.98871 8.20698 6.72338C7.49981 6.24703 6.9145 5.60693 6.49937 4.85594C6.11089 4.11046 5.66522 3.39711 5.16647 2.72249C4.67423 2.199 4.07744 1.78812 3.41603 1.51734C3.66227 1.51734 3.91386 1.51733 4.14404 1.46305C4.53038 1.41447 4.9107 1.32533 5.27888 1.19705C5.96748 0.845234 6.70061 0.591312 7.45756 0.442463C8.00031 0.388509 8.54821 0.445764 9.0687 0.610832C9.58919 0.775898 10.0716 1.04542 10.4874 1.40334C10.6212 1.65306 10.8567 1.9082 10.9477 2.08192C11.4013 3.01521 11.9071 3.92146 12.4626 4.79623C12.9806 5.51228 13.5869 6.1581 14.2666 6.71795C14.3951 6.83195 14.5503 6.96225 14.7163 7.08711C14.6549 7.07582 14.5942 7.06132 14.5343 7.04367C14.1596 6.92967 13.7848 6.7831 13.4208 6.64196C12.6443 6.3229 11.9017 5.92456 11.2047 5.45309C10.5061 4.96009 9.8441 4.41576 9.22406 3.8245C8.65762 3.44244 8.06956 3.0944 7.46291 2.7822C7.44874 2.77152 7.43132 2.76627 7.4137 2.76735C7.39608 2.76844 7.37941 2.77579 7.36661 2.78811C7.35381 2.80044 7.34572 2.81696 7.34375 2.83475C7.34178 2.85254 7.34607 2.87045 7.35585 2.88534C7.72521 3.50421 8.56028 3.67793 9.06882 4.16651C9.69658 4.80174 10.3693 5.3896 11.0816 5.92538C11.7566 6.40165 12.4734 6.81414 13.2228 7.15767C12.6553 7.15767 12.0933 7.15767 11.5366 7.15767C10.903 7.17209 10.2705 7.2192 9.6416 7.29882L9.58806 7.30425ZM3.9085 8.38998C5.6643 8.13483 7.68774 7.84711 9.59341 7.67339C10.0212 7.78227 10.4677 7.79154 10.8996 7.70053C10.9128 7.69652 10.9244 7.68829 10.9327 7.67704C10.941 7.66579 10.9454 7.65214 10.9454 7.63811C10.9454 7.62408 10.941 7.61042 10.9327 7.59917C10.9244 7.58793 10.9128 7.57969 10.8996 7.57568C11.1244 7.57568 11.3492 7.54854 11.5633 7.53768C12.6972 7.46977 13.834 7.46977 14.9679 7.53768C15.1713 7.53768 15.3854 7.58111 15.5995 7.60825C15.6063 7.61124 15.6136 7.61278 15.6209 7.61278C15.6283 7.61278 15.6356 7.61124 15.6423 7.60825C16.1776 7.65711 16.7611 7.72226 17.3285 7.81454C18.2703 7.9796 19.2003 8.2081 20.1121 8.49854L20.3476 8.5637C20.7073 8.69988 21.0781 8.80342 21.4557 8.87311C22.1921 9.03682 22.945 9.11154 23.6986 9.09569C24.5204 9.11123 25.3412 9.03108 26.145 8.85683C26.7384 8.72909 27.3042 8.49369 27.8151 8.16197C28.4622 8.0044 29.138 8.0156 29.7797 8.19454C30.4204 8.35956 31.0484 8.57185 31.6586 8.82969C31.9744 8.95455 32.2742 9.10112 32.574 9.24769C32.5899 9.24474 32.6062 9.24474 32.6221 9.24769C32.3584 9.39252 32.1061 9.55767 31.8673 9.7417C31.4299 10.0537 30.974 10.3383 30.5023 10.594C29.983 10.8427 29.4172 10.976 28.8429 10.9849C28.3203 10.9338 27.8061 10.8171 27.3119 10.6374C26.9383 10.4601 26.5471 10.3236 26.145 10.2303C25.3412 10.055 24.5207 9.97128 23.6986 9.98056C22.9452 9.97026 22.1929 10.0449 21.4557 10.2031C21.092 10.2778 20.7342 10.3794 20.3851 10.5071C20.0907 10.556 19.7856 10.594 19.4965 10.6537C18.6079 10.8328 17.7354 11.0554 16.82 11.2346C16.4239 11.316 16.0331 11.3703 15.637 11.4191C15.637 11.392 15.637 11.3757 15.5942 11.3811C15.2516 11.4191 14.925 11.4517 14.6146 11.4951C13.4361 11.5316 12.2571 11.4406 11.0976 11.2237C9.25722 10.8229 7.43836 10.3265 5.64824 9.73626C4.73822 9.46483 3.82821 9.22056 2.90749 9.00341C2.81114 8.97627 2.71478 8.95455 2.61842 8.93284C3.27685 8.90027 3.9781 9.06854 4.61511 9.07397C5.584 9.07397 6.54754 9.16084 7.51109 9.23684C9.59333 9.42405 11.6848 9.48387 13.7741 9.41598C13.7887 9.41176 13.8015 9.40287 13.8106 9.39063C13.8197 9.37839 13.8246 9.36346 13.8246 9.34812C13.8246 9.33278 13.8197 9.31787 13.8106 9.30563C13.8015 9.29338 13.7887 9.28447 13.7741 9.28026C11.6972 9.0794 9.60947 8.93826 7.52715 8.80797C6.51007 8.74826 5.493 8.68312 4.47057 8.68854C4.00486 8.68854 3.51238 8.62341 3.03061 8.61255C3.3206 8.50857 3.62005 8.43401 3.92456 8.38998L3.9085 8.38998Z" fill="#C5903A"/>
</svg>
