<svg width="106" height="57" viewBox="0 0 106 57" fill="none" xmlns="http://www.w3.org/2000/svg">
<path fill-rule="evenodd" clip-rule="evenodd" d="M69.2003 8.30785L69.3494 8.43805L68.0834 9.68645L64.8284 6.52333L64.7022 6.63821C64.0519 7.24327 63.4208 7.8713 62.7476 8.44571C62.118 9.00012 61.35 9.37332 60.5254 9.52562C59.8906 9.66825 59.2294 9.63915 58.6096 9.44128C57.9899 9.24342 57.4339 8.88394 56.9988 8.39976C56.5082 7.85254 56.196 7.16857 56.1038 6.43908C55.9963 5.8193 56.0503 5.18224 56.2606 4.58946C56.4251 4.12591 56.6998 3.70938 57.061 3.37581C57.4221 3.04223 57.8589 2.80163 58.3337 2.67474C59.0156 2.45921 59.7387 2.40827 60.444 2.52607C61.1494 2.64387 61.8168 2.92708 62.3919 3.35255C62.8574 3.68355 63.2938 4.0538 63.6962 4.45926L63.811 4.56648C63.811 4.52053 63.8454 4.4899 63.853 4.45926C63.9946 3.94994 64.1361 3.44446 64.2738 2.92748C64.2974 2.81807 64.3076 2.7062 64.3044 2.59432C64.3044 2.4488 64.2241 2.36838 64.0825 2.39136C63.9324 2.422 63.7842 2.46164 63.6388 2.51007L63.4935 2.56369C63.4055 2.40668 63.4093 2.41051 63.5547 2.33775L65.1038 1.57186L65.2415 1.50293C65.1994 1.6676 65.165 1.80929 65.1267 1.95097C64.9149 2.8638 64.6362 3.75976 64.2929 4.63159C64.1743 4.91496 64.1705 4.91496 64.3962 5.13324L65.1994 5.92211L68.6036 2.47561H68.4697H67.2419C67.1569 2.47642 67.0722 2.4867 66.9895 2.50624C66.9162 2.51458 66.8468 2.54395 66.7898 2.59083C66.7328 2.63772 66.6906 2.7001 66.6682 2.77048C66.6146 2.91982 66.5534 3.06534 66.4961 3.21469C66.4387 3.36404 66.4387 3.37936 66.2474 3.34872C66.2456 3.31939 66.2456 3.28997 66.2474 3.26064C66.3813 2.82026 66.5228 2.37987 66.6529 1.93566C66.6835 1.83226 66.7332 1.80929 66.8326 1.81311H69.1276H69.6172L65.3562 6.02167C65.3721 6.04951 65.3913 6.07524 65.4136 6.09826L67.8998 8.49549C68.0081 8.58825 68.1231 8.67274 68.244 8.74824C68.3086 8.80179 68.3897 8.83111 68.4735 8.83111C68.5573 8.83111 68.6385 8.80179 68.703 8.74824C68.8599 8.62952 69.0052 8.49932 69.1582 8.36529L69.2003 8.30785ZM60.3303 6.59992C60.3335 6.61764 60.3335 6.63581 60.3303 6.65353C60.3568 6.81572 60.4346 6.96509 60.5524 7.07956C60.6702 7.19404 60.8216 7.26754 60.9844 7.28922C61.2537 7.35069 61.534 7.34513 61.8007 7.27303C62.0675 7.20093 62.3125 7.06449 62.5143 6.87564C62.9738 6.45161 63.3297 5.92752 63.5547 5.34386C63.5565 5.31926 63.5529 5.29456 63.5444 5.27144C63.5358 5.24832 63.5224 5.22731 63.505 5.20983C62.9236 4.70434 62.3575 4.17588 61.7532 3.6972C61.3146 3.33711 60.8015 3.07918 60.2511 2.94208C59.7007 2.80498 59.1268 2.79215 58.5708 2.90451C57.9749 3.00625 57.4301 3.30469 57.0233 3.7523C56.6164 4.19992 56.3708 4.77096 56.3256 5.3745C56.2815 5.82631 56.3382 6.28229 56.4917 6.70947C56.6451 7.13664 56.8915 7.52433 57.213 7.84449C57.6115 8.26243 58.095 8.58982 58.6309 8.80454C59.1667 9.01925 59.7423 9.11628 60.3188 9.08906C61.1289 9.0833 61.9168 8.82348 62.5717 8.34615C63.1971 7.86541 63.7852 7.338 64.3312 6.76841C64.4497 6.6497 64.5798 6.54248 64.6677 6.46206L63.8263 5.53533H63.7995C63.7574 5.61192 63.7115 5.68851 63.6656 5.7651C63.3108 6.39 62.806 6.91646 62.1968 7.29688C61.7956 7.55452 61.3127 7.65285 60.8428 7.5726C60.7317 7.56812 60.6237 7.53449 60.5296 7.47508C60.4355 7.41566 60.3587 7.33254 60.3068 7.23404C60.2549 7.13554 60.2297 7.02512 60.2338 6.91383C60.238 6.80254 60.2712 6.69429 60.3303 6.59992Z" fill="#133C58"/>
<path fill-rule="evenodd" clip-rule="evenodd" d="M73.9433 7.45417C74.016 7.3546 74.0733 7.25887 74.2149 7.27801C74.3564 7.29716 74.5974 7.33545 74.7044 7.53076C74.7524 7.65435 74.7871 7.78273 74.8077 7.9137C74.8134 7.971 74.8134 8.02873 74.8077 8.08603H74.8421L74.9033 7.97497C75.2756 7.16254 75.7811 6.41826 76.3989 5.77304C76.7598 5.43507 77.1621 5.14427 77.5961 4.90759C77.6756 4.86397 77.7655 4.84279 77.8562 4.84632C78.0092 4.84632 78.0665 4.92673 78.0283 5.07225C77.9997 5.18125 77.9652 5.28863 77.925 5.39393C77.7223 5.96451 77.5158 6.54276 77.3092 7.10186C77.2955 7.14287 77.2955 7.18722 77.3092 7.22823C77.3322 7.19759 77.3589 7.17079 77.3857 7.14015C77.8103 6.64233 78.2195 6.13684 78.6594 5.65433C78.9276 5.34658 79.2625 5.10426 79.6386 4.94588C79.7882 4.88848 79.9454 4.85363 80.1052 4.84249C80.2582 4.82334 80.3271 4.89993 80.3156 5.05694C80.3107 5.14544 80.29 5.23235 80.2544 5.31351C80.0173 5.85346 79.7686 6.38958 79.5391 6.93336C79.3096 7.47714 79.0955 8.03624 78.8774 8.58768C78.8554 8.6455 78.8412 8.70605 78.8354 8.76767C78.8354 8.91702 78.9119 8.98977 79.061 8.95531L79.2102 8.9017L79.367 8.82894L79.4473 8.94765C79.0139 9.25703 78.5316 9.49133 78.0206 9.64078C78.0474 9.45314 78.0666 9.29613 78.101 9.13912C78.2792 8.40836 78.5277 7.6966 78.843 7.01378C79.0113 6.63084 79.1987 6.24789 79.3747 5.8458C79.4167 5.75006 79.4818 5.64667 79.3747 5.55859C79.2676 5.47052 79.1834 5.55859 79.1031 5.60072C78.5874 5.94611 78.1346 6.37742 77.7644 6.87592C77.2453 7.56936 76.8481 8.3464 76.5901 9.17359C76.5328 9.34591 76.5328 9.34591 76.3186 9.36889C76.4138 7.99363 76.737 6.64383 77.2748 5.37478C77.2136 5.40924 77.1486 5.43988 77.0874 5.47817C76.6855 5.75133 76.339 6.09828 76.0661 6.50064C75.4977 7.32445 75.0338 8.21591 74.6853 9.15444C74.6673 9.23124 74.6273 9.30112 74.5702 9.35552C74.5132 9.40993 74.4415 9.44651 74.364 9.4608C74.195 9.50731 74.0299 9.5675 73.8706 9.64078C73.905 9.56036 73.9318 9.4876 73.9624 9.41484C74.1156 9.05554 74.2111 8.67429 74.2455 8.28516C74.2723 8.13228 74.2586 7.97501 74.2055 7.82914C74.1525 7.68328 74.0621 7.55396 73.9433 7.45417Z" fill="#133C58"/>
<path fill-rule="evenodd" clip-rule="evenodd" d="M92.586 9.62143L92.9685 8.75214C93.6264 7.28164 94.2843 5.81113 94.8159 4.28701C94.9651 3.86194 95.0684 3.42156 95.1984 2.98883C95.2232 2.89909 95.2348 2.8062 95.2329 2.71311C95.2329 2.51398 95.1105 2.4259 94.9154 2.47951C94.8045 2.51015 94.6974 2.54844 94.5864 2.58291C94.5061 2.44122 94.5138 2.44505 94.6553 2.38378C95.0837 2.1923 95.5121 2.00083 95.9366 1.79021L96.082 1.71362C96.059 1.88595 96.0437 2.0353 96.0246 2.18464C95.8798 2.93111 95.646 3.65751 95.3285 4.34828C95.0531 5.02609 94.7815 5.70773 94.5099 6.38554C94.4959 6.42781 94.4959 6.47348 94.5099 6.51575C94.5711 6.44299 94.6323 6.37406 94.6974 6.30513C95.101 5.82948 95.5951 5.43896 96.1508 5.15629C96.5421 4.96142 96.9764 4.86919 97.4131 4.88823C97.4802 4.88185 97.5479 4.89335 97.6091 4.92158C97.6704 4.94981 97.7231 4.99376 97.762 5.04897C97.8008 5.10418 97.8244 5.16869 97.8303 5.23596C97.8362 5.30323 97.8242 5.37087 97.7956 5.43201C97.7198 5.68308 97.5606 5.90065 97.3442 6.04855C96.8638 6.45281 96.2863 6.7247 95.6689 6.83742C95.5644 6.84322 95.4597 6.84322 95.3553 6.83742H95.2252L95.2749 6.91018C95.4092 7.06674 95.5083 7.25029 95.5657 7.44847C95.6232 7.64664 95.6375 7.85483 95.6077 8.05901C95.5822 8.35443 95.572 8.65097 95.5771 8.94744C95.5771 9.1887 95.7684 9.30358 96.0093 9.22699C96.1697 9.17464 96.3056 9.06578 96.3918 8.92064C96.5104 8.72151 96.6137 8.51472 96.7246 8.31176C96.7589 8.24282 96.7999 8.17741 96.847 8.11645C96.8996 8.29425 96.8902 8.4847 96.8202 8.65641C96.6948 8.91701 96.5088 9.14374 96.2779 9.31763C96.047 9.49152 95.7778 9.60751 95.493 9.65589C95.4206 9.67514 95.3446 9.67638 95.2717 9.6595C95.1987 9.64262 95.131 9.60813 95.0745 9.55904C95.0179 9.50995 94.9742 9.44774 94.9471 9.37785C94.92 9.30796 94.9105 9.23251 94.9192 9.15806C94.9192 8.8249 94.9766 8.49174 94.9957 8.15858C95.011 7.9623 95.011 7.76512 94.9957 7.56884C94.9944 7.42393 94.9411 7.28432 94.8457 7.17539C94.7502 7.06646 94.6189 6.99545 94.4755 6.97528C94.6358 6.82352 94.8387 6.72461 95.0569 6.6919C95.3247 6.65744 95.5962 6.64978 95.8563 6.59234C96.2229 6.52116 96.5606 6.3441 96.8279 6.08302C96.9093 6.00575 96.9727 5.91149 97.0137 5.80693C97.0547 5.70237 97.0722 5.59006 97.065 5.47797C97.0681 5.40546 97.0426 5.33464 96.9939 5.28087C96.9452 5.2271 96.8773 5.19472 96.8049 5.19076C96.6433 5.17423 96.4803 5.20341 96.3344 5.27501C95.9687 5.45052 95.6341 5.68465 95.3438 5.96814C95.011 6.27449 94.6935 6.58851 94.3837 6.91018C94.2962 7.00342 94.2274 7.11263 94.181 7.23185C93.898 7.91349 93.6226 8.59896 93.3472 9.28826C93.3397 9.32138 93.3233 9.35178 93.2997 9.37612C93.276 9.40045 93.2461 9.41776 93.2133 9.42612L92.6855 9.59462L92.586 9.62143Z" fill="#133C58"/>
<path fill-rule="evenodd" clip-rule="evenodd" d="M83.9569 8.86746L84.0219 8.97851C83.546 9.31817 83.0016 9.54951 82.427 9.65632C82.4537 9.52995 82.4729 9.4189 82.5035 9.31167C82.7591 8.5221 83.0762 7.75385 83.452 7.01401C83.6318 6.63106 83.8345 6.24812 84.0028 5.89198C84.0488 5.79542 84.0786 5.6919 84.0908 5.58562C84.0908 5.46308 84.0372 5.40947 83.9187 5.43627C83.8204 5.45851 83.7262 5.49598 83.6395 5.54733C83.2809 5.78082 82.9543 6.06018 82.6679 6.37832C81.8645 7.22404 81.2171 8.20548 80.7555 9.27721C80.7413 9.31572 80.7172 9.34981 80.6856 9.37603C80.654 9.40225 80.6161 9.41968 80.5757 9.42656C80.3806 9.484 80.1932 9.56059 79.9867 9.63335C80.0517 9.49166 80.1167 9.35763 80.1817 9.22742C80.6039 8.37623 80.9805 7.50316 81.3101 6.61191C81.4058 6.31948 81.4837 6.02151 81.5434 5.71965C81.5931 5.48989 81.4822 5.39415 81.2527 5.44776L80.9544 5.51286C80.9314 5.4401 80.9008 5.38649 81.0041 5.3482L82.339 4.85803L82.4384 4.82739C82.4335 4.95652 82.4156 5.08483 82.3849 5.21034C82.186 5.76561 81.9756 6.31705 81.7691 6.86466C81.7232 6.9872 81.6658 7.10208 81.6122 7.2208H81.639C81.6677 7.19462 81.6946 7.16647 81.7193 7.13655C82.2601 6.49488 82.8608 5.90631 83.5132 5.37883C83.7987 5.1497 84.128 4.98157 84.4809 4.88483L84.6416 4.86186C84.8978 4.83122 84.9935 4.95376 84.9667 5.218C84.9311 5.53304 84.8266 5.83636 84.6607 6.10643C84.2215 6.82509 83.8281 7.57076 83.4826 8.33899C83.4162 8.49451 83.365 8.6561 83.3296 8.8215C83.2914 8.98617 83.3908 9.07808 83.5553 9.03212C83.6921 8.98463 83.8262 8.92966 83.9569 8.86746Z" fill="#133C58"/>
<path fill-rule="evenodd" clip-rule="evenodd" d="M88.4434 9.09721L88.5199 9.22741C88.2179 9.44058 87.8885 9.6119 87.5407 9.73673C87.4956 9.75711 87.4462 9.76635 87.3967 9.76368C87.3472 9.76101 87.2991 9.7465 87.2564 9.72137C87.2137 9.69624 87.1776 9.66122 87.1512 9.61924C87.1248 9.57727 87.1089 9.52958 87.1047 9.48015C87.0629 9.22714 87.0475 8.97046 87.0588 8.71426C87.0821 8.19032 87.1879 7.67335 87.3724 7.18249C87.5675 6.67317 87.7855 6.17151 87.9921 5.65071L88.0494 5.50519L88.0265 5.47838C87.9423 5.51668 87.8544 5.54731 87.7702 5.59327C87.4446 5.78825 87.1632 6.0491 86.944 6.35916C86.3927 7.12773 85.9427 7.96436 85.6053 8.84829C85.5441 8.99764 85.4944 9.14699 85.4332 9.29251C85.417 9.32907 85.3886 9.35886 85.3529 9.37676C85.1387 9.45335 84.9245 9.52228 84.695 9.59504L84.7447 9.46867C84.9407 9.04014 85.0487 8.57652 85.0622 8.10538C85.072 7.97822 85.0511 7.85056 85.0012 7.73322C84.9512 7.61589 84.8738 7.51235 84.7753 7.4314C84.8671 7.25908 84.936 7.22461 85.1157 7.25908C85.2571 7.26602 85.39 7.32874 85.4853 7.43351C85.5807 7.53829 85.6307 7.67659 85.6244 7.81817C85.6244 7.90242 85.6436 7.98667 85.6589 8.10538L85.743 7.95986C86.0816 7.28229 86.4878 6.64078 86.9555 6.04514C87.2782 5.63929 87.666 5.2899 88.103 5.01119C88.2776 4.89897 88.4807 4.83917 88.6882 4.83887C88.8259 4.83887 88.8718 4.87333 88.8565 5.00736C88.8353 5.14776 88.7981 5.28524 88.7456 5.41711C88.6002 5.7541 88.4357 6.08344 88.2828 6.4166C88.0162 6.94837 87.8379 7.52006 87.7549 8.10921C87.7275 8.39939 87.7172 8.69094 87.7243 8.98233C87.7283 9.04466 87.7439 9.1057 87.7702 9.16231C87.7789 9.18939 87.7933 9.2143 87.8124 9.23535C87.8315 9.25641 87.8548 9.27312 87.8809 9.28437C87.907 9.29562 87.9352 9.30114 87.9636 9.30056C87.992 9.29998 88.02 9.29332 88.0456 9.28102C88.1718 9.23124 88.3057 9.16231 88.4434 9.09721Z" fill="#133C58"/>
<path fill-rule="evenodd" clip-rule="evenodd" d="M71.8204 6.92947C71.8024 6.82987 71.8071 6.72748 71.8343 6.62999C71.8615 6.53249 71.9103 6.44242 71.9772 6.36654C72.1609 6.12194 72.3993 5.92389 72.6734 5.78829C72.7495 5.74951 72.8306 5.72118 72.9143 5.70404C73.0062 5.68261 73.1017 5.68231 73.1937 5.70318C73.2856 5.72405 73.3717 5.76554 73.4453 5.82453C73.519 5.88351 73.5783 5.95846 73.6188 6.04372C73.6594 6.12898 73.68 6.22233 73.6793 6.31675C73.6962 6.70434 73.5977 7.08823 73.3963 7.41963C73.1074 7.90103 72.7388 8.32967 72.3062 8.68718C71.9862 8.99153 71.6194 9.24237 71.2199 9.43009C71.0085 9.52217 70.7861 9.58653 70.5582 9.62156C70.366 9.64 70.1742 9.58272 70.0235 9.46189C69.8728 9.34105 69.7751 9.16618 69.7511 8.97439C69.7096 8.56089 69.7768 8.14371 69.9462 7.76428C70.2202 7.14092 70.6291 6.58632 71.1434 6.1406C71.7574 5.57559 72.5073 5.17974 73.3198 4.99177C73.4808 4.95733 73.6447 4.93809 73.8094 4.93433C73.9012 4.93433 74.0083 4.9573 74.0197 5.0607C74.0206 5.16897 74.0025 5.27656 73.9662 5.37854C73.9662 5.39769 73.8706 5.37854 73.817 5.37854C73.5145 5.37338 73.212 5.38361 72.9105 5.40918C72.5215 5.45945 72.1494 5.5994 71.8235 5.81801C71.4976 6.03662 71.2269 6.32794 71.0325 6.66906C70.7046 7.20231 70.4874 7.79619 70.3937 8.41529C70.3746 8.5178 70.3746 8.62296 70.3937 8.72548C70.4053 8.81929 70.4387 8.90908 70.4911 8.98766C70.5436 9.06623 70.6138 9.1314 70.696 9.17794C70.7781 9.22447 70.8701 9.25109 70.9644 9.25564C71.0587 9.26019 71.1527 9.24256 71.239 9.20416C71.4104 9.14754 71.5689 9.05776 71.7057 8.93992C72.3105 8.42717 72.752 7.74818 72.9755 6.98691C73.0442 6.78493 73.06 6.56871 73.0214 6.35888C73.018 6.30529 73.0013 6.25341 72.9728 6.20796C72.9442 6.16251 72.9047 6.12493 72.858 6.09867C72.8112 6.0724 72.7586 6.05827 72.705 6.05756C72.6514 6.05686 72.5984 6.06961 72.551 6.09465C72.3737 6.16427 72.2235 6.28913 72.1226 6.45079C72.0155 6.60396 71.9237 6.7648 71.8204 6.92947Z" fill="#133C58"/>
<path fill-rule="evenodd" clip-rule="evenodd" d="M90.5318 6.58511C90.7269 6.58511 90.9143 6.58511 91.0711 6.58511C91.3071 6.58217 91.5395 6.52711 91.7517 6.42384C91.964 6.32057 92.1508 6.17165 92.2989 5.98771C92.397 5.87644 92.4525 5.73399 92.4557 5.58562C92.4557 5.36351 92.3639 5.26395 92.1383 5.24863C91.9015 5.24047 91.6675 5.30169 91.4651 5.42479C91.1644 5.61411 90.9043 5.86145 90.7001 6.15238C90.265 6.68105 89.9493 7.29763 89.7745 7.95988C89.723 8.19774 89.6961 8.44027 89.6941 8.68364C89.6941 9.12403 89.9504 9.33082 90.3826 9.24657C90.8022 9.14268 91.1751 8.90142 91.4421 8.5611C91.7739 8.1772 92.0448 7.74453 92.2454 7.27824C92.2601 7.24166 92.2767 7.20588 92.2951 7.17101C92.3571 7.2887 92.3721 7.42559 92.3371 7.55396C92.2768 7.82633 92.1447 8.07756 91.9547 8.28155C91.5012 8.83402 90.9318 9.27984 90.287 9.58739C90.1162 9.65803 89.9356 9.70194 89.7515 9.71759C89.6621 9.72616 89.5719 9.71587 89.4868 9.68739C89.4016 9.65892 89.3233 9.61289 89.257 9.55227C89.1907 9.49166 89.1378 9.4178 89.1018 9.33547C89.0657 9.25313 89.0473 9.16414 89.0477 9.07425C89.0448 8.60939 89.1385 8.14901 89.3231 7.72245C89.5373 7.10568 89.8819 6.54245 90.3334 6.07124C90.785 5.60002 91.3327 5.23192 91.9394 4.99206C92.1808 4.88651 92.4409 4.83051 92.7043 4.82739C93.0448 4.82739 93.171 4.99589 93.0868 5.32905C93.0362 5.53348 92.9288 5.71937 92.777 5.86517C92.329 6.33322 91.7528 6.65829 91.1208 6.79956C91.0093 6.81676 90.8958 6.81676 90.7842 6.79956C90.7265 6.79052 90.6724 6.76572 90.6279 6.72789C90.5833 6.69005 90.5501 6.64064 90.5318 6.58511Z" fill="#133C58"/>
<path fill-rule="evenodd" clip-rule="evenodd" d="M100.767 7.28952C100.781 7.39632 100.781 7.50439 100.767 7.6112C100.728 7.76754 100.664 7.91634 100.576 8.05158C100.119 8.72317 99.4846 9.25472 98.7439 9.58719C98.5036 9.69344 98.2407 9.73818 97.9789 9.71739C97.8173 9.71472 97.6627 9.65079 97.5463 9.53851C97.4299 9.42623 97.3603 9.27394 97.3516 9.11234C97.3027 8.65252 97.3836 8.18819 97.5849 7.77203C98.1261 6.54495 99.1095 5.56725 100.339 5.03398C100.659 4.89565 101.004 4.82649 101.352 4.83102H101.536C101.509 4.88846 101.498 4.92293 101.479 4.96122C101.253 5.37863 101.027 5.79604 100.809 6.21728C100.802 6.23969 100.79 6.26025 100.774 6.27757C100.758 6.29488 100.738 6.30854 100.716 6.31762C100.695 6.3267 100.671 6.33099 100.648 6.33019C100.624 6.3294 100.601 6.32354 100.58 6.31301C100.599 6.26323 100.622 6.20962 100.645 6.15984C100.695 6.02964 100.748 5.90326 100.79 5.77689C100.832 5.65052 100.79 5.49351 100.603 5.45139C100.318 5.38742 100.02 5.42677 99.7613 5.56244C99.5612 5.65669 99.3797 5.78643 99.2258 5.94539C98.7144 6.48692 98.3405 7.14362 98.1357 7.86011C98.0456 8.16056 98.0273 8.47799 98.0822 8.78683C98.104 8.89828 98.165 8.99819 98.2542 9.06844C98.3433 9.1387 98.4546 9.17465 98.5679 9.16978C98.8235 9.16894 99.0757 9.11151 99.3065 9.00161C99.5373 8.89171 99.7409 8.73205 99.9028 8.53409C100.21 8.1888 100.468 7.80209 100.668 7.38526C100.687 7.34696 100.71 7.3125 100.729 7.27803L100.767 7.28952Z" fill="#133C58"/>
<path fill-rule="evenodd" clip-rule="evenodd" d="M13.7198 5.34047C13.4903 5.34047 13.2799 5.34047 13.0734 5.34047C13.0389 5.34047 12.993 5.40174 12.9739 5.44387C12.6832 6.08721 12.404 6.73822 12.1095 7.38157C11.7655 8.15159 11.2406 8.82689 10.5795 9.3499C10.4232 9.48652 10.2305 9.57437 10.0249 9.60264C10.1588 9.47627 10.2659 9.36905 10.3845 9.26948C11.0141 8.74415 11.4932 8.06096 11.7729 7.28966C11.9947 6.69993 12.2319 6.11019 12.4614 5.52046C12.4614 5.48982 12.4614 5.45153 12.4958 5.40557C12.2625 5.40557 12.0483 5.40557 11.8341 5.40557C11.7958 5.40557 11.7461 5.46685 11.727 5.50897C11.1313 6.6991 10.259 7.7287 9.18343 8.51125C8.47593 9.0644 7.64294 9.43403 6.75843 9.58733C6.20997 9.7068 5.64226 9.70673 5.09382 9.58714C4.54539 9.46754 4.02907 9.23121 3.57992 8.8942C3.25669 8.65954 2.98311 8.36308 2.775 8.02195C2.56688 7.68081 2.42836 7.30177 2.36742 6.90672C2.11116 5.16432 3.10563 3.91975 4.5591 3.60574C5.3277 3.44399 6.12818 3.54232 6.83493 3.88528C7.85446 4.36885 8.75148 5.07711 9.45882 5.95701C9.5468 6.06041 9.63094 6.17146 9.71892 6.27869C9.71892 6.27869 9.71892 6.27869 9.73804 6.27869C9.80902 6.20752 9.86077 6.11947 9.88844 6.02279C9.91611 5.92611 9.91879 5.82398 9.89623 5.72598C9.87367 5.62798 9.82661 5.53733 9.75947 5.46253C9.69233 5.38773 9.6073 5.33123 9.51237 5.29835C9.56975 5.07241 9.62712 4.84648 9.69214 4.62054C9.70302 4.60527 9.71736 4.59279 9.73398 4.58414C9.7506 4.57549 9.76903 4.5709 9.78777 4.57076C10.35 4.61671 10.9085 4.66266 11.4669 4.71627C11.5472 4.71627 11.5817 4.71627 11.597 4.6282C11.6658 4.31801 11.7538 4.01166 11.7958 3.70147C11.8753 3.17276 11.8388 2.63305 11.6888 2.11991C11.5663 1.65542 11.2847 1.24879 10.8932 0.971078C10.7758 0.876209 10.6379 0.810021 10.4905 0.777759C10.3431 0.745497 10.1902 0.748047 10.044 0.785207C9.89776 0.822367 9.76218 0.893116 9.64799 0.991848C9.53381 1.09058 9.44416 1.21458 9.38615 1.35402C9.22978 1.695 9.13276 2.06023 9.09928 2.43393C9.06592 2.76355 8.97937 3.08558 8.84301 3.38746C8.78745 3.50536 8.7139 3.61388 8.62499 3.70913C8.55044 3.7925 8.45139 3.85003 8.3421 3.87343C8.2328 3.89682 8.11891 3.88489 8.01683 3.83933C7.90748 3.80422 7.81029 3.73884 7.73651 3.65074C7.66273 3.56264 7.61537 3.45543 7.59991 3.3415C7.59194 3.24082 7.59194 3.13966 7.59991 3.03898C7.65477 3.06166 7.70839 3.08722 7.76056 3.11557C7.86755 3.18623 7.991 3.22795 8.11889 3.23665C8.24677 3.24534 8.37472 3.22073 8.49028 3.1652C8.60584 3.10966 8.70505 3.02511 8.77826 2.91977C8.85148 2.81443 8.89618 2.69191 8.90804 2.56413C8.94572 2.27797 8.99936 1.99415 9.06868 1.71399C9.15272 1.40134 9.32861 1.12118 9.57357 0.909807C9.78568 0.72194 10.0557 0.61247 10.3386 0.599622C10.7978 0.564847 11.2541 0.697149 11.6237 0.972219C11.9933 1.24729 12.2514 1.64665 12.3505 2.09693C12.5186 2.72598 12.5054 3.38985 12.3122 4.01166C12.2434 4.25291 12.1707 4.49034 12.0865 4.77755C12.3084 4.77755 12.5149 4.77755 12.7177 4.77755C12.7483 4.77755 12.7903 4.71244 12.8056 4.67032C13.0198 4.15335 13.2264 3.63637 13.4367 3.11557C13.4447 3.08223 13.4624 3.05204 13.4877 3.02885C13.5129 3.00565 13.5444 2.99051 13.5783 2.98537C13.6897 2.96084 13.7943 2.91165 13.8843 2.84141C13.9743 2.77118 14.0475 2.68167 14.0984 2.57944C14.3419 2.19026 14.553 1.78168 14.7296 1.35785C14.8902 0.974907 15.0662 0.568986 15.2344 0.174553C15.2612 0.117112 15.2803 0.0558405 15.3913 0.101794C14.7028 1.65655 14.0181 3.21513 13.3258 4.78903C13.5477 4.78903 13.7466 4.78903 13.9455 4.78903C13.9799 4.78903 14.0181 4.72776 14.0411 4.68947C14.2973 4.25291 14.5307 3.80487 14.8061 3.38363C15.2694 2.76706 15.8588 2.25659 16.5349 1.88631C17.0018 1.58894 17.5211 1.38357 18.0649 1.28126C18.5187 1.17964 18.9923 1.21427 19.4266 1.38083C19.5501 1.42284 19.6632 1.49083 19.7583 1.58025C19.8534 1.66966 19.9283 1.77842 19.978 1.89922C20.0276 2.02002 20.0509 2.15006 20.0461 2.2806C20.0414 2.41114 20.0088 2.53915 19.9506 2.65603C19.7426 3.12147 19.4087 3.5194 18.9867 3.80487C18.3831 4.23575 17.7086 4.5572 16.9939 4.75457C16.2338 4.9827 15.4559 5.14667 14.6684 5.24474C14.5651 5.24474 14.4618 5.26771 14.3624 5.29069C14.3431 5.29532 14.3252 5.30429 14.31 5.31689C14.2947 5.3295 14.2826 5.34542 14.2744 5.36345C14.0467 6.13144 14.0048 6.94263 14.152 7.73005C14.2197 8.08426 14.3995 8.40727 14.6646 8.65138C14.9298 8.89548 15.2664 9.04774 15.6246 9.08567C16.3046 9.21319 17.0074 9.06586 17.5791 8.67592C17.8449 8.48501 18.068 8.24059 18.234 7.95835C18.4 7.67611 18.5052 7.36226 18.543 7.03692C18.543 6.9182 18.5736 6.79566 18.5889 6.65397C18.656 6.73536 18.7056 6.82975 18.7346 6.93124C18.7635 7.03272 18.7712 7.1391 18.7572 7.24371C18.7079 7.71271 18.5064 8.15258 18.1835 8.49594C17.7031 9.07623 17.0439 9.48034 16.3093 9.64477C15.9437 9.73283 15.563 9.73725 15.1954 9.65769C14.8279 9.57814 14.483 9.41665 14.1864 9.18524C13.776 8.84194 13.5131 8.35387 13.452 7.82195C13.3457 7.05413 13.4284 6.27193 13.693 5.54343C13.693 5.46302 13.7198 5.4094 13.7198 5.34047ZM10.0479 5.37494C10.0626 6.03717 9.96694 6.69723 9.76482 7.32795L9.68832 7.24371C9.34025 6.83396 9.00748 6.41272 8.64412 6.01829C8.06303 5.35886 7.37512 4.80217 6.60926 4.37162C5.99223 4.00222 5.2759 3.83363 4.5591 3.88911C4.18711 3.917 3.83049 4.04926 3.53012 4.27074C3.22976 4.49222 2.9978 4.79395 2.86084 5.14134C2.73606 5.45258 2.6745 5.7856 2.67976 6.12093C2.68501 6.45627 2.75697 6.78719 2.89144 7.09436C3.18302 7.82032 3.7455 8.40406 4.45966 8.72187C5.32642 9.14677 6.30677 9.28104 7.25567 9.10482C8.25543 8.93337 9.16796 8.42866 9.84514 7.67261C10.4338 7.03247 10.9098 6.297 11.2527 5.49748C11.2635 5.46905 11.2712 5.43951 11.2757 5.4094L10.0479 5.37494ZM14.435 4.77755H14.6339C15.3344 4.75969 16.0319 4.68024 16.7185 4.54012C17.4181 4.41376 18.0869 4.15373 18.6884 3.77423C19.0272 3.55054 19.2931 3.23235 19.4533 2.85899C19.5407 2.66727 19.5648 2.45266 19.5222 2.24628C19.4865 2.10898 19.4149 1.9837 19.3147 1.88339C19.2145 1.78308 19.0894 1.71137 18.9523 1.6757C18.4912 1.52488 17.9973 1.50499 17.5256 1.61825C16.8303 1.75349 16.1994 2.11577 15.7317 2.64837C15.1974 3.26497 14.7671 3.96475 14.458 4.7201C14.4489 4.73464 14.4412 4.75003 14.435 4.76606V4.77755Z" fill="#133C58"/>
<path fill-rule="evenodd" clip-rule="evenodd" d="M40.5861 6.10233C40.7697 5.94149 40.9266 5.7998 41.091 5.66577C41.5581 5.28923 42.1115 5.0352 42.7013 4.92669C42.828 4.90637 42.9571 4.90637 43.0838 4.92669C43.1821 4.94315 43.2712 4.9943 43.335 5.07087C43.3989 5.14744 43.4332 5.24436 43.4319 5.3441C43.4423 5.80374 43.3085 6.25508 43.0494 6.63462C42.703 7.19093 42.272 7.68966 41.7719 8.11279C41.0943 8.73752 40.2871 9.20438 39.4081 9.4799C39.0683 9.58032 38.7177 9.63946 38.3639 9.65605C38.3398 9.65956 38.3153 9.65956 38.2912 9.65605C38.3141 9.60627 38.3294 9.56415 38.3486 9.52202C38.8535 8.44595 39.366 7.36605 39.8785 6.28614C39.9665 6.10233 40.0201 5.9032 40.0965 5.71556C40.3554 5.12036 40.6827 4.55745 41.0719 4.03826C41.5866 3.29713 42.3037 2.72014 43.1374 2.37628L43.3248 2.2882C43.3248 2.2882 43.3248 2.26906 43.3554 2.25374C43.2904 2.2231 43.233 2.1963 43.1718 2.17332C42.489 1.88395 41.7755 1.67325 41.0451 1.54529C40.6387 1.46298 40.2199 1.46298 39.8135 1.54529C39.5297 1.61605 39.269 1.75898 39.0565 1.96025C38.8441 2.16152 38.6872 2.41431 38.601 2.69413C38.4308 3.19619 38.3733 3.72968 38.4327 4.25654C38.4327 4.30632 38.4327 4.35993 38.4327 4.44035C38.3758 4.38481 38.3221 4.32599 38.2721 4.2642C38.1795 4.13779 38.1138 3.99375 38.079 3.84097C38.0441 3.68818 38.0408 3.52987 38.0693 3.37577C38.1032 2.88508 38.3075 2.42174 38.6469 2.0661C39.0659 1.61836 39.6074 1.30405 40.2036 1.16235C40.8308 1.03744 41.4788 1.06502 42.0932 1.24277C42.7929 1.42927 43.4771 1.66997 44.1395 1.9627C44.2008 1.97986 44.2656 1.97986 44.3269 1.9627C45.1097 1.77157 45.9118 1.67134 46.7175 1.66401C47.3196 1.6527 47.9159 1.78391 48.4578 2.04695C48.6186 2.12754 48.7596 2.2426 48.8709 2.38394C48.9288 2.45497 48.9696 2.5384 48.9902 2.62776C49.0107 2.71712 49.0105 2.81002 48.9894 2.89925C48.9683 2.98849 48.927 3.07167 48.8686 3.14235C48.8103 3.21303 48.7365 3.26931 48.6529 3.30684C48.3974 3.40325 48.1336 3.47631 47.865 3.52511C47.6202 3.59021 47.3754 3.64 47.1267 3.68978C47.0805 3.70308 47.0315 3.70308 46.9852 3.68978L43.7761 2.40692C43.7327 2.38794 43.6858 2.37814 43.6384 2.37814C43.591 2.37814 43.5442 2.38794 43.5007 2.40692C42.5711 2.7791 41.7993 3.46256 41.3167 4.34079C41.0148 4.85748 40.7772 5.40918 40.6091 5.98362C40.6014 6.02191 40.5976 6.04872 40.5861 6.10233ZM39.125 9.0893H39.1709H39.2627C39.7987 9.08484 40.321 8.91942 40.7621 8.61444C41.4963 8.0867 42.0665 7.36185 42.4068 6.52357C42.5263 6.26344 42.5827 5.97869 42.5713 5.69258C42.5736 5.60857 42.5442 5.52676 42.4889 5.46356C42.4336 5.40035 42.3564 5.36042 42.2729 5.35176C42.0879 5.32803 41.9 5.35585 41.7298 5.43218C41.4004 5.57552 41.1085 5.79306 40.8768 6.06786C40.1183 6.93001 39.5269 7.92606 39.1327 9.00505C39.127 9.03276 39.1245 9.06102 39.125 9.0893ZM44.6061 2.10439C44.6061 2.10439 44.6061 2.1312 44.6061 2.14651C44.623 2.16054 44.6409 2.17333 44.6597 2.18481C45.4909 2.56047 46.3457 2.88154 47.2185 3.146C47.5686 3.26678 47.9392 3.31626 48.3086 3.29152C48.5993 3.25705 48.7715 3.0809 48.7103 2.83199C48.6801 2.70493 48.6121 2.59007 48.5152 2.50265C48.3768 2.38536 48.2222 2.28863 48.0562 2.21544C47.5712 2.01408 47.0513 1.90999 46.5262 1.90909C46.2213 1.89692 45.9158 1.90588 45.6121 1.9359C45.2755 1.97036 44.9427 2.04312 44.6061 2.10439Z" fill="#133C58"/>
<path fill-rule="evenodd" clip-rule="evenodd" d="M24.5327 5.61975L24.4792 5.46657L25.8523 4.83472L25.8944 4.85769C25.8902 4.9932 25.8723 5.12792 25.8409 5.25979C25.6879 5.73847 25.5196 6.21332 25.3589 6.692C25.3379 6.73884 25.3287 6.79012 25.3321 6.84135C25.3742 6.79539 25.4163 6.74944 25.4545 6.69966C25.8538 6.17171 26.3134 5.69233 26.8239 5.27127C27.0539 5.06992 27.3297 4.92793 27.6271 4.85769C27.6767 4.8539 27.7266 4.8539 27.7763 4.85769C27.9484 4.85769 28.0517 4.94194 28.0287 5.11044C27.9987 5.33096 27.9461 5.54782 27.8719 5.75761C27.7571 6.10992 27.6194 6.45457 27.4894 6.79922C27.4894 6.83752 27.4588 6.87581 27.4473 6.9141H27.4703C27.497 6.88347 27.5276 6.85283 27.5544 6.81837C27.9875 6.25138 28.4856 5.73727 29.0385 5.28659C29.2807 5.08025 29.5654 4.92989 29.8723 4.84621C29.9284 4.84224 29.9846 4.84224 30.0406 4.84621C30.251 4.84621 30.3504 4.95343 30.2816 5.15256C30.1783 5.4436 30.0597 5.72698 29.9373 6.01036C29.6008 6.77624 29.2603 7.56511 28.9276 8.34632C28.8748 8.4787 28.8351 8.61594 28.809 8.75607C28.7784 8.8901 28.8472 8.97435 28.9849 8.95137C29.1157 8.92659 29.2437 8.8894 29.3674 8.84031L29.4325 8.94754C28.9965 9.25319 28.5168 9.49077 28.0096 9.65216C28.0325 9.48749 28.0478 9.34963 28.0746 9.2156C28.2414 8.49364 28.4811 7.79052 28.7899 7.11706C28.9735 6.692 29.1724 6.27076 29.3636 5.84952C29.4057 5.75761 29.4707 5.65422 29.3636 5.56614C29.2565 5.47806 29.1724 5.56614 29.0882 5.60444C28.5685 5.94171 28.1148 6.37129 27.7495 6.87198C27.2422 7.56875 26.8544 8.34527 26.602 9.16965C26.5888 9.22445 26.5607 9.27454 26.5209 9.3144C26.4811 9.35427 26.4311 9.38236 26.3763 9.39558C26.1736 9.45686 25.9939 9.5411 25.7644 9.62535C25.7644 9.5794 25.795 9.5411 25.8064 9.50664C26.1889 8.49567 26.5714 7.49235 26.9539 6.47755C27.0356 6.23748 27.0995 5.99174 27.1452 5.74229C27.1834 5.56231 27.0687 5.45509 26.8965 5.52402C26.7404 5.58665 26.5957 5.67463 26.4681 5.78442C26.0751 6.16854 25.7354 6.60391 25.4584 7.07877C25.0286 7.77082 24.6564 8.49702 24.3453 9.25007C24.3309 9.28684 24.3083 9.3198 24.2791 9.34637C24.2499 9.37294 24.215 9.3924 24.177 9.40324C23.9819 9.46834 23.7945 9.54493 23.5689 9.62535C23.6721 9.37644 23.7678 9.1505 23.8596 8.92073C24.242 7.95954 24.6245 7.00601 25.007 6.04482C25.0358 5.96487 25.0588 5.88297 25.0759 5.79974C25.0888 5.76773 25.0924 5.73273 25.0863 5.69876C25.0802 5.66479 25.0648 5.63321 25.0416 5.60764C25.0185 5.58207 24.9886 5.56354 24.9554 5.55417C24.9222 5.5448 24.8871 5.54496 24.854 5.55465C24.7316 5.56614 24.6398 5.59678 24.5327 5.61975Z" fill="#133C58"/>
<path fill-rule="evenodd" clip-rule="evenodd" d="M23.7641 4.95375C23.5729 5.35584 23.3816 5.74645 23.2018 6.14471C22.8601 6.84847 22.5612 7.57228 22.3068 8.31217C22.2729 8.41877 22.246 8.52751 22.2265 8.63767C22.1921 8.82149 22.2724 8.90956 22.456 8.90191C22.5248 8.89694 22.5928 8.88409 22.6587 8.86361C22.7273 8.8454 22.795 8.82367 22.8614 8.79851C22.9035 8.85212 22.9571 8.90574 22.8614 8.95169L21.4271 9.56057C21.5405 8.88926 21.7252 8.23199 21.9779 7.5999H21.9549L21.6489 7.98284C21.2787 8.44485 20.8477 8.8545 20.3676 9.2006C20.1399 9.37689 19.8801 9.50697 19.6026 9.58355C19.5448 9.60428 19.4827 9.60985 19.4221 9.59973C19.3616 9.58962 19.3046 9.56415 19.2567 9.52576C19.2088 9.48737 19.1715 9.43734 19.1483 9.38042C19.1252 9.3235 19.117 9.2616 19.1245 9.2006C19.1214 8.83675 19.2039 8.47729 19.3655 8.15134C19.6867 7.50033 20.0157 6.85315 20.3332 6.20215C20.4098 6.04189 20.4725 5.87533 20.5206 5.70432C20.5703 5.52434 20.4441 5.40562 20.2567 5.43626C20.1763 5.43626 20.096 5.4669 20.0004 5.48604C20.0004 5.44009 19.9774 5.40179 19.966 5.35967L21.3697 4.83887C21.3353 5.03417 21.3085 5.22181 21.2664 5.4018C21.142 5.82775 20.9578 6.23388 20.7195 6.60807C20.3575 7.23645 20.0565 7.89815 19.8206 8.58406C19.7934 8.66027 19.7791 8.74054 19.7785 8.82149C19.7785 8.95935 19.855 9.05508 19.9889 9.03594C20.1449 9.02263 20.2956 8.97278 20.4288 8.89042C20.6894 8.69771 20.9326 8.48243 21.1555 8.24707C21.961 7.38299 22.583 6.36422 22.9838 5.25245C22.9917 5.21427 23.0115 5.17959 23.0404 5.15344C23.0693 5.12728 23.1057 5.11099 23.1445 5.10693C23.3395 5.06863 23.5461 4.99204 23.7641 4.95375Z" fill="#133C58"/>
<path fill-rule="evenodd" clip-rule="evenodd" d="M44.262 5.44758C44.262 5.3978 44.2391 5.3595 44.2314 5.32121L45.6275 4.84253C45.6195 4.9832 45.599 5.12289 45.5663 5.25994C45.4878 5.54505 45.3855 5.82303 45.2604 6.09093C44.8612 6.7964 44.5048 7.52532 44.1932 8.27371C44.1279 8.44216 44.0792 8.61659 44.0479 8.79452C44.0376 8.82878 44.037 8.86519 44.046 8.8998C44.055 8.9344 44.0733 8.96586 44.099 8.99075C44.1246 9.01564 44.1566 9.033 44.1914 9.04094C44.2263 9.04888 44.2626 9.04709 44.2965 9.03577C44.4435 9.01018 44.5847 8.95829 44.7134 8.88259C45.0054 8.68695 45.2638 8.4451 45.4784 8.16649C46.0724 7.50011 46.5682 6.7522 46.951 5.94541C47.0542 5.71564 47.1422 5.48205 47.2302 5.24845C47.2395 5.21202 47.2594 5.17916 47.2873 5.15396C47.3152 5.12876 47.3499 5.11235 47.387 5.10676C47.5974 5.06847 47.8039 5.0072 48.0219 4.95358C47.8919 5.23313 47.758 5.50885 47.6395 5.78074C47.254 6.58125 46.9118 7.40194 46.6144 8.23925C46.574 8.36491 46.5408 8.49277 46.5149 8.62219C46.4767 8.80983 46.557 8.90557 46.7482 8.89025C46.8877 8.86662 47.0257 8.83465 47.1613 8.79452C47.1613 8.82132 47.1881 8.85579 47.2187 8.91706L45.6887 9.54509C45.8033 8.8761 45.9893 8.22135 46.2434 7.59207H46.2166L46.121 7.70695C45.7236 8.23491 45.2566 8.70641 44.7325 9.10853C44.4728 9.3177 44.1716 9.46912 43.849 9.55275C43.7916 9.57292 43.73 9.57803 43.6701 9.56757C43.6101 9.55713 43.5539 9.53147 43.5067 9.49306C43.4595 9.45464 43.423 9.40476 43.4005 9.34817C43.3781 9.29157 43.3705 9.23016 43.3785 9.1698C43.3728 8.802 43.4555 8.43822 43.6195 8.10905C43.9408 7.46187 44.2659 6.81852 44.5833 6.17135C44.6604 6.00732 44.7231 5.83691 44.7708 5.66203C44.8205 5.48588 44.6943 5.36716 44.5183 5.39397L44.262 5.44758Z" fill="#133C58"/>
<path fill-rule="evenodd" clip-rule="evenodd" d="M48.8479 5.44775C48.8479 5.39797 48.8288 5.3635 48.8173 5.32138L50.2211 4.83887C50.1867 5.03417 50.1637 5.22181 50.1216 5.39797C49.9963 5.82358 49.8122 6.22959 49.5747 6.60424C49.2134 7.23431 48.9124 7.89721 48.6758 8.58406C48.6486 8.6563 48.6344 8.7328 48.6338 8.81C48.6338 8.96701 48.7103 9.05892 48.8632 9.03594C49.0117 9.0208 49.1545 8.97095 49.2802 8.89042C49.5416 8.69869 49.7848 8.48334 50.0069 8.24707C50.8155 7.38174 51.439 6.36007 51.839 5.24479C51.8481 5.20859 51.868 5.17601 51.896 5.15138C51.924 5.12675 51.9588 5.11125 51.9959 5.10693C52.2024 5.0648 52.4089 5.00736 52.627 4.95375C52.6078 4.99204 52.5925 5.02651 52.5772 5.0648C52.1488 6.03365 51.7128 6.97953 51.2921 7.97135C51.2115 8.17947 51.1463 8.39321 51.097 8.61087C51.0473 8.82149 51.1314 8.92106 51.3418 8.90191C51.4713 8.87856 51.5991 8.84658 51.7243 8.80617C51.7702 8.86361 51.797 8.91723 51.7013 8.95552L50.3244 9.52994C50.3244 9.52994 50.3244 9.52994 50.2785 9.52994C50.3947 8.87417 50.5793 8.23241 50.8293 7.61522H50.8025C50.7719 7.65351 50.7375 7.6918 50.7069 7.73393C50.3082 8.26198 49.8398 8.73347 49.3146 9.1355C49.0585 9.34188 48.7611 9.49076 48.4425 9.57206C48.3847 9.59396 48.3222 9.60041 48.2612 9.59076C48.2001 9.58112 48.1426 9.55572 48.0944 9.51707C48.0461 9.47842 48.0088 9.42785 47.986 9.37035C47.9632 9.31284 47.9557 9.25038 47.9644 9.18912C47.9604 8.82438 48.0416 8.46375 48.2015 8.13602C48.5228 7.48884 48.8518 6.84167 49.1731 6.18683C49.2494 6.02823 49.3109 5.86285 49.3567 5.69283C49.4064 5.50519 49.284 5.38648 49.0889 5.42094L48.8479 5.44775Z" fill="#133C58"/>
<path fill-rule="evenodd" clip-rule="evenodd" d="M33.8197 9.09712L33.8962 9.22732C33.5839 9.44941 33.2395 9.62245 32.875 9.74046C32.8305 9.75627 32.7831 9.76194 32.7361 9.75709C32.6892 9.75223 32.6439 9.73696 32.6036 9.71238C32.5633 9.68781 32.529 9.65455 32.5032 9.61502C32.4773 9.5755 32.4606 9.5307 32.4542 9.48389C32.395 9.21225 32.3834 8.93237 32.4198 8.65673C32.527 7.72265 32.799 6.81504 33.223 5.97612C33.2804 5.84209 33.3378 5.70806 33.3913 5.5702C33.3939 5.55371 33.3939 5.53691 33.3913 5.52042C33.3472 5.53037 33.3038 5.54316 33.2613 5.55871C32.9122 5.72945 32.6101 5.98321 32.3816 6.29779C31.8853 6.94804 31.4752 7.65984 31.1614 8.41548C31.0275 8.718 30.909 9.02436 30.7789 9.32688C30.7697 9.35536 30.7532 9.38094 30.731 9.40108C30.7089 9.42123 30.6819 9.43525 30.6527 9.44177C30.4461 9.50304 30.2473 9.5758 30.0445 9.64473C30.1287 9.40347 30.2205 9.15839 30.2932 8.90948C30.3985 8.5901 30.4287 8.25062 30.3811 7.91765C30.3667 7.8291 30.3349 7.74428 30.2877 7.66806C30.2404 7.59183 30.1786 7.52569 30.1057 7.47343C30.1822 7.36621 30.2473 7.2743 30.3964 7.29728C30.603 7.32792 30.8057 7.37387 30.886 7.58832C30.9331 7.73423 30.9664 7.88423 30.9855 8.03636C30.9855 8.06317 30.9855 8.0938 30.9855 8.1589L31.0734 8.0019C31.4115 7.32489 31.8164 6.68346 32.2821 6.08718C32.6036 5.68014 32.9915 5.33054 33.4296 5.05323C33.6001 4.93101 33.8016 4.85934 34.011 4.84644C34.1563 4.84644 34.2022 4.8809 34.1831 5.02259C34.1642 5.15435 34.1282 5.28309 34.076 5.40553C33.9536 5.75784 33.7815 6.14079 33.6094 6.48544C33.359 6.99967 33.1912 7.55021 33.1121 8.11678C33.0866 8.40324 33.0764 8.69086 33.0815 8.97841C33.0855 9.03706 33.1011 9.09433 33.1274 9.1469C33.1341 9.17636 33.1474 9.20391 33.1662 9.22747C33.1851 9.25103 33.2091 9.26998 33.2364 9.2829C33.2636 9.29581 33.2935 9.30234 33.3236 9.302C33.3538 9.30166 33.3835 9.29446 33.4105 9.28093C33.552 9.23115 33.6744 9.16222 33.8197 9.09712Z" fill="#133C58"/>
<path fill-rule="evenodd" clip-rule="evenodd" d="M36.5851 6.92951C36.5669 6.8308 36.5712 6.72924 36.5977 6.63243C36.6242 6.53561 36.6722 6.44604 36.7381 6.37041C36.9247 6.1181 37.1703 5.91558 37.4534 5.78067C37.5587 5.73386 37.6713 5.70537 37.7862 5.69643C37.8674 5.68964 37.9492 5.69938 38.0265 5.72506C38.1039 5.75074 38.1753 5.79183 38.2364 5.84585C38.2975 5.89987 38.3471 5.96571 38.3821 6.0394C38.4171 6.1131 38.4369 6.19313 38.4402 6.27467C38.4745 6.71061 38.357 7.145 38.1075 7.50392C37.58 8.31911 36.8462 8.97978 35.9808 9.41865C35.7748 9.51395 35.5556 9.57722 35.3306 9.60629C35.136 9.62673 34.9412 9.56939 34.7886 9.44675C34.636 9.32411 34.538 9.1461 34.5159 8.95146C34.4625 8.44068 34.5752 7.92631 34.8371 7.48478C35.174 6.86054 35.6371 6.31342 36.1969 5.87827C36.7566 5.44311 37.4008 5.12948 38.0883 4.95734C38.2394 4.9248 38.3929 4.90558 38.5473 4.8999C38.6429 4.8999 38.7615 4.8999 38.7806 5.02244C38.7861 5.13037 38.7705 5.23834 38.7347 5.34029C38.7347 5.36327 38.6468 5.36709 38.6009 5.36709C38.3446 5.36709 38.0922 5.34795 37.8359 5.36709C37.4388 5.39422 37.0536 5.51441 36.7115 5.71796C36.3693 5.9215 36.0797 6.20271 35.8661 6.53891C35.4851 7.10974 35.2368 7.75877 35.1393 8.43831C35.1202 8.54211 35.1202 8.64853 35.1393 8.75232C35.1532 8.8457 35.1889 8.93449 35.2435 9.01149C35.298 9.0885 35.3699 9.15155 35.4534 9.19555C35.5368 9.23956 35.6294 9.26327 35.7237 9.26477C35.818 9.26627 35.9113 9.24552 35.9961 9.2042C36.1717 9.14583 36.3342 9.05344 36.4742 8.93231C37.0785 8.41979 37.5188 7.74058 37.7403 6.97929C37.8089 6.77731 37.8247 6.56109 37.7862 6.35126C37.7825 6.29866 37.7659 6.24779 37.7378 6.20322C37.7097 6.15865 37.6709 6.12179 37.625 6.09596C37.5791 6.07013 37.5275 6.05614 37.4748 6.05525C37.4221 6.05436 37.3701 6.0666 37.3233 6.09086C37.1406 6.15807 36.9856 6.28485 36.8835 6.45083C36.7764 6.60783 36.6693 6.76867 36.5851 6.92951Z" fill="#133C58"/>
<path fill-rule="evenodd" clip-rule="evenodd" d="M49.4062 3.86642C49.4674 3.78983 49.5209 3.73239 49.5668 3.66729C49.6378 3.54316 49.7514 3.44909 49.8865 3.4026C50.0216 3.3561 50.169 3.36035 50.3012 3.41454C51.0318 3.6175 51.7776 3.79749 52.5197 3.94684C52.7021 3.99343 52.893 3.99586 53.0766 3.9539C53.2602 3.91195 53.4311 3.82683 53.5753 3.70558C53.6721 3.62362 53.7489 3.52053 53.7998 3.40425C53.8506 3.28796 53.8742 3.16155 53.8686 3.03473C53.8631 2.90791 53.8286 2.78405 53.7678 2.67265C53.707 2.56125 53.6216 2.46527 53.518 2.39208C53.4639 2.35125 53.4021 2.32174 53.3364 2.30529C53.2707 2.28884 53.2024 2.2858 53.1355 2.29635H53.0475C53.0737 2.21711 53.1188 2.14542 53.1787 2.0874C53.2387 2.02939 53.3118 1.98676 53.3917 1.96318C53.4745 1.9359 53.5633 1.93256 53.6479 1.95357C53.7325 1.97457 53.8094 2.01905 53.8699 2.0819C53.9525 2.16437 54.016 2.26413 54.0557 2.37402C54.0953 2.48392 54.1103 2.60124 54.0994 2.71758C54.0869 3.11988 53.9217 3.50229 53.6374 3.78689C53.3532 4.0715 52.9712 4.23688 52.5694 4.24936C52.304 4.24993 52.0396 4.21908 51.7814 4.15745C51.1159 4.05406 50.4542 3.93535 49.7887 3.83578C49.6604 3.82822 49.5316 3.83853 49.4062 3.86642Z" fill="#133C58"/>
<path fill-rule="evenodd" clip-rule="evenodd" d="M26.9695 46.3608L25.6767 45.6103L24.3418 44.9363L22.9686 44.3427L21.5649 43.8296L20.1305 43.4007L18.6771 43.0599L17.2007 42.7995L15.7166 42.6271L14.2249 42.5429L12.7293 42.5467L11.2376 42.6386L9.75354 42.8148L8.28095 43.0828L6.82748 43.4313L5.39696 43.8679L3.99321 44.3848L2.62389 44.9861L1.29282 45.6639L0 46.4221L0.914155 45.503L1.88568 44.6452L2.91459 43.8602L3.99704 43.1403L5.12157 42.5008L6.28817 41.9378L7.48919 41.4553L8.72081 41.0571L9.97921 40.743L11.2529 40.5133L12.5419 40.3716L13.7774 40.3754L15.0128 40.4635L16.2406 40.6282L17.4531 40.8732L18.6465 41.1987L19.8207 41.597L20.9644 42.0719L22.0736 42.6195L23.1446 43.236L24.1735 43.9215L25.1603 44.6759L26.0936 45.4877L26.9695 46.3608Z" fill="#133C58"/>
<path fill-rule="evenodd" clip-rule="evenodd" d="M8.58677 38.1664L10.1932 37.8256L11.8188 37.5652L13.4521 37.3929L15.0968 37.3048L16.7415 37.2971L18.3862 37.3775L20.0233 37.5384L21.5494 37.8141L23.0603 38.1626L24.5558 38.58L26.0284 39.0663L27.478 39.6216L28.9009 40.2458L30.2932 40.9351L31.651 41.6857L32.9706 42.5052L34.4738 43.4051L36.0153 44.2361L37.5911 44.9981L39.1976 45.6874L40.8347 46.3001L42.5023 46.8401L44.1891 47.3073L45.895 47.6941L47.6162 48.0042L49.3528 48.234L51.0931 48.3872L52.8411 48.4599L54.8683 48.3604L56.8878 48.1766L58.8997 47.9047L60.8964 47.5485L62.8738 47.1082L64.836 46.5835L66.7714 45.9746L68.6801 45.2853L70.5543 44.5156L72.3979 43.6655L74.2032 42.7388L75.9665 41.7354L74.8458 42.8881L73.6678 43.9872L72.44 45.0211L71.1586 45.9976L69.8314 46.909L68.462 47.7515L67.0506 48.525L65.6048 49.2258L64.1246 49.8577L62.6176 50.413L61.0838 50.8955L59.527 51.2976L57.9512 51.6269L56.3638 51.872L54.6235 51.9869L52.8832 52.0175L51.1428 51.9601L49.4063 51.8107L47.6774 51.5809L45.9639 51.2631L44.2694 50.861L42.5979 50.3785L40.9494 49.8117L38.6736 48.9157L36.4284 47.9391L34.2252 46.8822L32.0565 45.7487L29.9336 44.5348L28.266 43.5391L26.5562 42.6162L24.8159 41.7661L23.0373 40.9887L21.2281 40.2841L19.3922 39.6599L17.5294 39.1084L16.0607 38.7983L14.5766 38.5493L13.0849 38.3617L11.5893 38.2315L10.0861 38.1664H8.58677Z" fill="#133C58"/>
<path fill-rule="evenodd" clip-rule="evenodd" d="M103.479 42.6809L102.416 41.8614L101.303 41.1147L100.14 40.4445L98.9351 39.851L97.6958 39.334L96.4298 38.9013L95.1331 38.5528L93.8174 38.2847L92.4901 38.1086L91.1514 38.0167L89.8088 38.0128L88.4701 38.0932L87.139 38.2656L85.8233 38.5183L84.5266 38.8591L83.2529 39.2842L82.0137 39.7935L80.805 40.3794L79.6384 41.0419L78.5177 41.781L77.4505 42.5928L78.2614 41.6853L79.1373 40.839L80.0668 40.0616L81.0498 39.3455L82.0787 38.6983L83.1497 38.1239L84.2589 37.626L85.3987 37.2048L86.5653 36.8678L87.7549 36.6074L88.9559 36.4313L90.1684 36.3394L91.335 36.3968L92.4978 36.5308L93.6452 36.7414L94.7812 37.0287L95.8943 37.3886L96.9806 37.8175L98.0362 38.323L99.0575 38.8936L100.037 39.5293L100.974 40.2301L101.861 40.9921L102.699 41.8078L103.479 42.6809Z" fill="#133C58"/>
<path fill-rule="evenodd" clip-rule="evenodd" d="M48.3126 54.3996L49.7775 54.6792L51.2539 54.8745L52.738 54.9855L54.2297 55.0085L55.7176 54.9473L57.1979 54.8017L58.6705 54.5681L59.9709 54.2733L61.2485 53.9018L62.503 53.4576L63.7308 52.933L64.9242 52.3432L66.764 51.3131L68.5693 50.2255L70.3365 49.0805L72.4402 47.7173L74.5783 46.4076L76.7508 45.1515L78.954 43.9529L80.178 43.3211L81.4364 42.7466L82.7177 42.2412L84.022 41.7969L85.3493 41.4178L86.6956 41.1076L88.0535 40.8626L89.419 40.6864L90.7959 40.6558L92.1729 40.7055L93.5461 40.8357L94.9077 41.0425L96.2541 41.3259L97.5852 41.6897L98.8895 42.1301L100.167 42.6432L101.414 43.2291L102.626 43.8878L103.793 44.6154L104.921 45.4081L106 46.2659L104.612 45.6111L103.189 45.0405L101.735 44.5503L100.259 44.1406L98.7594 43.8189L97.2448 43.5815L95.7186 43.4283L94.1887 43.367L92.6549 43.39L91.1249 43.501L89.6026 43.6963L88.3059 43.9721L87.0246 44.3167L85.7624 44.7303L84.5269 45.209L83.3144 45.7528L82.1325 46.3578L79.9447 47.5985L77.7989 48.9044L75.6952 50.2792L74.2914 51.248L72.8418 52.1556L71.3577 52.9981L69.8392 53.7716L68.2863 54.4839L66.7066 55.1234L65.0963 55.6978L63.7079 56.0233L62.2965 56.2722L60.8774 56.4407L59.4507 56.5326L58.024 56.5403L56.5974 56.4714L55.1745 56.322L53.7631 56.0923L52.367 55.7859L50.99 55.3991L49.6398 54.9396L48.3126 54.3996Z" fill="#133C58"/>
<path fill-rule="evenodd" clip-rule="evenodd" d="M105.135 16.7752C105.152 16.7515 105.163 16.7238 105.166 16.6948C105.258 16.7178 105.354 16.7178 105.445 16.6948C105.431 16.6729 105.414 16.6524 105.395 16.6335C104.959 16.3172 104.487 16.0549 103.988 15.8523C103.307 15.5574 102.504 15.1783 101.743 15.2243C101.188 15.3211 100.653 15.5128 100.163 15.791C99.9565 15.8829 99.5434 16.0936 99.5051 16.1242C99.5969 16.2391 99.8035 16.2927 99.8341 16.5071C99.7787 16.4919 99.7249 16.4714 99.6734 16.4459C99.5884 16.3512 99.4768 16.2845 99.3533 16.2545C99.2298 16.2244 99.1 16.2324 98.9811 16.2774C98.8574 16.3101 98.736 16.3511 98.6177 16.3999C98.4637 16.4637 98.3051 16.5161 98.1435 16.5569C98.0012 16.574 97.8574 16.574 97.7151 16.5569C97.3785 16.5569 97.0419 16.5263 96.7091 16.4918C96.3091 16.3922 95.8969 16.351 95.4851 16.3693C95.0452 16.4966 94.631 16.7001 94.2612 16.9705C93.6568 17.3228 93.0678 17.7057 92.4864 18.0964L91.6143 18.6784C91.4919 18.7588 91.3695 18.8393 91.251 18.9235C91.1324 19.0078 90.9679 19.1763 90.8685 19.1724C90.9269 19.1864 90.9879 19.1865 91.0464 19.1725C91.1048 19.1585 91.1592 19.131 91.2051 19.092C91.229 19.0716 91.2574 19.0571 91.288 19.0498C91.3186 19.0424 91.3504 19.0425 91.381 19.0499C91.469 19.0729 91.6296 18.935 91.7023 18.8929C92.2034 18.6172 92.6624 18.2687 93.1711 18.0006C93.9583 17.6117 94.8556 17.5076 95.7108 17.7057C95.9212 17.744 96.1469 17.7555 96.361 17.7747C96.5752 17.7938 96.9883 17.7747 96.9118 18.081C96.8112 18.3945 96.6227 18.6723 96.3687 18.8814C96.2654 18.9848 95.9097 19.1724 95.9556 19.3409C96.0283 19.6166 96.6632 19.4749 96.7971 19.3409C96.7829 19.3937 96.7726 19.4474 96.7665 19.5018C96.9118 19.6205 97.214 19.2031 97.3096 19.1188C97.4241 18.9788 97.5522 18.8505 97.6921 18.7359C98.0746 18.487 98.4762 18.2342 98.8396 17.97C99.1181 17.7148 99.3385 17.4027 99.486 17.0547C99.542 16.9419 99.6372 16.8534 99.7537 16.8058C99.804 16.7877 99.8571 16.7786 99.9106 16.779C100.041 16.779 100.09 16.7982 100.109 16.6718C100.109 16.6412 100.021 16.6258 100.041 16.622C100.203 16.5725 100.367 16.5329 100.534 16.5033C100.848 16.4382 101.2 16.5033 101.517 16.4535C101.702 16.4161 101.891 16.3994 102.079 16.4037C102.278 16.4037 102.401 16.5454 102.58 16.6144C102.72 16.6557 102.864 16.6839 103.009 16.6986C103.261 16.7506 103.517 16.7877 103.774 16.8097C104.091 16.8097 104.424 16.8403 104.741 16.8709C104.868 16.8365 105.074 16.8633 105.135 16.7752Z" fill="#133C58"/>
<path d="M93.1938 22.8711C93.1938 22.8711 94.5402 22.8251 95.1866 22.7562C95.833 22.6873 96.3341 22.5839 96.7778 22.9132C97.2215 23.2425 97.734 23.5068 97.9252 23.457C98.1112 23.4308 98.2827 23.3416 98.411 23.2042C98.8518 22.8116 99.3988 22.5584 99.9831 22.4767C100.645 22.4384 101.131 22.4767 100.568 22.6337C100.064 22.7868 99.5702 22.9697 99.088 23.1813C99.0498 23.1813 98.6137 23.3076 98.7323 23.3766C98.8057 23.4055 98.8702 23.453 98.9197 23.5144C98.9771 23.5872 98.893 23.5949 98.8585 23.5757C98.8241 23.5566 98.7553 23.6102 98.7208 23.6982C98.5024 24.0118 98.2092 24.2659 97.8679 24.4373C97.5198 24.5407 97.3592 24.5254 97.298 24.6594C97.2277 24.7783 97.1137 24.8649 96.9805 24.9007C96.8772 24.9428 96.839 24.9007 96.8466 24.8356C96.8543 24.7705 96.7778 24.7628 96.816 24.7169C96.8543 24.6709 96.5521 24.8471 96.663 24.7169C96.774 24.5867 96.992 24.3722 97.0685 24.2382C97.145 24.1042 97.122 24.0735 96.9461 23.9778C96.7701 23.8821 95.7374 23.3306 95.527 23.277C95.0375 23.1814 94.5413 23.1238 94.043 23.1047C93.3583 23.074 93.1403 22.9975 93.1403 22.9324C93.1403 22.8673 93.1938 22.8711 93.1938 22.8711Z" fill="#133C58"/>
<path d="M9.0381 31.9355H2.24505L2.2833 30.8747H2.94884C3.13292 30.8891 3.318 30.8653 3.49243 30.8047C3.66687 30.744 3.82689 30.6479 3.96244 30.5224C4.08417 30.3861 4.17736 30.2267 4.23649 30.0537C4.29562 29.8807 4.31949 29.6976 4.30668 29.5152L4.25313 19.7348C4.26774 19.4797 4.21217 19.2254 4.09249 18.9996C3.99111 18.8348 3.84525 18.702 3.67174 18.6167C3.48515 18.5303 3.28408 18.4796 3.07888 18.4673C2.84174 18.452 2.61224 18.4443 2.3904 18.4443H2.21063L2.1609 17.6784H2.35215C2.76481 17.6493 3.17426 17.5853 3.57612 17.487C3.92558 17.4043 4.25814 17.2618 4.55913 17.0657C4.86021 16.8612 5.1198 16.6013 5.32411 16.2998C5.56704 15.9403 5.74206 15.5393 5.84047 15.1165L5.87872 14.9634L6.55573 15.0093V25.6437L6.8732 25.5135C7.22892 25.368 7.69556 25.1803 8.27695 24.9544C8.85833 24.7284 9.42442 24.4987 9.97903 24.2651C10.5336 24.0315 11.0385 23.8247 11.4822 23.6485C12.0254 23.4303 12.2128 23.346 12.2778 23.3154C12.6428 23.153 12.9669 22.911 13.2264 22.6069C13.4851 22.3112 13.6955 21.9765 13.8499 21.6151C14.0048 21.2469 14.114 20.8611 14.175 20.4663C14.2351 20.1004 14.267 19.7304 14.2706 19.3596C14.2849 18.7764 14.1754 18.1969 13.9493 17.6593C13.7596 17.2281 13.4744 16.8458 13.1155 16.5411C12.7772 16.2611 12.3874 16.0503 11.968 15.9207C11.5748 15.7927 11.1597 15.7458 10.7478 15.7829C10.3484 15.816 9.95892 15.9251 9.60037 16.1045C9.27823 16.2605 9.00356 16.4998 8.80478 16.7977C8.56851 17.1558 8.46311 17.5846 8.50644 18.0116C8.53844 18.3445 8.65698 18.6632 8.85024 18.936C9.04351 19.2088 9.30477 19.4261 9.60802 19.5664C9.84229 19.6947 10.106 19.7594 10.373 19.754L10.7555 19.731L10.5298 20.0565C10.3501 20.3131 10.1741 20.5697 9.99433 20.8224C9.81456 21.0752 9.65009 21.2973 9.49327 21.4964C9.33645 21.6955 9.20258 21.8525 9.11078 21.9674C9.01898 22.0823 8.89658 22.1742 8.78184 22.1742H8.73594L8.68239 22.1512C8.30109 21.9872 7.98213 21.7054 7.77206 21.347C7.49922 20.925 7.30605 20.4564 7.20214 19.9646C7.08215 19.4258 7.04347 18.8721 7.0874 18.3218C7.12854 17.7475 7.2985 17.1899 7.58464 16.6904C7.90102 16.1609 8.35079 15.7238 8.88893 15.4229C9.58679 15.0515 10.363 14.8519 11.1533 14.8408C11.3331 14.8408 11.5128 14.8408 11.6849 14.8408C13.3029 14.8408 14.5575 15.2008 15.4181 15.9016C16.3819 16.6675 16.8601 17.8929 16.8448 19.4783C16.8409 19.9653 16.7502 20.4477 16.577 20.9028C16.3925 21.3805 16.1344 21.8263 15.812 22.224C15.4635 22.6552 15.0552 23.0343 14.5995 23.3498C14.0851 23.7077 13.5223 23.9901 12.928 24.1885L11.509 24.7284C10.9467 24.9467 10.3615 25.1727 9.80691 25.4063C9.2523 25.6398 8.69004 25.8696 8.16602 26.0956C7.64201 26.3215 7.22892 26.4785 6.92675 26.6164L6.54426 26.7734V29.5995C6.53615 29.8174 6.57125 30.0348 6.64753 30.239C6.70527 30.3796 6.79733 30.5033 6.91527 30.599C7.03127 30.6893 7.16022 30.7616 7.29777 30.8134C7.44034 30.8625 7.58784 30.8959 7.73763 30.913C7.92108 30.9413 8.10671 30.9528 8.29224 30.9475C8.45544 30.9475 8.63521 30.9475 8.83156 30.9475H9.0228L9.0381 31.9355Z" fill="#133C58"/>
<path d="M26.384 31.9625H17.4605V30.9745L19.6101 30.9477C19.772 30.9562 19.934 30.9314 20.0859 30.8748C20.2379 30.8181 20.3767 30.7309 20.4936 30.6184C20.7479 30.2823 20.8655 29.8622 20.8226 29.4427V17.8434C20.8638 17.4163 20.7453 16.9892 20.4898 16.6447C20.3656 16.5221 20.2168 16.4273 20.0533 16.3666C19.8898 16.3058 19.7152 16.2806 19.5412 16.2924H17.4605V15.3044H26.384V16.2924H24.1349C23.9897 16.2953 23.8467 16.3284 23.7149 16.3897C23.5832 16.451 23.4657 16.5392 23.37 16.6486C23.2372 16.8144 23.1394 17.0054 23.0822 17.2101C23.025 17.4147 23.0097 17.6288 23.0372 17.8395V29.4427C22.9944 29.8681 23.1178 30.2936 23.3814 30.6299C23.4779 30.7375 23.5958 30.8238 23.7275 30.8831C23.8593 30.9425 24.002 30.9736 24.1464 30.9745H26.3955L26.384 31.9625Z" fill="#133C58"/>
<path d="M37.5377 31.9626L26.9694 31.9358V30.9133L27.9218 30.9746H28.0748C28.4167 30.9901 28.758 30.934 29.0769 30.8099C29.3139 30.708 29.516 30.5389 29.6583 30.3236C29.7896 30.1098 29.8755 29.8712 29.9108 29.6228C29.9486 29.3551 29.9678 29.0851 29.9681 28.8148V20.1449C29.9839 19.9001 29.9407 19.6552 29.8422 19.4306C29.7437 19.206 29.5927 19.0084 29.4021 18.8544C29.0196 18.5557 28.2814 18.4331 27.2104 18.4944H27.0077V17.6902L27.1721 17.6673C27.7344 17.5868 28.2431 17.5064 28.6791 17.426C29.0779 17.3535 29.4642 17.2246 29.8266 17.0431C30.18 16.862 30.4976 16.6181 30.7637 16.3231C31.1092 15.9301 31.4 15.4921 31.6282 15.0211L31.697 14.9484L32.2401 15.002V22.9289C32.2401 23.6948 32.2401 24.4607 32.2401 25.2266C32.6226 25.0389 33.0243 24.8436 33.4603 24.633C33.9996 24.3764 34.581 24.1084 35.193 23.8327C35.7093 23.5799 36.2372 23.2927 36.7574 22.971C37.2486 22.6722 37.7075 22.3231 38.1267 21.9294C38.5096 21.5726 38.8325 21.1562 39.0829 20.6963C39.3169 20.2541 39.4378 19.7607 39.4348 19.2603C39.4375 18.8117 39.3677 18.3655 39.2283 17.9391C39.0992 17.5424 38.8967 17.1735 38.6316 16.8516C38.3738 16.542 38.0495 16.2946 37.683 16.1278C37.2745 15.9487 36.8322 15.8599 36.3864 15.8674C36.1068 15.8667 35.8289 15.912 35.564 16.0014C35.3131 16.0886 35.079 16.2182 34.8717 16.3844C34.6754 16.5474 34.5152 16.7495 34.4012 16.978C34.2646 17.2927 34.2078 17.6364 34.2358 17.9785C34.2638 18.3205 34.3758 18.6504 34.5619 18.9386C34.8426 19.2701 35.196 19.5322 35.5946 19.7045L35.7858 19.7926L35.6787 19.9764C35.4815 20.3016 35.2616 20.6126 35.0209 20.907C34.7875 21.1903 34.558 21.4737 34.3362 21.7609L34.2788 21.8375H34.1832C34.0358 21.8319 33.8913 21.7948 33.7594 21.7287C33.6275 21.6627 33.5112 21.5692 33.4182 21.4546C33.2053 21.2109 33.0311 20.9357 32.9019 20.6389C32.7706 20.3397 32.6656 20.0296 32.5882 19.7122C32.5231 19.4618 32.4859 19.2049 32.4773 18.9463C32.4748 18.4179 32.587 17.8952 32.8062 17.4145C33.0248 16.9457 33.3313 16.5232 33.7089 16.1699C34.091 15.8147 34.5308 15.5272 35.0094 15.3198C35.5073 15.0957 36.0436 14.9696 36.5891 14.9484C37.219 14.933 37.8484 14.9947 38.4633 15.1322C39.0573 15.2634 39.6249 15.4938 40.1424 15.8138C40.6359 16.1215 41.05 16.5413 41.3511 17.0392C41.6723 17.5848 41.834 18.2098 41.8177 18.8429C41.834 19.4836 41.6935 20.1186 41.4085 20.6925C41.141 21.2043 40.7819 21.6625 40.349 22.0443C39.9064 22.4323 39.4168 22.763 38.8917 23.0285L38.4136 23.2621C38.9219 23.2763 39.4234 23.3827 39.8938 23.5761C40.3908 23.7774 40.8461 24.0696 41.2364 24.4377C41.6217 24.8094 41.9286 25.2548 42.139 25.7474C42.3685 26.3044 42.4801 26.9031 42.4669 27.5055C42.4538 28.1079 42.3161 28.701 42.0625 29.2475C41.8005 29.7955 41.4311 30.2852 40.9763 30.6874C40.5157 31.096 39.9841 31.4166 39.408 31.6332C38.8099 31.8564 38.176 31.968 37.5377 31.9626ZM32.2134 30.9478L36.329 30.9746C38.7043 30.9746 39.8632 29.8257 39.8632 27.5281C39.8655 27.0803 39.8297 26.6332 39.7561 26.1916C39.7036 25.8379 39.5729 25.5004 39.3736 25.2036C39.1796 24.9265 38.9156 24.7058 38.6086 24.5641C38.2081 24.392 37.7744 24.3109 37.3388 24.3267C36.9474 24.3437 36.5608 24.4185 36.1913 24.5488C35.7208 24.6981 35.2312 24.8858 34.7302 25.1002C34.2291 25.3147 33.7472 25.5444 33.2958 25.7818L32.2478 26.3333L32.2134 30.9478Z" fill="#133C58"/>
<path d="M44.1203 22.0137C44.0388 22.012 43.9588 21.991 43.887 21.9524C43.8135 21.9207 43.7519 21.8666 43.7107 21.7979C43.6695 21.7292 43.6509 21.6493 43.6575 21.5695C43.6568 21.4745 43.6755 21.3804 43.7123 21.2928C43.7491 21.2052 43.8034 21.1261 43.8717 21.0602C43.9737 20.9581 44.0846 20.8393 44.2044 20.704C44.3238 20.5661 44.4301 20.4174 44.5219 20.2598C44.6164 20.074 44.6612 19.8669 44.652 19.6586C44.6466 19.4752 44.6023 19.295 44.5219 19.1301C44.4263 18.9272 44.323 18.7204 44.2121 18.5136C44.1012 18.3068 43.9941 18.0809 43.8946 17.8588C43.7921 17.6404 43.7361 17.403 43.7302 17.1618C43.7333 16.9627 43.7602 16.7647 43.8105 16.5721C43.8604 16.3571 43.9471 16.1524 44.0668 15.967C44.1789 15.7926 44.3199 15.6385 44.4837 15.5113C44.6612 15.3715 44.8813 15.2971 45.1071 15.3007C45.2489 15.2983 45.3897 15.3245 45.5212 15.3778C45.6526 15.4311 45.7719 15.5104 45.8721 15.6109C46.0594 15.7979 46.2031 16.0242 46.2929 16.2734C46.375 16.502 46.4352 16.7379 46.4726 16.978C46.4984 17.1429 46.515 17.3091 46.5223 17.4758C46.5209 17.8239 46.5004 18.1716 46.4611 18.5174C46.4137 18.8919 46.3105 19.2572 46.1552 19.6012C45.9712 20.0097 45.7401 20.3952 45.4667 20.75C45.112 21.1972 44.7135 21.6077 44.2771 21.9754L44.2121 22.0137C44.1817 22.0183 44.1507 22.0183 44.1203 22.0137Z" fill="#133C58"/>
<path d="M55.3657 32.1808H54.9832C53.8522 32.143 52.7397 31.8827 51.7091 31.4149C50.7823 30.9787 49.9574 30.3525 49.2879 29.5767C48.603 28.7702 48.0902 27.8319 47.7809 26.8195C47.445 25.7466 47.2785 24.6277 47.2875 23.5032C47.2641 22.3518 47.4615 21.2066 47.8688 20.1295C48.2492 19.1232 48.8106 18.1952 49.525 17.3915C50.2298 16.6134 51.0951 15.998 52.061 15.5878C53.0688 15.161 54.1631 14.9786 55.2548 15.0555C55.8729 15.0953 56.4875 15.1772 57.0945 15.3006C57.7656 15.431 58.4181 15.6432 59.0376 15.9324C59.6622 16.2248 60.2376 16.6123 60.7435 17.0813C61.2579 17.565 61.6578 18.1577 61.9139 18.816L61.9675 18.9539L61.8451 19.0419C61.5315 19.2641 61.1757 19.5436 60.7665 19.9265C60.3572 20.3095 59.9403 20.6924 59.5348 21.1022C59.1517 21.4955 58.806 21.9237 58.5021 22.3812C58.2712 22.711 58.129 23.0948 58.089 23.4956C58.089 23.6449 58.1158 23.7675 58.1234 23.8402C58.1416 23.8765 58.1648 23.91 58.1923 23.9398C58.2455 23.8475 58.289 23.75 58.3223 23.6488C58.3757 23.5014 58.4651 23.3697 58.5824 23.2658C58.6728 23.1984 58.7769 23.1517 58.8873 23.1292C58.9977 23.1067 59.1117 23.1089 59.2212 23.1356C59.4133 23.1878 59.5803 23.3074 59.6917 23.4726C59.7906 23.6141 59.844 23.7824 59.8447 23.9551C59.8252 24.1473 59.7552 24.331 59.6419 24.4874C59.531 24.6468 59.3842 24.7779 59.2136 24.8704C59.0599 24.9582 58.8953 25.0251 58.724 25.0695C58.5469 25.1134 58.3617 25.1134 58.1846 25.0695C57.7142 24.9508 57.1672 24.5832 57.2131 23.4956C57.2264 23.0966 57.3242 22.705 57.5 22.3468C57.6606 22.0174 57.8366 21.6804 58.024 21.3549C58.2114 21.0294 58.3797 20.7116 58.5365 20.3861C58.6875 20.0775 58.7648 19.7379 58.7622 19.3943C58.8021 18.9129 58.7287 18.429 58.548 17.9812C58.3801 17.5901 58.1281 17.241 57.8098 16.9587C57.4808 16.6697 57.0989 16.4473 56.6853 16.3039C56.2264 16.1445 55.7474 16.0504 55.2624 16.0243C54.3939 15.8996 53.5083 16.0518 52.7311 16.4595C51.9539 16.8671 51.3246 17.5094 50.9326 18.2952C50.5339 19.0696 50.2749 19.9083 50.1676 20.7729C50.0796 21.4085 50.0184 22.0442 49.984 22.6646L56.2416 22.7144V23.7981H49.9381C49.9193 24.6314 49.9769 25.4646 50.1102 26.2873C50.2195 27.1185 50.4788 27.923 50.8752 28.6615C51.2538 29.3506 51.7931 29.9379 52.4473 30.3733C53.2268 30.855 54.1208 31.1194 55.0367 31.1392C55.6935 31.1878 56.3517 31.0678 56.9492 30.7907C57.5327 30.5171 58.0535 30.126 58.4792 29.6418C58.9162 29.1442 59.2607 28.5722 59.4966 27.9531C59.7424 27.3313 59.8532 26.6642 59.8217 25.9962V25.6975L61.9598 26.5745L61.9292 26.7276C61.7879 27.5256 61.4916 28.288 61.0572 28.9717C60.2054 30.3335 58.9032 31.3527 57.3776 31.8514C56.7286 32.067 56.0495 32.1782 55.3657 32.1808Z" fill="#133C58"/>
<path d="M69.6824 31.9353H62.8817L62.9199 30.8745H63.5893C63.7728 30.8889 63.9572 30.865 64.1311 30.8044C64.3049 30.7437 64.4642 30.6477 64.5991 30.5222C64.7213 30.3861 64.8151 30.2269 64.8748 30.0539C64.9346 29.8809 64.9592 29.6977 64.9471 29.5151L64.8974 19.7347C64.9129 19.479 64.8558 19.2241 64.7329 18.9994C64.632 18.8357 64.4876 18.7031 64.316 18.6165C64.1281 18.5302 63.9257 18.4795 63.7193 18.4671C63.4822 18.4518 63.2527 18.4442 63.0308 18.4442H62.8511L62.8052 17.6783H62.9964C63.4091 17.6492 63.8185 17.5851 64.2204 17.4868C64.5684 17.4033 64.8996 17.2609 65.1996 17.0656C65.5014 16.8619 65.7611 16.6018 65.9645 16.2997C66.2059 15.9393 66.3808 15.5385 66.4809 15.1164L66.5192 14.9632L67.1962 15.0091V25.6435L67.5098 25.5133C67.8655 25.3678 68.336 25.1801 68.9174 24.9542C69.4988 24.7283 70.0649 24.4985 70.6195 24.2649C71.1741 24.0313 71.6751 23.8245 72.1227 23.6484C72.662 23.4301 72.8532 23.3458 72.9182 23.3152C73.2839 23.1572 73.6104 22.9205 73.8745 22.6221C74.132 22.3263 74.3411 21.9915 74.4941 21.6303C74.6508 21.2627 74.7601 20.8766 74.8192 20.4814C74.8812 20.1158 74.9132 19.7456 74.9149 19.3747C74.9311 18.7914 74.8215 18.2115 74.5936 17.6744C74.406 17.2505 74.1249 16.8747 73.7712 16.5754C73.433 16.2954 73.0431 16.0846 72.6237 15.955C72.2305 15.827 71.8154 15.7801 71.4036 15.8172C71.0107 15.8526 70.6279 15.9618 70.2752 16.1388C69.9517 16.2927 69.6765 16.5324 69.4796 16.832C69.2375 17.1772 69.1189 17.5941 69.1431 18.0153C69.1751 18.3482 69.2936 18.6669 69.4869 18.9396C69.6801 19.2124 69.9414 19.4298 70.2446 19.57C70.4789 19.6983 70.7426 19.763 71.0096 19.7577L71.3921 19.7347L71.1703 20.0602C70.9905 20.3168 70.8145 20.5733 70.6348 20.8261C70.455 21.0788 70.2867 21.3009 70.1337 21.4962C69.9807 21.6915 69.843 21.8562 69.7512 21.9711C69.6594 22.086 69.5332 22.1779 69.4184 22.1779H69.3725L69.319 22.1549C68.939 21.9904 68.6214 21.7086 68.4125 21.3507C68.1385 20.9289 67.944 20.4603 67.8388 19.9683C67.7219 19.429 67.6846 18.8755 67.7278 18.3254C67.7665 17.7507 67.9366 17.1925 68.2251 16.6941C68.54 16.1647 68.9885 15.7275 69.5255 15.4266C70.2238 15.0562 70.9998 14.8567 71.7899 14.8445C73.7024 14.7602 75.1061 15.1125 76.0585 15.8899C77.0109 16.6673 77.5005 17.8812 77.4814 19.4666C77.4789 19.9534 77.3895 20.4359 77.2174 20.8912C77.0326 21.373 76.7731 21.8227 76.4486 22.2238C76.102 22.6568 75.6934 23.0361 75.2361 23.3497C74.7234 23.7081 74.1618 23.9905 73.5685 24.1883C73.186 24.33 72.7117 24.5138 72.1494 24.7283C71.5872 24.9427 71.002 25.1725 70.4473 25.4061C69.8927 25.6397 69.3266 25.8695 68.8026 26.0954C68.2786 26.3213 67.8655 26.4783 67.5672 26.6162L67.1847 26.7732V29.5993C67.1766 29.8172 67.2117 30.0346 67.288 30.2388C67.3447 30.38 67.4369 30.504 67.5557 30.5988C67.6712 30.6899 67.8003 30.7622 67.9382 30.8133C68.0807 30.8628 68.2282 30.8962 68.3781 30.9128C68.5602 30.9413 68.7446 30.9528 68.9289 30.9473C69.0933 30.9473 69.2731 30.9473 69.472 30.9473H69.6632L69.6824 31.9353Z" fill="#133C58"/>
<path d="M75.2781 36.8415C75.1021 36.8405 74.9267 36.8226 74.7541 36.7879C74.1775 36.6569 73.6482 36.3694 73.2241 35.9569L73.1629 35.8995V31.6143L73.5454 32.7631C73.6405 33.1194 73.8657 33.4269 74.1765 33.6248C74.477 33.8009 74.8127 33.9081 75.1596 33.9388C75.5071 33.9663 75.8569 33.9392 76.1961 33.8584C76.4626 33.7985 76.7199 33.7032 76.9611 33.575C77.3036 33.3579 77.614 33.0936 77.8829 32.7899C78.1851 32.4555 78.4577 32.0955 78.6976 31.7139C78.9424 31.3309 79.1719 30.9212 79.3784 30.5153C79.5582 30.1668 79.715 29.8413 79.8413 29.5464C79.4269 29.2663 79.0569 28.9255 78.7435 28.5354C78.4079 28.1123 78.1867 27.6099 78.1009 27.0764C78.0053 26.5073 78.0053 25.9261 78.1009 25.357C78.1856 24.7883 78.4061 24.2484 78.7435 23.7831C79.106 23.3055 79.5766 22.9209 80.1166 22.6611C80.7445 22.3696 81.4289 22.2205 82.1209 22.2245C82.4613 21.0757 82.7979 19.9919 83.1307 18.9197L83.9148 16.4037H83.0848C82.928 16.4037 82.7597 16.4037 82.5875 16.4037H82.0827H81.7308C81.6907 16.404 81.6509 16.396 81.6141 16.3802C81.5772 16.3644 81.544 16.3411 81.5166 16.3118C81.483 16.2711 81.4582 16.2239 81.4437 16.1732C81.4292 16.1225 81.4254 16.0693 81.4324 16.017C81.4324 15.897 81.4324 15.7438 81.4324 15.5574V15.366L90.6007 15.3775V15.5689C90.6007 16.0821 90.4554 16.3348 90.1685 16.3348C90.0041 16.3348 89.8243 16.3348 89.6292 16.3348C89.4341 16.3348 89.2467 16.3348 89.0555 16.3348H88.7189C88.5932 16.3199 88.4657 16.332 88.345 16.3703C88.2243 16.4086 88.1131 16.4722 88.0189 16.5569C87.8932 16.6954 87.8224 16.8752 87.82 17.0624C87.8111 17.1477 87.8111 17.2337 87.82 17.319C87.8574 17.4134 87.8868 17.5107 87.908 17.61C87.9463 17.7632 88.0074 17.993 88.0878 18.2457C88.2637 18.7895 88.4703 19.4826 88.738 20.3136C89.0058 21.1446 89.2735 22.0445 89.5642 23.0172L90.2144 25.0851C90.4261 25.7565 90.6122 26.3578 90.7729 26.8888C90.9335 27.4198 91.1107 28.0185 91.3045 28.6848C91.378 28.9627 91.4833 29.2313 91.6182 29.4851C91.7634 29.7631 91.9447 30.0207 92.1575 30.251C92.3691 30.4832 92.6188 30.6774 92.8957 30.8254C93.1576 30.969 93.4543 31.0366 93.7525 31.0207H93.9667C94.106 31.0219 94.2452 31.0308 94.3836 31.0475H94.5595V31.9704H86.03L86.072 31.0054H87.7282C87.8858 30.9995 88.0423 30.9764 88.1949 30.9365C88.3786 30.8935 88.5508 30.8112 88.6998 30.6952C88.8595 30.5638 88.9766 30.3879 89.0364 30.1898C89.1182 29.8915 89.1182 29.5766 89.0364 29.2783C88.9101 28.7039 88.7801 28.2023 88.6539 27.7925C88.5428 27.413 88.3902 27.047 88.1987 26.7011C88.0186 26.3929 87.7972 26.1107 87.5408 25.8625C87.2403 25.5684 86.9195 25.2958 86.5808 25.0468C85.9998 24.6332 85.3842 24.2706 84.741 23.9631C84.1593 23.6821 83.5414 23.4837 82.905 23.3733C82.5684 24.4532 82.2548 25.4757 81.9756 26.4369C81.6963 27.3981 81.4554 28.2252 81.31 28.792C81.2909 28.8494 81.2756 28.8992 81.2603 28.9528C81.6053 29.0721 81.9719 29.1152 82.3351 29.0792C82.4555 29.0579 82.5743 29.0284 82.6908 28.9911C82.8448 28.9411 82.9876 28.8618 83.1116 28.7575C83.4468 28.48 83.6775 28.0964 83.7656 27.67L82.4384 26.8811L83.1307 25.1119V26.0539C83.2846 26.1538 83.4443 26.2446 83.6088 26.3258L84.8901 26.9922C85.3568 27.2372 85.789 27.4555 86.183 27.6585C86.8141 27.9802 86.8638 28.0414 86.8944 28.1448L86.9173 28.2061L86.8944 28.2674C86.7059 28.8704 86.3424 29.4037 85.8502 29.7991C85.388 30.1624 84.849 30.4152 84.2743 30.5382C83.6754 30.6645 83.0586 30.6814 82.4537 30.588C81.9126 30.5135 81.3831 30.3707 80.8778 30.1629C80.6273 30.8769 80.34 31.5773 80.0172 32.2615C79.6533 33.0441 79.2179 33.7915 78.7167 34.494C78.3632 34.9785 77.9663 35.4297 77.531 35.842C77.1527 36.2123 76.704 36.5027 76.2114 36.696C75.9113 36.799 75.5953 36.8483 75.2781 36.8415ZM81.8034 23.3006C81.6745 23.3165 81.5467 23.3408 81.4209 23.3733C80.7281 23.504 80.1112 23.8944 79.6959 24.4647C79.2402 25.1723 79.0554 26.021 79.1757 26.8543C79.2043 27.2047 79.3452 27.5364 79.5773 27.8002C79.7791 28.0378 80.009 28.25 80.262 28.432C80.4073 27.984 80.5871 27.4172 80.7975 26.7394C81.0461 25.9391 81.3406 24.9472 81.681 23.7869L81.8034 23.3006ZM83.2072 22.3011H83.2722C84.6759 22.4811 86.095 23.1819 87.514 24.392L85.112 16.3501H85.0087C84.9666 16.4803 84.9093 16.6756 84.8328 16.9399C84.7218 17.3228 84.5765 17.813 84.3967 18.3951L83.8039 20.3442L83.2072 22.3011Z" fill="#133C58"/>
</svg>
