<svg width="968" height="29" viewBox="0 0 968 29" fill="none" xmlns="http://www.w3.org/2000/svg">
<path d="M554.195 8.73586L543.186 8.67334L530.182 8.61975L515.649 8.57509L498.973 8.55275C499.255 7.87376 499.404 7.14581 499.413 6.40913C499.408 5.50747 499.184 4.62091 498.761 3.82784C497.923 2.31451 496.619 1.12095 495.049 0.42928C494.324 0.113392 493.538 -0.0314386 492.75 0.00569508C491.962 0.0428288 491.193 0.260962 490.5 0.643648C489.21 1.35819 487.928 2.72029 488.012 4.31462C488.095 5.90894 489.276 7.20853 490.676 7.73997C491.492 8.09641 492.407 8.14705 493.257 7.88287C493.923 7.6034 494.516 7.16896 494.987 6.61455L494.868 6.56989H494.82C494.785 6.55845 494.752 6.54503 494.719 6.5297C494.6 6.48058 494.481 6.42699 494.366 6.36893C494.347 6.36181 494.331 6.34741 494.322 6.32874C494.17 6.2738 494.022 6.20503 493.882 6.1233C493.326 5.82526 492.908 5.31648 492.719 4.70762C492.402 3.49289 493.776 2.497 494.86 2.94805C496.837 3.76978 497.031 5.82856 496.586 7.7087C496.238 9.18692 495.04 10.098 493.688 10.5847C492.221 11.1186 490.612 11.082 489.17 10.482C488.635 10.2626 488.131 9.97441 487.668 9.62458C487.554 9.53526 487.43 9.43701 487.307 9.32536C487.014 8.89473 486.819 8.40364 486.735 7.88734C486.959 7.56336 487.117 7.19756 487.201 6.81105C487.264 6.35181 487.214 5.884 487.056 5.44896C486.878 5.02821 486.65 4.63085 486.378 4.2655C486.169 3.87546 485.907 3.51756 485.599 3.20261C485.574 3.18783 485.547 3.17897 485.518 3.17675C485.49 3.17453 485.461 3.17899 485.435 3.1898C485.408 3.20061 485.385 3.21747 485.366 3.23906C485.347 3.26064 485.333 3.28639 485.326 3.31426C485.194 3.42587 485.091 3.56845 485.026 3.72959C484.903 3.94842 484.788 4.17617 484.674 4.395C484.453 4.82056 484.28 5.26998 484.159 5.73477C484.052 6.19257 484.027 6.66583 484.084 7.1326C484.109 7.33181 484.181 7.52183 484.295 7.68637L484.344 7.75782C484.346 7.80096 484.346 7.8442 484.344 7.88734C484.262 8.40921 484.065 8.90551 483.767 9.33875C483.648 9.4504 483.52 9.54866 483.406 9.63798C482.944 9.98963 482.439 10.2779 481.904 10.4954C480.462 11.0954 478.852 11.132 477.386 10.5981C476.038 10.1114 474.84 9.20031 474.488 7.7221C474.048 5.84196 474.241 3.78318 476.219 2.96145C477.302 2.51486 478.676 3.50629 478.359 4.72102C478.224 5.09191 478.012 5.42885 477.737 5.70868C477.462 5.98852 477.13 6.20463 476.765 6.34214C476.756 6.35956 476.742 6.37367 476.725 6.38233C476.606 6.44039 476.492 6.49397 476.373 6.5431C476.338 6.55844 476.303 6.57186 476.267 6.58329H476.223L476.1 6.62795C476.571 7.18236 477.164 7.6168 477.83 7.89626C478.68 8.16045 479.595 8.10981 480.411 7.75337C481.811 7.22192 483 5.88215 483.08 4.32801C483.159 2.77388 481.877 1.37159 480.592 0.657045C479.898 0.274292 479.128 0.0561283 478.339 0.0189968C477.55 -0.0181347 476.764 0.126729 476.038 0.442677C474.469 1.13574 473.166 2.32894 472.326 3.84123C471.902 4.6339 471.68 5.52096 471.678 6.42252C471.686 7.15796 471.835 7.88481 472.119 8.56169L452.434 8.58849L437.902 8.63315L424.885 8.68674L413.875 8.74925L1.38942 8.80731L0 8.86984L1.38942 8.93236L413.875 8.99042L424.885 9.05293L437.902 9.11099L452.434 9.15565H466.5C463.677 9.70942 461.061 11.3038 459.718 13.9788C459.408 14.6606 459.133 15.3582 458.894 16.0689C458.507 17.0826 457.794 18.5296 456.834 19.0967C456.365 19.3332 455.863 19.4944 455.345 19.5746C455.314 19.5804 455.285 19.5972 455.265 19.6221C455.244 19.647 455.233 19.6784 455.233 19.7108C455.233 19.7432 455.244 19.7746 455.265 19.7995C455.285 19.8244 455.314 19.8412 455.345 19.847H455.446C455.533 19.877 455.624 19.8936 455.715 19.8961C455.875 19.936 456.036 19.9673 456.199 19.9899C456.521 20.0257 456.842 20.0748 457.159 20.0882C457.755 20.0922 458.348 20.0095 458.921 19.8425C459.742 19.6567 460.497 19.2441 461.101 18.6502C461.244 19.4373 461.646 20.152 462.241 20.6777C462.936 21.2758 463.823 21.5938 464.734 21.5709C465.627 21.5495 466.478 21.1819 467.112 20.5437C467.411 20.2274 467.62 19.835 467.716 19.4081C467.813 18.9812 467.795 18.5357 467.662 18.1187C467.651 18.0857 467.628 18.0581 467.598 18.0412C467.567 18.0243 467.532 18.0192 467.498 18.0269C467.465 18.0346 467.435 18.0546 467.415 18.083C467.395 18.1115 467.386 18.1464 467.389 18.1812C467.468 18.8868 467.178 19.5523 466.403 19.5925C466.066 19.6191 465.728 19.5496 465.427 19.3917C465.127 19.2339 464.876 18.9941 464.703 18.6993C463.822 17.2479 465.007 15.7295 466.218 14.9881C466.906 14.5608 467.668 14.2713 468.464 14.1351C468.331 14.289 468.206 14.45 468.089 14.6175C467.887 14.9152 467.68 15.1965 467.468 15.4615C467.262 15.8113 467.037 16.1497 466.795 16.4753C466.768 16.5004 466.751 16.5335 466.745 16.5696C466.739 16.6057 466.744 16.6428 466.76 16.6755C466.777 16.7082 466.803 16.7346 466.835 16.7508C466.868 16.767 466.905 16.7722 466.94 16.7655C467.472 16.6011 468.045 16.6392 468.552 16.8727C468.97 17.0826 469.309 17.4086 469.714 17.6409C470.048 17.8705 470.448 17.9806 470.851 17.9535L471.159 17.9043C471.08 17.9892 470.996 18.0741 470.921 18.1634C470.442 18.6821 470.086 19.3051 469.881 19.9847C469.675 20.6643 469.626 21.3825 469.736 22.0844C469.878 22.7205 470.224 23.2904 470.721 23.7039C471.218 24.1173 471.837 24.3506 472.48 24.3665C472.986 24.3424 473.479 24.1888 473.911 23.9199C474.219 23.7591 474.647 23.5001 474.743 23.1295C474.832 23.0125 474.903 22.8831 474.955 22.7454C474.96 22.7253 474.959 22.7041 474.952 22.6846C474.945 22.6652 474.932 22.6485 474.915 22.6371C474.897 22.6257 474.877 22.6201 474.857 22.6211C474.836 22.6221 474.817 22.6296 474.801 22.6427C474.543 22.9149 474.201 23.0884 473.832 23.1339C473.61 23.1081 473.395 23.0346 473.203 22.9184C473.011 22.8021 472.846 22.6457 472.718 22.4596C472.132 21.7182 472.436 20.7893 472.947 20.1105C473.197 19.7617 473.517 19.4702 473.886 19.2548C474.255 19.0394 474.664 18.9049 475.087 18.8601C475.877 18.8705 476.652 19.0808 477.342 19.4719C477.988 19.789 478.69 19.9742 479.407 20.0167C478.821 20.4633 478.623 21.4101 478.553 22.0934C478.517 22.6791 478.642 23.2633 478.914 23.7815C479.066 24.1166 479.178 24.4689 479.248 24.831C479.275 24.9917 479.292 25.148 479.314 25.3088C479.361 25.5044 479.42 25.6968 479.491 25.8849C479.513 25.9608 479.627 26.0055 479.671 25.9206C479.825 25.608 479.944 25.2776 480.112 24.9739C480.334 24.6414 480.623 24.3612 480.961 24.1521C481.486 23.7859 482.084 23.5582 482.608 23.192C483.107 22.8527 483.515 22.3921 483.793 21.8522C483.884 21.6667 483.961 21.4741 484.022 21.2761C484.022 21.3699 484.048 21.4637 484.066 21.553C484.198 22.2541 484.189 22.9508 484.26 23.6609C484.37 24.7506 484.625 25.8403 484.757 26.9299C484.81 27.18 484.854 27.4301 484.894 27.6802L485.026 28.1625C485.049 28.1669 485.073 28.1669 485.097 28.1625C485.136 27.9526 485.18 27.7472 485.237 27.5418C485.24 27.5135 485.24 27.4852 485.237 27.4569C485.339 27.0103 485.414 26.5146 485.51 26.0502C485.656 25.3535 485.823 24.6657 486.004 23.9824C486.308 22.8124 486.66 21.6512 486.95 20.4767C486.993 20.9587 487.125 21.4283 487.338 21.8611C487.617 22.4022 488.026 22.8631 488.527 23.2009C489.047 23.5671 489.646 23.7949 490.17 24.1611C490.508 24.3701 490.797 24.6504 491.02 24.9828C491.196 25.2865 491.31 25.617 491.46 25.9296C491.504 26.0144 491.623 25.9698 491.64 25.8938C491.713 25.7064 491.772 25.5139 491.817 25.3177C491.839 25.157 491.856 25.0007 491.887 24.8399C491.953 24.4768 492.066 24.1239 492.222 23.7904C492.49 23.2711 492.613 22.6874 492.578 22.1023C492.508 21.419 492.31 20.4722 491.729 20.0256C492.444 19.9825 493.144 19.7974 493.789 19.4808C494.479 19.0898 495.254 18.8795 496.044 18.869C496.467 18.9138 496.876 19.0483 497.245 19.2637C497.614 19.4791 497.934 19.7707 498.184 20.1194C498.695 20.7983 498.999 21.7272 498.413 22.4685C498.285 22.6546 498.12 22.811 497.928 22.9273C497.736 23.0436 497.521 23.117 497.299 23.1429C496.93 23.0966 496.588 22.9232 496.33 22.6516C496.315 22.6368 496.295 22.6278 496.274 22.626C496.253 22.6242 496.232 22.6297 496.215 22.6417C496.197 22.6537 496.184 22.6714 496.178 22.6919C496.172 22.7124 496.173 22.7344 496.181 22.7543C496.229 22.8937 496.3 23.0236 496.392 23.1384C496.484 23.5091 496.912 23.7681 497.22 23.9289C497.652 24.1977 498.145 24.3513 498.651 24.3754C499.294 24.3595 499.913 24.1263 500.41 23.7128C500.907 23.2994 501.254 22.7294 501.395 22.0934C501.505 21.3915 501.456 20.6733 501.25 19.9937C501.045 19.3141 500.689 18.6911 500.21 18.1723C500.135 18.083 500.056 17.9981 499.977 17.9133L500.281 17.9624C500.684 17.9891 501.086 17.8792 501.421 17.6498C501.822 17.4176 502.165 17.0916 502.579 16.8817C503.086 16.6482 503.659 16.6101 504.191 16.7745C504.227 16.7825 504.264 16.7784 504.298 16.7626C504.331 16.7469 504.358 16.7205 504.375 16.6874C504.392 16.6544 504.398 16.6166 504.392 16.5799C504.386 16.5431 504.368 16.5095 504.341 16.4842C504.096 16.1598 503.869 15.8213 503.663 15.4704C503.451 15.1936 503.244 14.9122 503.042 14.6264C502.967 14.5237 502.843 14.345 502.698 14.1798C503.43 14.3291 504.131 14.6072 504.768 15.0015C505.979 15.7429 507.168 17.2613 506.283 18.7127C506.109 19.0071 505.858 19.2467 505.558 19.4044C505.258 19.5622 504.92 19.632 504.583 19.6059C503.803 19.5657 503.517 18.9002 503.592 18.1946C503.596 18.1598 503.587 18.1249 503.566 18.0964C503.546 18.068 503.517 18.048 503.483 18.0403C503.449 18.0326 503.414 18.0377 503.384 18.0546C503.354 18.0715 503.331 18.0991 503.319 18.1321C503.186 18.5494 503.168 18.9954 503.266 19.4225C503.363 19.8496 503.574 20.2418 503.874 20.5571C504.507 21.1943 505.356 21.5618 506.248 21.5843C507.158 21.608 508.046 21.29 508.74 20.6911C509.338 20.1672 509.742 19.4519 509.885 18.6636C510.488 19.2573 511.241 19.67 512.06 19.8559C512.633 20.0223 513.226 20.105 513.822 20.1016C514.143 20.1016 514.465 20.0391 514.782 20.0033C514.945 19.9811 515.107 19.9498 515.266 19.9095C515.359 19.9067 515.451 19.8901 515.539 19.8604H515.641C515.673 19.8578 515.703 19.8437 515.726 19.8205C515.749 19.7972 515.763 19.7665 515.766 19.7337C515.769 19.7009 515.76 19.6683 515.741 19.6416C515.722 19.6149 515.694 19.5959 515.663 19.588C515.145 19.5078 514.643 19.3466 514.174 19.1101C513.214 18.543 512.501 17.096 512.109 16.0823C511.84 15.3811 511.624 14.6621 511.29 13.9922C509.942 11.3127 507.326 9.71388 504.486 9.16458H515.561L530.094 9.11993L543.115 9.06634L554.125 9.00381L966.611 8.94575L968 8.87877L967.305 8.8475L966.611 8.81624L554.195 8.73586ZM488.294 10.558C488.493 10.6653 488.701 10.7564 488.915 10.8304L488.994 10.8616C490.534 11.5193 492.259 11.5766 493.838 11.0224C494.654 10.7569 495.394 10.2923 495.992 9.66942C496.59 9.04652 497.028 8.28433 497.268 7.44967C497.268 7.39608 497.299 7.3425 497.312 7.28891C497.889 5.28372 496.432 2.23352 494.12 2.1442C493.749 2.13771 493.385 2.24122 493.072 2.44199C492.759 2.64275 492.511 2.93199 492.358 3.27407C492.242 3.58679 492.198 3.92213 492.228 4.25479C492.259 4.58745 492.364 4.90873 492.534 5.1944C492.866 5.82074 493.401 6.31143 494.049 6.58329L494.129 6.6101C493.728 6.75077 493.298 6.77895 492.883 6.69168C492.468 6.60441 492.085 6.40492 491.773 6.11438C491.409 5.77649 491.139 5.34864 490.989 4.87286C490.89 4.43367 490.865 3.98077 490.914 3.53309C490.913 3.51752 490.907 3.50262 490.898 3.49063C490.888 3.47865 490.874 3.47024 490.859 3.4667C490.844 3.46316 490.829 3.46468 490.815 3.47102C490.801 3.47736 490.789 3.48817 490.782 3.50182C490.61 3.99508 490.629 4.53607 490.835 5.01577C491.008 5.53269 491.311 5.9946 491.715 6.35554C492.05 6.67572 492.468 6.89213 492.919 6.97918C493.371 7.06623 493.838 7.02029 494.265 6.84679L494.177 6.91823C493.806 7.23404 493.368 7.45847 492.898 7.57392C492.427 7.68936 491.936 7.6927 491.464 7.58366C490.6 7.38484 489.826 6.90108 489.262 6.20815C488.996 5.90749 488.793 5.5547 488.665 5.17146C488.538 4.78823 488.49 4.38266 488.523 3.97968C488.658 3.16159 489.067 2.4157 489.681 1.8673C490.273 1.29106 491.003 0.879759 491.798 0.673209C492.594 0.466659 493.428 0.471864 494.221 0.688309C495.054 0.943717 495.822 1.38118 496.47 1.9699C497.118 2.55861 497.631 3.28428 497.973 4.09579C498.338 4.89784 498.51 5.77647 498.475 6.65922C498.385 7.54998 498.092 8.40745 497.621 9.16458C496.784 10.6026 495.617 11.8664 493.979 12.2907C493.225 12.5011 492.438 12.5545 491.664 12.4478C490.889 12.3411 490.145 12.0765 489.474 11.67C488.887 11.291 488.36 10.8243 487.91 10.2855C488.03 10.388 488.158 10.4792 488.294 10.558ZM473.154 4.10025C473.496 3.28906 474.009 2.5637 474.657 1.97505C475.306 1.3864 476.073 0.94874 476.906 0.69278C477.698 0.475451 478.533 0.469806 479.329 0.676398C480.124 0.88299 480.854 1.29479 481.446 1.87177C482.064 2.4177 482.478 3.16153 482.622 3.97968C482.654 4.37843 482.606 4.77963 482.482 5.1594C482.358 5.53917 482.16 5.88976 481.899 6.1903C481.336 6.88322 480.561 7.36697 479.698 7.56579C479.225 7.67518 478.735 7.67201 478.264 7.55655C477.793 7.44109 477.355 7.21648 476.985 6.90038L476.892 6.82892C477.32 7.0028 477.788 7.04895 478.24 6.9619C478.693 6.87485 479.111 6.65824 479.447 6.33767C479.849 5.97551 480.152 5.514 480.327 4.9979C480.534 4.51824 480.552 3.97623 480.376 3.48397C480.368 3.47032 480.357 3.45949 480.343 3.45315C480.329 3.44681 480.313 3.44529 480.298 3.44883C480.283 3.45237 480.27 3.46078 480.26 3.47276C480.25 3.48475 480.244 3.49965 480.244 3.51522C480.295 3.96284 480.27 4.41613 480.169 4.85499C480.007 5.32907 479.724 5.75128 479.35 6.07865C479.038 6.36962 478.654 6.56937 478.239 6.65667C477.824 6.74396 477.394 6.71552 476.994 6.57436L477.077 6.54757C477.724 6.27547 478.258 5.78471 478.588 5.15868C478.758 4.87264 478.862 4.55163 478.893 4.2193C478.924 3.88696 478.882 3.55175 478.768 3.23833C478.614 2.89731 478.366 2.60902 478.053 2.40846C477.74 2.2079 477.377 2.10368 477.007 2.10846C474.695 2.19778 473.242 5.23459 473.814 7.25317C473.814 7.30676 473.845 7.36036 473.863 7.41395C474.102 8.24829 474.539 9.01034 475.137 9.63325C475.734 10.2562 476.473 10.7209 477.289 10.9867C478.876 11.5469 480.611 11.4896 482.159 10.8259L482.234 10.7946C482.45 10.7215 482.659 10.6304 482.859 10.5222C482.989 10.4519 483.113 10.3712 483.229 10.2811C482.781 10.8187 482.255 11.2853 481.67 11.6655C480.999 12.0722 480.253 12.3368 479.478 12.4435C478.703 12.5502 477.915 12.4967 477.161 12.2863C475.527 11.8397 474.356 10.5803 473.524 9.16012C473.045 8.40444 472.743 7.54726 472.643 6.65475C472.612 5.77427 472.787 4.89883 473.154 4.10025ZM472.44 9.16905C472.788 9.8913 473.233 10.5615 473.761 11.1608C473.321 10.8973 472.881 10.6294 472.524 10.3793C471.727 9.82598 470.842 9.41513 469.908 9.16458L472.44 9.16905ZM465.553 14.6398C464.483 15.4168 463.668 16.5869 463.791 17.9669C463.853 18.5558 464.113 19.1051 464.528 19.5218C464.943 19.9385 465.487 20.197 466.068 20.2534C466.293 20.2775 466.52 20.2534 466.734 20.1826C466.949 20.1118 467.147 19.996 467.314 19.8425C467.193 20.0439 467.045 20.2273 466.874 20.3874C466.277 20.9645 465.496 21.3052 464.672 21.3476C464.275 21.3533 463.881 21.2725 463.517 21.1107C463.153 20.9489 462.828 20.7099 462.563 20.4097C462.28 20.0912 462.065 19.717 461.931 19.3106C461.797 18.9042 461.747 18.4742 461.783 18.0473C461.783 17.6007 461.198 17.6007 461.123 18.0115C461.123 18.0696 461.123 18.1321 461.101 18.1902C460.445 18.9017 459.591 19.3927 458.652 19.5969C458.109 19.7493 457.547 19.82 456.983 19.8068C456.829 19.8068 456.675 19.7845 456.521 19.7666L456.767 19.7041C457.301 19.5979 457.815 19.4128 458.296 19.1548C459.167 18.6407 459.873 17.8824 460.33 16.971C460.361 16.9085 460.264 16.8504 460.216 16.8951C459.568 17.5649 459.022 18.3063 458.234 18.8109C457.825 19.0544 457.378 19.2265 456.913 19.32L456.763 19.3558C457.034 19.2271 457.294 19.0778 457.543 18.9092C457.983 18.5876 458.366 17.7882 458.643 17.3059C458.921 16.8236 459.247 16.1984 459.546 15.6491C460.177 14.4244 460.939 13.2742 461.819 12.2193C463.294 10.5356 465.976 9.62904 468.151 9.59332C469.935 9.56652 472.81 11.4556 474.466 12.188C474.735 12.3086 475.082 12.447 475.479 12.5855C475.58 12.639 475.677 12.7016 475.783 12.7507C476.587 13.1162 477.46 13.2976 478.341 13.2821C479.85 13.3618 481.328 12.8337 482.454 11.8129C482.942 11.409 483.364 10.9297 483.705 10.3927C483.846 10.2007 483.982 10.0042 484.106 9.80321C484.193 9.60655 484.265 9.40351 484.321 9.19584C484.395 9.01401 484.457 8.82754 484.506 8.63761C484.504 9.32657 484.363 10.0078 484.094 10.6403C483.825 11.2728 483.432 11.8433 482.939 12.3175C481.719 13.5448 480.1 14.2798 478.385 14.3852C476.571 14.5013 474.713 13.9386 473.101 13.1348C472.273 12.7328 471.498 12.2416 470.644 11.8799C469.908 11.5962 469.12 11.4848 468.336 11.5538C465.967 11.7235 463.492 13.1258 462.897 15.5955C462.413 17.6364 463.038 20.7715 465.623 20.6598C465.764 20.6598 465.782 20.441 465.623 20.432C465.277 20.4365 464.933 20.3659 464.616 20.2249C464.299 20.084 464.014 19.876 463.783 19.6148C463.396 19.0919 463.149 18.4766 463.065 17.8284C462.93 17.1682 462.934 16.4864 463.079 15.8281C463.223 15.1698 463.503 14.5501 463.901 14.0101C464.841 12.9175 466.125 12.1898 467.535 11.9513C468.286 11.7876 469.062 11.78 469.816 11.929C470.705 12.1897 471.556 12.5681 472.348 13.0544C474.99 14.4299 478.042 15.1712 480.887 14.0101C482.745 13.2509 484.678 11.3305 484.819 9.26283C484.837 9.43253 484.85 9.60224 484.859 9.77195C484.921 10.6203 484.788 11.4718 484.471 12.2595C484.081 13.0739 483.535 13.8012 482.864 14.3986C482.207 15.0527 481.457 15.6036 480.64 16.0331C479.777 16.5007 478.794 16.6923 477.822 16.5824C476.83 16.4494 475.862 16.1743 474.946 15.7652C474.039 15.3811 473.215 14.8095 472.343 14.3406C471.524 13.8817 470.628 13.579 469.701 13.4474C468.222 13.3292 466.751 13.7522 465.553 14.6398ZM470.516 17.6096C470.096 17.4543 469.707 17.2244 469.366 16.9308C469.081 16.7009 468.752 16.5335 468.399 16.4389C468.047 16.3444 467.679 16.3248 467.319 16.3815C467.394 16.2341 467.455 16.0778 467.513 15.9349C467.677 15.626 467.883 15.342 468.125 15.0908C468.296 14.8631 468.451 14.6219 468.644 14.4031C468.747 14.2897 468.864 14.1906 468.992 14.1083C469.905 14.0685 470.817 14.2205 471.67 14.5549C472.345 14.8198 473.004 15.1256 473.642 15.4704L473.259 15.3588C472.816 15.2078 472.356 15.1162 471.89 15.0864C471.375 15.0902 470.86 15.123 470.349 15.1846C470.111 15.2069 469.869 15.2337 469.635 15.2695C469.404 15.3494 469.178 15.4418 468.957 15.5464C468.944 15.5464 468.932 15.5515 468.923 15.5607C468.914 15.57 468.909 15.5825 468.909 15.5955C468.909 15.6085 468.914 15.621 468.923 15.6302C468.932 15.6394 468.944 15.6446 468.957 15.6446C469.108 15.654 469.259 15.6265 469.397 15.5642C469.646 15.4789 469.906 15.4308 470.168 15.4213C470.728 15.3789 471.29 15.3789 471.85 15.4213C472.316 15.4883 472.771 15.619 473.202 15.8098C473.394 15.8817 473.589 15.9428 473.788 15.9929C472.957 16.3917 472.198 16.9291 471.542 17.5828C471.208 17.6811 470.854 17.6903 470.516 17.6096ZM476.681 18.7707C476.002 18.4632 475.231 18.4359 474.532 18.6948C473.844 18.9664 473.237 19.4141 472.771 19.9944C472.533 20.2624 472.356 20.5789 472.249 20.9225C472.143 21.2661 472.11 21.6288 472.154 21.9862C472.241 22.3458 472.415 22.6778 472.661 22.9522C472.906 23.2266 473.215 23.4348 473.559 23.5582C473.676 23.6034 473.799 23.6261 473.924 23.6252L473.687 23.7458C473.284 23.973 472.826 24.0798 472.365 24.0539C471.764 23.9772 471.203 23.7045 470.767 23.2768C470.328 22.8216 470.078 22.2122 470.071 21.5753C470.042 20.9459 470.141 20.3171 470.362 19.728C470.582 19.1388 470.919 18.6018 471.353 18.15C472.195 17.2032 473.254 16.4795 474.435 16.0421C474.464 16.0323 474.49 16.0139 474.509 15.9893C474.528 15.9646 474.539 15.9348 474.541 15.9036C475.34 16.2647 476.172 16.5473 477.025 16.7477C477.635 16.8985 478.265 16.9542 478.892 16.9129C479.569 16.8355 480.225 16.6279 480.825 16.3011C481.985 15.6901 483.014 14.8505 483.85 13.8314C484.232 13.3839 484.547 12.883 484.788 12.3443C484.735 12.5274 484.683 12.715 484.621 12.9025C484.359 13.4743 484.065 14.0305 483.74 14.5683C483.314 15.2184 482.77 15.7807 482.137 16.2252C481.539 16.6466 480.879 16.9706 480.182 17.1853C479.363 17.3847 478.512 17.415 477.681 17.2747C476.161 17.1228 474.563 16.9933 473.202 17.815C472.632 18.1688 472.128 18.6224 471.714 19.1548C471.268 19.6908 470.965 20.3333 470.833 21.0216C470.833 21.0573 470.873 21.0617 470.886 21.0216C471.174 20.3054 471.582 19.6452 472.092 19.07C472.587 18.4968 473.198 18.0396 473.885 17.7302C475.417 17.0692 477.205 17.5739 478.799 17.6007C480.217 17.6108 481.596 17.1391 482.719 16.2609C483.311 15.7977 483.803 15.2154 484.163 14.5505C484.123 14.738 484.092 14.9301 484.062 15.1221C484.013 15.4436 483.978 15.7697 483.952 16.0957C483.732 16.8058 483.371 17.463 482.892 18.0267C482.412 18.5903 481.824 19.0487 481.164 19.3736C480.432 19.6962 479.619 19.7789 478.839 19.6103C478.093 19.3974 477.368 19.1164 476.672 18.7707H476.681ZM483.916 20.9501C483.828 21.313 483.687 21.6607 483.498 21.9817C483.147 22.5096 482.68 22.947 482.133 23.259C481.593 23.5538 481.075 23.8882 480.583 24.2593C480.199 24.6256 479.898 25.0721 479.702 25.5678C479.702 25.3847 479.702 25.1972 479.658 25.0275C479.628 24.7365 479.565 24.4502 479.469 24.1745C479.212 23.6593 479.027 23.1108 478.918 22.5444C478.869 22.0774 478.931 21.6054 479.098 21.1674C479.265 20.7294 479.532 20.338 479.878 20.0256C480.493 19.974 481.092 19.7994 481.64 19.5121C482.42 19.1004 483.084 18.4932 483.568 17.748L483.445 18.083C483.207 18.6639 482.912 19.219 482.564 19.7398C482.204 20.2636 481.805 20.7592 481.371 21.2225C481.094 21.6451 480.841 22.0835 480.614 22.5355C480.606 22.5462 480.602 22.5594 480.602 22.5728C480.603 22.5862 480.608 22.599 480.617 22.609C480.626 22.619 480.637 22.6256 480.651 22.6277C480.664 22.6298 480.677 22.6271 480.688 22.6203C481.129 22.3435 481.265 21.7272 481.622 21.3342C482.084 20.8652 482.511 20.3622 482.899 19.8291C483.272 19.2871 483.589 18.708 483.846 18.1008C483.865 18.0496 483.881 17.9974 483.894 17.9445C483.894 18.4581 483.894 18.9672 483.894 19.4719C483.894 19.8202 483.925 20.173 483.956 20.5214C483.952 20.665 483.939 20.8082 483.916 20.9501ZM485.801 23.9065C485.607 24.5853 485.431 25.2463 485.268 25.9564C485.268 26.0278 485.237 26.1037 485.22 26.1752C485.193 25.684 485.317 25.157 485.321 24.6791C485.321 23.9556 485.387 23.2366 485.44 22.5132C485.576 20.9542 485.621 19.3883 485.572 17.824C485.572 17.8109 485.567 17.7984 485.558 17.7892C485.549 17.78 485.537 17.7748 485.524 17.7748C485.511 17.7748 485.499 17.78 485.489 17.7892C485.48 17.7984 485.475 17.8109 485.475 17.824C485.33 19.3781 485.224 20.9501 485.132 22.4998C485.083 23.2634 485.039 24.0226 485.044 24.7863C485.044 25.1391 484.995 25.5053 484.986 25.8671C484.907 25.6527 484.846 25.4315 484.806 25.2061C484.603 23.7457 484.366 22.0398 484.247 20.4856C484.257 20.3181 484.246 20.1498 484.211 19.9855C484.211 19.8202 484.189 19.6505 484.181 19.4897C484.096 18.0485 484.164 16.6022 484.383 15.1757C484.501 14.4686 484.666 13.7703 484.876 13.0857C485.102 12.4852 485.195 11.8419 485.149 11.201C485.192 10.9691 485.223 10.735 485.242 10.4999C485.337 9.57953 485.173 8.6507 484.771 7.82035C484.75 7.66795 484.713 7.51824 484.661 7.37376C484.518 6.86739 484.518 6.33047 484.661 5.82409C484.777 5.34342 484.932 4.87301 485.123 4.41734C485.211 4.18511 485.317 3.97075 485.422 3.73406V3.69832C485.528 3.89579 485.647 4.08535 485.779 4.2655C486.008 4.59085 486.215 4.93098 486.4 5.28372C486.582 5.6719 486.68 6.09535 486.686 6.52524C486.653 6.90969 486.57 7.28805 486.44 7.65065C485.96 8.50656 485.759 9.49458 485.867 10.4731C485.9 10.9882 486.008 11.4954 486.189 11.9781C486.194 12.1603 486.225 12.3408 486.281 12.514C486.36 12.8445 486.387 13.2018 486.453 13.5412C486.585 14.2021 486.748 14.8586 486.893 15.5196C487.164 16.9339 487.164 18.388 486.893 19.8024C486.604 21.1955 486.239 22.5716 485.801 23.9244V23.9065ZM492.354 22.5444C492.247 23.1114 492.062 23.6601 491.803 24.1745C491.711 24.4514 491.648 24.7373 491.614 25.0275C491.588 25.1972 491.588 25.3847 491.574 25.5678C491.375 25.0738 491.074 24.628 490.694 24.2593C490.2 23.8881 489.681 23.5538 489.139 23.259C488.592 22.9483 488.126 22.5106 487.778 21.9817C487.58 21.6629 487.432 21.3149 487.338 20.9501C487.298 20.6166 487.234 20.2866 487.144 19.9631C487.144 19.9363 487.144 19.9095 487.144 19.8827C487.278 19.2962 487.356 18.698 487.378 18.0964C487.378 18.0964 487.378 18.0964 487.378 18.1187C487.635 18.7259 487.952 19.305 488.324 19.847C488.734 20.3823 489.183 20.8854 489.668 21.352C490.02 21.7361 490.148 22.3613 490.601 22.6382C490.612 22.643 490.625 22.6441 490.637 22.6412C490.649 22.6383 490.659 22.6316 490.667 22.6221C490.675 22.6126 490.68 22.6008 490.681 22.5885C490.681 22.5761 490.678 22.5638 490.672 22.5534C490.446 22.1004 490.193 21.662 489.914 21.2404C489.482 20.7759 489.083 20.2804 488.721 19.7577C488.371 19.238 488.076 18.6827 487.84 18.1008C487.796 17.9892 487.756 17.8776 487.717 17.7659C488.199 18.5109 488.862 19.1182 489.641 19.5299C490.189 19.8173 490.788 19.9918 491.403 20.0435C491.747 20.3568 492.013 20.7485 492.178 21.1865C492.343 21.6244 492.404 22.096 492.354 22.5623V22.5444ZM501.196 21.5575C501.189 22.1933 500.941 22.802 500.505 23.259C500.077 23.6989 499.519 23.9857 498.915 24.0762C498.455 24.1019 497.997 23.9951 497.594 23.7681L497.356 23.6475C497.481 23.6487 497.605 23.626 497.722 23.5805C498.066 23.4572 498.375 23.2489 498.62 22.9745C498.865 22.7001 499.039 22.3681 499.127 22.0085C499.171 21.6511 499.139 21.2881 499.033 20.9444C498.926 20.6007 498.748 20.2842 498.51 20.0167C498.044 19.4364 497.437 18.9887 496.749 18.7171C496.05 18.4583 495.279 18.4855 494.6 18.7931C493.895 19.1591 493.157 19.4581 492.398 19.6863C491.617 19.8548 490.805 19.7721 490.073 19.4496C489.426 19.1345 488.849 18.69 488.376 18.1428C487.903 17.5955 487.544 16.9569 487.32 16.2654C487.32 16.1314 487.29 16.0019 487.268 15.8724C487.188 15.3588 487.061 14.8586 486.942 14.354C487.309 15.1298 487.848 15.8086 488.518 16.3368C489.641 17.2138 491.02 17.6854 492.438 17.6766C494.032 17.6498 495.82 17.1451 497.352 17.8061C498.039 18.1167 498.652 18.5736 499.149 19.1459C499.657 19.7212 500.064 20.3815 500.351 21.0975C500.351 21.1243 500.413 21.1198 500.408 21.0975C500.276 20.4093 499.973 19.7667 499.527 19.2307C499.112 18.6994 498.609 18.246 498.039 17.891C496.674 17.0692 495.075 17.1987 493.56 17.3506C492.729 17.491 491.879 17.4606 491.059 17.2613C490.362 17.0474 489.702 16.7234 489.104 16.3011C488.469 15.8591 487.925 15.2964 487.501 14.6442C487.217 14.1847 486.96 13.709 486.73 13.2196C486.883 13.4596 487.051 13.6893 487.232 13.9074C488.071 14.9256 489.101 15.7649 490.262 16.377C490.861 16.7032 491.516 16.9108 492.191 16.9888C492.819 17.0301 493.45 16.9744 494.062 16.8236C494.964 16.6181 495.842 16.3188 496.683 15.9304C496.679 15.9435 496.679 15.9575 496.683 15.9706C496.68 16.005 496.688 16.0394 496.706 16.0685C496.725 16.0976 496.752 16.1197 496.784 16.1314C497.965 16.5688 499.024 17.2925 499.867 18.2393C500.298 18.6759 500.639 19.1964 500.867 19.7697C501.096 20.3429 501.208 20.9571 501.196 21.5753V21.5575ZM503.156 15.0685C503.395 15.3209 503.6 15.6048 503.764 15.9126C503.821 16.0599 503.883 16.2162 503.958 16.3591C503.598 16.3007 503.23 16.3193 502.878 16.4139C502.527 16.5086 502.198 16.677 501.914 16.9085C501.572 17.2013 501.181 17.431 500.76 17.5873C500.416 17.6706 500.056 17.6598 499.717 17.556C499.059 16.9032 498.298 16.3659 497.467 15.9661C497.666 15.916 497.863 15.8549 498.057 15.783C498.486 15.5916 498.94 15.4609 499.404 15.3945C499.964 15.3521 500.526 15.3521 501.086 15.3945C501.349 15.404 501.608 15.4521 501.857 15.5374C501.996 15.599 502.146 15.6266 502.297 15.6178C502.31 15.6178 502.323 15.6126 502.332 15.6034C502.341 15.5942 502.346 15.5817 502.346 15.5687C502.346 15.5557 502.341 15.5432 502.332 15.534C502.323 15.5247 502.31 15.5196 502.297 15.5196C502.075 15.415 501.847 15.3226 501.615 15.2427C501.381 15.2069 501.139 15.1802 500.906 15.1578C500.393 15.096 499.877 15.0632 499.36 15.0596C498.894 15.0899 498.434 15.1814 497.991 15.332C497.775 15.4001 497.556 15.4567 497.334 15.5017C498.015 15.1374 498.714 14.8124 499.431 14.5281C500.333 14.1625 501.306 14.0098 502.275 14.0815C502.398 14.1604 502.511 14.255 502.61 14.3629C502.826 14.6174 502.98 14.8586 503.156 15.0864V15.0685ZM509.255 12.188C510.134 13.2429 510.894 14.3932 511.523 15.6178C511.827 16.1671 512.113 16.7298 512.404 17.2747C512.695 17.8195 513.047 18.5564 513.509 18.8779C513.756 19.0465 514.015 19.1958 514.284 19.3245L514.135 19.2888C513.669 19.1949 513.223 19.0228 512.813 18.7797C512.021 18.275 511.492 17.5337 510.827 16.8638C510.783 16.8191 510.686 16.8638 510.717 16.9397C511.175 17.8727 511.895 18.6468 512.787 19.1637C513.267 19.4224 513.782 19.6076 514.315 19.713L514.562 19.7756C514.408 19.7756 514.253 19.8113 514.121 19.8158C513.556 19.8286 512.993 19.7579 512.448 19.6059C511.51 19.4027 510.657 18.9115 510.004 18.1991C510.004 18.141 510.004 18.0785 509.982 18.0205C509.903 17.6096 509.295 17.6096 509.317 18.0562C509.354 18.4828 509.305 18.9127 509.171 19.319C509.038 19.7254 508.824 20.0997 508.542 20.4187C508.277 20.7186 507.951 20.9575 507.587 21.1192C507.224 21.281 506.83 21.3619 506.432 21.3565C505.609 21.3149 504.827 20.9741 504.231 20.3963C504.059 20.2372 503.91 20.0537 503.79 19.8515C503.959 20.0048 504.157 20.1205 504.373 20.1913C504.588 20.2621 504.816 20.2863 505.041 20.2623C505.621 20.2049 506.165 19.946 506.579 19.5294C506.993 19.1128 507.252 18.564 507.313 17.9758C507.454 16.5958 506.635 15.4258 505.552 14.6487C504.338 13.7458 502.841 13.3219 501.342 13.4563C500.415 13.5884 499.519 13.8911 498.7 14.3495C497.819 14.8184 497.009 15.3901 496.097 15.7741C495.183 16.1828 494.216 16.4579 493.226 16.5914C492.252 16.7021 491.267 16.5106 490.403 16.0421C489.586 15.6116 488.837 15.0608 488.179 14.4076C487.511 13.8088 486.966 13.0817 486.576 12.2684C486.258 11.481 486.124 10.6296 486.184 9.78087C486.184 9.61117 486.197 9.44147 486.224 9.27177C486.369 11.3529 488.302 13.2598 490.161 14.019C493.001 15.1802 496.066 14.4388 498.7 13.0633C499.49 12.5771 500.34 12.1987 501.227 11.9379C501.981 11.789 502.757 11.7966 503.508 11.9602C504.919 12.1958 506.204 12.9241 507.141 14.019C507.54 14.5587 507.822 15.1782 507.967 15.8365C508.112 16.4948 508.117 17.1768 507.983 17.8374C507.899 18.4855 507.652 19.1008 507.265 19.6237C507.033 19.8849 506.749 20.0929 506.431 20.2339C506.114 20.3748 505.771 20.4454 505.424 20.441C505.398 20.4462 505.375 20.4604 505.358 20.4812C505.341 20.502 505.332 20.528 505.332 20.5549C505.332 20.5817 505.341 20.6078 505.358 20.6285C505.375 20.6493 505.398 20.6635 505.424 20.6687C508.009 20.7804 508.634 17.6453 508.154 15.6044C507.569 13.1348 505.072 11.7325 502.716 11.5628C501.932 11.4934 501.143 11.6048 500.408 11.8888C499.554 12.2371 498.774 12.7418 497.947 13.1437C496.322 13.9252 494.468 14.5103 492.662 14.3942C490.948 14.2901 489.33 13.5548 488.113 12.3264C487.625 11.8461 487.238 11.2703 486.975 10.634C486.713 9.99771 486.58 9.314 486.585 8.62421C486.634 8.81289 486.696 8.99793 486.77 9.17799C486.826 9.38808 486.899 9.59281 486.99 9.78981C487.113 9.99078 487.25 10.1873 487.391 10.3793C487.73 10.9162 488.151 11.3955 488.637 11.7995C489.763 12.8203 491.242 13.3484 492.75 13.2687C493.631 13.2846 494.505 13.1032 495.309 12.7373C495.414 12.6882 495.516 12.6257 495.617 12.5721C496.009 12.4336 496.361 12.2952 496.625 12.1746C498.281 11.4422 501.157 9.55312 502.94 9.57992C505.081 9.61565 507.78 10.5222 509.255 12.2059V12.188ZM498.589 10.3614C498.224 10.6115 497.797 10.8795 497.356 11.143C497.885 10.5421 498.329 9.87037 498.678 9.14672H501.21C500.273 9.40239 499.387 9.8193 498.589 10.3793V10.3614Z" fill="#C5903A"/>
</svg>
