<svg width="20" height="18" viewBox="0 0 20 18" fill="none" xmlns="http://www.w3.org/2000/svg">
<path d="M19.0266 9.13134C18.8304 8.78256 18.3726 8.65177 18.002 8.86976L15.5169 10.3085L14.8848 10.6791V14.1233L15.4733 14.4721C15.4951 14.4721 15.4951 14.4939 15.5169 14.4939L17.9584 15.9108C18.0674 15.998 18.22 16.0416 18.3726 16.0416C18.7868 16.0416 19.1138 15.7146 19.1138 15.3005V12.3794L19.1356 9.50193C19.1356 9.37113 19.1138 9.24034 19.0266 9.13134Z" stroke="#133C58" stroke-linecap="round"/>
<path d="M4.50986 8.01928C6.44997 8.01928 8.0195 6.44975 8.0195 4.50964C8.0195 2.56953 6.44997 1 4.50986 1C2.56975 1 1.00022 2.56953 1.00022 4.50964C0.978422 6.44975 2.56975 8.01928 4.50986 8.01928Z" stroke="#133C58" stroke-linecap="round"/>
<path d="M13.404 8.21555C12.8373 8.49894 12.2051 8.67333 11.5293 8.67333C10.701 8.67333 9.91619 8.43354 9.26222 7.99756H6.77713C6.12316 8.43354 5.33839 8.67333 4.51003 8.67333C3.83426 8.67333 3.20209 8.52073 2.63532 8.21555C2.13394 8.49894 1.78516 9.06571 1.78516 9.67608V14.995C1.78516 15.976 2.59172 16.7608 3.55088 16.7608H12.5103C13.4912 16.7608 14.276 15.9542 14.276 14.995V9.67608C14.2542 9.06571 13.9054 8.49894 13.404 8.21555Z" stroke="#133C58" stroke-linecap="round"/>
<path d="M11.5292 8.01928C13.4693 8.01928 15.0388 6.44975 15.0388 4.50964C15.0388 2.56953 13.4693 1 11.5292 1C9.58906 1 8.01953 2.56953 8.01953 4.50964C8.01953 6.44975 9.58906 8.01928 11.5292 8.01928Z" stroke="#133C58" stroke-linecap="round"/>
</svg>
