<svg width="39" height="49" viewBox="0 0 39 49" fill="none" xmlns="http://www.w3.org/2000/svg">
<path d="M35.2657 7.31033V3.6789H31.638V0H9.90462L0 9.90452V41.1084H3.6284V44.7875H7.36158V48.419H39V7.31033H35.2657ZM9.47046 2.53027V9.47036H2.53027L9.47046 2.53027ZM1.48226 39.6263V10.9527H10.9527V1.48217H30.1558V39.6262H1.48226V39.6263ZM37.5177 46.9368H37.5176H8.84375V44.7876H35.2657V18.4288H33.7834V43.3053H5.11057V41.1085H31.638V5.16107H33.7835V13.4387H35.2657V8.79249H37.5176V46.9368H37.5177Z" fill="#133C58"/>
<path d="M26.4113 19.8132H5.22754V21.2954H26.4113V19.8132Z" fill="#133C58"/>
<path d="M26.4109 6.60449H15.3516V8.08666H26.4109V6.60449Z" fill="#133C58"/>
<path d="M26.4113 13.2085H5.22754V14.6907H26.4113V13.2085Z" fill="#133C58"/>
<path d="M26.4113 26.4177H5.22754V27.9H26.4113V26.4177Z" fill="#133C58"/>
<path d="M13.0261 33.0217H5.22754V34.5039H13.0261V33.0217Z" fill="#133C58"/>
<path d="M16.2869 33.0217H14.8047V34.5039H16.2869V33.0217Z" fill="#133C58"/>
<path d="M35.2664 15.1682H33.7842V16.6504H35.2664V15.1682Z" fill="#133C58"/>
</svg>
