<svg width="21" height="20" viewBox="0 0 21 20" fill="none" xmlns="http://www.w3.org/2000/svg">
<path d="M11.2586 9.7192C11.2806 9.65323 11.3246 9.58726 11.3466 9.54328C11.4126 9.60925 11.4565 9.67522 11.5005 9.7192C11.4346 9.7192 11.3466 9.7192 11.2586 9.7192ZM10.3351 9.56527C10.423 9.54328 10.511 9.4993 10.599 9.47731C10.577 9.52129 10.555 9.56527 10.533 9.63124C10.467 9.58726 10.401 9.58726 10.3351 9.56527ZM9.67539 9.14747C9.60942 9.05951 9.56545 8.99354 9.54346 8.90558C9.54346 8.88359 9.54345 8.86161 9.56544 8.83962C9.56544 8.83962 9.63141 8.79564 9.91728 8.77365C10.2031 8.77365 10.467 8.86161 10.7089 9.01553C10.423 9.12548 10.1372 9.23543 9.82932 9.32339C9.76335 9.25742 9.71937 9.21344 9.67539 9.14747ZM13.8534 6.00297C13.8974 5.95899 13.9194 5.937 13.9634 5.89302C13.8754 6.37679 13.5895 6.88255 13.1278 7.38831C12.7979 7.74014 12.4241 8.06998 11.9623 8.33386C12.556 7.4103 13.1717 6.61867 13.8534 6.00297ZM7.80628 7.80611C8.22408 7.23438 8.66387 6.72862 9.14764 6.26684C9.32356 6.11291 9.49948 5.95899 9.67539 5.80506C9.60942 6.33281 9.32356 6.86056 8.83979 7.4103C8.44398 7.85009 7.93822 8.2459 7.3445 8.57574C7.49843 8.28988 7.65235 8.026 7.80628 7.80611ZM2.44084 9.63124C2.50681 9.52129 2.55079 9.43333 2.57278 9.38935L2.7267 9.10349C2.96859 8.64171 3.23246 8.22391 3.49634 7.80611C3.91414 7.23438 4.35393 6.72862 4.8377 6.26684C6.02513 5.14538 7.21257 4.57365 8.37801 4.57365C9.08168 4.57365 9.49948 4.79354 9.63141 5.23333C9.43351 5.36527 9.25759 5.49721 9.10367 5.62914C8.13613 6.39878 7.23456 7.45428 6.46492 8.75166C6.39895 8.88359 6.35498 8.97155 6.311 9.05951C6.02513 9.16946 5.71728 9.27941 5.38743 9.36736C5.21152 9.3014 5.07958 9.23543 4.92566 9.16946C4.79372 9.10349 4.66178 9.01553 4.55183 8.92757L4.50785 8.90558H4.46387C4.35393 8.90558 4.30995 9.03752 4.30995 9.10349V9.12548C4.30995 9.32339 4.3979 9.41134 4.46387 9.43333C4.52984 9.47731 4.57382 9.4993 4.63979 9.52129C4.09005 9.60925 3.51833 9.67522 2.9466 9.67522C2.79267 9.65323 2.61675 9.65323 2.44084 9.63124ZM6.75079 9.63124C6.81676 9.52129 6.86073 9.43333 6.88272 9.38935L6.97068 9.21344C7.89424 8.81763 8.66387 8.33386 9.25759 7.74014C9.98325 7.03647 10.3571 6.28883 10.3571 5.5192C10.3571 5.45323 10.3571 5.38726 10.3351 5.2993C11.1047 4.81553 11.8963 4.55166 12.666 4.55166C13.4356 4.55166 13.8534 4.81553 13.9634 5.32129C13.8314 5.40925 13.7215 5.49721 13.6115 5.58517C12.666 6.3548 11.7864 7.36632 11.0387 8.61972C10.6869 8.4438 10.3131 8.35585 9.89529 8.35585C9.21361 8.35585 9.05969 8.64171 9.05969 8.88359C9.05969 9.0815 9.12566 9.25742 9.25759 9.41134C8.6199 9.54328 7.96021 9.60925 7.25654 9.60925C7.10262 9.65323 6.9267 9.65323 6.75079 9.63124ZM11.6544 9.03752C12.4241 8.6637 13.0618 8.22391 13.5895 7.74014C14.3152 7.03647 14.689 6.28883 14.689 5.5192C14.689 5.47522 14.689 5.43124 14.689 5.36527C15.5686 4.79354 16.4921 4.50768 17.4817 4.50768C17.8335 4.50768 18.1194 4.59564 18.3393 4.74956C18.5592 4.90349 18.6691 5.12339 18.6691 5.43124C18.6691 5.80506 18.4272 6.28883 17.9435 6.88255C17.3937 7.58621 16.6681 8.20192 15.7885 8.68569C14.733 9.27941 13.5675 9.60925 12.3141 9.69721C12.0942 9.45532 11.8743 9.21344 11.6544 9.03752ZM14.601 4.94747C14.4031 4.37574 13.8754 4.08988 13.0618 4.08988C12.6 4.08988 12.1382 4.15585 11.6764 4.28778C11.2147 4.41972 10.7309 4.59564 10.2471 4.83752C10.0272 4.33176 9.52147 4.06789 8.72984 4.06789C8.26806 4.06789 7.80628 4.13386 7.3445 4.26579C6.0911 4.59564 5.12356 5.2993 4.77173 5.58517C3.80419 6.3548 2.90262 7.4103 2.13298 8.70768C2.04503 8.88359 1.97906 8.99354 1.91309 9.12548C1.84712 9.23543 1.78115 9.34538 1.71518 9.4993C1.29738 9.41134 0.923559 9.27941 0.615706 9.12548C0.483769 9.05951 0.351832 8.97155 0.241884 8.88359L0.197906 8.86161H0.153926C0.0439784 8.86161 0 8.99354 0 9.05951V9.0815C0 9.27941 0.0879574 9.36736 0.153926 9.38935C0.483769 9.58726 0.94555 9.74119 1.53927 9.85113C1.0555 10.8407 0.813612 11.5223 0.813612 11.9182C0.813612 12.0281 0.857591 12.204 1.12147 12.248H1.14345C1.38534 12.248 1.51728 11.9401 1.56126 11.8302C1.78115 11.0166 2.04503 10.3569 2.24293 9.93909C2.55079 9.96108 2.88063 9.98307 3.23246 9.98307C3.91414 9.98307 4.6178 9.89511 5.32147 9.7192C5.47539 9.76318 5.65131 9.80716 5.84921 9.82914C5.36545 10.8187 5.12356 11.5003 5.12356 11.8962C5.12356 11.9841 5.14555 12.182 5.43142 12.226H5.4534C5.69529 12.226 5.82723 11.9182 5.87121 11.8082C6.0911 10.9946 6.35497 10.3349 6.55288 9.9171C6.88272 9.93909 7.21256 9.96108 7.54241 9.96108C8.24607 9.96108 8.94974 9.87312 9.67539 9.69721C9.85131 9.78517 10.0712 9.85113 10.3351 9.9171C9.89529 10.8627 9.67539 11.5003 9.67539 11.8962C9.67539 11.9841 9.69738 12.182 9.98325 12.226H10.0052C10.2471 12.226 10.3791 11.9182 10.401 11.8082C10.555 11.2585 10.7749 10.6647 11.0607 10.0271C11.3026 10.049 11.5225 10.049 11.7424 10.049C12.2262 10.8407 12.7099 11.6103 13.1937 12.4019C13.8534 13.4574 14.5571 14.249 15.2827 14.7548C16.2503 15.4585 17.4157 15.8323 18.7351 15.8323C19.4168 15.8323 19.9665 15.7223 20.3623 15.4805C20.7141 15.2825 20.934 15.0187 21 14.7108V14.359V14.337C20.912 13.8752 20.5162 13.5014 19.8126 13.1935C19.1529 12.9077 18.4272 12.7538 17.6356 12.7538C17.2398 12.7538 16.778 12.7977 16.2503 12.8857C15.6565 12.9956 15.5246 13.0396 15.4586 13.0616C15.3707 13.1276 15.3047 13.1935 15.3047 13.2595C15.3047 13.3695 15.3707 13.4354 15.4806 13.4354C15.5026 13.4354 15.5246 13.4354 15.5906 13.4134C16.2503 13.2155 16.888 13.1056 17.4377 13.1056C18.2733 13.1056 18.999 13.2595 19.6147 13.5674C20.2084 13.8532 20.4723 14.2051 20.4723 14.6229C20.4723 14.8647 20.3403 15.0407 20.0545 15.1726C19.6806 15.3485 19.2628 15.4145 18.823 15.4145C17.6356 15.4145 16.5801 15.0846 15.7225 14.4469C15.1068 13.9632 14.4691 13.2155 13.8534 12.226C13.4136 11.5003 12.9518 10.7527 12.4901 10.0051C13.5895 9.9171 14.667 9.63124 15.7225 9.16946C16.756 8.70768 17.6136 8.11396 18.2733 7.45428C18.955 6.7726 19.2848 6.06894 19.2848 5.43124C19.2848 5.01344 19.1309 4.68359 18.823 4.41972C18.5152 4.17784 18.1194 4.0459 17.6356 4.0459C16.6241 4.08988 15.5906 4.37574 14.601 4.94747Z" fill="#031826"/>
<path d="M10.6867 0H10.2469C9.93903 0 9.65317 0.0439791 9.3673 0.0659686C9.25735 0.0879581 9.03746 0.131937 9.03746 0.131937C7.32228 0.395812 5.71704 1.09948 4.37568 2.17696C2.26469 3.87016 1.01128 6.5089 0.945312 9.36754V9.49948L1.07725 9.47749H1.1872V9.36754C1.34113 6.311 3.10029 3.40838 5.76102 1.78115C7.14636 0.94555 8.7516 0.48377 10.4228 0.48377C12.9516 0.48377 15.4364 1.51728 17.2176 3.32042C19.0207 5.12356 19.9443 7.65236 19.7684 10.2911C19.3505 14.5791 16.25 17.9654 12.006 18.7351C11.5003 18.823 10.9725 18.867 10.4448 18.867C6.83851 18.867 3.38615 16.5801 1.89086 13.1937C1.64898 12.666 1.47306 12.1162 1.36311 11.5445L1.34112 11.4126L1.12123 11.4785V11.6545C1.93484 15.7445 5.29924 18.823 9.47725 19.3508C9.76311 19.3948 10.071 19.4168 10.3788 19.4168H10.8186C15.5464 19.3068 19.5924 15.4367 20.0542 10.6209C20.2741 7.21257 18.8448 3.95812 16.228 1.93508C15.1505 1.09948 13.8752 0.527749 12.5118 0.241885C11.9181 0.0879581 11.3024 0 10.6867 0Z" fill="#031826"/>
</svg>
