<svg width="10" height="13" viewBox="0 0 10 13" fill="none" xmlns="http://www.w3.org/2000/svg">
<path fill-rule="evenodd" clip-rule="evenodd" d="M5.00003 3.66784C4.21432 3.66784 3.57146 4.31262 3.57146 5.10068C3.57146 5.88874 4.21432 6.53352 5.00003 6.53352C5.37891 6.53352 5.74227 6.38256 6.01018 6.11385C6.27809 5.84514 6.4286 5.48069 6.4286 5.10068C6.4286 4.72067 6.27809 4.35622 6.01018 4.08751C5.74227 3.8188 5.37891 3.66784 5.00003 3.66784ZM5.00003 0.0857544C7.33574 0.0857544 10 1.84814 10 5.20814C10 7.34307 8.4786 9.59262 5.43574 11.9353C5.1786 12.1359 4.82146 12.1359 4.56432 11.9353C1.52146 9.58546 3.05176e-05 7.34307 3.05176e-05 5.20814C3.05176e-05 1.84814 2.66432 0.0857544 5.00003 0.0857544Z" fill="#133C58"/>
</svg>
