<svg width="15" height="18" viewBox="0 0 15 18" fill="none" xmlns="http://www.w3.org/2000/svg">
<path d="M14.0909 7.54545C14.0909 12.6364 7.54545 17 7.54545 17C7.54545 17 1 12.6364 1 7.54545C1 5.80949 1.68961 4.14463 2.91712 2.91712C4.14463 1.68961 5.80949 1 7.54545 1C9.28142 1 10.9463 1.68961 12.1738 2.91712C13.4013 4.14463 14.0909 5.80949 14.0909 7.54545Z" stroke="#031826" stroke-linecap="round" stroke-linejoin="round"/>
<path d="M7.54547 9.72741C8.75045 9.72741 9.72728 8.75057 9.72728 7.54559C9.72728 6.3406 8.75045 5.36377 7.54547 5.36377C6.34048 5.36377 5.36365 6.3406 5.36365 7.54559C5.36365 8.75057 6.34048 9.72741 7.54547 9.72741Z" stroke="#031826" stroke-linecap="round" stroke-linejoin="round"/>
</svg>
