<svg width="19" height="19" viewBox="0 0 19 19" fill="none" xmlns="http://www.w3.org/2000/svg">
<path d="M3 7.83333V1H16V7.83333M3 7.83333V9H16V7.83333M3 7.83333L6.61111 4.5L9.21111 6.5M10.9444 7.83333L9.21111 6.5M9.21111 6.5L11.6667 4.5L16 7.83333" stroke="#C5903A" stroke-linecap="round" stroke-linejoin="round"/>
<circle cx="9" cy="3" r="1" stroke="#C5903A"/>
<path d="M1 18.5H4M18 18.5H15M15 18.5V13M15 18.5H4M4 18.5V13" stroke="#C5903A" stroke-linecap="round" stroke-linejoin="round"/>
<circle cx="4" cy="12" r="1" stroke="#C5903A"/>
<circle cx="15" cy="12" r="1" stroke="#C5903A"/>
<path d="M1 15L3.5 13" stroke="#C5903A" stroke-linecap="round" stroke-linejoin="round"/>
<path d="M17.5 15L15 13" stroke="#C5903A" stroke-linecap="round" stroke-linejoin="round"/>
<path d="M4.5 13C5 13.6667 6.7 15 9.5 15C12.3 15 14 13.6667 14.5 13" stroke="#C5903A" stroke-linecap="round" stroke-linejoin="round"/>
</svg>
