<svg width="46" height="50" viewBox="0 0 46 50" fill="none" xmlns="http://www.w3.org/2000/svg">
<path d="M44.9733 7.58418L38.0088 0.673047C37.5714 0.239063 36.9899 0 36.3713 0H7.04875C5.77191 0 4.73302 1.03096 4.73302 2.29805V25.0504H3.10457C1.39267 25.0504 0 26.4325 0 28.1313V42.2221C0 43.9209 1.39267 45.303 3.10457 45.303H27.5589C28.8358 45.303 29.8746 44.2721 29.8746 43.005V32.0455C29.8746 30.7783 28.8357 29.7474 27.5589 29.7474H3.10457C2.2066 29.7474 1.47612 29.0225 1.47612 28.1313C1.47612 27.2402 2.2066 26.5153 3.10457 26.5153H4.73302V27.3488C4.73302 27.7533 5.06347 28.0812 5.47108 28.0812C5.87868 28.0812 6.20914 27.7533 6.20914 27.3488V2.29805C6.20914 1.83857 6.58584 1.46484 7.04875 1.46484H35.4981V8.56065C35.4981 9.39619 36.1831 10.076 37.025 10.076H44.1754V47.702C44.1754 48.1614 43.7987 48.5352 43.3358 48.5352H7.04875C6.58574 48.5352 6.20914 48.1614 6.20914 47.702C6.20914 47.2975 5.87868 46.9695 5.47108 46.9695C5.06347 46.9695 4.73302 47.2975 4.73302 47.702C4.73302 48.9691 5.77191 50 7.04875 50H43.3358C44.6128 50 45.6516 48.969 45.6516 47.702V9.20918C45.6517 8.59541 45.4108 8.01826 44.9733 7.58418ZM3.10457 31.2122H27.5589C28.0219 31.2122 28.3985 31.586 28.3985 32.0455V43.0051C28.3985 43.4646 28.0218 43.8383 27.5589 43.8383H3.10457C2.2066 43.8383 1.47612 43.1133 1.47612 42.2222V30.7534C1.94975 31.0443 2.50773 31.2122 3.10457 31.2122ZM36.9743 8.56065V1.71807L43.9206 8.61113H37.025C36.9971 8.61113 36.9743 8.58848 36.9743 8.56065Z" fill="#133C58"/>
<path d="M20.9138 41.3657C21.3214 41.3657 21.6519 41.0378 21.6519 40.6333V38.1984H23.2511C23.6587 38.1984 23.9892 37.8705 23.9892 37.466C23.9892 37.0615 23.6587 36.7336 23.2511 36.7336H21.6519V35.1489H23.4529C23.8605 35.1489 24.1909 34.821 24.1909 34.4165C24.1909 34.0119 23.8605 33.6841 23.4529 33.6841H20.9138C20.5062 33.6841 20.1758 34.0119 20.1758 34.4165V40.6332C20.1758 41.0377 20.5062 41.3657 20.9138 41.3657Z" fill="#133C58"/>
<path d="M13.1563 41.0835C13.2945 41.2197 13.4815 41.2961 13.6762 41.2961H13.679C13.7314 41.2959 14.9679 41.2912 15.4619 41.2826C17.2856 41.251 18.6094 39.6707 18.6094 37.525C18.6094 35.2694 17.319 33.7539 15.3983 33.7539H13.6638C13.4678 33.7539 13.28 33.8312 13.1415 33.9689C13.003 34.1066 12.9254 34.2933 12.9258 34.4877V34.4925V34.4926V40.4649C12.9258 40.5152 12.9309 40.5644 12.9406 40.6118C12.9525 40.7895 13.0282 40.9574 13.1563 41.0835ZM15.3983 35.2188C16.6776 35.2188 17.1333 36.4101 17.1333 37.525C17.1333 39.0887 16.2809 39.8034 15.4361 39.818C15.2013 39.8221 14.7823 39.8253 14.4117 39.8275C14.4094 39.109 14.4045 35.9662 14.4032 35.2188H15.3983Z" fill="#133C58"/>
<path d="M7.02517 41.3892C7.43277 41.3892 7.76322 41.0613 7.76322 40.6567V38.6649C8.12969 38.663 8.54635 38.6611 8.78233 38.6611C10.1905 38.6611 11.3362 37.5398 11.3362 36.1614C11.3362 34.783 10.1905 33.6616 8.78233 33.6616H7.02517C6.82904 33.6616 6.64098 33.7392 6.50243 33.877C6.36446 34.0143 6.28721 34.2003 6.28721 34.394H6.28711V40.6566C6.28711 41.0613 6.61756 41.3892 7.02517 41.3892ZM8.78233 35.1266C9.36658 35.1266 9.86009 35.6006 9.86009 36.1615C9.86009 36.7225 9.36658 37.1964 8.78233 37.1964C8.54793 37.1964 8.13648 37.1982 7.77139 37.2001C7.76942 36.826 7.76647 35.5181 7.76539 35.1267H8.78233V35.1266Z" fill="#133C58"/>
<path d="M20.8524 21.2368C19.0385 21.805 17.1767 22.5914 16.1836 23.6087C15.3641 24.448 15.2156 25.4219 15.7761 26.2806C16.1564 26.8633 16.6793 27.1679 17.2671 27.1679C17.4928 27.1679 17.7281 27.1229 17.9685 27.0317C18.8358 26.7026 19.7724 25.7664 20.832 24.1694C21.174 23.6539 21.5203 23.0809 21.865 22.4611C21.9905 22.4245 22.1184 22.3881 22.2493 22.3517C24.3322 21.7734 26.6887 21.3537 28.7568 21.1783C30.0175 22.3881 31.3207 23.3306 32.4316 23.5878C33.6537 23.8707 34.6226 23.3161 35.0228 22.1042C35.2652 21.3701 34.9861 20.6779 34.2761 20.2526C33.5461 19.8152 32.2776 19.604 30.5065 19.6241C30.1293 19.6284 29.7312 19.6436 29.3169 19.6691C28.5212 18.8549 27.6934 17.8817 26.8962 16.807C26.2786 15.9745 25.7266 15.1414 25.2597 14.3495C25.3105 14.176 25.3587 14.0048 25.4045 13.8366C25.909 11.9799 26.089 10.5583 25.9393 9.61122C25.7231 8.24354 24.8336 8.0493 24.4612 8.02938C23.1933 7.96131 22.3392 8.59618 22.1767 9.72753C22.0476 10.6263 22.3522 11.8628 23.0819 13.4026C23.2554 13.7686 23.4499 14.1459 23.6635 14.5311C23.5839 14.7847 23.4976 15.0484 23.4041 15.3229C22.7238 17.3204 21.8023 19.4488 20.8524 21.2368ZM17.3081 25.6991C17.2554 25.7057 17.1667 25.7167 17.0149 25.4842C16.8914 25.2949 16.8847 25.1521 16.9901 24.9572C17.2365 24.5014 18.0778 23.8617 19.7058 23.201C18.5696 24.9498 17.7204 25.648 17.3081 25.6991ZM33.6323 21.5982C33.6313 21.6073 33.6283 21.6235 33.6201 21.6481C33.4358 22.2063 33.1881 22.259 32.7668 22.1614C32.2526 22.0424 31.5993 21.6653 30.8707 21.0883C32.8436 21.1039 33.5319 21.4566 33.6323 21.5982ZM23.638 9.93436C23.6681 9.72499 23.7018 9.48954 24.2633 9.48954C24.2987 9.48954 24.3362 9.49051 24.3757 9.49237C24.5438 9.69559 24.6303 10.5998 24.2414 12.3892C23.7833 11.3468 23.5595 10.4807 23.638 9.93436ZM24.6657 16.1848C24.9897 16.6788 25.3382 17.1777 25.7075 17.6756C26.2373 18.3898 26.8358 19.1313 27.4689 19.8391C26.7365 19.9268 25.9811 20.04 25.2255 20.1762C24.7141 20.2682 23.8227 20.442 22.7792 20.7003C23.0106 20.224 23.2388 19.7304 23.4621 19.2227C23.9059 18.214 24.3141 17.1819 24.6657 16.1848Z" fill="#133C58"/>
</svg>
