<svg width="17" height="18" viewBox="0 0 17 18" fill="none" xmlns="http://www.w3.org/2000/svg">
<path d="M15.9995 12.9791V15.3877C16.0004 15.6113 15.9574 15.8327 15.8732 16.0375C15.7891 16.2424 15.6657 16.4263 15.5109 16.5775C15.3561 16.7286 15.1734 16.8437 14.9744 16.9154C14.7754 16.987 14.5646 17.0136 14.3554 16.9935C12.0346 16.725 9.80532 15.8808 7.84668 14.5286C6.02441 13.2959 4.47945 11.6512 3.3215 9.71135C2.0469 7.61679 1.25368 5.23206 1.00612 2.75036C0.987275 2.52834 1.01206 2.30457 1.0789 2.0933C1.14574 1.88203 1.25317 1.6879 1.39436 1.52325C1.53554 1.35861 1.70738 1.22706 1.89893 1.13699C2.09049 1.04691 2.29756 1.00029 2.50697 1.00008H4.76956C5.13558 0.996243 5.49041 1.13422 5.76793 1.3883C6.04546 1.64237 6.22672 1.99521 6.27795 2.38103C6.37345 3.15185 6.55055 3.9087 6.80589 4.63713C6.90736 4.9245 6.92932 5.23682 6.86917 5.53707C6.80902 5.83732 6.66928 6.11292 6.4665 6.33121L5.50867 7.35087C6.58231 9.36092 8.14568 11.0252 10.0338 12.1682L10.9917 11.1485C11.1967 10.9326 11.4556 10.7839 11.7377 10.7198C12.0197 10.6558 12.3131 10.6792 12.583 10.7872C13.2673 11.059 13.9782 11.2476 14.7023 11.3492C15.0687 11.4042 15.4033 11.6007 15.6424 11.9012C15.8816 12.2017 16.0087 12.5853 15.9995 12.9791Z" stroke="#031826" stroke-linecap="round" stroke-linejoin="round"/>
</svg>
