<svg width="50" height="46" viewBox="0 0 50 46" fill="none" xmlns="http://www.w3.org/2000/svg">
<path d="M26.8063 23.026C26.8586 22.8697 26.9634 22.7134 27.0157 22.6092C27.1728 22.7655 27.2775 22.9218 27.3822 23.026C27.2251 23.026 27.0157 23.026 26.8063 23.026ZM24.6073 22.6613C24.8168 22.6092 25.0262 22.505 25.2356 22.4529C25.1832 22.5571 25.1309 22.6613 25.0785 22.8176C24.9215 22.7134 24.7644 22.7134 24.6073 22.6613ZM23.0366 21.6715C22.8796 21.4631 22.7749 21.3069 22.7225 21.0985C22.7225 21.0464 22.7225 20.9943 22.7749 20.9422C22.7749 20.9422 22.9319 20.838 23.6126 20.7859C24.2932 20.7859 24.9215 20.9943 25.4974 21.3589C24.8168 21.6194 24.1361 21.8799 23.4031 22.0883C23.2461 21.932 23.1414 21.8278 23.0366 21.6715ZM32.9843 14.2219C33.089 14.1177 33.1414 14.0656 33.2461 13.9614C33.0366 15.1075 32.356 16.3057 31.2565 17.5039C30.4712 18.3374 29.5812 19.1189 28.4817 19.744C29.8953 17.556 31.3613 15.6806 32.9843 14.2219ZM18.5864 18.4937C19.5811 17.1392 20.6283 15.9411 21.7801 14.8471C22.199 14.4824 22.6178 14.1177 23.0366 13.7531C22.8796 15.0033 22.199 16.2536 21.0471 17.556C20.1047 18.5979 18.9005 19.5356 17.4869 20.317C17.8534 19.6398 18.2199 19.0147 18.5864 18.4937ZM5.81152 22.8176C5.96859 22.5571 6.0733 22.3488 6.12566 22.2446L6.49215 21.5673C7.06806 20.4733 7.69634 19.4835 8.32461 18.4937C9.31937 17.1392 10.3665 15.9411 11.5183 14.8471C14.3455 12.1902 17.1728 10.8357 19.9476 10.8357C21.623 10.8357 22.6178 11.3567 22.9319 12.3986C22.4607 12.7112 22.0419 13.0237 21.6754 13.3363C19.3717 15.1596 17.2251 17.6602 15.3927 20.7338C15.2356 21.0464 15.1309 21.2548 15.0262 21.4631C14.3456 21.7236 13.6126 21.9841 12.8272 22.1925C12.4084 22.0362 12.0942 21.8799 11.7277 21.7236C11.4136 21.5673 11.0995 21.3589 10.8377 21.1506L10.733 21.0985H10.6283C10.3665 21.0985 10.2618 21.411 10.2618 21.5673V21.6194C10.2618 22.0883 10.4712 22.2967 10.6283 22.3488C10.7853 22.4529 10.8901 22.505 11.0471 22.5571C9.73822 22.7655 8.37696 22.9218 7.01571 22.9218C6.64922 22.8697 6.23037 22.8697 5.81152 22.8176ZM16.0733 22.8176C16.2304 22.5571 16.3351 22.3488 16.3874 22.2446L16.5969 21.8278C18.7958 20.8901 20.6283 19.744 22.0419 18.3374C23.7696 16.6704 24.6597 14.8992 24.6597 13.0758C24.6597 12.9195 24.6597 12.7633 24.6073 12.5549C26.4398 11.4088 28.3246 10.7836 30.1571 10.7836C31.9895 10.7836 32.9843 11.4088 33.2461 12.607C32.9319 12.8153 32.6702 13.0237 32.4084 13.2321C30.1571 15.0554 28.0628 17.4518 26.2827 20.4212C25.445 20.0045 24.555 19.7961 23.5602 19.7961C21.9372 19.7961 21.5707 20.4733 21.5707 21.0464C21.5707 21.5152 21.7277 21.932 22.0419 22.2967C20.5236 22.6092 18.9529 22.7655 17.2775 22.7655C16.911 22.8697 16.4921 22.8697 16.0733 22.8176ZM27.7487 21.411C29.5811 20.5254 31.0995 19.4835 32.356 18.3374C34.0838 16.6704 34.9738 14.8992 34.9738 13.0758C34.9738 12.9716 34.9738 12.8674 34.9738 12.7112C37.0681 11.3567 39.267 10.6794 41.623 10.6794C42.4607 10.6794 43.1414 10.8878 43.6649 11.2525C44.1885 11.6172 44.4503 12.1381 44.4503 12.8674C44.4503 13.7531 43.8743 14.8992 42.7225 16.3057C41.4136 17.9728 39.6859 19.4314 37.5916 20.5775C35.0785 21.9841 32.3037 22.7655 29.3194 22.9739C28.7958 22.4008 28.2722 21.8278 27.7487 21.411ZM34.7644 11.7213C34.2932 10.3669 33.0367 9.68964 31.0995 9.68964C30 9.68964 28.9005 9.84593 27.801 10.1585C26.7016 10.4711 25.5497 10.8878 24.3979 11.4609C23.8743 10.2627 22.6702 9.63754 20.7853 9.63754C19.6859 9.63754 18.5864 9.79383 17.4869 10.1064C14.5026 10.8878 12.199 12.5549 11.3613 13.2321C9.05759 15.0554 6.91099 17.556 5.07853 20.6296C4.86911 21.0464 4.71204 21.3069 4.55497 21.6194C4.3979 21.8799 4.24084 22.1404 4.08377 22.505C3.089 22.2967 2.19895 21.9841 1.46597 21.6194C1.15183 21.4631 0.837696 21.2548 0.575915 21.0464L0.471205 20.9943H0.366491C0.10471 20.9943 0 21.3069 0 21.4631V21.5152C0 21.9841 0.209422 22.1925 0.366491 22.2446C1.15183 22.7134 2.25131 23.0781 3.66492 23.3386C2.51309 25.6828 1.93717 27.2978 1.93717 28.2355C1.93717 28.496 2.04188 28.9127 2.67016 29.0169H2.72251C3.29843 29.0169 3.61256 28.2876 3.71728 28.0271C4.24084 26.0996 4.86911 24.5367 5.34032 23.5469C6.0733 23.599 6.85864 23.6511 7.69634 23.6511C9.31937 23.6511 10.9948 23.4428 12.6702 23.026C13.0367 23.1302 13.4555 23.2344 13.9267 23.2865C12.7749 25.6307 12.199 27.2457 12.199 28.1834C12.199 28.3918 12.2513 28.8606 12.9319 28.9648H12.9843C13.5602 28.9648 13.8743 28.2355 13.9791 27.975C14.5026 26.0475 15.1309 24.4847 15.6021 23.4948C16.3874 23.5469 17.1728 23.599 17.9581 23.599C19.6335 23.599 21.3089 23.3907 23.0366 22.9739C23.4555 23.1823 23.9791 23.3386 24.6073 23.4948C23.5602 25.7349 23.0366 27.2457 23.0366 28.1834C23.0366 28.3918 23.089 28.8606 23.7696 28.9648H23.822C24.3979 28.9648 24.712 28.2355 24.7644 27.975C25.1309 26.6727 25.6544 25.2661 26.3351 23.7553C26.911 23.8074 27.4346 23.8074 27.9581 23.8074C29.1099 25.6828 30.2618 27.5062 31.4136 29.3816C32.9843 31.8822 34.6597 33.7576 36.3874 34.9558C38.6911 36.6228 41.466 37.5084 44.6073 37.5084C46.2304 37.5084 47.5393 37.248 48.4817 36.6749C49.3194 36.2061 49.8429 35.5809 50 34.8516V34.0181V33.966C49.7906 32.872 48.8482 31.9864 47.1728 31.257C45.6021 30.5798 43.8743 30.2151 41.9895 30.2151C41.0471 30.2151 39.9476 30.3193 38.6911 30.5277C37.2775 30.7882 36.9633 30.8924 36.8063 30.9444C36.5969 31.1007 36.4398 31.257 36.4398 31.4133C36.4398 31.6738 36.5969 31.8301 36.8586 31.8301C36.911 31.8301 36.9634 31.8301 37.1204 31.778C38.6911 31.3091 40.2094 31.0486 41.5183 31.0486C43.5079 31.0486 45.2356 31.4133 46.7016 32.1426C48.1152 32.8199 48.7435 33.6534 48.7435 34.6432C48.7435 35.2162 48.4293 35.633 47.7487 35.9456C46.8586 36.3623 45.8639 36.5186 44.8168 36.5186C41.9895 36.5186 39.4764 35.7372 37.4346 34.2264C35.9686 33.0803 34.4503 31.3091 32.9843 28.9648C31.9372 27.2457 30.8377 25.4745 29.7382 23.7032C32.356 23.4948 34.9215 22.8176 37.4346 21.7236C39.8953 20.6296 41.9372 19.223 43.5079 17.6602C45.1309 16.0452 45.9162 14.3782 45.9162 12.8674C45.9162 11.8776 45.5497 11.0962 44.8168 10.4711C44.0838 9.89802 43.1414 9.58545 41.9895 9.58545C39.5812 9.68964 37.1204 10.3669 34.7644 11.7213Z" fill="white"/>
<path d="M25.4447 0H24.3976C23.6646 0 22.984 0.10419 22.3033 0.156285C22.0416 0.208381 21.518 0.312571 21.518 0.312571C17.4342 0.937712 13.6122 2.60476 10.4185 5.15742C5.39234 9.16874 2.40804 15.4202 2.25098 22.1925V22.5051L2.56512 22.453H2.8269V22.1925C3.19339 14.9513 7.38187 8.07475 13.717 4.21971C17.0154 2.24009 20.8374 1.14609 24.8164 1.14609C30.8374 1.14609 36.7536 3.59456 40.9944 7.86636C45.2876 12.1382 47.4866 18.1291 47.0677 24.3805C46.073 34.5391 38.6908 42.5617 28.5861 44.385C27.3819 44.5934 26.1253 44.6976 24.8688 44.6976C16.2824 44.6976 8.0625 39.2797 4.50229 31.2571C3.92637 30.0068 3.50752 28.7044 3.24574 27.3499L3.19339 27.0374L2.66983 27.1937V27.6104C4.607 37.3001 12.6175 44.5934 22.5651 45.8437C23.2457 45.9479 23.9787 46 24.7117 46H25.7588C37.0154 45.7395 46.6489 36.5708 47.7484 25.1619C48.2719 17.0872 44.8688 9.37712 38.6384 4.58437C36.073 2.60476 33.0363 1.25028 29.7902 0.573046C28.3766 0.208381 26.9107 0 25.4447 0Z" fill="white"/>
</svg>
