<svg width="14" height="22" viewBox="0 0 14 22" fill="none" xmlns="http://www.w3.org/2000/svg">
<path d="M11.75 13.75V13.75C12.4404 13.75 13 13.1909 13 12.5006C13 10.734 13 7.98622 13 5.5C13 3.64805 12.1068 2.4883 11.0959 1.80752C10.098 1.13557 9 2.06257 9 3.26556V13.75M11.75 13.75V19.625C11.75 20.3844 11.1344 21 10.375 21V21C9.61561 21 9 20.3844 9 19.625V13.75M11.75 13.75H9M1 1V5M1 5V7.59861C1 8.16175 1.28144 8.68763 1.75 9V9C2.21856 9.31237 2.5 9.83825 2.5 10.4014V19.75C2.5 20.4404 3.05964 21 3.75 21V21C4.44036 21 5 20.4404 5 19.75V10.4014C5 9.83825 5.28144 9.31237 5.75 9V9C6.21856 8.68763 6.5 8.16175 6.5 7.59861V5M1 5H3.75M3.75 5V1M3.75 5H6.5M6.5 5V1.5V1" stroke="#133C58" stroke-linecap="round"/>
</svg>
