<svg width="21" height="20" viewBox="0 0 21 20" fill="none" xmlns="http://www.w3.org/2000/svg">
<path d="M7.90856 19.1365C8.38553 19.1365 8.77219 18.7498 8.77219 18.2728C8.77219 17.7958 8.38553 17.4092 7.90856 17.4092C7.43159 17.4092 7.04492 17.7958 7.04492 18.2728C7.04492 18.7498 7.43159 19.1365 7.90856 19.1365Z" stroke="#133C58" stroke-linecap="round" stroke-linejoin="round"/>
<path d="M17.4105 19.1365C17.8875 19.1365 18.2741 18.7498 18.2741 18.2728C18.2741 17.7958 17.8875 17.4092 17.4105 17.4092C16.9335 17.4092 16.5469 17.7958 16.5469 18.2728C16.5469 18.7498 16.9335 19.1365 17.4105 19.1365Z" stroke="#133C58" stroke-linecap="round" stroke-linejoin="round"/>
<path d="M1 1H4.45455L6.76909 12.5641C6.84807 12.9617 7.06438 13.3189 7.38015 13.5731C7.69593 13.8273 8.09106 13.9623 8.49636 13.9545H16.8909C17.2962 13.9623 17.6913 13.8273 18.0071 13.5731C18.3229 13.3189 18.5392 12.9617 18.6182 12.5641L20 5.31818H5.31818" stroke="#133C58" stroke-linecap="round" stroke-linejoin="round"/>
</svg>
