<svg width="25" height="15" viewBox="0 0 25 15" fill="none" xmlns="http://www.w3.org/2000/svg">
<rect x="9.5" y="5.5" width="6" height="4" stroke="#C5903A"/>
<rect x="2.5" y="1.5" width="3" height="12" rx="1" stroke="#C5903A"/>
<rect x="19.5" y="1.5" width="3" height="12" rx="1" stroke="#C5903A"/>
<rect x="15.5" y="0.5" width="4" height="14" rx="1" stroke="#C5903A"/>
<rect x="5.5" y="0.5" width="4" height="14" rx="1" stroke="#C5903A"/>
<path d="M2.5 6V5.5H2H1.5C0.947715 5.5 0.5 5.94772 0.5 6.5V8.5C0.5 9.05228 0.947715 9.5 1.5 9.5H2H2.5V9V6Z" stroke="#C5903A"/>
<path d="M23 5.5H22.5V6V9V9.5H23H23.5C24.0523 9.5 24.5 9.05228 24.5 8.5V6.5C24.5 5.94772 24.0523 5.5 23.5 5.5H23Z" stroke="#C5903A"/>
</svg>
