<svg width="19" height="18" viewBox="0 0 19 18" fill="none" xmlns="http://www.w3.org/2000/svg">
<path d="M8.67742 16.0854V10.9723C8.67742 10.9459 8.68787 10.9205 8.70649 10.9018L13.4502 6.12923C13.5353 6.04357 13.4239 5.90841 13.3236 5.97568L5.98643 10.8969C5.95517 10.9178 5.91479 10.9195 5.88194 10.9011L1.17866 8.27228C1.10599 8.23166 1.11188 8.12521 1.18858 8.09285L17.8317 1.071C17.9045 1.04029 17.9825 1.10215 17.9691 1.18003L15.2841 16.8479C15.2719 16.9193 15.1901 16.9544 15.1299 16.914L10.4102 13.7484C10.3626 13.7165 10.2979 13.731 10.2686 13.7802L8.86331 16.1366C8.81129 16.2238 8.67742 16.1869 8.67742 16.0854Z" stroke="white" stroke-linecap="round"/>
</svg>
