<svg width="25" height="21" viewBox="0 0 25 21" fill="none" xmlns="http://www.w3.org/2000/svg">
<path d="M24.0209 7.16519C23.9831 7.01505 23.8835 6.88825 23.7471 6.81504C23.6111 6.74228 23.4503 6.72994 23.3044 6.78118C22.0255 7.23051 20.0522 7.51965 17.8328 7.51965C17.2932 7.51965 16.7732 7.49906 16.269 7.46663C16.0083 8.64448 15.5917 9.72599 15.0597 10.6785C15.0855 10.6775 15.1103 10.6732 15.1364 10.6732C15.826 10.6732 16.3849 10.6157 16.3849 11.0803C16.3849 11.5448 15.826 12.3557 15.1364 12.3557C14.7346 12.3557 14.381 12.2257 14.1527 12.0271C13.4635 12.8829 12.6583 13.5576 11.7715 14.0038C12.7713 17.3692 15.1088 19.73 17.8328 19.73C21.4669 19.73 24.4128 15.5287 24.4128 10.3461C24.4127 9.22817 24.2731 8.1584 24.0209 7.16519ZM20.5292 12.3556C19.8395 12.3556 19.2806 11.5448 19.2806 11.0802C19.2806 10.6157 19.8396 10.6732 20.5292 10.6732C21.2188 10.6732 21.7778 11.0499 21.7778 11.5144C21.7778 11.979 21.2188 12.3556 20.5292 12.3556Z" stroke="#C5903A" stroke-linecap="round"/>
<path d="M14.7617 15.7884C16.7716 13.9601 18.7814 14.4172 20.7913 15.7884" stroke="#C5903A" stroke-linecap="round" stroke-linejoin="round"/>
<path d="M5.11523 9.75893C6.72312 11.5873 8.33101 11.1302 9.9389 9.75893" stroke="#C5903A" stroke-linecap="round" stroke-linejoin="round"/>
<path d="M14.1599 4.59589C14.1599 3.47809 14.0203 2.40827 13.7681 1.41511C13.7303 1.26497 13.6307 1.13808 13.4943 1.06496C13.4138 1.02188 13.3243 1 13.2343 1C13.1727 1 13.1109 1.01014 13.0516 1.0311C11.7727 1.48043 9.79942 1.76948 7.58001 1.76948C5.36056 1.76948 3.38731 1.48043 2.10835 1.0311C2.04936 1.01014 1.98789 1 1.92642 1C1.83637 1 1.74655 1.02211 1.66563 1.06532C1.52961 1.13845 1.42965 1.26529 1.39181 1.41511C1.13959 2.40832 1 3.47809 1 4.59589C1 9.77855 3.94586 13.9797 7.58001 13.9797C11.2141 13.9797 14.1599 9.77855 14.1599 4.59589ZM3.63493 5.76218C3.63493 5.29753 4.1939 4.92095 4.88357 4.92095C5.57318 4.92095 6.13215 5.73172 6.13215 6.19637C6.13215 6.66094 5.57318 6.60341 4.88357 6.60341C4.1939 6.60341 3.63493 6.22674 3.63493 5.76218ZM9.02778 6.19637C9.02778 5.73172 9.58675 4.92095 10.2764 4.92095C10.966 4.92095 11.525 5.29753 11.525 5.76218C11.525 6.22674 10.966 6.60341 10.2764 6.60341C9.58675 6.60341 9.02778 6.66094 9.02778 6.19637Z" stroke="#C5903A" stroke-linecap="round"/>
</svg>
