<svg width="25" height="20" viewBox="0 0 25 20" fill="none" xmlns="http://www.w3.org/2000/svg">
<path d="M24.0209 6.90201C23.9831 6.75186 23.8835 6.62507 23.7471 6.55185C23.6111 6.4791 23.4503 6.46676 23.3044 6.518C22.0255 6.96733 20.0522 7.25647 17.8328 7.25647C17.2932 7.25647 16.7732 7.23587 16.269 7.20344C16.0083 8.38129 15.5917 9.46281 15.0597 10.4153C15.0855 10.4143 15.1103 10.4101 15.1364 10.4101C15.826 10.4101 16.3849 10.3525 16.3849 10.8171C16.3849 11.2816 15.826 12.0925 15.1364 12.0925C14.7346 12.0925 14.381 11.9625 14.1527 11.764C13.4635 12.6197 12.6583 13.2944 11.7715 13.7407C12.7713 17.106 15.1088 19.4668 17.8328 19.4668C21.4669 19.4668 24.4128 15.2655 24.4128 10.0829C24.4127 8.96499 24.2731 7.89522 24.0209 6.90201ZM20.5292 12.0925C19.8395 12.0925 19.2806 11.2816 19.2806 10.817C19.2806 10.3525 19.8396 10.41 20.5292 10.41C21.2188 10.41 21.7778 10.7867 21.7778 11.2512C21.7778 11.7158 21.2188 12.0925 20.5292 12.0925Z" stroke="#133C58" stroke-linecap="round"/>
<path d="M14.7617 15.5253C16.7716 13.6969 18.7814 14.154 20.7913 15.5253" stroke="#133C58" stroke-linecap="round" stroke-linejoin="round"/>
<path d="M5.11523 9.49574C6.72312 11.3241 8.33101 10.867 9.9389 9.49574" stroke="#133C58" stroke-linecap="round" stroke-linejoin="round"/>
<path d="M14.1599 4.33271C14.1599 3.21491 14.0203 2.14509 13.7681 1.15193C13.7303 1.00178 13.6307 0.874896 13.4943 0.801773C13.4138 0.758698 13.3243 0.736816 13.2343 0.736816C13.1727 0.736816 13.1109 0.746954 13.0516 0.767919C11.7727 1.21725 9.79942 1.5063 7.58001 1.5063C5.36056 1.5063 3.38731 1.21725 2.10835 0.767919C2.04936 0.746954 1.98789 0.736816 1.92642 0.736816C1.83637 0.736816 1.74655 0.758928 1.66563 0.80214C1.52961 0.875263 1.42965 1.0021 1.39181 1.15193C1.13959 2.14514 1 3.21491 1 4.33271C1 9.51537 3.94586 13.7166 7.58001 13.7166C11.2141 13.7166 14.1599 9.51537 14.1599 4.33271ZM3.63493 5.499C3.63493 5.03434 4.1939 4.65777 4.88357 4.65777C5.57318 4.65777 6.13215 5.46854 6.13215 5.93319C6.13215 6.39775 5.57318 6.34023 4.88357 6.34023C4.1939 6.34023 3.63493 5.96356 3.63493 5.499ZM9.02778 5.93319C9.02778 5.46854 9.58675 4.65777 10.2764 4.65777C10.966 4.65777 11.525 5.03434 11.525 5.499C11.525 5.96356 10.966 6.34023 10.2764 6.34023C9.58675 6.34023 9.02778 6.39775 9.02778 5.93319Z" stroke="#133C58" stroke-linecap="round"/>
</svg>
