<svg width="19" height="21" viewBox="0 0 19 21" fill="none" xmlns="http://www.w3.org/2000/svg">
<path d="M11.2714 1H7.72894C4.01862 1 1 4.05054 1 7.80026V11.0259C1 13.8183 2.69755 16.3279 5.25008 17.35V19.4411C5.25008 19.5828 5.3326 19.711 5.46081 19.7683C5.50686 19.789 5.55573 19.7991 5.60425 19.7991C5.69032 19.7991 5.77567 19.7672 5.8419 19.7063L7.89575 17.8261H11.2714C14.9817 17.8261 18.0003 14.7756 18.0003 11.0259V7.80026C18.0003 4.05054 14.9817 1 11.2714 1Z" stroke="white"/>
<path d="M14.1809 11.9168L12.0042 10.4876C11.7662 10.3312 11.4828 10.2782 11.2055 10.3362C10.9278 10.3952 10.6891 10.561 10.5343 10.8026L10.432 10.9616C9.48989 10.6469 8.4511 10.2449 7.82917 8.42515L8.08666 8.1989C8.52867 7.81046 8.57506 7.13097 8.19078 6.68347L6.48792 4.70336C6.35971 4.55407 6.13587 4.53868 5.98818 4.66792L4.91893 5.60732C3.98108 6.43144 4.41919 7.65044 4.56334 8.05104C4.56972 8.06894 4.57751 8.08612 4.58672 8.10295C4.62391 8.17026 5.51182 9.77196 6.94587 11.2484C8.38558 12.7308 10.9849 14.0999 11.0645 14.1396C11.3613 14.3343 11.6953 14.4278 12.0258 14.4278C12.6059 14.4278 13.1747 14.1403 13.514 13.6133L14.2854 12.4126C14.3916 12.2461 14.3449 12.0245 14.1809 11.9168Z" stroke="white"/>
<path d="M10.0003 6.79907C10.9623 7.07198 11.729 7.83854 12.0003 8.79907" stroke="white"/>
<path d="M14.0003 8.79907C13.5929 6.87784 12.4435 5.34563 11.0003 4.79907" stroke="white"/>
<path d="M12.0003 2.79907C13.9246 3.61876 15.4572 5.91735 16.0003 8.79907" stroke="white"/>
</svg>
