<svg width="18" height="18" viewBox="0 0 18 18" fill="none" xmlns="http://www.w3.org/2000/svg">
<path d="M9 1C4.58862 1 1 4.58862 1 9C1 10.5049 1.41815 11.9658 2.21138 13.2345C1.89538 14.3415 1.32462 16.4357 1.31846 16.4575C1.28892 16.5658 1.32062 16.6815 1.40154 16.7594C1.48246 16.8372 1.59938 16.8649 1.70585 16.8323L4.87692 15.8569C6.11908 16.6052 7.54154 17 9 17C13.4114 17 17 13.4114 17 9C17 4.58862 13.4114 1 9 1Z" stroke="white"/>
<path d="M14.2262 10.8849C13.6582 10.5695 13.1745 10.2532 12.8215 10.0224C12.552 9.8464 12.3572 9.71932 12.2145 9.64763C11.8154 9.44855 11.5129 9.58917 11.3978 9.70547C11.3834 9.71994 11.3705 9.73563 11.3594 9.75224C10.9449 10.3741 10.4037 10.9689 10.2452 11.0009C10.0622 10.9722 9.20523 10.4852 8.35354 9.77594C7.484 9.05132 6.93692 8.35747 6.85661 7.88486C7.41446 7.3107 7.61538 6.94947 7.61538 6.5384C7.61538 6.1147 6.62708 4.34578 6.44831 4.16701C6.26892 3.98794 5.86492 3.95994 5.24738 4.08301C5.188 4.09501 5.13323 4.12424 5.09015 4.16701C5.01538 4.24178 3.26585 6.02547 4.09723 8.18732C5.00985 10.5599 7.35231 13.3178 10.3388 13.7658C10.6782 13.8166 10.9963 13.8418 11.2942 13.8418C13.0511 13.8418 14.088 12.9578 14.38 11.2042C14.4018 11.0759 14.34 10.9479 14.2262 10.8849Z" stroke="white"/>
</svg>
