<svg width="80" height="92" viewBox="0 0 80 92" fill="none" xmlns="http://www.w3.org/2000/svg">
<g filter="url(#filter0_di)">
<path d="M58.3853 19.3389C56.1947 16.8241 53.5085 14.787 50.4944 13.3548C47.4802 11.9225 44.2027 11.1259 40.8665 11.0146C37.5098 10.9 34.1644 11.4616 31.0298 12.6659C27.8952 13.8701 25.0356 15.6924 22.6216 18.024C20.2076 20.3555 18.2887 23.1487 16.9792 26.2367C15.6698 29.3248 14.9967 32.6446 15 35.998C15 55.3521 30.1948 67.6201 36.7291 72.0007C37.6977 72.6521 38.8389 73 40.0067 73C41.1745 73 42.3157 72.6521 43.2843 72.0007C49.2872 68.0259 63.3564 56.7776 64.8988 39.13C65.212 35.5627 64.7962 31.969 63.6765 28.567C62.5569 25.1649 60.7567 22.0254 58.3853 19.3389Z" fill="url(#paint0_linear)"/>
</g>
<path d="M41.6199 37.1014C41.6524 37.0041 41.7173 36.9067 41.7497 36.8417C41.8471 36.9391 41.912 37.0365 41.977 37.1014C41.8796 37.1014 41.7497 37.1014 41.6199 37.1014ZM40.2565 36.8742C40.3864 36.8417 40.5162 36.7768 40.6461 36.7444C40.6136 36.8093 40.5812 36.8742 40.5487 36.9716C40.4513 36.9067 40.3539 36.9067 40.2565 36.8742ZM39.2827 36.2575C39.1853 36.1276 39.1204 36.0302 39.088 35.9004C39.088 35.8679 39.088 35.8355 39.1204 35.803C39.1204 35.803 39.2178 35.7381 39.6398 35.7056C40.0618 35.7056 40.4513 35.8355 40.8084 36.0627C40.3864 36.225 39.9644 36.3873 39.5099 36.5171C39.4126 36.4198 39.3476 36.3548 39.2827 36.2575ZM45.4503 31.6156C45.5152 31.5506 45.5476 31.5182 45.6126 31.4533C45.4827 32.1674 45.0607 32.914 44.3791 33.6606C43.8921 34.18 43.3403 34.6669 42.6586 35.0564C43.5351 33.6931 44.444 32.5245 45.4503 31.6156ZM36.5236 34.2773C37.1403 33.4334 37.7895 32.6868 38.5037 32.0051C38.7634 31.7779 39.023 31.5506 39.2827 31.3234C39.1853 32.1025 38.7634 32.8815 38.0492 33.6931C37.4649 34.3423 36.7183 34.9266 35.8419 35.4135C36.0691 34.9915 36.2963 34.602 36.5236 34.2773ZM28.6031 36.9716C28.7005 36.8093 28.7654 36.6794 28.7979 36.6145L29.0251 36.1925C29.3822 35.5109 29.7717 34.8941 30.1613 34.2773C30.778 33.4334 31.4272 32.6868 32.1414 32.0051C33.8942 30.3496 35.6471 29.5056 37.3675 29.5056C38.4063 29.5056 39.023 29.8302 39.2178 30.4794C38.9257 30.6742 38.666 30.869 38.4387 31.0637C37.0105 32.1999 35.6796 33.758 34.5435 35.6732C34.4461 35.8679 34.3812 35.9978 34.3162 36.1276C33.8942 36.2899 33.4398 36.4522 32.9529 36.5821C32.6932 36.4847 32.4984 36.3873 32.2712 36.2899C32.0764 36.1925 31.8817 36.0627 31.7194 35.9328L31.6544 35.9004H31.5895C31.4272 35.9004 31.3623 36.0951 31.3623 36.1925V36.225C31.3623 36.5171 31.4921 36.647 31.5895 36.6794C31.6869 36.7444 31.7518 36.7768 31.8492 36.8093C31.0377 36.9391 30.1937 37.0365 29.3497 37.0365C29.1225 37.0041 28.8628 37.004 28.6031 36.9716ZM34.9654 36.9716C35.0628 36.8093 35.1277 36.6794 35.1602 36.6145L35.2901 36.3548C36.6534 35.7705 37.7895 35.0564 38.666 34.18C39.7372 33.1412 40.289 32.0376 40.289 30.9014C40.289 30.804 40.289 30.7067 40.2565 30.5768C41.3927 29.8627 42.5613 29.4732 43.6974 29.4732C44.8335 29.4732 45.4503 29.8627 45.6126 30.6093C45.4178 30.7391 45.2555 30.869 45.0932 30.9988C43.6974 32.1349 42.399 33.6281 41.2953 35.4784C40.7759 35.2187 40.2241 35.0889 39.6073 35.0889C38.601 35.0889 38.3738 35.5109 38.3738 35.8679C38.3738 36.1601 38.4712 36.4198 38.666 36.647C37.7246 36.8417 36.7508 36.9391 35.712 36.9391C35.4848 37.0041 35.2251 37.004 34.9654 36.9716ZM42.2042 36.0951C43.3403 35.5433 44.2817 34.8941 45.0607 34.18C46.1319 33.1412 46.6838 32.0376 46.6838 30.9014C46.6838 30.8365 46.6838 30.7716 46.6838 30.6742C47.9822 29.8302 49.3455 29.4082 50.8063 29.4082C51.3257 29.4082 51.7476 29.5381 52.0723 29.7653C52.3969 29.9925 52.5592 30.3171 52.5592 30.7716C52.5592 31.3234 52.2021 32.0376 51.488 32.914C50.6764 33.9527 49.6052 34.8616 48.3068 35.5758C46.7487 36.4522 45.0283 36.9391 43.178 37.069C42.8534 36.7119 42.5288 36.3548 42.2042 36.0951ZM46.5539 30.0575C46.2618 29.2135 45.4827 28.7915 44.2817 28.7915C43.6 28.7915 42.9183 28.8889 42.2366 29.0836C41.555 29.2784 40.8408 29.5381 40.1267 29.8951C39.8021 29.1486 39.0555 28.759 37.8869 28.759C37.2052 28.759 36.5236 28.8564 35.8419 29.0512C33.9916 29.5381 32.5634 30.5768 32.044 30.9988C30.6157 32.1349 29.2848 33.6931 28.1487 35.6082C28.0188 35.8679 27.9215 36.0302 27.8241 36.225C27.7267 36.3873 27.6293 36.5496 27.5319 36.7768C26.9152 36.647 26.3633 36.4522 25.9089 36.225C25.7141 36.1276 25.5194 35.9978 25.3571 35.8679L25.2921 35.8355H25.2272C25.0649 35.8355 25 36.0302 25 36.1276V36.1601C25 36.4522 25.1298 36.5821 25.2272 36.6145C25.7141 36.9067 26.3958 37.1339 27.2723 37.2962C26.5581 38.7569 26.201 39.7632 26.201 40.3475C26.201 40.5098 26.266 40.7695 26.6555 40.8344H26.688C27.045 40.8344 27.2398 40.38 27.3047 40.2177C27.6293 39.0166 28.0188 38.0428 28.311 37.426C28.7654 37.4585 29.2524 37.491 29.7717 37.491C30.778 37.491 31.8168 37.3611 32.8555 37.1014C33.0827 37.1664 33.3424 37.2313 33.6346 37.2637C32.9204 38.7245 32.5633 39.7308 32.5633 40.315C32.5633 40.4449 32.5958 40.737 33.0178 40.802H33.0503C33.4073 40.802 33.6021 40.3475 33.667 40.1852C33.9916 38.9842 34.3812 38.0103 34.6733 37.3936C35.1602 37.426 35.6471 37.4585 36.134 37.4585C37.1728 37.4585 38.2115 37.3287 39.2827 37.069C39.5424 37.1988 39.867 37.2962 40.2565 37.3936C39.6073 38.7894 39.2827 39.7308 39.2827 40.315C39.2827 40.4449 39.3152 40.737 39.7372 40.802H39.7696C40.1267 40.802 40.3215 40.3475 40.3539 40.1852C40.5812 39.3737 40.9058 38.4972 41.3277 37.5559C41.6848 37.5883 42.0094 37.5883 42.334 37.5883C43.0482 38.7569 43.7623 39.8931 44.4764 41.0616C45.4503 42.6198 46.489 43.7883 47.5602 44.5349C48.9885 45.5737 50.7089 46.1255 52.6565 46.1255C53.6628 46.1255 54.4743 45.9632 55.0586 45.6061C55.578 45.314 55.9026 44.9245 56 44.47V43.9506V43.9182C55.8702 43.2365 55.2859 42.6847 54.2471 42.2302C53.2733 41.8082 52.2021 41.581 51.0335 41.581C50.4492 41.581 49.7675 41.6459 48.9885 41.7758C48.112 41.9381 47.9173 42.003 47.8199 42.0355C47.6901 42.1328 47.5927 42.2302 47.5927 42.3276C47.5927 42.4899 47.6901 42.5873 47.8524 42.5873C47.8848 42.5873 47.9173 42.5873 48.0147 42.5548C48.9885 42.2627 49.9298 42.1004 50.7414 42.1004C51.9749 42.1004 53.0461 42.3276 53.955 42.7821C54.8314 43.2041 55.2209 43.7234 55.2209 44.3402C55.2209 44.6972 55.0262 44.9569 54.6042 45.1517C54.0524 45.4114 53.4356 45.5088 52.7864 45.5088C51.0335 45.5088 49.4754 45.0219 48.2094 44.0805C47.3005 43.3664 46.3592 42.2627 45.4503 40.802C44.801 39.7308 44.1194 38.6271 43.4377 37.5234C45.0607 37.3936 46.6513 36.9716 48.2094 36.2899C49.7351 35.6082 51.001 34.7318 51.9749 33.758C52.9812 32.7517 53.4681 31.713 53.4681 30.7716C53.4681 30.1548 53.2408 29.6679 52.7864 29.2784C52.3319 28.9213 51.7476 28.7266 51.0335 28.7266C49.5403 28.7915 48.0147 29.2135 46.5539 30.0575Z" fill="#031826"/>
<path d="M40.7746 22.7539H40.1254C39.671 22.7539 39.249 22.8188 38.827 22.8513C38.6647 22.8837 38.3401 22.9487 38.3401 22.9487C35.8081 23.3382 33.4385 24.3769 31.4584 25.9675C28.3422 28.467 26.4919 32.3623 26.3945 36.5822V36.7769L26.5893 36.7445H26.7516V36.5822C26.9788 32.0701 29.5757 27.7853 33.5034 25.3832C35.5485 24.1497 37.9181 23.468 40.3851 23.468C44.1181 23.468 47.7862 24.9937 50.4155 27.6555C53.0773 30.3173 54.4406 34.0502 54.1809 37.9455C53.5642 44.2754 48.9872 49.2743 42.7223 50.4105C41.9757 50.5403 41.1966 50.6052 40.4176 50.6052C35.094 50.6052 29.9977 47.2293 27.7903 42.2303C27.4333 41.4513 27.1736 40.6398 27.0113 39.7958L26.9788 39.601L26.6542 39.6984V39.9581C27.8553 45.9958 32.8218 50.5403 38.9893 51.3194C39.4113 51.3843 39.8657 51.4167 40.3202 51.4167H40.9694C47.9485 51.2544 53.9212 45.5413 54.6029 38.4324C54.9275 33.401 52.8176 28.5968 48.9547 25.6105C47.3642 24.3769 45.4814 23.533 43.4689 23.111C42.5924 22.8837 41.6835 22.7539 40.7746 22.7539Z" fill="#031826"/>
<defs>
<filter id="filter0_di" x="0" y="0" width="80" height="92" filterUnits="userSpaceOnUse" color-interpolation-filters="sRGB">
<feFlood flood-opacity="0" result="BackgroundImageFix"/>
<feColorMatrix in="SourceAlpha" type="matrix" values="0 0 0 0 0 0 0 0 0 0 0 0 0 0 0 0 0 0 127 0"/>
<feOffset dy="4"/>
<feGaussianBlur stdDeviation="7.5"/>
<feColorMatrix type="matrix" values="0 0 0 0 0.788235 0 0 0 0 0.458824 0 0 0 0 0.2 0 0 0 0.55 0"/>
<feBlend mode="normal" in2="BackgroundImageFix" result="effect1_dropShadow"/>
<feBlend mode="normal" in="SourceGraphic" in2="effect1_dropShadow" result="shape"/>
<feColorMatrix in="SourceAlpha" type="matrix" values="0 0 0 0 0 0 0 0 0 0 0 0 0 0 0 0 0 0 127 0" result="hardAlpha"/>
<feOffset dy="-1"/>
<feComposite in2="hardAlpha" operator="arithmetic" k2="-1" k3="1"/>
<feColorMatrix type="matrix" values="0 0 0 0 0.966667 0 0 0 0 0.927835 0 0 0 0 0.588055 0 0 0 1 0"/>
<feBlend mode="normal" in2="shape" result="effect2_innerShadow"/>
</filter>
<linearGradient id="paint0_linear" x1="15" y1="73" x2="67.2491" y2="71.0429" gradientUnits="userSpaceOnUse">
<stop stop-color="#FBBF65"/>
<stop offset="0.14686" stop-color="#F2C37C"/>
<stop offset="0.26016" stop-color="#F2CE7C"/>
<stop offset="0.515428" stop-color="#FFE3A3"/>
<stop offset="0.740421" stop-color="#F2CE7C"/>
<stop offset="0.836515" stop-color="#F2C37C"/>
<stop offset="1" stop-color="#FBBF65"/>
</linearGradient>
</defs>
</svg>
