<svg width="48" height="57" viewBox="0 0 48 57" fill="none" xmlns="http://www.w3.org/2000/svg">
<g filter="url(#filter0_d)">
<path d="M37.9728 6.32144C36.308 4.41503 34.2665 2.87078 31.9757 1.78506C29.6849 0.69934 27.1941 0.0954433 24.6586 0.0110539C22.1075 -0.0758029 19.5649 0.34992 17.1826 1.26283C14.8003 2.17574 12.627 3.55714 10.7924 5.32462C8.95778 7.09211 7.49938 9.20948 6.5042 11.5504C5.50902 13.8914 4.99746 16.408 5.00001 18.9501C5.00001 33.6217 16.548 42.9217 21.5141 46.2425C22.2503 46.7362 23.1176 47 24.0051 47C24.8926 47 25.76 46.7362 26.4961 46.2425C31.0583 43.2293 41.7509 34.7024 42.9231 21.3244C43.1611 18.6201 42.8451 15.8959 41.9942 13.3169C41.1432 10.7379 39.7751 8.35799 37.9728 6.32144Z" fill="white"/>
</g>
<path d="M28.75 21.75V21.75C29.4404 21.75 30 21.1909 30 20.5006C30 18.734 30 15.9862 30 13.5C30 11.6481 29.1068 10.4883 28.0959 9.80752C27.098 9.13557 26 10.0626 26 11.2656V21.75M28.75 21.75V27.625C28.75 28.3844 28.1344 29 27.375 29V29C26.6156 29 26 28.3844 26 27.625V21.75M28.75 21.75H26M18 9V13M18 13V15.5986C18 16.1617 18.2814 16.6876 18.75 17V17C19.2186 17.3124 19.5 17.8383 19.5 18.4014V27.75C19.5 28.4404 20.0596 29 20.75 29V29C21.4404 29 22 28.4404 22 27.75V18.4014C22 17.8383 22.2814 17.3124 22.75 17V17C23.2186 16.6876 23.5 16.1617 23.5 15.5986V13M18 13H20.75M20.75 13V9M20.75 13H23.5M23.5 13V9.5V9" stroke="#133C58" stroke-linecap="round"/>
<defs>
<filter id="filter0_d" x="0" y="0" width="48" height="57" filterUnits="userSpaceOnUse" color-interpolation-filters="sRGB">
<feFlood flood-opacity="0" result="BackgroundImageFix"/>
<feColorMatrix in="SourceAlpha" type="matrix" values="0 0 0 0 0 0 0 0 0 0 0 0 0 0 0 0 0 0 127 0"/>
<feOffset dy="5"/>
<feGaussianBlur stdDeviation="2.5"/>
<feColorMatrix type="matrix" values="0 0 0 0 0.788235 0 0 0 0 0.458824 0 0 0 0 0.2 0 0 0 0.15 0"/>
<feBlend mode="normal" in2="BackgroundImageFix" result="effect1_dropShadow"/>
<feBlend mode="normal" in="SourceGraphic" in2="effect1_dropShadow" result="shape"/>
</filter>
</defs>
</svg>
