<svg width="48" height="57" viewBox="0 0 48 57" fill="none" xmlns="http://www.w3.org/2000/svg">
<g filter="url(#filter0_d)">
<path d="M37.9728 6.32144C36.308 4.41503 34.2665 2.87078 31.9757 1.78506C29.6849 0.69934 27.1941 0.0954433 24.6586 0.0110539C22.1075 -0.0758029 19.5649 0.34992 17.1826 1.26283C14.8003 2.17574 12.627 3.55714 10.7924 5.32462C8.95778 7.09211 7.49938 9.20948 6.5042 11.5504C5.50902 13.8914 4.99746 16.408 5.00001 18.9501C5.00001 33.6217 16.548 42.9217 21.5141 46.2425C22.2503 46.7362 23.1176 47 24.0051 47C24.8926 47 25.76 46.7362 26.4961 46.2425C31.0583 43.2293 41.7509 34.7024 42.9231 21.3244C43.1611 18.6201 42.8451 15.8959 41.9942 13.3169C41.1432 10.7379 39.7751 8.35799 37.9728 6.32144Z" fill="white"/>
</g>
<path d="M21.9086 28.1365C22.3855 28.1365 22.7722 27.7498 22.7722 27.2728C22.7722 26.7958 22.3855 26.4092 21.9086 26.4092C21.4316 26.4092 21.0449 26.7958 21.0449 27.2728C21.0449 27.7498 21.4316 28.1365 21.9086 28.1365Z" stroke="#133C58" stroke-linecap="round" stroke-linejoin="round"/>
<path d="M31.4105 28.1365C31.8875 28.1365 32.2741 27.7498 32.2741 27.2728C32.2741 26.7958 31.8875 26.4092 31.4105 26.4092C30.9335 26.4092 30.5469 26.7958 30.5469 27.2728C30.5469 27.7498 30.9335 28.1365 31.4105 28.1365Z" stroke="#133C58" stroke-linecap="round" stroke-linejoin="round"/>
<path d="M15 10H18.4545L20.7691 21.5641C20.8481 21.9617 21.0644 22.3189 21.3802 22.5731C21.6959 22.8273 22.0911 22.9623 22.4964 22.9545H30.8909C31.2962 22.9623 31.6913 22.8273 32.0071 22.5731C32.3229 22.3189 32.5392 21.9617 32.6182 21.5641L34 14.3182H19.3182" stroke="#133C58" stroke-linecap="round" stroke-linejoin="round"/>
<defs>
<filter id="filter0_d" x="0" y="0" width="48" height="57" filterUnits="userSpaceOnUse" color-interpolation-filters="sRGB">
<feFlood flood-opacity="0" result="BackgroundImageFix"/>
<feColorMatrix in="SourceAlpha" type="matrix" values="0 0 0 0 0 0 0 0 0 0 0 0 0 0 0 0 0 0 127 0"/>
<feOffset dy="5"/>
<feGaussianBlur stdDeviation="2.5"/>
<feColorMatrix type="matrix" values="0 0 0 0 0.788235 0 0 0 0 0.458824 0 0 0 0 0.2 0 0 0 0.15 0"/>
<feBlend mode="normal" in2="BackgroundImageFix" result="effect1_dropShadow"/>
<feBlend mode="normal" in="SourceGraphic" in2="effect1_dropShadow" result="shape"/>
</filter>
</defs>
</svg>
