<svg width="48" height="57" viewBox="0 0 48 57" fill="none" xmlns="http://www.w3.org/2000/svg">
<g filter="url(#filter0_d)">
<path d="M37.9728 6.32144C36.308 4.41503 34.2665 2.87078 31.9757 1.78506C29.6849 0.69934 27.1941 0.0954433 24.6586 0.0110539C22.1075 -0.0758029 19.5649 0.34992 17.1826 1.26283C14.8003 2.17574 12.627 3.55714 10.7924 5.32462C8.95778 7.09211 7.49938 9.20948 6.5042 11.5504C5.50902 13.8914 4.99746 16.408 5.00001 18.9501C5.00001 33.6217 16.548 42.9217 21.5141 46.2425C22.2503 46.7362 23.1176 47 24.0051 47C24.8926 47 25.76 46.7362 26.4961 46.2425C31.0583 43.2293 41.7509 34.7024 42.9231 21.3244C43.1611 18.6201 42.8451 15.8959 41.9942 13.3169C41.1432 10.7379 39.7751 8.35799 37.9728 6.32144Z" fill="white"/>
</g>
<rect x="20.5" y="16.5" width="6" height="4" stroke="#133C58"/>
<rect x="13.5" y="12.5" width="3" height="12" rx="1" stroke="#133C58"/>
<rect x="30.5" y="12.5" width="3" height="12" rx="1" stroke="#133C58"/>
<rect x="26.5" y="11.5" width="4" height="14" rx="1" stroke="#133C58"/>
<rect x="16.5" y="11.5" width="4" height="14" rx="1" stroke="#133C58"/>
<path d="M13.5 17V16.5H13H12.5C11.9477 16.5 11.5 16.9477 11.5 17.5V19.5C11.5 20.0523 11.9477 20.5 12.5 20.5H13H13.5V20V17Z" stroke="#133C58"/>
<path d="M34 16.5H33.5V17V20V20.5H34H34.5C35.0523 20.5 35.5 20.0523 35.5 19.5V17.5C35.5 16.9477 35.0523 16.5 34.5 16.5H34Z" stroke="#133C58"/>
<defs>
<filter id="filter0_d" x="0" y="0" width="48" height="57" filterUnits="userSpaceOnUse" color-interpolation-filters="sRGB">
<feFlood flood-opacity="0" result="BackgroundImageFix"/>
<feColorMatrix in="SourceAlpha" type="matrix" values="0 0 0 0 0 0 0 0 0 0 0 0 0 0 0 0 0 0 127 0"/>
<feOffset dy="5"/>
<feGaussianBlur stdDeviation="2.5"/>
<feColorMatrix type="matrix" values="0 0 0 0 0.788235 0 0 0 0 0.458824 0 0 0 0 0.2 0 0 0 0.15 0"/>
<feBlend mode="normal" in2="BackgroundImageFix" result="effect1_dropShadow"/>
<feBlend mode="normal" in="SourceGraphic" in2="effect1_dropShadow" result="shape"/>
</filter>
</defs>
</svg>
