<svg width="28" height="28" viewBox="0 0 28 28" fill="none" xmlns="http://www.w3.org/2000/svg">
<path d="M27.5484 15.3551H27.0968V14.0003C27.0968 13.8805 27.0492 13.7656 26.9645 13.6809C26.8798 13.5962 26.765 13.5487 26.6452 13.5487H26.1936V8.58091C26.1936 8.22159 26.0508 7.87698 25.7967 7.6229C25.5427 7.36882 25.1981 7.22607 24.8387 7.22607H18.5161C18.1568 7.22607 17.8122 7.36882 17.5581 7.6229C17.304 7.87698 17.1613 8.22159 17.1613 8.58091V13.5487H16.7097C16.5899 13.5487 16.475 13.5962 16.3903 13.6809C16.3057 13.7656 16.2581 13.8805 16.2581 14.0003V15.3551H15.3548V11.2906C15.3548 11.1708 15.3073 11.0559 15.2226 10.9713C15.1379 10.8866 15.023 10.839 14.9032 10.839H11.2903C11.1706 10.839 11.0557 10.8866 10.971 10.9713C10.8863 11.0559 10.8387 11.1708 10.8387 11.2906V11.7422H10.3871C10.0278 11.7422 9.68317 11.8849 9.42909 12.139C9.175 12.3931 9.03226 12.7377 9.03226 13.097C9.03226 13.4564 9.175 13.801 9.42909 14.0551C9.68317 14.3091 10.0278 14.4519 10.3871 14.4519H10.8387V15.3551H6.32258V14.0003C6.32258 13.8805 6.275 13.7656 6.19031 13.6809C6.10562 13.5962 5.99075 13.5487 5.87097 13.5487H5.41936V12.1938C5.41936 12.074 5.37178 11.9592 5.28708 11.8745C5.20239 11.7898 5.08752 11.7422 4.96774 11.7422H0.451613C0.331838 11.7422 0.216968 11.7898 0.132274 11.8745C0.0475805 11.9592 0 12.074 0 12.1938V14.0003C0 14.12 0.0475805 14.2349 0.132274 14.3196C0.216968 14.4043 0.331838 14.4519 0.451613 14.4519H0.903226V15.3551H0.451613C0.331838 15.3551 0.216968 15.4027 0.132274 15.4874C0.0475805 15.5721 0 15.6869 0 15.8067V18.5164C0 18.6362 0.0475805 18.751 0.132274 18.8357C0.216968 18.9204 0.331838 18.968 0.451613 18.968H1.80645V27.5487C1.80645 27.6684 1.85403 27.7833 1.93873 27.868C2.02342 27.9527 2.13829 28.0003 2.25807 28.0003H4.96774C5.08752 28.0003 5.20239 27.9527 5.28708 27.868C5.37178 27.7833 5.41936 27.6684 5.41936 27.5487V27.0971H22.5807V27.5487C22.5807 27.6684 22.6282 27.7833 22.7129 27.868C22.7976 27.9527 22.9125 28.0003 23.0323 28.0003H25.742C25.8617 28.0003 25.9766 27.9527 26.0613 27.868C26.146 27.7833 26.1936 27.6684 26.1936 27.5487V18.968H27.5484C27.6682 18.968 27.7831 18.9204 27.8677 18.8357C27.9524 18.751 28 18.6362 28 18.5164V15.8067C28 15.6869 27.9524 15.5721 27.8677 15.4874C27.7831 15.4027 27.6682 15.3551 27.5484 15.3551ZM18.0645 8.58091C18.0645 8.46114 18.1121 8.34627 18.1968 8.26157C18.2815 8.17688 18.3964 8.1293 18.5161 8.1293H24.8387C24.9585 8.1293 25.0734 8.17688 25.1581 8.26157C25.2428 8.34627 25.2903 8.46114 25.2903 8.58091V13.5487H18.0645V8.58091ZM17.1613 14.4519H26.1936V15.3551H17.1613V14.4519ZM10.3871 13.5487C10.2673 13.5487 10.1525 13.5011 10.0678 13.4164C9.98307 13.3317 9.93549 13.2168 9.93549 13.097C9.93549 12.9773 9.98307 12.8624 10.0678 12.7777C10.1525 12.693 10.2673 12.6454 10.3871 12.6454H10.8387V13.5487H10.3871ZM11.7419 11.7422H14.4516V15.3551H11.7419V11.7422ZM0.903226 12.6454H4.51613V13.5487H0.903226V12.6454ZM1.80645 14.4519H5.41936V15.3551H1.80645V14.4519ZM2.70968 27.0971V18.968H4.51613V27.0971H2.70968ZM5.41936 26.1938V18.968H22.5807V26.1938H5.41936ZM25.2903 27.0971H23.4839V18.968H25.2903V27.0971ZM27.0968 18.0648H0.903226V16.2583H27.0968V18.0648Z" fill="#C5903A"/>
<path d="M21.6775 9.03223C21.3203 9.03223 20.971 9.13817 20.6739 9.33667C20.3769 9.53516 20.1453 9.81729 20.0086 10.1474C19.8719 10.4775 19.8361 10.8407 19.9058 11.1911C19.9755 11.5415 20.1476 11.8634 20.4002 12.116C20.6528 12.3687 20.9747 12.5407 21.3251 12.6104C21.6755 12.6801 22.0388 12.6444 22.3688 12.5076C22.6989 12.3709 22.9811 12.1394 23.1796 11.8423C23.3781 11.5452 23.484 11.196 23.484 10.8387C23.484 10.3596 23.2937 9.9001 22.9549 9.56132C22.6161 9.22255 22.1566 9.03223 21.6775 9.03223ZM21.6775 11.7419C21.4989 11.7419 21.3243 11.6889 21.1757 11.5897C21.0272 11.4904 20.9114 11.3494 20.8431 11.1843C20.7747 11.0193 20.7568 10.8377 20.7917 10.6625C20.8265 10.4873 20.9126 10.3263 21.0389 10.2C21.1652 10.0737 21.3261 9.98766 21.5013 9.95281C21.6765 9.91796 21.8582 9.93584 22.0232 10.0042C22.1882 10.0726 22.3293 10.1883 22.4286 10.3369C22.5278 10.4854 22.5808 10.66 22.5808 10.8387C22.5808 11.0782 22.4856 11.308 22.3162 11.4774C22.1468 11.6467 21.9171 11.7419 21.6775 11.7419Z" fill="#C5903A"/>
<path d="M12.0091 8.12921C12.1282 8.24932 12.1951 8.41164 12.1951 8.58082C12.1951 8.75 12.1282 8.91232 12.0091 9.03243L11.422 9.61501L12.0633 10.2563L12.6459 9.66921C12.7893 9.52653 12.903 9.35693 12.9807 9.17015C13.0583 8.98337 13.0983 8.78309 13.0983 8.58082C13.0983 8.37855 13.0583 8.17827 12.9807 7.99149C12.903 7.80471 12.7893 7.63511 12.6459 7.49243L12.3794 7.22598C12.261 7.10546 12.1945 6.94333 12.1943 6.77437V6.32275H11.291V6.77437C11.2899 6.97673 11.3293 7.17727 11.4069 7.36419C11.4844 7.5511 11.5986 7.72062 11.7427 7.86275L12.0091 8.12921Z" fill="#C5903A"/>
<path d="M13.8157 8.12921C13.9349 8.24932 14.0017 8.41164 14.0017 8.58082C14.0017 8.75 13.9349 8.91232 13.8157 9.03243L13.2286 9.61501L13.8699 10.2563L14.4525 9.66921C14.5959 9.52653 14.7097 9.35693 14.7873 9.17015C14.8649 8.98337 14.9049 8.78309 14.9049 8.58082C14.9049 8.37855 14.8649 8.17827 14.7873 7.99149C14.7097 7.80471 14.5959 7.63511 14.4525 7.49243L14.1861 7.22598C14.0676 7.10546 14.0012 6.94333 14.0009 6.77437V6.32275H13.0977V6.77437C13.0966 6.97673 13.136 7.17727 13.2135 7.36419C13.2911 7.5511 13.4052 7.72062 13.5493 7.86275L13.8157 8.12921Z" fill="#C5903A"/>
<path d="M4.96775 9.93549C5.95027 9.93549 6.91074 9.64414 7.72768 9.09828C8.54462 8.55241 9.18135 7.77656 9.55734 6.86882C9.93334 5.96108 10.0317 4.96224 9.84004 3.99859C9.64835 3.03494 9.17522 2.14977 8.48047 1.45502C7.78572 0.76027 6.90055 0.287138 5.9369 0.0954561C4.97326 -0.0962255 3.97441 0.00215246 3.06667 0.378149C2.15893 0.754146 1.38308 1.39087 0.837216 2.20782C0.291353 3.02476 0 3.98522 0 4.96775C0 6.28527 0.523386 7.54884 1.45502 8.48047C2.38665 9.41211 3.65022 9.93549 4.96775 9.93549ZM1.80645 2.4342L2.38903 3.03033L3.03032 2.38904L2.4342 1.80645C3.03003 1.32119 3.75261 1.01711 4.51613 0.930325V1.80645H5.41936V0.930325C6.18288 1.01711 6.90546 1.32119 7.5013 1.80645L6.90517 2.38904L7.54646 3.03033L8.12904 2.4342C8.6143 3.03003 8.91838 3.75261 9.00517 4.51613H8.12904V5.41936H9.00517C8.91838 6.18288 8.6143 6.90547 8.12904 7.5013L7.53743 6.90517L6.89613 7.54646L7.5013 8.12904C6.90546 8.61431 6.18288 8.91839 5.41936 9.00517V8.12904H4.51613V9.00517C3.75261 8.91839 3.03003 8.61431 2.4342 8.12904L3.03032 7.53743L2.38903 6.90517L1.80645 7.5013C1.32119 6.90547 1.01711 6.18288 0.930323 5.41936H1.80645V4.51613H0.930323C1.01711 3.75261 1.32119 3.03003 1.80645 2.4342Z" fill="#C5903A"/>
<path d="M6.45305 7.09512L7.09434 6.45383L5.41886 4.78287V2.70996H4.51563V4.96803C4.51529 5.02746 4.52668 5.08638 4.54916 5.1414C4.57163 5.19643 4.60474 5.24647 4.6466 5.28867L6.45305 7.09512Z" fill="#C5903A"/>
</svg>
