<svg width="30" height="30" viewBox="0 0 30 30" fill="none" xmlns="http://www.w3.org/2000/svg">
<path d="M29.9865 19.5017C29.9942 18.0839 28.9991 16.858 27.61 16.5739L26.0777 14.1151C25.268 12.8135 23.7917 12.0052 22.225 12.0052H19.7482C19.7669 11.1673 19.6681 10.3309 19.4546 9.52043C20.3556 9.09257 20.7416 8.01702 20.3182 7.11383L19.9444 6.32127C19.5652 5.51827 18.659 5.10953 17.8061 5.35672C17.3646 4.3274 16.6198 3.45713 15.671 2.86197C15.032 2.45492 14.3142 2.18742 13.5646 2.07716C13.4913 2.06467 13.4059 2.06311 13.3283 2.05448C12.8107 0.485856 11.1195 -0.366176 9.55077 0.151453C7.98208 0.669081 7.13011 2.36034 7.64774 3.92903C7.73332 4.18834 7.85401 4.43479 8.00644 4.66137C7.59614 5.32062 7.33057 6.05951 7.22731 6.82909C7.19364 7.07197 7.1769 7.31692 7.17733 7.56217C7.17559 8.43363 7.38286 9.29279 7.78173 10.0676C7.13717 10.5122 6.85012 11.3199 7.06957 12.0716C5.75645 12.2864 4.58776 13.0561 3.91939 14.1933L2.32083 16.8809C2.19083 16.9201 2.05977 16.9559 1.93096 16.9991C0.453786 17.4894 -0.346083 19.0845 0.144308 20.5616C0.302983 21.0395 0.586785 21.4662 0.966292 21.7973C0.368701 22.1567 0.00250073 22.8025 0.000751559 23.4998V25.4989C0.0008765 26.0682 0.243324 26.6105 0.667434 26.9904L1.33312 26.2447C1.12122 26.0547 1.00021 25.7835 1.00028 25.4989V23.4998C1.00103 22.9481 1.44806 22.5011 1.9998 22.5003H27.9874C28.5392 22.5011 28.9862 22.9481 28.9869 23.4998V25.4989C28.9862 26.0506 28.5392 26.4977 27.9874 26.4984H9.99599V27.4979H27.9874C29.091 27.4968 29.9853 26.6025 29.9865 25.4989V23.4998C29.984 22.7799 29.5934 22.1172 28.9645 21.7665C29.6153 21.1938 29.9877 20.3685 29.9865 19.5017ZM25.2295 14.6436L26.4211 16.5561L21.1685 17.0115L19.2916 15.6035C19.2051 15.5386 19.0998 15.5035 18.9917 15.5036H18.7653C19.1862 14.8931 19.4747 14.2013 19.6125 13.4727C19.6412 13.3219 19.6653 13.165 19.6853 13.0047H22.225C23.4491 13.0048 24.6004 13.6324 25.2295 14.6436ZM19.0396 6.746L19.4144 7.54106C19.5808 7.89814 19.466 8.32312 19.1426 8.54795C19.1073 8.45712 19.0801 8.36054 19.042 8.27265L18.2039 6.28922C18.5522 6.24355 18.89 6.42821 19.0396 6.746ZM16.9078 5.78896L18.123 8.66552C18.226 8.90378 18.3151 9.14786 18.3899 9.39643C18.7027 10.389 18.8192 11.4329 18.733 12.47C18.715 12.7449 18.6806 13.0185 18.6301 13.2894C18.5033 13.974 18.2138 14.6181 17.786 15.1673C17.6891 15.2877 17.583 15.4004 17.4686 15.5043L13.0272 15.548C12.02 14.9224 11.1641 14.0813 10.5207 13.0853C10.3787 12.871 10.2484 12.6493 10.1303 12.421L8.68962 9.6543C8.35571 9.01792 8.18048 8.31038 8.17886 7.59172L8.54075 7.72216L8.87946 6.78217L8.29343 6.5709C8.36202 6.26229 8.46297 5.96181 8.59466 5.67445L9.71912 6.42409L10.2736 5.59249L9.10423 4.81298C9.44426 4.36176 9.86631 3.97863 10.3482 3.68371L11.0531 5.18299L11.9579 4.75738L11.2527 3.25741C11.7667 3.08087 12.3088 3.00035 12.8519 3.02002L12.51 4.38775L13.4793 4.62988L13.8485 3.15265C14.1749 3.2358 14.4907 3.35618 14.7896 3.51142L14.5764 4.10376L15.5164 4.44247L15.6459 4.08283C16.1962 4.54317 16.6287 5.12802 16.9078 5.78896ZM8.2472 10.9682L9.24441 12.8835C9.29252 12.9745 9.33812 13.0573 9.38216 13.1363C9.00272 13.2402 8.60378 13.0541 8.43961 12.6966L8.06529 11.9095C7.91742 11.5893 7.99064 11.2103 8.2472 10.9682ZM10.4958 1.01048C11.2193 1.01211 11.8853 1.40492 12.2369 2.0373C10.8681 2.15169 9.59169 2.77445 8.65913 3.78291C8.2244 2.77633 8.68793 1.60788 9.69451 1.17315C9.94745 1.06389 10.2203 1.00854 10.4958 1.01048ZM4.77973 14.7022C5.34102 13.7464 6.3611 13.1271 7.48912 13.0258L7.53479 13.1219C7.95371 14.0252 9.02558 14.418 9.92896 13.999C9.93359 13.9969 9.93821 13.9947 9.94277 13.9925L9.94596 13.9911C10.4002 14.6259 10.9346 15.1992 11.5359 15.6969L4.92809 16.3577C4.51085 16.3993 4.09593 16.465 3.68356 16.5447L4.77973 14.7022ZM2.24724 17.9467C3.14925 17.6464 4.08175 17.447 5.02767 17.3523L13.4943 16.5031H18.8253L19.7257 17.1785L13.9233 18.0068C13.8885 18.0118 13.8543 18.0204 13.8213 18.0326L4.40928 21.5002H2.82366C1.81657 21.5002 1.00015 20.6837 1.00021 19.6767C1.00028 18.8917 1.5026 18.1949 2.24724 17.9467ZM27.0379 21.5007H26.0103L14.5376 20.4831C14.4682 20.4763 14.3983 20.4848 14.3326 20.5081L11.4128 21.5007H7.29934L14.1171 18.9887L20.5888 18.0649L26.9379 17.5026H27.0326C27.1029 17.5024 27.1732 17.5064 27.243 17.5148C28.2373 17.6241 28.9869 18.4782 28.9869 19.5017C28.9869 20.6042 28.1124 21.5007 27.0379 21.5007Z" fill="#C5903A"/>
<path d="M10.3281 11.2066L10.9548 11.9855C11.4963 11.551 12.1333 11.2514 12.8133 11.1114L12.6133 10.1323C11.7772 10.3042 10.994 10.6724 10.3281 11.2066Z" fill="#C5903A"/>
<path d="M15.2768 12.7948C14.9214 12.9622 14.5353 13.0541 14.1426 13.0646L14.0605 13.0666L14.084 14.0661L14.1655 14.0642C15.033 14.0411 15.8672 13.7259 16.5331 13.1696L15.8919 12.4033C15.7046 12.5597 15.4978 12.6913 15.2768 12.7948Z" fill="#C5903A"/>
<path d="M12.4336 9.78245L12.7166 8.82391C11.3042 8.40761 9.88402 9.07772 9.33984 10.4189L10.2662 10.7947C10.6185 9.92595 11.5087 9.51058 12.4336 9.78245Z" fill="#C5903A"/>
<path d="M13.7012 8.36132L14.6195 8.75488C14.9987 7.87005 15.8864 7.45031 16.782 7.73143L17.0827 6.77876C15.703 6.34178 14.2808 7.00796 13.7012 8.36132Z" fill="#C5903A"/>
<path d="M13.1074 9.53271L14.0123 9.10676L15.317 11.8785L14.4121 12.3044L13.1074 9.53271Z" fill="#C5903A"/>
<path d="M15.4276 9.94943C15.9692 9.51495 16.6064 9.21535 17.2864 9.07523L17.0853 8.09619C16.2495 8.26817 15.4665 8.63637 14.8008 9.17037L15.4276 9.94943Z" fill="#C5903A"/>
<path d="M8.7711 25.5475C8.54533 25.1846 8.18313 24.9277 7.76595 24.8346C7.52076 24.7778 7.26782 24.762 7.01744 24.7876C7.01181 24.7553 7.00544 24.7232 6.99757 24.691C6.89593 24.2801 6.62974 23.9292 6.26142 23.7207C5.52046 23.2916 4.55423 23.5133 4.10813 24.215C3.98444 24.4093 3.89473 24.6232 3.84288 24.8475C3.38991 24.7711 2.92595 24.893 2.56899 25.1821L2.55325 25.1946C2.23365 25.4495 2.03462 25.8259 2.00401 26.2335C1.97402 26.6366 2.11321 27.0339 2.38826 27.3301L2.44136 27.3883C2.59229 27.5529 2.76827 27.6927 2.9628 27.8025C2.76521 28.1991 2.7574 28.6638 2.9415 29.0669C3.30789 29.8352 4.20371 30.1922 4.99815 29.8866C5.22479 29.799 5.43513 29.6741 5.62047 29.5171C5.92627 29.8242 6.34176 29.9969 6.77511 29.9969C6.81309 29.9969 6.85126 29.9956 6.88968 29.9929C7.31329 29.9666 7.70792 29.7689 7.98254 29.4452C8.24316 29.1397 8.36798 28.7411 8.32825 28.3415C8.30551 28.1093 8.24366 27.8826 8.14533 27.6711C8.55258 27.4782 8.85069 27.1115 8.95632 26.6735C9.04828 26.2885 8.9815 25.8828 8.7711 25.5475ZM7.54112 25.8086C7.6983 25.8423 7.83536 25.9378 7.92138 26.0737C7.99085 26.1826 8.01359 26.3149 7.98441 26.4408C7.93031 26.6669 7.70886 26.8236 7.45516 26.8302C7.08834 26.5598 6.64861 26.4061 6.19326 26.3889C6.42434 25.933 6.98058 25.6789 7.54112 25.8086ZM4.95173 24.7512C5.1114 24.5 5.48179 24.4243 5.76047 24.5857C5.89247 24.6586 5.98874 24.7825 6.02666 24.9285C6.04309 24.9956 6.0444 25.0656 6.03047 25.1333C5.6549 25.3736 5.36703 25.7288 5.20961 26.146C5.01757 25.9929 4.8812 25.781 4.82142 25.5428C4.7542 25.2722 4.80137 24.9859 4.95173 24.7512ZM3.00078 26.3077C3.01209 26.1747 3.07831 26.0525 3.18351 25.9703L3.19932 25.9578C3.39697 25.8014 3.67059 25.7829 3.88755 25.9112C4.02042 26.3317 4.28118 26.7002 4.63351 26.9655C4.14655 27.2129 3.55483 27.1107 3.17908 26.7142L3.12591 26.6561C3.03758 26.5624 2.99223 26.4362 3.00078 26.3077ZM4.63582 28.9553C4.33696 29.0715 3.97826 28.9342 3.85225 28.6555C3.76186 28.46 3.81502 28.2281 3.98151 28.0914C4.01305 28.0927 4.04454 28.0937 4.07609 28.0937C4.51631 28.0953 4.94711 27.9664 5.31425 27.7236C5.3656 27.9316 5.34954 28.1505 5.26846 28.3488C5.15082 28.6299 4.92168 28.8496 4.63582 28.9553ZM7.21928 28.7999C7.1182 28.9169 6.97383 28.9876 6.81947 28.9958C6.56927 29.0148 6.33251 28.8803 6.22063 28.6556C6.36949 28.2511 6.38374 27.8092 6.26123 27.3958C6.82109 27.4629 7.28025 27.8909 7.33328 28.4379C7.34615 28.569 7.30499 28.6998 7.21928 28.7999Z" fill="#C5903A"/>
</svg>
