<svg width="28" height="21" viewBox="0 0 28 21" fill="none" xmlns="http://www.w3.org/2000/svg">
<path d="M3.26568 8.86289C3.48683 8.86289 3.66612 8.68361 3.66612 8.46245C3.66612 8.2413 3.48683 8.06201 3.26568 8.06201C3.04452 8.06201 2.86523 8.2413 2.86523 8.46245C2.86523 8.68361 3.04452 8.86289 3.26568 8.86289Z" fill="#C5903A"/>
<path d="M5.04693 8.86289C5.26808 8.86289 5.44737 8.68361 5.44737 8.46245C5.44737 8.2413 5.26808 8.06201 5.04693 8.06201C4.82577 8.06201 4.64648 8.2413 4.64648 8.46245C4.64648 8.68361 4.82577 8.86289 5.04693 8.86289Z" fill="#C5903A"/>
<path d="M9.60747 8.86289C9.82863 8.86289 10.0079 8.68361 10.0079 8.46245C10.0079 8.2413 9.82863 8.06201 9.60747 8.06201C9.38631 8.06201 9.20703 8.2413 9.20703 8.46245C9.20703 8.68361 9.38631 8.86289 9.60747 8.86289Z" fill="#C5903A"/>
<path d="M11.3887 8.86289C11.6099 8.86289 11.7892 8.68361 11.7892 8.46245C11.7892 8.2413 11.6099 8.06201 11.3887 8.06201C11.1676 8.06201 10.9883 8.2413 10.9883 8.46245C10.9883 8.68361 11.1676 8.86289 11.3887 8.86289Z" fill="#C5903A"/>
<path d="M16.2852 8.86289C16.5064 8.86289 16.6856 8.68361 16.6856 8.46245C16.6856 8.2413 16.5064 8.06201 16.2852 8.06201C16.064 8.06201 15.8848 8.2413 15.8848 8.46245C15.8848 8.68361 16.064 8.86289 16.2852 8.86289Z" fill="#C5903A"/>
<path d="M18.0684 8.86289C18.2896 8.86289 18.4689 8.68361 18.4689 8.46245C18.4689 8.2413 18.2896 8.06201 18.0684 8.06201C17.8473 8.06201 17.668 8.2413 17.668 8.46245C17.668 8.68361 17.8473 8.86289 18.0684 8.86289Z" fill="#C5903A"/>
<path d="M22.2891 8.86289C22.5103 8.86289 22.6896 8.68361 22.6896 8.46245C22.6896 8.2413 22.5103 8.06201 22.2891 8.06201C22.068 8.06201 21.8887 8.2413 21.8887 8.46245C21.8887 8.68361 22.068 8.86289 22.2891 8.86289Z" fill="#C5903A"/>
<path d="M24.0704 8.86289C24.2915 8.86289 24.4708 8.68361 24.4708 8.46245C24.4708 8.2413 24.2915 8.06201 24.0704 8.06201C23.8492 8.06201 23.6699 8.2413 23.6699 8.46245C23.6699 8.68361 23.8492 8.86289 24.0704 8.86289Z" fill="#C5903A"/>
<path d="M3.26568 16.461C3.48683 16.461 3.66612 16.2818 3.66612 16.0606C3.66612 15.8394 3.48683 15.6602 3.26568 15.6602C3.04452 15.6602 2.86523 15.8394 2.86523 16.0606C2.86523 16.2818 3.04452 16.461 3.26568 16.461Z" fill="#C5903A"/>
<path d="M5.04693 16.461C5.26808 16.461 5.44737 16.2818 5.44737 16.0606C5.44737 15.8394 5.26808 15.6602 5.04693 15.6602C4.82577 15.6602 4.64648 15.8394 4.64648 16.0606C4.64648 16.2818 4.82577 16.461 5.04693 16.461Z" fill="#C5903A"/>
<path d="M9.60747 16.461C9.82863 16.461 10.0079 16.2818 10.0079 16.0606C10.0079 15.8394 9.82863 15.6602 9.60747 15.6602C9.38631 15.6602 9.20703 15.8394 9.20703 16.0606C9.20703 16.2818 9.38631 16.461 9.60747 16.461Z" fill="#C5903A"/>
<path d="M11.3887 16.461C11.6099 16.461 11.7892 16.2818 11.7892 16.0606C11.7892 15.8394 11.6099 15.6602 11.3887 15.6602C11.1676 15.6602 10.9883 15.8394 10.9883 16.0606C10.9883 16.2818 11.1676 16.461 11.3887 16.461Z" fill="#C5903A"/>
<path d="M15.9473 16.461C16.1685 16.461 16.3478 16.2818 16.3478 16.0606C16.3478 15.8394 16.1685 15.6602 15.9473 15.6602C15.7262 15.6602 15.5469 15.8394 15.5469 16.0606C15.5469 16.2818 15.7262 16.461 15.9473 16.461Z" fill="#C5903A"/>
<path d="M17.7305 16.461C17.9517 16.461 18.131 16.2818 18.131 16.0606C18.131 15.8394 17.9517 15.6602 17.7305 15.6602C17.5094 15.6602 17.3301 15.8394 17.3301 16.0606C17.3301 16.2818 17.5094 16.461 17.7305 16.461Z" fill="#C5903A"/>
<path d="M22.2891 16.461C22.5103 16.461 22.6896 16.2818 22.6896 16.0606C22.6896 15.8394 22.5103 15.6602 22.2891 15.6602C22.068 15.6602 21.8887 15.8394 21.8887 16.0606C21.8887 16.2818 22.068 16.461 22.2891 16.461Z" fill="#C5903A"/>
<path d="M24.0704 16.461C24.2915 16.461 24.4708 16.2818 24.4708 16.0606C24.4708 15.8394 24.2915 15.6602 24.0704 15.6602C23.8492 15.6602 23.6699 15.8394 23.6699 16.0606C23.6699 16.2818 23.8492 16.461 24.0704 16.461Z" fill="#C5903A"/>
<path d="M26.6591 10.2202C27.0328 10.2202 27.3368 9.9162 27.3368 9.5425V7.37938C27.3368 7.00568 27.0328 6.70172 26.6591 6.70172H25.8702V4.47752C25.8702 4.16688 25.7883 3.86036 25.6332 3.5911L23.7572 0.33354C23.6387 0.127821 23.4177 5.33628e-05 23.1803 5.33628e-05C22.9429 5.33628e-05 22.7219 0.127874 22.6034 0.33354L20.7273 3.5911C20.5724 3.86041 20.4904 4.16693 20.4904 4.47752V6.70172H19.5289V4.47752C19.5289 4.16683 19.4469 3.86025 19.2918 3.5911L17.4158 0.33354C17.2973 0.127821 17.0763 5.33628e-05 16.839 5.33628e-05C16.6016 5.33628e-05 16.3805 0.127821 16.2621 0.33354L14.3861 3.59105C14.231 3.86025 14.1491 4.16683 14.1491 4.47752V6.70172H13.1875V4.47752C13.1875 4.16693 13.1056 3.86041 12.9505 3.5911L11.0745 0.33354C10.9561 0.127821 10.7351 5.33628e-05 10.4976 5.33628e-05C10.2603 5.33628e-05 10.0392 0.127821 9.92073 0.33354L8.04469 3.5911C7.8897 3.86036 7.80774 4.16688 7.80774 4.47752V6.70172H6.84615V4.47752C6.84615 4.16683 6.76419 3.86025 6.60914 3.5911L4.73337 0.333487C4.61489 0.127767 4.3939 0 4.15647 0C3.91909 0 3.69804 0.127821 3.57957 0.333487L1.70358 3.59099C1.54853 3.8602 1.46657 4.16677 1.46657 4.47746V6.70167H0.677706C0.304015 6.70172 0 7.00574 0 7.37938V9.5425C0 9.9162 0.304015 10.2202 0.677706 10.2202H1.46657V11.1638C1.46657 11.385 1.64581 11.5642 1.86702 11.5642C2.08822 11.5642 2.26746 11.385 2.26746 11.1638V10.2202H6.04543V14.3013H2.26751V12.7656C2.26751 12.5444 2.08827 12.3651 1.86707 12.3651C1.64587 12.3651 1.46663 12.5444 1.46663 12.7656V14.3013H0.677706C0.304015 14.3013 0 14.6054 0 14.979V17.1422C0 17.5159 0.304015 17.8198 0.677706 17.8198H1.46657V20.4011C1.46657 20.6223 1.64581 20.8016 1.86702 20.8016H6.44587C6.66707 20.8016 6.84631 20.6223 6.84631 20.4011V17.8198H7.8079V20.4011C7.8079 20.6223 7.98714 20.8016 8.20834 20.8016H12.7872C13.0084 20.8016 13.1876 20.6223 13.1876 20.4011V17.8198H14.1492V20.4011C14.1492 20.6223 14.3284 20.8016 14.5496 20.8016H19.1285C19.3497 20.8016 19.5289 20.6223 19.5289 20.4011V17.8198H20.4904V20.4011C20.4904 20.6223 20.6697 20.8016 20.8909 20.8016H25.4697C25.6909 20.8016 25.8702 20.6223 25.8702 20.4011V17.8198H26.6591C27.0328 17.8198 27.3368 17.5158 27.3368 17.1422V14.979C27.3368 14.6054 27.0328 14.3013 26.6591 14.3013H25.8702V10.2202H26.6591ZM21.2913 4.47752C21.2913 4.30698 21.3363 4.13864 21.4214 3.99074L23.1803 0.936604L24.9391 3.99074C25.0242 4.13864 25.0692 4.30693 25.0692 4.47757V6.70178H21.2913V4.47752ZM14.9501 4.47752C14.9501 4.30693 14.9951 4.13858 15.0802 3.99074L16.8391 0.936657L18.5979 3.99079C18.683 4.13864 18.728 4.30693 18.728 4.47757V6.70178H14.9501V4.47752ZM8.60878 4.47752C8.60878 4.30693 8.65379 4.13858 8.73885 3.99074L10.4977 0.936604L12.2565 3.99074C12.3417 4.13869 12.3866 4.30698 12.3866 4.47757V6.70178H8.60868V4.47752H8.60878ZM2.26751 4.47752C2.26751 4.30693 2.31252 4.13858 2.39768 3.99074L4.15652 0.936604L5.91531 3.99079C6.00047 4.13864 6.04548 4.30693 6.04548 4.47757V6.70178H2.26751V4.47752ZM0.800882 7.5026H26.5359V9.41933H0.800882V7.5026ZM19.5289 14.3013V10.2202H20.4904V14.3013H19.5289ZM13.1876 14.3013V10.2202H14.1492V14.3013H13.1876ZM12.3868 10.2202V14.3013H8.60878V10.2202H12.3868ZM6.84631 10.2202H7.8079V14.3013H6.84631V10.2202ZM6.04548 20.0007H2.26751V17.8198H6.04548V20.0007ZM12.3868 20.0007H8.60878V17.8198H12.3868V20.0007ZM18.728 20.0007H14.9501V17.8198H18.728V20.0007ZM25.0692 20.0007H21.2913V17.8198H25.0692V20.0007ZM26.5359 17.0189H0.800882V15.1022H16.8391C17.0603 15.1022 17.2395 14.9229 17.2395 14.7018C17.2395 14.4806 17.0603 14.3013 16.8391 14.3013H14.9501V10.2202H18.728V14.3013H18.4408C18.2196 14.3013 18.0404 14.4806 18.0404 14.7018C18.0404 14.9229 18.2196 15.1022 18.4408 15.1022H26.5359V17.0189ZM25.0692 14.3013H21.2913V10.2202H25.0692V14.3013Z" fill="#C5903A"/>
</svg>
