<svg width="37" height="15" viewBox="0 0 37 15" fill="none" xmlns="http://www.w3.org/2000/svg">
<path d="M35.7516 9.17995V7.83912C35.7516 5.99047 34.1737 4.48651 32.234 4.48651H29.4086C29.3899 4.44678 29.3662 4.40855 29.336 4.37311L26.1892 0.678753C26.1845 0.673311 26.1798 0.668005 26.175 0.662767C25.785 0.241557 25.2235 0 24.6342 0H18.1872C17.8915 0 17.6519 0.228427 17.6519 0.510186C17.6519 0.791945 17.8915 1.02037 18.1872 1.02037H18.6502V4.48651H14.8087V1.02037H16.0459C16.3415 1.02037 16.5812 0.791945 16.5812 0.510186C16.5812 0.228427 16.3415 0 16.0459 0H5.04805C3.5567 0 2.34334 1.15642 2.34334 2.57787V4.48651H2.30287C1.36567 4.48651 0.603108 5.21329 0.603108 6.10659V9.17995C0.253234 9.29097 0 9.60538 0 9.97564V11.1004C0 11.5631 0.394911 11.9394 0.880324 11.9394H2.93096C2.94167 11.9394 2.95216 11.9384 2.96272 11.9379C3.4258 13.2657 4.74621 14.2268 6.29973 14.2268C7.85268 14.2268 9.1726 13.2664 9.63617 11.9394H16.0714C16.367 11.9394 16.6067 11.711 16.6067 11.4292C16.6067 11.1474 16.367 10.919 16.0714 10.919H9.81353C9.8136 10.9107 9.81418 10.9025 9.81418 10.8942C9.81418 10.6408 9.7832 10.3943 9.72646 10.1569H24.7685C24.7117 10.3943 24.6808 10.6408 24.6808 10.8942C24.6808 10.9025 24.6813 10.9107 24.6814 10.919H18.2127C17.917 10.919 17.6773 11.1474 17.6773 11.4292C17.6773 11.711 17.917 11.9394 18.2127 11.9394H24.8588C25.3223 13.2664 26.6423 14.2268 28.1952 14.2268C29.7481 14.2268 31.0681 13.2664 31.5316 11.9394H35.4744C35.9598 11.9394 36.3547 11.563 36.3547 11.1004V9.97564C36.3546 9.60545 36.1014 9.29097 35.7516 9.17995ZM32.9416 5.60668C33.6934 5.82361 34.2929 6.37658 34.5477 7.08159H33.3905C33.1429 7.08159 32.9416 6.88962 32.9416 6.65365V5.60668ZM19.7208 1.02037H24.6342C24.9131 1.02037 25.1792 1.13343 25.3657 1.33091L28.0535 4.48651H19.7208V1.02037ZM9.58742 1.02037H13.7382V4.48651H9.58742V1.02037ZM5.55516 2.57787C5.55516 1.77824 6.18311 1.11241 7.0159 1.02901C7.0351 1.02711 7.05387 1.02411 7.07228 1.02037H8.51682V4.48651H5.55516V2.57787ZM3.41395 2.57787C3.41395 1.72457 4.13775 1.02969 5.03078 1.02078C4.68676 1.45444 4.48456 1.99456 4.48456 2.57787V4.48651H3.41395V2.57787ZM1.07061 10.9191V10.157H2.87301C2.81627 10.3943 2.78529 10.6409 2.78529 10.8942C2.78529 10.9025 2.78586 10.9108 2.78593 10.9191H1.07061ZM6.29973 13.2065C4.9522 13.2065 3.8559 12.1692 3.8559 10.8942C3.8559 9.61926 4.9522 8.58201 6.29973 8.58201C7.64727 8.58201 8.74357 9.61926 8.74357 10.8942C8.74357 12.1692 7.64727 13.2065 6.29973 13.2065ZM6.29973 7.56164C5.04177 7.56164 3.93669 8.19196 3.31567 9.13662H1.67371V6.10659C1.67371 5.77592 1.956 5.50688 2.30287 5.50688H18.6502V9.13662H9.2838C8.6627 8.19196 7.55762 7.56164 6.29973 7.56164ZM28.1952 13.2065C26.8477 13.2065 25.7514 12.1692 25.7514 10.8942C25.7514 9.61926 26.8477 8.58201 28.1952 8.58201C29.5427 8.58201 30.639 9.61926 30.639 10.8942C30.639 12.1692 29.5427 13.2065 28.1952 13.2065ZM28.1952 7.56164C26.9372 7.56164 25.8322 8.19196 25.2111 9.13662H19.7209V5.50688H31.871V6.65365C31.871 7.45226 32.5527 8.10196 33.3906 8.10196H34.6811V9.13662H31.2808C31.2481 9.13662 31.2162 9.13982 31.1851 9.14519C30.5651 8.1957 29.4569 7.56164 28.1952 7.56164ZM35.284 10.9191H31.709C31.7091 10.9108 31.7096 10.9025 31.7096 10.8942C31.7096 10.6409 31.6787 10.3943 31.6219 10.157H35.284V10.9191Z" fill="#C5903A"/>
<path d="M28.1958 9.3938C27.3243 9.3938 26.6152 10.0669 26.6152 10.8942C26.6152 11.7215 27.3243 12.3946 28.1958 12.3946C29.0674 12.3946 29.7764 11.7215 29.7764 10.8942C29.7763 10.0669 29.0674 9.3938 28.1958 9.3938ZM28.1958 11.3742C27.9146 11.3742 27.6858 11.1589 27.6858 10.8942C27.6858 10.6295 27.9146 10.4141 28.1958 10.4141C28.4769 10.4141 28.7058 10.6295 28.7058 10.8942C28.7057 11.1589 28.4769 11.3742 28.1958 11.3742Z" fill="#C5903A"/>
<path d="M6.29925 9.3938C5.42778 9.3938 4.71875 10.0669 4.71875 10.8942C4.71875 11.7215 5.42778 12.3946 6.29925 12.3946C7.17072 12.3946 7.87982 11.7215 7.87982 10.8942C7.87975 10.0669 7.17072 9.3938 6.29925 9.3938ZM6.29925 11.3742C6.01811 11.3742 5.78936 11.1589 5.78936 10.8942C5.78936 10.6295 6.01811 10.4141 6.29925 10.4141C6.58039 10.4141 6.80922 10.6295 6.80922 10.8942C6.80914 11.1589 6.58039 11.3742 6.29925 11.3742Z" fill="#C5903A"/>
<path d="M13.489 5.96631H12.7736C12.478 5.96631 12.2383 6.19474 12.2383 6.47649C12.2383 6.75825 12.478 6.98668 12.7736 6.98668H13.489C13.7846 6.98668 14.0243 6.75825 14.0243 6.47649C14.0243 6.19474 13.7846 5.96631 13.489 5.96631Z" fill="#C5903A"/>
<path d="M22.0964 5.78418H21.381C21.0853 5.78418 20.8457 6.01261 20.8457 6.29437C20.8457 6.57612 21.0853 6.80455 21.381 6.80455H22.0964C22.3921 6.80455 22.6317 6.57612 22.6317 6.29437C22.6317 6.01261 22.3921 5.78418 22.0964 5.78418Z" fill="#C5903A"/>
</svg>
