<svg width="30" height="28" viewBox="0 0 30 28" fill="none" xmlns="http://www.w3.org/2000/svg">
<path d="M28.5287 17.8536V8.63483C28.5287 8.40883 28.3365 8.22562 28.0993 8.22562C27.8622 8.22562 27.67 8.40883 27.67 8.63483V17.7335H26.6309V5.70106C26.6309 5.42787 26.8638 5.20564 27.1501 5.20564C27.4368 5.20564 27.6699 5.42787 27.6699 5.70106V6.72518C27.6699 6.95117 27.8621 7.13439 28.0993 7.13439C28.3365 7.13439 28.5286 6.95117 28.5286 6.72518V5.70106C28.5286 4.9766 27.9102 4.38722 27.1501 4.38722C26.3991 4.38722 25.7869 4.96312 25.7729 5.67607H25.0223C24.2387 5.67607 23.6012 6.28367 23.6012 7.0305V13.6319C23.6012 14.3788 24.2387 14.9864 25.0223 14.9864H25.7723V17.7335H20.2292L19.9779 14.373H21.4279C21.8392 14.373 22.1736 14.0542 22.1736 13.6623V11.404C22.1736 11.0122 21.8391 10.6934 21.4279 10.6934H18.2588C18.6296 10.2826 18.8546 9.74886 18.8546 9.16576C18.8546 7.87217 17.7503 6.81973 16.393 6.81973C15.0358 6.81973 13.9315 7.87217 13.9315 9.16576C13.9315 9.74891 14.1564 10.2826 14.5272 10.6934H13.2242V5.95314H13.6152C13.8867 5.95314 14.1301 5.79894 14.2352 5.56029C14.3403 5.32164 14.2852 5.04807 14.0951 4.86338L9.28342 0.191892C9.15593 0.0681472 8.9855 0 8.80363 0C8.62175 0 8.45133 0.0681472 8.32378 0.191892L3.51219 4.86333C3.32196 5.04802 3.26688 5.32159 3.37193 5.56024C3.47704 5.79889 3.7204 5.95314 3.99198 5.95314H4.38286V10.6934H0.745648C0.334497 10.6934 0 11.0121 0 11.404V13.6623C0 14.0542 0.334497 14.373 0.745648 14.373H2.19527L1.96233 17.4938C1.9455 17.7193 2.12359 17.915 2.36014 17.931C2.37056 17.9318 2.38081 17.9321 2.39105 17.9321C2.61426 17.9321 2.80278 17.7675 2.81892 17.552L3.05621 14.373H4.90851L3.20305 26.878H2.12142L2.67586 19.4616C2.69269 19.2362 2.51465 19.0404 2.27811 19.0243C2.04207 19.008 1.83615 19.178 1.81927 19.4034L1.25143 26.9988C1.23746 27.178 1.30312 27.3565 1.43159 27.4884C1.56034 27.6205 1.74278 27.6964 1.93204 27.6964H3.35808C3.70053 27.6964 3.99146 27.4524 4.03457 27.1299L5.77438 14.3729H16.3991L16.8574 17.7335H13.6117C12.8671 17.7335 12.2613 18.3109 12.2613 19.0206V19.9148C12.2613 20.6248 12.8671 21.2025 13.6117 21.2025H14.1119L13.215 26.1589C13.1521 26.5056 13.235 26.8548 13.4483 27.1421C13.661 27.4286 13.9776 27.6185 14.3397 27.677C14.4205 27.69 14.4971 27.6963 14.5741 27.6963C15.246 27.6963 15.8166 27.2375 15.9308 26.6053L16.9084 21.2024H17.3306L18.1389 27.1288C18.1821 27.4523 18.4731 27.6963 18.8155 27.6963H20.2416C20.4302 27.6963 20.6122 27.6209 20.7408 27.4894C20.8694 27.3579 20.9356 27.1796 20.9223 27L20.4887 21.2024H24.6629L25.641 26.6052C25.7553 27.2374 26.3256 27.6963 26.9973 27.6963C27.0742 27.6963 27.1509 27.69 27.2315 27.677C27.594 27.6185 27.9108 27.4285 28.1236 27.142C28.337 26.8547 28.4199 26.5056 28.357 26.1591L27.4601 21.2024H27.9597C28.7046 21.2024 29.3107 20.6247 29.3107 19.9147V19.0206C29.3107 18.5045 28.9901 18.0586 28.5287 17.8536ZM25.0223 14.1679C24.7122 14.1679 24.4599 13.9275 24.4599 13.6319V7.0305C24.4599 6.73495 24.7122 6.49449 25.0223 6.49449H25.7723V14.1679H25.0223ZM14.7902 9.16576C14.7902 8.32344 15.5092 7.63815 16.393 7.63815C17.2768 7.63815 17.9958 8.32344 17.9958 9.16576C17.9958 10.0081 17.2768 10.6934 16.393 10.6934C15.5092 10.6934 14.7902 10.0081 14.7902 9.16576ZM8.80357 0.894261L13.1712 5.13466H4.43593L8.80357 0.894261ZM5.24158 5.95308H12.3654V10.6933H10.9566V9.56564C10.9566 8.43415 9.99077 7.51359 8.80357 7.51359C7.61666 7.51359 6.65101 8.43415 6.65101 9.56564V10.6933H5.24158V5.95308ZM7.50972 10.6934V9.56564C7.50972 8.88543 8.09015 8.33201 8.80357 8.33201C9.51727 8.33201 10.0979 8.88543 10.0979 9.56564V10.6933H7.50972V10.6934ZM0.858712 11.5118H21.3149V13.5546H0.858712V11.5118ZM15.0846 26.4665C15.0415 26.7049 14.8268 26.878 14.5741 26.878C14.5458 26.878 14.5161 26.8754 14.4831 26.8701C14.2046 26.8251 14.0117 26.5707 14.0612 26.2982L14.9832 21.2024H16.0371L15.0846 26.4665ZM13.6117 20.3841C13.3406 20.3841 13.12 20.1736 13.12 19.9148V19.0206C13.12 18.7622 13.3406 18.5519 13.6117 18.5519H16.9692L17.2191 20.3841H13.6117ZM18.9706 26.878L17.2651 14.373H19.1169L20.0522 26.878H18.9706ZM27.5108 26.2984C27.5597 26.568 27.3703 26.8245 27.0881 26.8701C27.0553 26.8754 27.0256 26.878 26.9973 26.878C26.7449 26.878 26.5304 26.7049 26.4873 26.4664L25.5344 21.2025H26.5888L27.5108 26.2984ZM28.452 19.9148C28.452 20.1736 28.2312 20.3841 27.9597 20.3841H20.4275L20.2904 18.5519H27.9597C28.2311 18.5519 28.452 18.7622 28.452 19.0206V19.9148Z" fill="#C5903A"/>
</svg>
