<svg width="29" height="29" viewBox="0 0 29 29" fill="none" xmlns="http://www.w3.org/2000/svg">
<path d="M28.7305 27.6802L26.8143 19.0576C26.766 18.8386 26.5715 18.6825 26.3468 18.6825H24.4308V17.7244C24.4308 15.7737 22.9652 14.1597 21.0776 13.9231V10.1776C21.0776 9.05619 20.165 8.14363 19.0436 8.14363H17.7244V5.26941C17.7244 2.36404 15.3603 0 12.4549 0C10.9544 0 9.5983 0.630643 8.63769 1.64072C8.17619 1.50823 7.68903 1.43711 7.18554 1.43711C4.28017 1.43711 1.91612 3.80115 1.91612 6.70652V8.14728C0.849353 8.20869 0 9.09582 0 10.1777V27.7842C0 28.0486 0.214612 28.2632 0.479017 28.2632H4.31132H12.9338H12.934H28.2629C28.4085 28.2632 28.546 28.1971 28.6371 28.0835C28.7276 27.9705 28.7621 27.822 28.7305 27.6802ZM23.4727 17.7244V18.6825H21.0775V14.8909C22.4353 15.1196 23.4727 16.3026 23.4727 17.7244ZM17.7243 18.6825V17.7244C17.7243 16.3025 18.7618 15.1196 20.1195 14.8908V18.6825H17.7243V18.6825ZM12.4549 0.958146C14.8319 0.958146 16.7663 2.89251 16.7663 5.26947V8.14368H12.4549V6.70658C12.4549 4.67638 11.3004 2.91076 9.61369 2.03109C10.3731 1.36402 11.3673 0.958146 12.4549 0.958146ZM8.14363 8.14368V5.26947C8.14363 4.33905 8.44098 3.47724 8.94425 2.77188C10.4469 3.44636 11.4969 4.95583 11.4969 6.70658V8.14368H8.14363ZM7.18554 2.39531C7.46106 2.39531 7.73029 2.42237 7.99155 2.47205C7.48127 3.28323 7.18554 4.24244 7.18554 5.26947V8.14368H5.91465H2.87421V6.70658C2.87421 4.32962 4.80858 2.39531 7.18554 2.39531ZM0.95809 10.1777C0.95809 9.58466 1.44098 9.10177 2.03401 9.10177H4.16329C3.95423 9.42636 3.8323 9.81213 3.8323 10.2261V27.3052H0.95809V10.1777ZM4.79034 10.2261C4.79034 9.60622 5.29479 9.10177 5.91465 9.10177H7.18554V12.9341C7.18554 13.1985 7.40015 13.4131 7.66455 13.4131C7.92896 13.4131 8.14357 13.1985 8.14357 12.9341V9.10177H16.7662V12.9341C16.7662 13.1985 16.9808 13.4131 17.2452 13.4131C17.5096 13.4131 17.7242 13.1985 17.7242 12.9341V9.10177H19.0435C19.6366 9.10177 20.1194 9.58466 20.1194 10.1777V13.9232C18.2318 14.1598 16.7662 15.7737 16.7662 17.7244V18.6825H14.8499C14.6257 18.6825 14.4313 18.8387 14.3824 19.0576L12.5496 27.3052H4.79034V10.2261ZM13.5311 27.3052L15.2346 19.6406H16.7663V22.9938C16.7663 23.2582 16.9809 23.4728 17.2453 23.4728C17.5097 23.4728 17.7243 23.2582 17.7243 22.9938V19.6406H23.4727V22.9938C23.4727 23.2582 23.6873 23.4728 23.9517 23.4728C24.2162 23.4728 24.4308 23.2582 24.4308 22.9938V19.6406H25.9625L27.666 27.3052H13.5311Z" fill="#C5903A"/>
</svg>
