<svg width="35" height="33" viewBox="0 0 35 33" fill="none" xmlns="http://www.w3.org/2000/svg">
<path d="M27.6501 6.09671C24.8115 3.39129 21.0374 1.90137 17.0231 1.90137C13.0088 1.90137 9.23463 3.39129 6.39602 6.09671C3.55742 8.80213 1.99414 12.3991 1.99414 16.2251C1.99414 20.0512 3.55742 23.6481 6.39602 26.3536C9.23463 29.059 13.0088 30.5489 17.0231 30.5489C21.0374 30.5489 24.8115 29.059 27.6501 26.3536C30.4887 23.6481 32.052 20.0512 32.052 16.2251C32.052 12.3991 30.4887 8.80213 27.6501 6.09671ZM17.0231 29.5982C9.2861 29.5982 2.99164 23.5991 2.99164 16.2251C2.99164 8.85118 9.2861 2.85206 17.0231 2.85206C24.76 2.85206 31.0545 8.85118 31.0545 16.2251C31.0545 23.5991 24.76 29.5982 17.0231 29.5982Z" fill="#C5903A"/>
<path d="M29.0617 4.75219C25.8463 1.68773 21.5712 0 17.0239 0C12.4767 0 8.20154 1.68773 4.98615 4.75219C1.77082 7.81678 0 11.8913 0 16.2251C0 20.559 1.77082 24.6335 4.98615 27.6981C8.20154 30.7626 12.4767 32.4503 17.0239 32.4503C21.5712 32.4503 25.8463 30.7626 29.0617 27.6981C32.277 24.6335 34.0479 20.559 34.0479 16.2251C34.0479 11.8913 32.277 7.81678 29.0617 4.75219ZM17.0239 31.4996C8.18691 31.4996 0.997496 24.6475 0.997496 16.2251C0.997496 7.80278 8.18691 0.950692 17.0239 0.950692C25.8609 0.950692 33.0504 7.80278 33.0504 16.2251C33.0504 24.6475 25.8609 31.4996 17.0239 31.4996Z" fill="#C5903A"/>
<path d="M5.98438 16.2251C5.98438 22.0264 10.9365 26.7461 17.0233 26.7461C23.1102 26.7461 28.0623 22.0264 28.0623 16.2251C28.0623 10.4238 23.1102 5.7041 17.0233 5.7041C10.9365 5.7041 5.98438 10.4238 5.98438 16.2251ZM17.0233 6.65479C22.5602 6.65479 27.0648 10.948 27.0648 16.2251C27.0648 21.5022 22.5602 25.7954 17.0233 25.7954C11.4864 25.7954 6.98187 21.5022 6.98187 16.2251C6.98187 10.948 11.4864 6.65479 17.0233 6.65479Z" fill="#C5903A"/>
<path d="M17.0244 24.8447C22.0112 24.8447 26.0684 20.978 26.0684 16.2251C26.0684 11.4722 22.0112 7.60547 17.0244 7.60547C12.0376 7.60547 7.98047 11.4722 7.98047 16.2251C7.98047 20.978 12.0376 24.8447 17.0244 24.8447ZM17.0244 23.894C12.5876 23.894 8.97796 20.4538 8.97796 16.2251C8.97796 14.6422 9.48383 13.1698 10.3495 11.947H23.6995C24.565 13.1698 25.0709 14.6422 25.0709 16.2251C25.0709 20.4538 21.4613 23.894 17.0244 23.894ZM17.0244 8.55616C19.3429 8.55616 21.435 9.49589 22.9047 10.9963H11.1441C12.6138 9.49589 14.706 8.55616 17.0244 8.55616Z" fill="#C5903A"/>
<path d="M17.0236 17.6511C17.8486 17.6511 18.5198 17.0115 18.5198 16.2251C18.5198 15.4388 17.8486 14.7991 17.0236 14.7991C16.1986 14.7991 15.5273 15.4388 15.5273 16.2251C15.5273 17.0115 16.1986 17.6511 17.0236 17.6511ZM17.0236 15.7498C17.2986 15.7498 17.5223 15.963 17.5223 16.2251C17.5223 16.4872 17.2986 16.7005 17.0236 16.7005C16.7485 16.7005 16.5248 16.4872 16.5248 16.2251C16.5248 15.963 16.7485 15.7498 17.0236 15.7498Z" fill="#C5903A"/>
<path d="M17.0244 19.5526C18.9495 19.5526 20.5157 18.0599 20.5157 16.2251C20.5157 14.3904 18.9495 12.8977 17.0244 12.8977C15.0994 12.8977 13.5332 14.3904 13.5332 16.2251C13.5332 18.0599 15.0994 19.5526 17.0244 19.5526ZM17.0244 13.8484C18.3995 13.8484 19.5182 14.9146 19.5182 16.2251C19.5182 17.5357 18.3995 18.6019 17.0244 18.6019C15.6494 18.6019 14.5307 17.5357 14.5307 16.2251C14.5307 14.9146 15.6494 13.8484 17.0244 13.8484Z" fill="#C5903A"/>
<path d="M21.2642 20.5032H12.782C12.5064 20.5032 12.2832 20.716 12.2832 20.9785C12.2832 21.241 12.5064 21.4539 12.782 21.4539H21.2643C21.5398 21.4539 21.763 21.241 21.763 20.9785C21.763 20.716 21.5397 20.5032 21.2642 20.5032Z" fill="#C5903A"/>
<path d="M17.0242 3.80273C14.7981 3.80273 12.5998 4.34786 10.6667 5.37917C10.4263 5.50739 10.3406 5.7971 10.4752 6.02615C10.6097 6.2552 10.9139 6.33696 11.1539 6.20875C12.9385 5.25666 14.9683 4.75343 17.0242 4.75343C23.6611 4.75343 29.0606 9.89959 29.0606 16.2251C29.0606 22.5506 23.6611 27.6968 17.0242 27.6968C10.3872 27.6968 4.98773 22.5506 4.98773 16.2251C4.98773 12.6971 6.65488 9.41638 9.56178 7.22415C9.77777 7.06126 9.81435 6.7623 9.64344 6.55645C9.47254 6.35053 9.15886 6.31573 8.9428 6.47862C5.79544 8.85224 3.99023 12.4047 3.99023 16.2251C3.99023 23.0749 9.83722 28.6475 17.0242 28.6475C24.2111 28.6475 30.0581 23.0749 30.0581 16.2251C30.0581 9.37538 24.2111 3.80273 17.0242 3.80273Z" fill="#C5903A"/>
</svg>
