<svg width="27" height="25" viewBox="0 0 27 25" fill="none" xmlns="http://www.w3.org/2000/svg">
<path d="M25.5517 17.0897H25.1034V8.11761H25.5517C26.2945 8.11761 26.8966 7.54377 26.8966 6.83588C26.8966 6.12799 26.2945 5.55415 25.5517 5.55415H25.1034V4.91329C25.1012 4.33774 24.7525 3.81458 24.2069 3.5679V1.28173C24.2069 0.57384 23.6048 0 22.8621 0H16.5862C15.8435 0 15.2414 0.57384 15.2414 1.28173V3.43973C14.4714 3.54451 13.8987 4.17197 13.8966 4.91329V5.55415H13V4.91329C13 4.08743 12.2976 3.41794 11.431 3.41794C10.5645 3.41794 9.86207 4.08743 9.86207 4.91329V5.55415H8.96552V4.91329C8.96552 4.08743 8.26307 3.41794 7.39655 3.41794C6.53003 3.41794 5.82759 4.08743 5.82759 4.91329V5.55415H4.93103V4.91329C4.93103 4.08743 4.22859 3.41794 3.36207 3.41794C2.49555 3.41794 1.7931 4.08743 1.7931 4.91329V5.55415H1.34483C0.602091 5.55415 0 6.12799 0 6.83588C0 7.54377 0.602091 8.11761 1.34483 8.11761H1.7931V17.0897H1.34483C0.602091 17.0897 0 17.6635 0 18.3714C0 19.0793 0.602091 19.6531 1.34483 19.6531H1.81597C1.92591 20.387 2.58425 20.9328 3.36207 20.9349C3.43721 20.9328 3.51213 20.9255 3.58621 20.9131V23.9256H0.896552C0.648991 23.9256 0.448276 24.1169 0.448276 24.3528C0.448276 24.5888 0.648991 24.7801 0.896552 24.7801H26C26.2476 24.7801 26.4483 24.5888 26.4483 24.3528C26.4483 24.1169 26.2476 23.9256 26 23.9256H23.3103V20.9131C23.3844 20.9255 23.4593 20.9328 23.5345 20.9349C24.3123 20.9328 24.9706 20.387 25.0806 19.6531H25.5517C26.2945 19.6531 26.8966 19.0793 26.8966 18.3714C26.8966 17.6635 26.2945 17.0897 25.5517 17.0897ZM25.1034 6.40864H25.5517C25.7993 6.40864 26 6.59993 26 6.83588C26 7.07182 25.7993 7.26312 25.5517 7.26312H25.1034V6.40864ZM1.7931 18.7987H1.34483C1.09727 18.7987 0.896552 18.6074 0.896552 18.3714C0.896552 18.1355 1.09727 17.9442 1.34483 17.9442H1.7931V18.7987ZM1.7931 7.26312H1.34483C1.09727 7.26312 0.896552 7.07182 0.896552 6.83588C0.896552 6.59993 1.09727 6.40864 1.34483 6.40864H1.7931V7.26312ZM4.03448 19.4395C4.03448 19.7934 3.73341 20.0804 3.36207 20.0804C2.99073 20.0804 2.68966 19.7934 2.68966 19.4395V4.91329C2.68966 4.55937 2.99073 4.27242 3.36207 4.27242C3.73341 4.27242 4.03448 4.55937 4.03448 4.91329V19.4395ZM4.93103 6.40864H5.82759V18.7987H4.93103V6.40864ZM6.27586 23.9256H4.48276V23.0711H6.27586V23.9256ZM6.27586 20.5076V22.2166H4.48276V20.5076C4.48276 20.5004 4.47872 20.4948 4.47872 20.4876C4.71166 20.2603 4.86217 19.9679 4.90817 19.6531H5.84955C5.89556 19.9679 6.04606 20.2603 6.279 20.4876C6.2799 20.4948 6.27586 20.5004 6.27586 20.5076ZM14.7931 4.91329C14.7931 4.55937 15.0942 4.27242 15.4655 4.27242C15.8369 4.27242 16.1379 4.55937 16.1379 4.91329V19.4395C16.1379 19.7934 15.8369 20.0804 15.4655 20.0804C15.0942 20.0804 14.7931 19.7934 14.7931 19.4395V4.91329ZM13 6.40864H13.8966V18.7987H13V6.40864ZM10.7586 4.91329C10.7586 4.55937 11.0597 4.27242 11.431 4.27242C11.8024 4.27242 12.1034 4.55937 12.1034 4.91329V19.4395C12.1034 19.7934 11.8024 20.0804 11.431 20.0804C11.0597 20.0804 10.7586 19.7934 10.7586 19.4395V4.91329ZM8.96552 6.40864H9.86207V18.7987H8.96552V6.40864ZM6.72414 19.4395V4.91329C6.72414 4.55937 7.02521 4.27242 7.39655 4.27242C7.76789 4.27242 8.06897 4.55937 8.06897 4.91329V19.4395C8.06897 19.7934 7.76789 20.0804 7.39655 20.0804C7.02521 20.0804 6.72414 19.7934 6.72414 19.4395ZM19.7241 23.9256H7.17241V20.9131C7.24649 20.9255 7.32141 20.9328 7.39655 20.9349C8.17437 20.9328 8.83272 20.387 8.94265 19.6531H9.88403C10.0024 20.4672 10.7908 21.0357 11.645 20.9228C12.3371 20.8313 12.8812 20.3128 12.9771 19.6531H13.9185C14.0369 20.4672 14.8253 21.0357 15.6795 20.9228C16.3716 20.8313 16.9157 20.3128 17.0116 19.6531H17.953C18.063 20.3873 18.7218 20.9332 19.5 20.9349C19.5751 20.9328 19.6501 20.9255 19.7241 20.9131V23.9256ZM17.0345 18.7987V6.40864H17.931V18.7987H17.0345ZM20.1724 19.4395C20.1724 19.7934 19.8713 20.0804 19.5 20.0804C19.1287 20.0804 18.8276 19.7934 18.8276 19.4395V4.91329C18.8276 4.55937 19.1287 4.27242 19.5 4.27242C19.8713 4.27242 20.1724 4.55937 20.1724 4.91329V19.4395ZM22.4138 23.9256H20.6207V23.0711H22.4138V23.9256ZM22.4138 20.5076V22.2166H20.6207V20.5076C20.6207 20.5004 20.6167 20.4948 20.6167 20.4876C20.8496 20.2603 21.0001 19.9679 21.0461 19.6531H21.9875C22.0335 19.9679 22.184 20.2603 22.4169 20.4876C22.4178 20.4948 22.4138 20.5004 22.4138 20.5076ZM21.069 18.7987V6.40864H21.9655V18.7987H21.069ZM21.9655 4.91329V5.55415H21.069V4.91329C21.069 4.08743 20.3665 3.41794 19.5 3.41794C18.6335 3.41794 17.931 4.08743 17.931 4.91329V5.55415H17.0345V4.91329C17.0322 4.33774 16.6835 3.81458 16.1379 3.5679V1.28173C16.1379 1.04578 16.3386 0.854485 16.5862 0.854485H22.8621C23.1096 0.854485 23.3103 1.04578 23.3103 1.28173V3.43973C22.5404 3.54451 21.9677 4.17197 21.9655 4.91329ZM24.2069 19.4395C24.2069 19.7934 23.9058 20.0804 23.5345 20.0804C23.1631 20.0804 22.8621 19.7934 22.8621 19.4395V4.91329C22.8621 4.55937 23.1631 4.27242 23.5345 4.27242C23.9058 4.27242 24.2069 4.55937 24.2069 4.91329V19.4395ZM25.5517 18.7987H25.1034V17.9442H25.5517C25.7993 17.9442 26 18.1355 26 18.3714C26 18.6074 25.7993 18.7987 25.5517 18.7987Z" fill="#C5903A"/>
<path d="M17.4825 2.99046C17.9776 2.99046 18.379 2.6079 18.379 2.13598C18.379 1.66406 17.9776 1.28149 17.4825 1.28149C16.9873 1.28149 16.5859 1.66406 16.5859 2.13598C16.5859 2.6079 16.9873 2.99046 17.4825 2.99046Z" fill="#C5903A"/>
<path d="M19.7247 2.99046C20.2198 2.99046 20.6212 2.6079 20.6212 2.13598C20.6212 1.66406 20.2198 1.28149 19.7247 1.28149C19.2295 1.28149 18.8281 1.66406 18.8281 2.13598C18.8281 2.6079 19.2295 2.99046 19.7247 2.99046Z" fill="#C5903A"/>
<path d="M21.9649 2.99046C22.4601 2.99046 22.8615 2.6079 22.8615 2.13598C22.8615 1.66406 22.4601 1.28149 21.9649 1.28149C21.4698 1.28149 21.0684 1.66406 21.0684 2.13598C21.0684 2.6079 21.4698 2.99046 21.9649 2.99046Z" fill="#C5903A"/>
</svg>
