<svg width="29" height="29" viewBox="0 0 29 29" fill="none" xmlns="http://www.w3.org/2000/svg">
<path d="M28.7305 27.6803L26.8143 19.0577C26.766 18.8387 26.5715 18.6826 26.3468 18.6826H24.4308V17.7245C24.4308 15.7738 22.9652 14.1598 21.0776 13.9232V10.1778C21.0776 9.05631 20.165 8.14375 19.0436 8.14375H17.7244V5.26953C17.7244 2.36416 15.3603 0.00012207 12.4549 0.00012207C10.9544 0.00012207 9.5983 0.630765 8.63769 1.64084C8.17619 1.50836 7.68903 1.43723 7.18554 1.43723C4.28017 1.43723 1.91612 3.80127 1.91612 6.70664V8.1474C0.849353 8.20881 0 9.09594 0 10.1778V27.7843C0 28.0487 0.214612 28.2633 0.479017 28.2633H4.31132H12.9338H12.934H28.2629C28.4085 28.2633 28.546 28.1972 28.6371 28.0837C28.7276 27.9707 28.7621 27.8221 28.7305 27.6803ZM23.4727 17.7245V18.6826H21.0775V14.891C22.4353 15.1197 23.4727 16.3027 23.4727 17.7245ZM17.7243 18.6826V17.7245C17.7243 16.3026 18.7618 15.1197 20.1195 14.891V18.6826H17.7243V18.6826ZM12.4549 0.958268C14.8319 0.958268 16.7663 2.89264 16.7663 5.26959V8.1438H12.4549V6.7067C12.4549 4.6765 11.3004 2.91088 9.61369 2.03121C10.3731 1.36414 11.3673 0.958268 12.4549 0.958268ZM8.14363 8.1438V5.26959C8.14363 4.33918 8.44098 3.47736 8.94425 2.772C10.4469 3.44648 11.4969 4.95595 11.4969 6.7067V8.1438H8.14363ZM7.18554 2.39543C7.46106 2.39543 7.73029 2.42249 7.99155 2.47217C7.48127 3.28335 7.18554 4.24256 7.18554 5.26959V8.1438H5.91465H2.87421V6.7067C2.87421 4.32974 4.80858 2.39543 7.18554 2.39543ZM0.95809 10.1778C0.95809 9.58479 1.44098 9.10189 2.03401 9.10189H4.16329C3.95423 9.42648 3.8323 9.81225 3.8323 10.2262V27.3053H0.95809V10.1778ZM4.79034 10.2262C4.79034 9.60634 5.29479 9.10189 5.91465 9.10189H7.18554V12.9342C7.18554 13.1986 7.40015 13.4132 7.66455 13.4132C7.92896 13.4132 8.14357 13.1986 8.14357 12.9342V9.10189H16.7662V12.9342C16.7662 13.1986 16.9808 13.4132 17.2452 13.4132C17.5096 13.4132 17.7242 13.1986 17.7242 12.9342V9.10189H19.0435C19.6366 9.10189 20.1194 9.58479 20.1194 10.1778V13.9233C18.2318 14.1599 16.7662 15.7738 16.7662 17.7245V18.6826H14.8499C14.6257 18.6826 14.4313 18.8388 14.3824 19.0577L12.5496 27.3053H4.79034V10.2262ZM13.5311 27.3053L15.2346 19.6407H16.7663V22.9939C16.7663 23.2584 16.9809 23.473 17.2453 23.473C17.5097 23.473 17.7243 23.2584 17.7243 22.9939V19.6407H23.4727V22.9939C23.4727 23.2584 23.6873 23.473 23.9517 23.473C24.2162 23.473 24.4308 23.2584 24.4308 22.9939V19.6407H25.9625L27.666 27.3053H13.5311Z" fill="#C5903A"/>
</svg>
