<svg width="35" height="33" viewBox="0 0 35 33" fill="none" xmlns="http://www.w3.org/2000/svg">
<path d="M27.651 6.09683C24.8124 3.39141 21.0383 1.90149 17.0239 1.90149C13.0096 1.90149 9.23548 3.39141 6.39688 6.09683C3.55827 8.80225 1.995 12.3992 1.995 16.2253C1.995 20.0513 3.55827 23.6483 6.39688 26.3537C9.23548 29.0591 13.0096 30.549 17.0239 30.549C21.0383 30.549 24.8124 29.0591 27.651 26.3537C30.4896 23.6483 32.0529 20.0513 32.0529 16.2253C32.0529 12.3992 30.4896 8.80225 27.651 6.09683ZM17.0239 29.5983C9.28695 29.5983 2.99249 23.5992 2.99249 16.2253C2.99249 8.8513 9.28695 2.85218 17.0239 2.85218C24.7609 2.85218 31.0554 8.8513 31.0554 16.2253C31.0554 23.5992 24.7609 29.5983 17.0239 29.5983Z" fill="#C5903A"/>
<path d="M29.0617 4.75232C25.8463 1.68785 21.5712 0.00012207 17.0239 0.00012207C12.4767 0.00012207 8.20154 1.68785 4.98615 4.75232C1.77082 7.81691 0 11.8914 0 16.2253C0 20.5592 1.77082 24.6336 4.98615 27.6982C8.20154 30.7627 12.4767 32.4504 17.0239 32.4504C21.5712 32.4504 25.8463 30.7627 29.0617 27.6982C32.277 24.6336 34.0479 20.5592 34.0479 16.2253C34.0479 11.8914 32.277 7.81691 29.0617 4.75232ZM17.0239 31.4997C8.18691 31.4997 0.997496 24.6476 0.997496 16.2253C0.997496 7.8029 8.18691 0.950814 17.0239 0.950814C25.8609 0.950814 33.0504 7.8029 33.0504 16.2253C33.0504 24.6476 25.8609 31.4997 17.0239 31.4997Z" fill="#C5903A"/>
<path d="M5.98499 16.2253C5.98499 22.0267 10.9371 26.7463 17.0239 26.7463C23.1108 26.7463 28.0629 22.0267 28.0629 16.2253C28.0629 10.424 23.1108 5.70435 17.0239 5.70435C10.9371 5.70435 5.98499 10.424 5.98499 16.2253ZM17.0239 6.65504C22.5608 6.65504 27.0654 10.9482 27.0654 16.2253C27.0654 21.5024 22.5608 25.7956 17.0239 25.7956C11.487 25.7956 6.98248 21.5024 6.98248 16.2253C6.98248 10.9482 11.487 6.65504 17.0239 6.65504Z" fill="#C5903A"/>
<path d="M17.0239 24.8449C22.0108 24.8449 26.0679 20.9782 26.0679 16.2253C26.0679 11.4724 22.0108 7.60571 17.0239 7.60571C12.0371 7.60571 7.97998 11.4724 7.97998 16.2253C7.97998 20.9782 12.0371 24.8449 17.0239 24.8449ZM17.0239 23.8942C12.5871 23.8942 8.97748 20.454 8.97748 16.2253C8.97748 14.6424 9.48334 13.1701 10.349 11.9472H23.699C24.5645 13.1701 25.0704 14.6424 25.0704 16.2253C25.0704 20.454 21.4608 23.8942 17.0239 23.8942ZM17.0239 8.55641C19.3424 8.55641 21.4345 9.49613 22.9042 10.9965H11.1436C12.6133 9.49613 14.7055 8.55641 17.0239 8.55641Z" fill="#C5903A"/>
<path d="M17.024 17.6513C17.8489 17.6513 18.5202 17.0116 18.5202 16.2252C18.5202 15.4389 17.8489 14.7992 17.024 14.7992C16.199 14.7992 15.5277 15.4389 15.5277 16.2252C15.5277 17.0116 16.199 17.6513 17.024 17.6513ZM17.024 15.7499C17.299 15.7499 17.5227 15.9631 17.5227 16.2252C17.5227 16.4874 17.299 16.7006 17.024 16.7006C16.7489 16.7006 16.5252 16.4874 16.5252 16.2252C16.5252 15.9631 16.7489 15.7499 17.024 15.7499Z" fill="#C5903A"/>
<path d="M17.0239 19.5527C18.949 19.5527 20.5152 18.06 20.5152 16.2253C20.5152 14.3905 18.949 12.8978 17.0239 12.8978C15.0989 12.8978 13.5327 14.3905 13.5327 16.2253C13.5327 18.06 15.0989 19.5527 17.0239 19.5527ZM17.0239 13.8485C18.399 13.8485 19.5177 14.9147 19.5177 16.2253C19.5177 17.5358 18.399 18.602 17.0239 18.602C15.6489 18.602 14.5302 17.5358 14.5302 16.2253C14.5302 14.9147 15.6489 13.8485 17.0239 13.8485Z" fill="#C5903A"/>
<path d="M21.265 20.5034H12.7828C12.5073 20.5034 12.2841 20.7162 12.2841 20.9788C12.2841 21.2413 12.5073 21.4541 12.7828 21.4541H21.2651C21.5406 21.4541 21.7639 21.2413 21.7639 20.9788C21.7639 20.7162 21.5406 20.5034 21.265 20.5034Z" fill="#C5903A"/>
<path d="M17.0239 3.80286C14.7979 3.80286 12.5995 4.34798 10.6665 5.37929C10.4261 5.50751 10.3404 5.79722 10.4749 6.02627C10.6094 6.25533 10.9136 6.33709 11.1537 6.20887C12.9383 5.25678 14.9681 4.75355 17.0239 4.75355C23.6609 4.75355 29.0604 9.89971 29.0604 16.2252C29.0604 22.5508 23.6609 27.6969 17.0239 27.6969C10.387 27.6969 4.98749 22.5508 4.98749 16.2252C4.98749 12.6972 6.65463 9.4165 9.56154 7.22427C9.77753 7.06139 9.8141 6.76242 9.6432 6.55657C9.47229 6.35065 9.15861 6.31585 8.94256 6.47874C5.79519 8.85236 3.98999 12.4048 3.98999 16.2252C3.98999 23.075 9.83698 28.6476 17.0239 28.6476C24.2109 28.6476 30.0579 23.075 30.0579 16.2252C30.0579 9.3755 24.2109 3.80286 17.0239 3.80286Z" fill="#C5903A"/>
</svg>
