<svg width="28" height="21" viewBox="0 0 28 21" fill="none" xmlns="http://www.w3.org/2000/svg">
<path d="M3.26555 8.86289C3.48671 8.86289 3.66599 8.68361 3.66599 8.46245C3.66599 8.2413 3.48671 8.06201 3.26555 8.06201C3.0444 8.06201 2.86511 8.2413 2.86511 8.46245C2.86511 8.68361 3.0444 8.86289 3.26555 8.86289Z" fill="#C5903A"/>
<path d="M5.04735 8.86289C5.26851 8.86289 5.44779 8.68361 5.44779 8.46245C5.44779 8.2413 5.26851 8.06201 5.04735 8.06201C4.8262 8.06201 4.64691 8.2413 4.64691 8.46245C4.64691 8.68361 4.8262 8.86289 5.04735 8.86289Z" fill="#C5903A"/>
<path d="M9.60698 8.86289C9.82814 8.86289 10.0074 8.68361 10.0074 8.46245C10.0074 8.2413 9.82814 8.06201 9.60698 8.06201C9.38583 8.06201 9.20654 8.2413 9.20654 8.46245C9.20654 8.68361 9.38583 8.86289 9.60698 8.86289Z" fill="#C5903A"/>
<path d="M11.3887 8.86289C11.6098 8.86289 11.7891 8.68361 11.7891 8.46245C11.7891 8.2413 11.6098 8.06201 11.3887 8.06201C11.1675 8.06201 10.9882 8.2413 10.9882 8.46245C10.9882 8.68361 11.1675 8.86289 11.3887 8.86289Z" fill="#C5903A"/>
<path d="M16.2861 8.86289C16.5072 8.86289 16.6865 8.68361 16.6865 8.46245C16.6865 8.2413 16.5072 8.06201 16.2861 8.06201C16.0649 8.06201 15.8856 8.2413 15.8856 8.46245C15.8856 8.68361 16.0649 8.86289 16.2861 8.86289Z" fill="#C5903A"/>
<path d="M18.0677 8.86289C18.2888 8.86289 18.4681 8.68361 18.4681 8.46245C18.4681 8.2413 18.2888 8.06201 18.0677 8.06201C17.8465 8.06201 17.6672 8.2413 17.6672 8.46245C17.6672 8.68361 17.8465 8.86289 18.0677 8.86289Z" fill="#C5903A"/>
<path d="M22.2894 8.86289C22.5106 8.86289 22.6899 8.68361 22.6899 8.46245C22.6899 8.2413 22.5106 8.06201 22.2894 8.06201C22.0683 8.06201 21.889 8.2413 21.889 8.46245C21.889 8.68361 22.0683 8.86289 22.2894 8.86289Z" fill="#C5903A"/>
<path d="M24.0712 8.86289C24.2924 8.86289 24.4717 8.68361 24.4717 8.46245C24.4717 8.2413 24.2924 8.06201 24.0712 8.06201C23.8501 8.06201 23.6708 8.2413 23.6708 8.46245C23.6708 8.68361 23.8501 8.86289 24.0712 8.86289Z" fill="#C5903A"/>
<path d="M3.26555 16.4612C3.48671 16.4612 3.66599 16.2819 3.66599 16.0607C3.66599 15.8396 3.48671 15.6603 3.26555 15.6603C3.0444 15.6603 2.86511 15.8396 2.86511 16.0607C2.86511 16.2819 3.0444 16.4612 3.26555 16.4612Z" fill="#C5903A"/>
<path d="M5.04735 16.4612C5.26851 16.4612 5.44779 16.2819 5.44779 16.0607C5.44779 15.8396 5.26851 15.6603 5.04735 15.6603C4.8262 15.6603 4.64691 15.8396 4.64691 16.0607C4.64691 16.2819 4.8262 16.4612 5.04735 16.4612Z" fill="#C5903A"/>
<path d="M9.60698 16.4612C9.82814 16.4612 10.0074 16.2819 10.0074 16.0607C10.0074 15.8396 9.82814 15.6603 9.60698 15.6603C9.38583 15.6603 9.20654 15.8396 9.20654 16.0607C9.20654 16.2819 9.38583 16.4612 9.60698 16.4612Z" fill="#C5903A"/>
<path d="M11.3887 16.4612C11.6098 16.4612 11.7891 16.2819 11.7891 16.0607C11.7891 15.8396 11.6098 15.6603 11.3887 15.6603C11.1675 15.6603 10.9882 15.8396 10.9882 16.0607C10.9882 16.2819 11.1675 16.4612 11.3887 16.4612Z" fill="#C5903A"/>
<path d="M15.9481 16.4612C16.1693 16.4612 16.3486 16.2819 16.3486 16.0607C16.3486 15.8396 16.1693 15.6603 15.9481 15.6603C15.727 15.6603 15.5477 15.8396 15.5477 16.0607C15.5477 16.2819 15.727 16.4612 15.9481 16.4612Z" fill="#C5903A"/>
<path d="M17.7299 16.4612C17.9511 16.4612 18.1303 16.2819 18.1303 16.0607C18.1303 15.8396 17.9511 15.6603 17.7299 15.6603C17.5088 15.6603 17.3295 15.8396 17.3295 16.0607C17.3295 16.2819 17.5088 16.4612 17.7299 16.4612Z" fill="#C5903A"/>
<path d="M22.2894 16.4612C22.5106 16.4612 22.6899 16.2819 22.6899 16.0607C22.6899 15.8396 22.5106 15.6603 22.2894 15.6603C22.0683 15.6603 21.889 15.8396 21.889 16.0607C21.889 16.2819 22.0683 16.4612 22.2894 16.4612Z" fill="#C5903A"/>
<path d="M24.0712 16.4612C24.2924 16.4612 24.4717 16.2819 24.4717 16.0607C24.4717 15.8396 24.2924 15.6603 24.0712 15.6603C23.8501 15.6603 23.6708 15.8396 23.6708 16.0607C23.6708 16.2819 23.8501 16.4612 24.0712 16.4612Z" fill="#C5903A"/>
<path d="M26.6591 10.2203C27.0328 10.2203 27.3368 9.91632 27.3368 9.54263V7.3795C27.3368 7.00581 27.0328 6.70185 26.6591 6.70185H25.8702V4.47764C25.8702 4.167 25.7883 3.86048 25.6332 3.59122L23.7572 0.333662C23.6387 0.127943 23.4177 0.000175433 23.1803 0.000175433C22.9429 0.000175433 22.7219 0.127996 22.6034 0.333662L20.7273 3.59122C20.5724 3.86053 20.4904 4.16706 20.4904 4.47764V6.70185H19.5289V4.47764C19.5289 4.16695 19.4469 3.86037 19.2918 3.59122L17.4158 0.333662C17.2973 0.127943 17.0763 0.000175433 16.839 0.000175433C16.6016 0.000175433 16.3805 0.127943 16.2621 0.333662L14.3861 3.59117C14.231 3.86037 14.1491 4.16695 14.1491 4.47764V6.70185H13.1875V4.47764C13.1875 4.16706 13.1056 3.86053 12.9505 3.59122L11.0745 0.333662C10.9561 0.127943 10.7351 0.000175433 10.4976 0.000175433C10.2603 0.000175433 10.0392 0.127943 9.92073 0.333662L8.04469 3.59122C7.8897 3.86048 7.80774 4.167 7.80774 4.47764V6.70185H6.84615V4.47764C6.84615 4.16695 6.76419 3.86037 6.60914 3.59122L4.73337 0.333609C4.61489 0.127889 4.3939 0.00012207 4.15647 0.00012207C3.91909 0.00012207 3.69804 0.127943 3.57957 0.333609L1.70358 3.59111C1.54853 3.86032 1.46657 4.1669 1.46657 4.47758V6.70179H0.677706C0.304015 6.70185 0 7.00586 0 7.3795V9.54263C0 9.91632 0.304015 10.2203 0.677706 10.2203H1.46657V11.1639C1.46657 11.3851 1.64581 11.5644 1.86702 11.5644C2.08822 11.5644 2.26746 11.3851 2.26746 11.1639V10.2203H6.04543V14.3015H2.26751V12.7657C2.26751 12.5445 2.08827 12.3653 1.86707 12.3653C1.64587 12.3653 1.46663 12.5445 1.46663 12.7657V14.3015H0.677706C0.304015 14.3015 0 14.6055 0 14.9792V17.1423C0 17.516 0.304015 17.82 0.677706 17.82H1.46657V20.4012C1.46657 20.6224 1.64581 20.8017 1.86702 20.8017H6.44587C6.66707 20.8017 6.84631 20.6224 6.84631 20.4012V17.82H7.8079V20.4012C7.8079 20.6224 7.98714 20.8017 8.20834 20.8017H12.7872C13.0084 20.8017 13.1876 20.6224 13.1876 20.4012V17.82H14.1492V20.4012C14.1492 20.6224 14.3284 20.8017 14.5496 20.8017H19.1285C19.3497 20.8017 19.5289 20.6224 19.5289 20.4012V17.82H20.4904V20.4012C20.4904 20.6224 20.6697 20.8017 20.8909 20.8017H25.4697C25.6909 20.8017 25.8702 20.6224 25.8702 20.4012V17.82H26.6591C27.0328 17.82 27.3368 17.5159 27.3368 17.1423V14.9792C27.3368 14.6055 27.0328 14.3015 26.6591 14.3015H25.8702V10.2203H26.6591ZM21.2913 4.47764C21.2913 4.3071 21.3363 4.13876 21.4214 3.99086L23.1803 0.936726L24.9391 3.99086C25.0242 4.13876 25.0692 4.30705 25.0692 4.47769V6.7019H21.2913V4.47764ZM14.9501 4.47764C14.9501 4.30705 14.9951 4.1387 15.0802 3.99086L16.8391 0.936779L18.5979 3.99092C18.683 4.13876 18.728 4.30705 18.728 4.47769V6.7019H14.9501V4.47764ZM8.60878 4.47764C8.60878 4.30705 8.65379 4.1387 8.73885 3.99086L10.4977 0.936726L12.2565 3.99086C12.3417 4.13881 12.3866 4.3071 12.3866 4.47769V6.7019H8.60868V4.47764H8.60878ZM2.26751 4.47764C2.26751 4.30705 2.31252 4.1387 2.39768 3.99086L4.15652 0.936726L5.91531 3.99092C6.00047 4.13876 6.04548 4.30705 6.04548 4.47769V6.7019H2.26751V4.47764ZM0.800882 7.50273H26.5359V9.41945H0.800882V7.50273ZM19.5289 14.3015V10.2203H20.4904V14.3015H19.5289ZM13.1876 14.3015V10.2203H14.1492V14.3015H13.1876ZM12.3868 10.2203V14.3015H8.60878V10.2203H12.3868ZM6.84631 10.2203H7.8079V14.3015H6.84631V10.2203ZM6.04548 20.0008H2.26751V17.82H6.04548V20.0008ZM12.3868 20.0008H8.60878V17.82H12.3868V20.0008ZM18.728 20.0008H14.9501V17.82H18.728V20.0008ZM25.0692 20.0008H21.2913V17.82H25.0692V20.0008ZM26.5359 17.0191H0.800882V15.1023H16.8391C17.0603 15.1023 17.2395 14.9231 17.2395 14.7019C17.2395 14.4808 17.0603 14.3015 16.8391 14.3015H14.9501V10.2203H18.728V14.3015H18.4408C18.2196 14.3015 18.0404 14.4808 18.0404 14.7019C18.0404 14.9231 18.2196 15.1023 18.4408 15.1023H26.5359V17.0191ZM25.0692 14.3015H21.2913V10.2203H25.0692V14.3015Z" fill="#C5903A"/>
</svg>
