<svg width="37" height="15" viewBox="0 0 37 15" fill="none" xmlns="http://www.w3.org/2000/svg">
<path d="M35.7516 9.18007V7.83924C35.7516 5.99059 34.1737 4.48663 32.234 4.48663H29.4086C29.3899 4.44691 29.3662 4.40868 29.336 4.37323L26.1892 0.678875C26.1845 0.673433 26.1798 0.668127 26.175 0.662889C25.785 0.241679 25.2235 0.00012207 24.6342 0.00012207H18.1872C17.8915 0.00012207 17.6519 0.228549 17.6519 0.510308C17.6519 0.792067 17.8915 1.02049 18.1872 1.02049H18.6502V4.48663H14.8087V1.02049H16.0459C16.3415 1.02049 16.5812 0.792067 16.5812 0.510308C16.5812 0.228549 16.3415 0.00012207 16.0459 0.00012207H5.04805C3.5567 0.00012207 2.34334 1.15655 2.34334 2.57799V4.48663H2.30287C1.36567 4.48663 0.603108 5.21341 0.603108 6.10671V9.18007C0.253234 9.29109 0 9.6055 0 9.97576V11.1006C0 11.5632 0.394911 11.9395 0.880324 11.9395H2.93096C2.94167 11.9395 2.95216 11.9385 2.96272 11.938C3.4258 13.2659 4.74621 14.2269 6.29973 14.2269C7.85268 14.2269 9.1726 13.2665 9.63617 11.9395H16.0714C16.367 11.9395 16.6067 11.7111 16.6067 11.4293C16.6067 11.1476 16.367 10.9191 16.0714 10.9191H9.81353C9.8136 10.9108 9.81418 10.9026 9.81418 10.8943C9.81418 10.6409 9.7832 10.3944 9.72646 10.157H24.7685C24.7117 10.3944 24.6808 10.6409 24.6808 10.8943C24.6808 10.9026 24.6813 10.9108 24.6814 10.9191H18.2127C17.917 10.9191 17.6773 11.1476 17.6773 11.4293C17.6773 11.7111 17.917 11.9395 18.2127 11.9395H24.8588C25.3223 13.2665 26.6423 14.2269 28.1952 14.2269C29.7481 14.2269 31.0681 13.2665 31.5316 11.9395H35.4744C35.9598 11.9395 36.3547 11.5631 36.3547 11.1006V9.97576C36.3546 9.60557 36.1014 9.29109 35.7516 9.18007ZM32.9416 5.6068C33.6934 5.82373 34.2929 6.3767 34.5477 7.08171H33.3905C33.1429 7.08171 32.9416 6.88975 32.9416 6.65377V5.6068ZM19.7208 1.02049H24.6342C24.9131 1.02049 25.1792 1.13355 25.3657 1.33103L28.0535 4.48663H19.7208V1.02049ZM9.58742 1.02049H13.7382V4.48663H9.58742V1.02049ZM5.55516 2.57799C5.55516 1.77836 6.18311 1.11253 7.0159 1.02913C7.0351 1.02723 7.05387 1.02424 7.07228 1.02049H8.51682V4.48663H5.55516V2.57799ZM3.41395 2.57799C3.41395 1.72469 4.13775 1.02981 5.03078 1.0209C4.68676 1.45456 4.48456 1.99468 4.48456 2.57799V4.48663H3.41395V2.57799ZM1.07061 10.9192V10.1571H2.87301C2.81627 10.3945 2.78529 10.641 2.78529 10.8944C2.78529 10.9027 2.78586 10.9109 2.78593 10.9192H1.07061ZM6.29973 13.2066C4.9522 13.2066 3.8559 12.1694 3.8559 10.8944C3.8559 9.61938 4.9522 8.58214 6.29973 8.58214C7.64727 8.58214 8.74357 9.61938 8.74357 10.8944C8.74357 12.1694 7.64727 13.2066 6.29973 13.2066ZM6.29973 7.56176C5.04177 7.56176 3.93669 8.19208 3.31567 9.13674H1.67371V6.10671C1.67371 5.77604 1.956 5.50701 2.30287 5.50701H18.6502V9.13674H9.2838C8.6627 8.19208 7.55762 7.56176 6.29973 7.56176ZM28.1952 13.2066C26.8477 13.2066 25.7514 12.1694 25.7514 10.8944C25.7514 9.61938 26.8477 8.58214 28.1952 8.58214C29.5427 8.58214 30.639 9.61938 30.639 10.8944C30.639 12.1694 29.5427 13.2066 28.1952 13.2066ZM28.1952 7.56176C26.9372 7.56176 25.8322 8.19208 25.2111 9.13674H19.7209V5.50701H31.871V6.65377C31.871 7.45238 32.5527 8.10208 33.3906 8.10208H34.6811V9.13674H31.2808C31.2481 9.13674 31.2162 9.13994 31.1851 9.14531C30.5651 8.19582 29.4569 7.56176 28.1952 7.56176ZM35.284 10.9192H31.709C31.7091 10.9109 31.7096 10.9027 31.7096 10.8944C31.7096 10.641 31.6787 10.3945 31.6219 10.1571H35.284V10.9192Z" fill="#C5903A"/>
<path d="M28.1953 9.3938C27.3238 9.3938 26.6147 10.0669 26.6147 10.8942C26.6147 11.7215 27.3238 12.3946 28.1953 12.3946C29.0669 12.3946 29.7759 11.7215 29.7759 10.8942C29.7758 10.0669 29.0669 9.3938 28.1953 9.3938ZM28.1953 11.3742C27.9141 11.3742 27.6854 11.1589 27.6854 10.8942C27.6854 10.6295 27.9141 10.4141 28.1953 10.4141C28.4765 10.4141 28.7053 10.6295 28.7053 10.8942C28.7052 11.1589 28.4765 11.3742 28.1953 11.3742Z" fill="#C5903A"/>
<path d="M6.29974 9.3938C5.42826 9.3938 4.71924 10.0669 4.71924 10.8942C4.71924 11.7215 5.42826 12.3946 6.29974 12.3946C7.17121 12.3946 7.88031 11.7215 7.88031 10.8942C7.88024 10.0669 7.17121 9.3938 6.29974 9.3938ZM6.29974 11.3742C6.0186 11.3742 5.78984 11.1589 5.78984 10.8942C5.78984 10.6295 6.0186 10.4141 6.29974 10.4141C6.58088 10.4141 6.8097 10.6295 6.8097 10.8942C6.80963 11.1589 6.58088 11.3742 6.29974 11.3742Z" fill="#C5903A"/>
<path d="M13.4892 5.96655H12.7738C12.4782 5.96655 12.2385 6.19498 12.2385 6.47674C12.2385 6.7585 12.4782 6.98693 12.7738 6.98693H13.4892C13.7848 6.98693 14.0245 6.7585 14.0245 6.47674C14.0245 6.19498 13.7848 5.96655 13.4892 5.96655Z" fill="#C5903A"/>
<path d="M22.0974 5.78418H21.382C21.0863 5.78418 20.8467 6.01261 20.8467 6.29437C20.8467 6.57612 21.0863 6.80455 21.382 6.80455H22.0974C22.3931 6.80455 22.6327 6.57612 22.6327 6.29437C22.6327 6.01261 22.3931 5.78418 22.0974 5.78418Z" fill="#C5903A"/>
</svg>
