<svg width="30" height="30" viewBox="0 0 30 30" fill="none" xmlns="http://www.w3.org/2000/svg">
<path d="M29.9865 19.5018C29.9942 18.084 28.9991 16.8581 27.61 16.5741L26.0777 14.1152C25.268 12.8136 23.7917 12.0054 22.225 12.0054H19.7482C19.7669 11.1675 19.6681 10.331 19.4546 9.52055C20.3556 9.09269 20.7416 8.01714 20.3182 7.11395L19.9444 6.32139C19.5652 5.51839 18.659 5.10965 17.8061 5.35685C17.3646 4.32752 16.6198 3.45725 15.671 2.8621C15.032 2.45504 14.3142 2.18754 13.5646 2.07728C13.4913 2.06479 13.4059 2.06323 13.3283 2.05461C12.8107 0.485978 11.1195 -0.366054 9.55077 0.151575C7.98208 0.669203 7.13011 2.36046 7.64774 3.92915C7.73332 4.18847 7.85401 4.43491 8.00644 4.66149C7.59614 5.32074 7.33057 6.05964 7.22731 6.82921C7.19364 7.07209 7.1769 7.31704 7.17733 7.5623C7.17559 8.43376 7.38286 9.29291 7.78173 10.0677C7.13717 10.5123 6.85012 11.3201 7.06957 12.0717C5.75645 12.2865 4.58776 13.0562 3.91939 14.1934L2.32083 16.881C2.19083 16.9202 2.05977 16.956 1.93096 16.9992C0.453786 17.4896 -0.346083 19.0846 0.144308 20.5617C0.302983 21.0396 0.586785 21.4663 0.966292 21.7974C0.368701 22.1568 0.00250073 22.8026 0.000751559 23.5V25.499C0.0008765 26.0683 0.243324 26.6107 0.667434 26.9905L1.33312 26.2448C1.12122 26.0548 1.00021 25.7836 1.00028 25.499V23.5C1.00103 22.9482 1.44806 22.5012 1.9998 22.5004H27.9874C28.5392 22.5012 28.9862 22.9482 28.9869 23.5V25.499C28.9862 26.0507 28.5392 26.4978 27.9874 26.4985H9.99599V27.4981H27.9874C29.091 27.4969 29.9853 26.6026 29.9865 25.499V23.5C29.984 22.78 29.5934 22.1173 28.9645 21.7667C29.6153 21.1939 29.9877 20.3686 29.9865 19.5018ZM25.2295 14.6437L26.4211 16.5563L21.1685 17.0116L19.2916 15.6037C19.2051 15.5387 19.0998 15.5036 18.9917 15.5037H18.7653C19.1862 14.8932 19.4747 14.2014 19.6125 13.4729C19.6412 13.3221 19.6653 13.1651 19.6853 13.0048H22.225C23.4491 13.0049 24.6004 13.6325 25.2295 14.6437ZM19.0396 6.74612L19.4144 7.54118C19.5808 7.89826 19.466 8.32325 19.1426 8.54808C19.1073 8.45724 19.0801 8.36067 19.042 8.27277L18.2039 6.28934C18.5522 6.24367 18.89 6.42834 19.0396 6.74612ZM16.9078 5.78908L18.123 8.66565C18.226 8.90391 18.3151 9.14798 18.3899 9.39655C18.7027 10.3891 18.8192 11.433 18.733 12.4701C18.715 12.745 18.6806 13.0186 18.6301 13.2895C18.5033 13.9741 18.2138 14.6182 17.786 15.1674C17.6891 15.2878 17.583 15.4005 17.4686 15.5044L13.0272 15.5481C12.02 14.9225 11.1641 14.0814 10.5207 13.0854C10.3787 12.8711 10.2484 12.6494 10.1303 12.4212L8.68962 9.65442C8.35571 9.01804 8.18048 8.3105 8.17886 7.59185L8.54075 7.72228L8.87946 6.78229L8.29343 6.57102C8.36202 6.26242 8.46297 5.96193 8.59466 5.67457L9.71912 6.42421L10.2736 5.59261L9.10423 4.81311C9.44426 4.36188 9.86631 3.97875 10.3482 3.68383L11.0531 5.18312L11.9579 4.75751L11.2527 3.25753C11.7667 3.08099 12.3088 3.00047 12.8519 3.02015L12.51 4.38787L13.4793 4.63L13.8485 3.15277C14.1749 3.23592 14.4907 3.3563 14.7896 3.51154L14.5764 4.10388L15.5164 4.44259L15.6459 4.08295C16.1962 4.5433 16.6287 5.12814 16.9078 5.78908ZM8.2472 10.9684L9.24441 12.8836C9.29252 12.9747 9.33812 13.0574 9.38216 13.1364C9.00272 13.2403 8.60378 13.0542 8.43961 12.6967L8.06529 11.9096C7.91742 11.5894 7.99064 11.2104 8.2472 10.9684ZM10.4958 1.0106C11.2193 1.01223 11.8853 1.40504 12.2369 2.03743C10.8681 2.15181 9.59169 2.77458 8.65913 3.78303C8.2244 2.77645 8.68793 1.60801 9.69451 1.17328C9.94745 1.06402 10.2203 1.00867 10.4958 1.0106ZM4.77973 14.7023C5.34102 13.7465 6.3611 13.1272 7.48912 13.0259L7.53479 13.122C7.95371 14.0253 9.02558 14.4181 9.92896 13.9992C9.93359 13.997 9.93821 13.9949 9.94277 13.9927L9.94596 13.9912C10.4002 14.626 10.9346 15.1993 11.5359 15.697L4.92809 16.3578C4.51085 16.3994 4.09593 16.4651 3.68356 16.5448L4.77973 14.7023ZM2.24724 17.9469C3.14925 17.6466 4.08175 17.4472 5.02767 17.3524L13.4943 16.5032H18.8253L19.7257 17.1787L13.9233 18.0069C13.8885 18.0119 13.8543 18.0206 13.8213 18.0327L4.40928 21.5003H2.82366C1.81657 21.5003 1.00015 20.6839 1.00021 19.6768C1.00028 18.8918 1.5026 18.195 2.24724 17.9469ZM27.0379 21.5008H26.0103L14.5376 20.4833C14.4682 20.4764 14.3983 20.485 14.3326 20.5083L11.4128 21.5008H7.29934L14.1171 18.9889L20.5888 18.065L26.9379 17.5028H27.0326C27.1029 17.5025 27.1732 17.5066 27.243 17.5149C28.2373 17.6243 28.9869 18.4783 28.9869 19.5018C28.9869 20.6043 28.1124 21.5008 27.0379 21.5008Z" fill="#C5903A"/>
<path d="M10.3274 11.2067L10.954 11.9856C11.4955 11.5511 12.1325 11.2515 12.8125 11.1115L12.6126 10.1324C11.7765 10.3043 10.9932 10.6726 10.3274 11.2067Z" fill="#C5903A"/>
<path d="M15.2776 12.7948C14.9223 12.9622 14.5361 13.0541 14.1434 13.0646L14.0614 13.0666L14.0848 14.0661L14.1663 14.0642C15.0338 14.0411 15.868 13.7259 16.5339 13.1696L15.8927 12.4033C15.7054 12.5597 15.4986 12.6913 15.2776 12.7948Z" fill="#C5903A"/>
<path d="M12.4342 9.78233L12.7173 8.82379C11.3049 8.40748 9.88469 9.0776 9.34052 10.4188L10.2668 10.7945C10.6192 9.92582 11.5094 9.51046 12.4342 9.78233Z" fill="#C5903A"/>
<path d="M13.7004 8.36156L14.6188 8.75512C14.9979 7.87029 15.8857 7.45056 16.7813 7.73167L17.082 6.779C15.7022 6.34202 14.28 7.0082 13.7004 8.36156Z" fill="#C5903A"/>
<path d="M13.1067 9.53284L14.0116 9.10688L15.3163 11.8786L14.4114 12.3046L13.1067 9.53284Z" fill="#C5903A"/>
<path d="M15.4274 9.94956C15.969 9.51508 16.6062 9.21547 17.2862 9.07535L17.0851 8.09631C16.2493 8.26829 15.4663 8.63649 14.8006 9.17049L15.4274 9.94956Z" fill="#C5903A"/>
<path d="M8.77079 25.5474C8.54503 25.1845 8.18282 24.9276 7.76565 24.8345C7.52045 24.7777 7.26751 24.7618 7.01713 24.7875C7.01151 24.7552 7.00514 24.7231 6.99726 24.6909C6.89563 24.28 6.62944 23.9291 6.26111 23.7206C5.52015 23.2915 4.55393 23.5131 4.10783 24.2149C3.98414 24.4091 3.89443 24.623 3.84258 24.8474C3.38961 24.771 2.92564 24.8928 2.56869 25.182L2.55294 25.1945C2.23335 25.4493 2.03432 25.8258 2.0037 26.2334C1.97372 26.6365 2.1129 27.0338 2.38796 27.3299L2.44106 27.3882C2.59199 27.5528 2.76797 27.6926 2.9625 27.8023C2.7649 28.199 2.7571 28.6637 2.9412 29.0668C3.30758 29.8351 4.20341 30.1921 4.99784 29.8865C5.22448 29.7989 5.43482 29.674 5.62017 29.517C5.92596 29.8241 6.34145 29.9967 6.77481 29.9968C6.81279 29.9968 6.85096 29.9955 6.88938 29.9928C7.31299 29.9665 7.70761 29.7688 7.98223 29.4451C8.24286 29.1396 8.36767 28.741 8.32794 28.3413C8.3052 28.1092 8.24336 27.8825 8.14503 27.671C8.55227 27.4781 8.85038 27.1114 8.95602 26.6734C9.04798 26.2884 8.98119 25.8826 8.77079 25.5474ZM7.54082 25.8085C7.69799 25.8422 7.83505 25.9377 7.92107 26.0735C7.99054 26.1825 8.01328 26.3148 7.98411 26.4407C7.93001 26.6668 7.70855 26.8234 7.45486 26.8301C7.08803 26.5597 6.64831 26.4059 6.19296 26.3888C6.42404 25.9329 6.98027 25.6788 7.54082 25.8085ZM4.95143 24.751C5.1111 24.4999 5.48149 24.4242 5.76017 24.5856C5.89217 24.6585 5.98843 24.7824 6.02635 24.9283C6.04278 24.9955 6.04409 25.0655 6.03016 25.1332C5.65459 25.3735 5.36673 25.7287 5.2093 26.1459C5.01727 25.9928 4.8809 25.7809 4.82111 25.5427C4.7539 25.2721 4.80106 24.9858 4.95143 24.751ZM3.00048 26.3076C3.01179 26.1746 3.07801 26.0524 3.18321 25.9702L3.19901 25.9577C3.39667 25.8013 3.67029 25.7828 3.88724 25.9111C4.02012 26.3315 4.28087 26.7001 4.6332 26.9654C4.14625 27.2128 3.55453 27.1105 3.17877 26.7141L3.12561 26.6559C3.03727 26.5622 2.99192 26.4361 3.00048 26.3076ZM4.63551 28.9552C4.33666 29.0714 3.97795 28.9341 3.85195 28.6554C3.76155 28.4598 3.81472 28.2279 3.9812 28.0913C4.01275 28.0926 4.04423 28.0936 4.07578 28.0936C4.51601 28.0951 4.9468 27.9663 5.31394 27.7235C5.36529 27.9315 5.34924 28.1504 5.26815 28.3486C5.15052 28.6298 4.92138 28.8495 4.63551 28.9552ZM7.21897 28.7998C7.11789 28.9167 6.97353 28.9875 6.81916 28.9957C6.56897 29.0146 6.33221 28.8801 6.22032 28.6555C6.36919 28.2509 6.38343 27.8091 6.26093 27.3957C6.82079 27.4628 7.27994 27.8907 7.33298 28.4378C7.34585 28.5689 7.30468 28.6997 7.21897 28.7998Z" fill="#C5903A"/>
</svg>
