<svg width="27" height="25" viewBox="0 0 27 25" fill="none" xmlns="http://www.w3.org/2000/svg">
<path d="M25.5517 17.0898H25.1034V8.11773H25.5517C26.2945 8.11773 26.8966 7.54389 26.8966 6.836C26.8966 6.12811 26.2945 5.55427 25.5517 5.55427H25.1034V4.91341C25.1012 4.33786 24.7525 3.8147 24.2069 3.56802V1.28185C24.2069 0.573962 23.6048 0.00012207 22.8621 0.00012207H16.5862C15.8435 0.00012207 15.2414 0.573962 15.2414 1.28185V3.43985C14.4714 3.54463 13.8987 4.17209 13.8966 4.91341V5.55427H13V4.91341C13 4.08755 12.2976 3.41806 11.431 3.41806C10.5645 3.41806 9.86207 4.08755 9.86207 4.91341V5.55427H8.96552V4.91341C8.96552 4.08755 8.26307 3.41806 7.39655 3.41806C6.53003 3.41806 5.82759 4.08755 5.82759 4.91341V5.55427H4.93103V4.91341C4.93103 4.08755 4.22859 3.41806 3.36207 3.41806C2.49555 3.41806 1.7931 4.08755 1.7931 4.91341V5.55427H1.34483C0.602091 5.55427 0 6.12811 0 6.836C0 7.54389 0.602091 8.11773 1.34483 8.11773H1.7931V17.0898H1.34483C0.602091 17.0898 0 17.6637 0 18.3715C0 19.0794 0.602091 19.6533 1.34483 19.6533H1.81597C1.92591 20.3871 2.58425 20.9329 3.36207 20.935C3.43721 20.933 3.51213 20.9257 3.58621 20.9132V23.9257H0.896552C0.648991 23.9257 0.448276 24.117 0.448276 24.3529C0.448276 24.5889 0.648991 24.7802 0.896552 24.7802H26C26.2476 24.7802 26.4483 24.5889 26.4483 24.3529C26.4483 24.117 26.2476 23.9257 26 23.9257H23.3103V20.9132C23.3844 20.9257 23.4593 20.933 23.5345 20.935C24.3123 20.9329 24.9706 20.3871 25.0806 19.6533H25.5517C26.2945 19.6533 26.8966 19.0794 26.8966 18.3715C26.8966 17.6637 26.2945 17.0898 25.5517 17.0898ZM25.1034 6.40876H25.5517C25.7993 6.40876 26 6.60006 26 6.836C26 7.07194 25.7993 7.26324 25.5517 7.26324H25.1034V6.40876ZM1.7931 18.7988H1.34483C1.09727 18.7988 0.896552 18.6075 0.896552 18.3715C0.896552 18.1356 1.09727 17.9443 1.34483 17.9443H1.7931V18.7988ZM1.7931 7.26324H1.34483C1.09727 7.26324 0.896552 7.07194 0.896552 6.836C0.896552 6.60006 1.09727 6.40876 1.34483 6.40876H1.7931V7.26324ZM4.03448 19.4396C4.03448 19.7936 3.73341 20.0805 3.36207 20.0805C2.99073 20.0805 2.68966 19.7936 2.68966 19.4396V4.91341C2.68966 4.55949 2.99073 4.27255 3.36207 4.27255C3.73341 4.27255 4.03448 4.55949 4.03448 4.91341V19.4396ZM4.93103 6.40876H5.82759V18.7988H4.93103V6.40876ZM6.27586 23.9257H4.48276V23.0712H6.27586V23.9257ZM6.27586 20.5078V22.2167H4.48276V20.5078C4.48276 20.5005 4.47872 20.4949 4.47872 20.4877C4.71166 20.2604 4.86217 19.968 4.90817 19.6533H5.84955C5.89556 19.968 6.04606 20.2604 6.279 20.4877C6.2799 20.4949 6.27586 20.5005 6.27586 20.5078ZM14.7931 4.91341C14.7931 4.55949 15.0942 4.27255 15.4655 4.27255C15.8369 4.27255 16.1379 4.55949 16.1379 4.91341V19.4396C16.1379 19.7936 15.8369 20.0805 15.4655 20.0805C15.0942 20.0805 14.7931 19.7936 14.7931 19.4396V4.91341ZM13 6.40876H13.8966V18.7988H13V6.40876ZM10.7586 4.91341C10.7586 4.55949 11.0597 4.27255 11.431 4.27255C11.8024 4.27255 12.1034 4.55949 12.1034 4.91341V19.4396C12.1034 19.7936 11.8024 20.0805 11.431 20.0805C11.0597 20.0805 10.7586 19.7936 10.7586 19.4396V4.91341ZM8.96552 6.40876H9.86207V18.7988H8.96552V6.40876ZM6.72414 19.4396V4.91341C6.72414 4.55949 7.02521 4.27255 7.39655 4.27255C7.76789 4.27255 8.06897 4.55949 8.06897 4.91341V19.4396C8.06897 19.7936 7.76789 20.0805 7.39655 20.0805C7.02521 20.0805 6.72414 19.7936 6.72414 19.4396ZM19.7241 23.9257H7.17241V20.9132C7.24649 20.9257 7.32141 20.933 7.39655 20.935C8.17437 20.9329 8.83272 20.3871 8.94265 19.6533H9.88403C10.0024 20.4673 10.7908 21.0358 11.645 20.9229C12.3371 20.8314 12.8812 20.3129 12.9771 19.6533H13.9185C14.0369 20.4673 14.8253 21.0358 15.6795 20.9229C16.3716 20.8314 16.9157 20.3129 17.0116 19.6533H17.953C18.063 20.3874 18.7218 20.9333 19.5 20.935C19.5751 20.933 19.6501 20.9257 19.7241 20.9132V23.9257ZM17.0345 18.7988V6.40876H17.931V18.7988H17.0345ZM20.1724 19.4396C20.1724 19.7936 19.8713 20.0805 19.5 20.0805C19.1287 20.0805 18.8276 19.7936 18.8276 19.4396V4.91341C18.8276 4.55949 19.1287 4.27255 19.5 4.27255C19.8713 4.27255 20.1724 4.55949 20.1724 4.91341V19.4396ZM22.4138 23.9257H20.6207V23.0712H22.4138V23.9257ZM22.4138 20.5078V22.2167H20.6207V20.5078C20.6207 20.5005 20.6167 20.4949 20.6167 20.4877C20.8496 20.2604 21.0001 19.968 21.0461 19.6533H21.9875C22.0335 19.968 22.184 20.2604 22.4169 20.4877C22.4178 20.4949 22.4138 20.5005 22.4138 20.5078ZM21.069 18.7988V6.40876H21.9655V18.7988H21.069ZM21.9655 4.91341V5.55427H21.069V4.91341C21.069 4.08755 20.3665 3.41806 19.5 3.41806C18.6335 3.41806 17.931 4.08755 17.931 4.91341V5.55427H17.0345V4.91341C17.0322 4.33786 16.6835 3.8147 16.1379 3.56802V1.28185C16.1379 1.0459 16.3386 0.854607 16.5862 0.854607H22.8621C23.1096 0.854607 23.3103 1.0459 23.3103 1.28185V3.43985C22.5404 3.54463 21.9677 4.17209 21.9655 4.91341ZM24.2069 19.4396C24.2069 19.7936 23.9058 20.0805 23.5345 20.0805C23.1631 20.0805 22.8621 19.7936 22.8621 19.4396V4.91341C22.8621 4.55949 23.1631 4.27255 23.5345 4.27255C23.9058 4.27255 24.2069 4.55949 24.2069 4.91341V19.4396ZM25.5517 18.7988H25.1034V17.9443H25.5517C25.7993 17.9443 26 18.1356 26 18.3715C26 18.6075 25.7993 18.7988 25.5517 18.7988Z" fill="#C5903A"/>
<path d="M17.4828 2.99071C17.9779 2.99071 18.3793 2.60814 18.3793 2.13622C18.3793 1.6643 17.9779 1.28174 17.4828 1.28174C16.9876 1.28174 16.5862 1.6643 16.5862 2.13622C16.5862 2.60814 16.9876 2.99071 17.4828 2.99071Z" fill="#C5903A"/>
<path d="M19.7242 2.99071C20.2193 2.99071 20.6207 2.60814 20.6207 2.13622C20.6207 1.6643 20.2193 1.28174 19.7242 1.28174C19.229 1.28174 18.8276 1.6643 18.8276 2.13622C18.8276 2.60814 19.229 2.99071 19.7242 2.99071Z" fill="#C5903A"/>
<path d="M21.9656 2.99071C22.4607 2.99071 22.8621 2.60814 22.8621 2.13622C22.8621 1.6643 22.4607 1.28174 21.9656 1.28174C21.4704 1.28174 21.069 1.6643 21.069 2.13622C21.069 2.60814 21.4704 2.99071 21.9656 2.99071Z" fill="#C5903A"/>
</svg>
