<svg width="30" height="28" viewBox="0 0 30 28" fill="none" xmlns="http://www.w3.org/2000/svg">
<path d="M28.5287 17.8537V8.63495C28.5287 8.40895 28.3365 8.22574 28.0993 8.22574C27.8622 8.22574 27.67 8.40895 27.67 8.63495V17.7336H26.6309V5.70118C26.6309 5.428 26.8638 5.20577 27.1501 5.20577C27.4368 5.20577 27.6699 5.428 27.6699 5.70118V6.7253C27.6699 6.95129 27.8621 7.13451 28.0993 7.13451C28.3365 7.13451 28.5286 6.95129 28.5286 6.7253V5.70118C28.5286 4.97672 27.9102 4.38735 27.1501 4.38735C26.3991 4.38735 25.7869 4.96324 25.7729 5.67619H25.0223C24.2387 5.67619 23.6012 6.28379 23.6012 7.03063V13.6321C23.6012 14.3789 24.2387 14.9865 25.0223 14.9865H25.7723V17.7337H20.2292L19.9779 14.3731H21.4279C21.8392 14.3731 22.1736 14.0543 22.1736 13.6624V11.4042C22.1736 11.0123 21.8391 10.6935 21.4279 10.6935H18.2588C18.6296 10.2827 18.8546 9.74898 18.8546 9.16588C18.8546 7.87229 17.7503 6.81986 16.393 6.81986C15.0358 6.81986 13.9315 7.87229 13.9315 9.16588C13.9315 9.74904 14.1564 10.2827 14.5272 10.6935H13.2242V5.95326H13.6152C13.8867 5.95326 14.1301 5.79907 14.2352 5.56042C14.3403 5.32176 14.2852 5.04819 14.0951 4.8635L9.28342 0.192014C9.15593 0.0682692 8.9855 0.00012207 8.80363 0.00012207C8.62175 0.00012207 8.45133 0.0682692 8.32378 0.192014L3.51219 4.86345C3.32196 5.04814 3.26688 5.32171 3.37193 5.56036C3.47704 5.79901 3.7204 5.95326 3.99198 5.95326H4.38286V10.6935H0.745648C0.334497 10.6935 0 11.0122 0 11.4042V13.6624C0 14.0543 0.334497 14.3731 0.745648 14.3731H2.19527L1.96233 17.494C1.9455 17.7194 2.12359 17.9151 2.36014 17.9312C2.37056 17.9319 2.38081 17.9323 2.39105 17.9323C2.61426 17.9323 2.80278 17.7676 2.81892 17.5521L3.05621 14.3731H4.90851L3.20305 26.8781H2.12142L2.67586 19.4617C2.69269 19.2363 2.51465 19.0405 2.27811 19.0245C2.04207 19.0081 1.83615 19.1781 1.81927 19.4036L1.25143 26.9989C1.23746 27.1782 1.30312 27.3566 1.43159 27.4885C1.56034 27.6207 1.74278 27.6965 1.93204 27.6965H3.35808C3.70053 27.6965 3.99146 27.4525 4.03457 27.13L5.77438 14.3731H16.3991L16.8574 17.7336H13.6117C12.8671 17.7336 12.2613 18.311 12.2613 19.0207V19.915C12.2613 20.625 12.8671 21.2026 13.6117 21.2026H14.1119L13.215 26.159C13.1521 26.5057 13.235 26.8549 13.4483 27.1423C13.661 27.4287 13.9776 27.6186 14.3397 27.6771C14.4205 27.6901 14.4971 27.6964 14.5741 27.6964C15.246 27.6964 15.8166 27.2376 15.9308 26.6054L16.9084 21.2026H17.3306L18.1389 27.1289C18.1821 27.4525 18.4731 27.6964 18.8155 27.6964H20.2416C20.4302 27.6964 20.6122 27.621 20.7408 27.4896C20.8694 27.358 20.9356 27.1798 20.9223 27.0001L20.4887 21.2026H24.6629L25.641 26.6053C25.7553 27.2375 26.3256 27.6964 26.9973 27.6964C27.0742 27.6964 27.1509 27.6901 27.2315 27.6771C27.594 27.6186 27.9108 27.4286 28.1236 27.1421C28.337 26.8548 28.4199 26.5057 28.357 26.1592L27.4601 21.2025H27.9597C28.7046 21.2025 29.3107 20.6249 29.3107 19.9149V19.0207C29.3107 18.5046 28.9901 18.0587 28.5287 17.8537ZM25.0223 14.1681C24.7122 14.1681 24.4599 13.9276 24.4599 13.6321V7.03063C24.4599 6.73507 24.7122 6.49462 25.0223 6.49462H25.7723V14.1681H25.0223ZM14.7902 9.16588C14.7902 8.32357 15.5092 7.63828 16.393 7.63828C17.2768 7.63828 17.9958 8.32357 17.9958 9.16588C17.9958 10.0082 17.2768 10.6935 16.393 10.6935C15.5092 10.6935 14.7902 10.0082 14.7902 9.16588ZM8.80357 0.894383L13.1712 5.13478H4.43593L8.80357 0.894383ZM5.24158 5.9532H12.3654V10.6934H10.9566V9.56576C10.9566 8.43427 9.99077 7.51371 8.80357 7.51371C7.61666 7.51371 6.65101 8.43427 6.65101 9.56576V10.6934H5.24158V5.9532ZM7.50972 10.6935V9.56576C7.50972 8.88555 8.09015 8.33213 8.80357 8.33213C9.51727 8.33213 10.0979 8.88555 10.0979 9.56576V10.6934H7.50972V10.6935ZM0.858712 11.5119H21.3149V13.5547H0.858712V11.5119ZM15.0846 26.4666C15.0415 26.705 14.8268 26.8781 14.5741 26.8781C14.5458 26.8781 14.5161 26.8755 14.4831 26.8702C14.2046 26.8252 14.0117 26.5708 14.0612 26.2983L14.9832 21.2026H16.0371L15.0846 26.4666ZM13.6117 20.3842C13.3406 20.3842 13.12 20.1737 13.12 19.915V19.0207C13.12 18.7623 13.3406 18.552 13.6117 18.552H16.9692L17.2191 20.3842H13.6117ZM18.9706 26.8781L17.2651 14.3731H19.1169L20.0522 26.8781H18.9706ZM27.5108 26.2985C27.5597 26.5681 27.3703 26.8247 27.0881 26.8702C27.0553 26.8755 27.0256 26.8781 26.9973 26.8781C26.7449 26.8781 26.5304 26.7051 26.4873 26.4665L25.5344 21.2027H26.5888L27.5108 26.2985ZM28.452 19.915C28.452 20.1737 28.2312 20.3842 27.9597 20.3842H20.4275L20.2904 18.552H27.9597C28.2311 18.552 28.452 18.7623 28.452 19.0207V19.915Z" fill="#C5903A"/>
</svg>
